G04 #@! TF.GenerationSoftware,KiCad,Pcbnew,(5.1.0-rc2-41-g6b3e9b0ed)*
G04 #@! TF.CreationDate,2021-09-28T16:44:10+02:00*
G04 #@! TF.ProjectId,styro_control,73747972-6f5f-4636-9f6e-74726f6c2e6b,rev?*
G04 #@! TF.SameCoordinates,Original*
G04 #@! TF.FileFunction,Legend,Top*
G04 #@! TF.FilePolarity,Positive*
%FSLAX46Y46*%
G04 Gerber Fmt 4.6, Leading zero omitted, Abs format (unit mm)*
G04 Created by KiCad (PCBNEW (5.1.0-rc2-41-g6b3e9b0ed)) date 2021-09-28 16:44:10*
%MOMM*%
%LPD*%
G04 APERTURE LIST*
%ADD10C,0.200000*%
%ADD11C,0.090000*%
%ADD12C,0.120000*%
%ADD13C,0.080000*%
G04 APERTURE END LIST*
D10*
X88615714Y-118665523D02*
X88901428Y-118760761D01*
X89377619Y-118760761D01*
X89568095Y-118665523D01*
X89663333Y-118570285D01*
X89758571Y-118379809D01*
X89758571Y-118189333D01*
X89663333Y-117998857D01*
X89568095Y-117903619D01*
X89377619Y-117808380D01*
X88996666Y-117713142D01*
X88806190Y-117617904D01*
X88710952Y-117522666D01*
X88615714Y-117332190D01*
X88615714Y-117141714D01*
X88710952Y-116951238D01*
X88806190Y-116856000D01*
X88996666Y-116760761D01*
X89472857Y-116760761D01*
X89758571Y-116856000D01*
X90330000Y-116760761D02*
X91472857Y-116760761D01*
X90901428Y-118760761D02*
X90901428Y-116760761D01*
X92520476Y-117808380D02*
X92520476Y-118760761D01*
X91853809Y-116760761D02*
X92520476Y-117808380D01*
X93187142Y-116760761D01*
X94996666Y-118760761D02*
X94330000Y-117808380D01*
X93853809Y-118760761D02*
X93853809Y-116760761D01*
X94615714Y-116760761D01*
X94806190Y-116856000D01*
X94901428Y-116951238D01*
X94996666Y-117141714D01*
X94996666Y-117427428D01*
X94901428Y-117617904D01*
X94806190Y-117713142D01*
X94615714Y-117808380D01*
X93853809Y-117808380D01*
X96234761Y-116760761D02*
X96615714Y-116760761D01*
X96806190Y-116856000D01*
X96996666Y-117046476D01*
X97091904Y-117427428D01*
X97091904Y-118094095D01*
X96996666Y-118475047D01*
X96806190Y-118665523D01*
X96615714Y-118760761D01*
X96234761Y-118760761D01*
X96044285Y-118665523D01*
X95853809Y-118475047D01*
X95758571Y-118094095D01*
X95758571Y-117427428D01*
X95853809Y-117046476D01*
X96044285Y-116856000D01*
X96234761Y-116760761D01*
X97472857Y-118951238D02*
X98996666Y-118951238D01*
X100615714Y-118570285D02*
X100520476Y-118665523D01*
X100234761Y-118760761D01*
X100044285Y-118760761D01*
X99758571Y-118665523D01*
X99568095Y-118475047D01*
X99472857Y-118284571D01*
X99377619Y-117903619D01*
X99377619Y-117617904D01*
X99472857Y-117236952D01*
X99568095Y-117046476D01*
X99758571Y-116856000D01*
X100044285Y-116760761D01*
X100234761Y-116760761D01*
X100520476Y-116856000D01*
X100615714Y-116951238D01*
X101853809Y-116760761D02*
X102234761Y-116760761D01*
X102425238Y-116856000D01*
X102615714Y-117046476D01*
X102710952Y-117427428D01*
X102710952Y-118094095D01*
X102615714Y-118475047D01*
X102425238Y-118665523D01*
X102234761Y-118760761D01*
X101853809Y-118760761D01*
X101663333Y-118665523D01*
X101472857Y-118475047D01*
X101377619Y-118094095D01*
X101377619Y-117427428D01*
X101472857Y-117046476D01*
X101663333Y-116856000D01*
X101853809Y-116760761D01*
X103568095Y-118760761D02*
X103568095Y-116760761D01*
X104710952Y-118760761D01*
X104710952Y-116760761D01*
X105377619Y-116760761D02*
X106520476Y-116760761D01*
X105949047Y-118760761D02*
X105949047Y-116760761D01*
X108330000Y-118760761D02*
X107663333Y-117808380D01*
X107187142Y-118760761D02*
X107187142Y-116760761D01*
X107949047Y-116760761D01*
X108139523Y-116856000D01*
X108234761Y-116951238D01*
X108330000Y-117141714D01*
X108330000Y-117427428D01*
X108234761Y-117617904D01*
X108139523Y-117713142D01*
X107949047Y-117808380D01*
X107187142Y-117808380D01*
X109568095Y-116760761D02*
X109949047Y-116760761D01*
X110139523Y-116856000D01*
X110330000Y-117046476D01*
X110425238Y-117427428D01*
X110425238Y-118094095D01*
X110330000Y-118475047D01*
X110139523Y-118665523D01*
X109949047Y-118760761D01*
X109568095Y-118760761D01*
X109377619Y-118665523D01*
X109187142Y-118475047D01*
X109091904Y-118094095D01*
X109091904Y-117427428D01*
X109187142Y-117046476D01*
X109377619Y-116856000D01*
X109568095Y-116760761D01*
X112234761Y-118760761D02*
X111282380Y-118760761D01*
X111282380Y-116760761D01*
D11*
X139180190Y-71129095D02*
X139273047Y-71160047D01*
X139427809Y-71160047D01*
X139489714Y-71129095D01*
X139520666Y-71098142D01*
X139551619Y-71036238D01*
X139551619Y-70974333D01*
X139520666Y-70912428D01*
X139489714Y-70881476D01*
X139427809Y-70850523D01*
X139304000Y-70819571D01*
X139242095Y-70788619D01*
X139211142Y-70757666D01*
X139180190Y-70695761D01*
X139180190Y-70633857D01*
X139211142Y-70571952D01*
X139242095Y-70541000D01*
X139304000Y-70510047D01*
X139458761Y-70510047D01*
X139551619Y-70541000D01*
X140201619Y-71098142D02*
X140170666Y-71129095D01*
X140077809Y-71160047D01*
X140015904Y-71160047D01*
X139923047Y-71129095D01*
X139861142Y-71067190D01*
X139830190Y-71005285D01*
X139799238Y-70881476D01*
X139799238Y-70788619D01*
X139830190Y-70664809D01*
X139861142Y-70602904D01*
X139923047Y-70541000D01*
X140015904Y-70510047D01*
X140077809Y-70510047D01*
X140170666Y-70541000D01*
X140201619Y-70571952D01*
X140789714Y-71160047D02*
X140480190Y-71160047D01*
X140480190Y-70510047D01*
X141704714Y-71129095D02*
X141797571Y-71160047D01*
X141952333Y-71160047D01*
X142014238Y-71129095D01*
X142045190Y-71098142D01*
X142076142Y-71036238D01*
X142076142Y-70974333D01*
X142045190Y-70912428D01*
X142014238Y-70881476D01*
X141952333Y-70850523D01*
X141828523Y-70819571D01*
X141766619Y-70788619D01*
X141735666Y-70757666D01*
X141704714Y-70695761D01*
X141704714Y-70633857D01*
X141735666Y-70571952D01*
X141766619Y-70541000D01*
X141828523Y-70510047D01*
X141983285Y-70510047D01*
X142076142Y-70541000D01*
X142354714Y-71160047D02*
X142354714Y-70510047D01*
X142509476Y-70510047D01*
X142602333Y-70541000D01*
X142664238Y-70602904D01*
X142695190Y-70664809D01*
X142726142Y-70788619D01*
X142726142Y-70881476D01*
X142695190Y-71005285D01*
X142664238Y-71067190D01*
X142602333Y-71129095D01*
X142509476Y-71160047D01*
X142354714Y-71160047D01*
X142973761Y-70974333D02*
X143283285Y-70974333D01*
X142911857Y-71160047D02*
X143128523Y-70510047D01*
X143345190Y-71160047D01*
X136609238Y-70510047D02*
X137011619Y-70510047D01*
X136794952Y-70757666D01*
X136887809Y-70757666D01*
X136949714Y-70788619D01*
X136980666Y-70819571D01*
X137011619Y-70881476D01*
X137011619Y-71036238D01*
X136980666Y-71098142D01*
X136949714Y-71129095D01*
X136887809Y-71160047D01*
X136702095Y-71160047D01*
X136640190Y-71129095D01*
X136609238Y-71098142D01*
X137197333Y-70510047D02*
X137414000Y-71160047D01*
X137630666Y-70510047D01*
X137785428Y-70510047D02*
X138187809Y-70510047D01*
X137971142Y-70757666D01*
X138064000Y-70757666D01*
X138125904Y-70788619D01*
X138156857Y-70819571D01*
X138187809Y-70881476D01*
X138187809Y-71036238D01*
X138156857Y-71098142D01*
X138125904Y-71129095D01*
X138064000Y-71160047D01*
X137878285Y-71160047D01*
X137816380Y-71129095D01*
X137785428Y-71098142D01*
X130020714Y-71129095D02*
X130113571Y-71160047D01*
X130268333Y-71160047D01*
X130330238Y-71129095D01*
X130361190Y-71098142D01*
X130392142Y-71036238D01*
X130392142Y-70974333D01*
X130361190Y-70912428D01*
X130330238Y-70881476D01*
X130268333Y-70850523D01*
X130144523Y-70819571D01*
X130082619Y-70788619D01*
X130051666Y-70757666D01*
X130020714Y-70695761D01*
X130020714Y-70633857D01*
X130051666Y-70571952D01*
X130082619Y-70541000D01*
X130144523Y-70510047D01*
X130299285Y-70510047D01*
X130392142Y-70541000D01*
X130670714Y-71160047D02*
X130670714Y-70510047D01*
X130825476Y-70510047D01*
X130918333Y-70541000D01*
X130980238Y-70602904D01*
X131011190Y-70664809D01*
X131042142Y-70788619D01*
X131042142Y-70881476D01*
X131011190Y-71005285D01*
X130980238Y-71067190D01*
X130918333Y-71129095D01*
X130825476Y-71160047D01*
X130670714Y-71160047D01*
X131289761Y-70974333D02*
X131599285Y-70974333D01*
X131227857Y-71160047D02*
X131444523Y-70510047D01*
X131661190Y-71160047D01*
X127496190Y-71129095D02*
X127589047Y-71160047D01*
X127743809Y-71160047D01*
X127805714Y-71129095D01*
X127836666Y-71098142D01*
X127867619Y-71036238D01*
X127867619Y-70974333D01*
X127836666Y-70912428D01*
X127805714Y-70881476D01*
X127743809Y-70850523D01*
X127620000Y-70819571D01*
X127558095Y-70788619D01*
X127527142Y-70757666D01*
X127496190Y-70695761D01*
X127496190Y-70633857D01*
X127527142Y-70571952D01*
X127558095Y-70541000D01*
X127620000Y-70510047D01*
X127774761Y-70510047D01*
X127867619Y-70541000D01*
X128517619Y-71098142D02*
X128486666Y-71129095D01*
X128393809Y-71160047D01*
X128331904Y-71160047D01*
X128239047Y-71129095D01*
X128177142Y-71067190D01*
X128146190Y-71005285D01*
X128115238Y-70881476D01*
X128115238Y-70788619D01*
X128146190Y-70664809D01*
X128177142Y-70602904D01*
X128239047Y-70541000D01*
X128331904Y-70510047D01*
X128393809Y-70510047D01*
X128486666Y-70541000D01*
X128517619Y-70571952D01*
X129105714Y-71160047D02*
X128796190Y-71160047D01*
X128796190Y-70510047D01*
X124925238Y-70510047D02*
X125327619Y-70510047D01*
X125110952Y-70757666D01*
X125203809Y-70757666D01*
X125265714Y-70788619D01*
X125296666Y-70819571D01*
X125327619Y-70881476D01*
X125327619Y-71036238D01*
X125296666Y-71098142D01*
X125265714Y-71129095D01*
X125203809Y-71160047D01*
X125018095Y-71160047D01*
X124956190Y-71129095D01*
X124925238Y-71098142D01*
X125513333Y-70510047D02*
X125730000Y-71160047D01*
X125946666Y-70510047D01*
X126101428Y-70510047D02*
X126503809Y-70510047D01*
X126287142Y-70757666D01*
X126380000Y-70757666D01*
X126441904Y-70788619D01*
X126472857Y-70819571D01*
X126503809Y-70881476D01*
X126503809Y-71036238D01*
X126472857Y-71098142D01*
X126441904Y-71129095D01*
X126380000Y-71160047D01*
X126194285Y-71160047D01*
X126132380Y-71129095D01*
X126101428Y-71098142D01*
X122694761Y-70541000D02*
X122632857Y-70510047D01*
X122540000Y-70510047D01*
X122447142Y-70541000D01*
X122385238Y-70602904D01*
X122354285Y-70664809D01*
X122323333Y-70788619D01*
X122323333Y-70881476D01*
X122354285Y-71005285D01*
X122385238Y-71067190D01*
X122447142Y-71129095D01*
X122540000Y-71160047D01*
X122601904Y-71160047D01*
X122694761Y-71129095D01*
X122725714Y-71098142D01*
X122725714Y-70881476D01*
X122601904Y-70881476D01*
X123004285Y-71160047D02*
X123004285Y-70510047D01*
X123375714Y-71160047D01*
X123375714Y-70510047D01*
X123685238Y-71160047D02*
X123685238Y-70510047D01*
X123840000Y-70510047D01*
X123932857Y-70541000D01*
X123994761Y-70602904D01*
X124025714Y-70664809D01*
X124056666Y-70788619D01*
X124056666Y-70881476D01*
X124025714Y-71005285D01*
X123994761Y-71067190D01*
X123932857Y-71129095D01*
X123840000Y-71160047D01*
X123685238Y-71160047D01*
D12*
X135330000Y-72134252D02*
X135330000Y-71611748D01*
X133910000Y-72134252D02*
X133910000Y-71611748D01*
X78902000Y-73000000D02*
X77102000Y-73000000D01*
X73392000Y-73000000D02*
X74852000Y-73000000D01*
X73392000Y-81940000D02*
X74852000Y-81940000D01*
X78902000Y-81940000D02*
X77102000Y-81940000D01*
X73392000Y-81940000D02*
X73392000Y-73000000D01*
X129226000Y-101540000D02*
X130556000Y-101540000D01*
X129226000Y-102870000D02*
X129226000Y-101540000D01*
X129226000Y-104140000D02*
X131886000Y-104140000D01*
X131886000Y-104140000D02*
X131886000Y-106740000D01*
X129226000Y-104140000D02*
X129226000Y-106740000D01*
X129226000Y-106740000D02*
X131886000Y-106740000D01*
X123255721Y-82425000D02*
X123581279Y-82425000D01*
X123255721Y-81405000D02*
X123581279Y-81405000D01*
X132648000Y-83506000D02*
X132648000Y-84836000D01*
X131318000Y-83506000D02*
X132648000Y-83506000D01*
X130048000Y-83506000D02*
X130048000Y-86166000D01*
X130048000Y-86166000D02*
X127448000Y-86166000D01*
X130048000Y-83506000D02*
X127448000Y-83506000D01*
X127448000Y-83506000D02*
X127448000Y-86166000D01*
X89215000Y-76835000D02*
G75*
G03X89215000Y-76835000I-950000J0D01*
G01*
X140417733Y-76329000D02*
X140760267Y-76329000D01*
X140417733Y-75309000D02*
X140760267Y-75309000D01*
X140417733Y-78869000D02*
X140760267Y-78869000D01*
X140417733Y-77849000D02*
X140760267Y-77849000D01*
X85470000Y-95660000D02*
X85470000Y-101060000D01*
X82170000Y-95660000D02*
X82170000Y-101060000D01*
X85470000Y-95660000D02*
X82170000Y-95660000D01*
X91272000Y-111776000D02*
X95122000Y-111776000D01*
X91272000Y-113776000D02*
X95122000Y-113776000D01*
X91272000Y-111776000D02*
X91272000Y-113776000D01*
X106515000Y-104855000D02*
X105515000Y-104855000D01*
X106015000Y-104355000D02*
X106015000Y-105355000D01*
X100309437Y-105595000D02*
X99245000Y-106659437D01*
X106700563Y-105595000D02*
X107765000Y-106659437D01*
X106700563Y-105595000D02*
X105015000Y-105595000D01*
X100309437Y-105595000D02*
X101995000Y-105595000D01*
X99245000Y-106659437D02*
X99245000Y-114115000D01*
X107765000Y-106659437D02*
X107765000Y-114115000D01*
X107765000Y-114115000D02*
X105015000Y-114115000D01*
X99245000Y-114115000D02*
X101995000Y-114115000D01*
X84998779Y-83818000D02*
X84673221Y-83818000D01*
X84998779Y-84838000D02*
X84673221Y-84838000D01*
X98046000Y-100238779D02*
X98046000Y-99913221D01*
X97026000Y-100238779D02*
X97026000Y-99913221D01*
X97026000Y-104231221D02*
X97026000Y-104556779D01*
X98046000Y-104231221D02*
X98046000Y-104556779D01*
X117727000Y-75275221D02*
X117727000Y-75600779D01*
X118747000Y-75275221D02*
X118747000Y-75600779D01*
X110398779Y-81786000D02*
X110073221Y-81786000D01*
X110398779Y-82806000D02*
X110073221Y-82806000D01*
X98931000Y-83911221D02*
X98931000Y-84236779D01*
X99951000Y-83911221D02*
X99951000Y-84236779D01*
X101725000Y-83911221D02*
X101725000Y-84236779D01*
X102745000Y-83911221D02*
X102745000Y-84236779D01*
X98931000Y-80609221D02*
X98931000Y-80934779D01*
X99951000Y-80609221D02*
X99951000Y-80934779D01*
X101725000Y-80609221D02*
X101725000Y-80934779D01*
X102745000Y-80609221D02*
X102745000Y-80934779D01*
X106263221Y-82806000D02*
X106588779Y-82806000D01*
X106263221Y-81786000D02*
X106588779Y-81786000D01*
X106588779Y-84326000D02*
X106263221Y-84326000D01*
X106588779Y-85346000D02*
X106263221Y-85346000D01*
X87374000Y-83403221D02*
X87374000Y-83728779D01*
X88394000Y-83403221D02*
X88394000Y-83728779D01*
X98931000Y-77307221D02*
X98931000Y-77632779D01*
X99951000Y-77307221D02*
X99951000Y-77632779D01*
X162856000Y-104856000D02*
X162856000Y-105356000D01*
X163596000Y-104856000D02*
X162856000Y-104856000D01*
X167835000Y-111420000D02*
X167728000Y-111313000D01*
X170420000Y-114005000D02*
X170030000Y-113614000D01*
X167573000Y-111629000D02*
X167492000Y-111548000D01*
X170185000Y-114240000D02*
X169835000Y-113890000D01*
X170420000Y-108925000D02*
X170205000Y-108709000D01*
X174216000Y-115376000D02*
X163096000Y-115376000D01*
X174216000Y-105096000D02*
X163096000Y-105096000D01*
X163096000Y-105096000D02*
X163096000Y-115376000D01*
X174216000Y-105096000D02*
X174216000Y-115376000D01*
X172356000Y-105096000D02*
X172356000Y-115376000D01*
X166156000Y-105096000D02*
X166156000Y-115376000D01*
X163656000Y-105096000D02*
X163656000Y-115376000D01*
X170886000Y-112776000D02*
G75*
G03X170886000Y-112776000I-1930000J0D01*
G01*
X167025664Y-107729269D02*
G75*
G02X167120000Y-107099000I1930336J33269D01*
G01*
X167767825Y-106174355D02*
G75*
G02X170145000Y-106175000I1188175J-1521645D01*
G01*
X170170609Y-106195683D02*
G75*
G02X170171000Y-109196000I-1214609J-1500317D01*
G01*
X170144175Y-109217645D02*
G75*
G02X167767000Y-109217000I-1188175J1521645D01*
G01*
X167120461Y-108292403D02*
G75*
G02X167026000Y-107696000I1835539J596403D01*
G01*
X129226000Y-110684000D02*
X130556000Y-110684000D01*
X129226000Y-112014000D02*
X129226000Y-110684000D01*
X129226000Y-113284000D02*
X131886000Y-113284000D01*
X131886000Y-113284000D02*
X131886000Y-115884000D01*
X129226000Y-113284000D02*
X129226000Y-115884000D01*
X129226000Y-115884000D02*
X131886000Y-115884000D01*
X138162000Y-76414000D02*
X138162000Y-77764000D01*
X136412000Y-76414000D02*
X136412000Y-77764000D01*
X89677000Y-104437000D02*
X89677000Y-105837000D01*
X94777000Y-104437000D02*
X94777000Y-100287000D01*
X89627000Y-104437000D02*
X89627000Y-100287000D01*
X94777000Y-104437000D02*
X94632000Y-104437000D01*
X94777000Y-100287000D02*
X94632000Y-100287000D01*
X89627000Y-100287000D02*
X89772000Y-100287000D01*
X89627000Y-104437000D02*
X89677000Y-104437000D01*
X131040000Y-78175000D02*
X131515000Y-78175000D01*
X126295000Y-72955000D02*
X126295000Y-73430000D01*
X126770000Y-72955000D02*
X126295000Y-72955000D01*
X131515000Y-72955000D02*
X131515000Y-73430000D01*
X131040000Y-72955000D02*
X131515000Y-72955000D01*
X126295000Y-78175000D02*
X126295000Y-77700000D01*
X126770000Y-78175000D02*
X126295000Y-78175000D01*
X91837000Y-78154000D02*
X91362000Y-78154000D01*
X95582000Y-82374000D02*
X95582000Y-81899000D01*
X95107000Y-82374000D02*
X95582000Y-82374000D01*
X91362000Y-82374000D02*
X91362000Y-81899000D01*
X91837000Y-82374000D02*
X91362000Y-82374000D01*
X95582000Y-78154000D02*
X95582000Y-78629000D01*
X95107000Y-78154000D02*
X95582000Y-78154000D01*
X105090000Y-73025000D02*
G75*
G03X105090000Y-73025000I-950000J0D01*
G01*
X86040000Y-76835000D02*
G75*
G03X86040000Y-76835000I-950000J0D01*
G01*
X101280000Y-73025000D02*
G75*
G03X101280000Y-73025000I-950000J0D01*
G01*
X138035000Y-83355000D02*
X140095000Y-83355000D01*
X138035000Y-88095000D02*
X140095000Y-88095000D01*
X136695000Y-88095000D02*
X137095000Y-88095000D01*
X136695000Y-83355000D02*
X136695000Y-88095000D01*
X136695000Y-83355000D02*
X137095000Y-83355000D01*
X141435000Y-88095000D02*
X141035000Y-88095000D01*
X141435000Y-83355000D02*
X141035000Y-83355000D01*
X141435000Y-83355000D02*
X141435000Y-88095000D01*
X147936252Y-97306500D02*
X147413748Y-97306500D01*
X147936252Y-98726500D02*
X147413748Y-98726500D01*
X148015252Y-108290000D02*
X147492748Y-108290000D01*
X148015252Y-109710000D02*
X147492748Y-109710000D01*
X148009752Y-86257500D02*
X147487248Y-86257500D01*
X148009752Y-87677500D02*
X147487248Y-87677500D01*
X148080252Y-74982000D02*
X147557748Y-74982000D01*
X148080252Y-76402000D02*
X147557748Y-76402000D01*
X147936252Y-94766500D02*
X147413748Y-94766500D01*
X147936252Y-96186500D02*
X147413748Y-96186500D01*
X148015252Y-105750000D02*
X147492748Y-105750000D01*
X148015252Y-107170000D02*
X147492748Y-107170000D01*
X148009752Y-83717500D02*
X147487248Y-83717500D01*
X148009752Y-85137500D02*
X147487248Y-85137500D01*
X148080252Y-72442000D02*
X147557748Y-72442000D01*
X148080252Y-73862000D02*
X147557748Y-73862000D01*
X159224748Y-96186500D02*
X159747252Y-96186500D01*
X159224748Y-94766500D02*
X159747252Y-94766500D01*
X152508252Y-94766500D02*
X151985748Y-94766500D01*
X152508252Y-96186500D02*
X151985748Y-96186500D01*
X91568748Y-96595000D02*
X92091252Y-96595000D01*
X91568748Y-95175000D02*
X92091252Y-95175000D01*
X159303748Y-107170000D02*
X159826252Y-107170000D01*
X159303748Y-105750000D02*
X159826252Y-105750000D01*
X152587252Y-105750000D02*
X152064748Y-105750000D01*
X152587252Y-107170000D02*
X152064748Y-107170000D01*
X159298248Y-85137500D02*
X159820752Y-85137500D01*
X159298248Y-83717500D02*
X159820752Y-83717500D01*
X152581752Y-83717500D02*
X152059248Y-83717500D01*
X152581752Y-85137500D02*
X152059248Y-85137500D01*
X159368748Y-73862000D02*
X159891252Y-73862000D01*
X159368748Y-72442000D02*
X159891252Y-72442000D01*
X152652252Y-72442000D02*
X152129748Y-72442000D01*
X152652252Y-73862000D02*
X152129748Y-73862000D01*
X153372500Y-103613000D02*
X152272500Y-103613000D01*
X153372500Y-103883000D02*
X153372500Y-103613000D01*
X154872500Y-103883000D02*
X153372500Y-103883000D01*
X153372500Y-97253000D02*
X150542500Y-97253000D01*
X153372500Y-96983000D02*
X153372500Y-97253000D01*
X154872500Y-96983000D02*
X153372500Y-96983000D01*
X147936000Y-103152500D02*
X146476000Y-103152500D01*
X147936000Y-99992500D02*
X144776000Y-99992500D01*
X147936000Y-99992500D02*
X147936000Y-100922500D01*
X147936000Y-103152500D02*
X147936000Y-102222500D01*
X153451500Y-114596500D02*
X152351500Y-114596500D01*
X153451500Y-114866500D02*
X153451500Y-114596500D01*
X154951500Y-114866500D02*
X153451500Y-114866500D01*
X153451500Y-108236500D02*
X150621500Y-108236500D01*
X153451500Y-107966500D02*
X153451500Y-108236500D01*
X154951500Y-107966500D02*
X153451500Y-107966500D01*
X148015000Y-114136000D02*
X146555000Y-114136000D01*
X148015000Y-110976000D02*
X144855000Y-110976000D01*
X148015000Y-110976000D02*
X148015000Y-111906000D01*
X148015000Y-114136000D02*
X148015000Y-113206000D01*
X153446000Y-92564000D02*
X152346000Y-92564000D01*
X153446000Y-92834000D02*
X153446000Y-92564000D01*
X154946000Y-92834000D02*
X153446000Y-92834000D01*
X153446000Y-86204000D02*
X150616000Y-86204000D01*
X153446000Y-85934000D02*
X153446000Y-86204000D01*
X154946000Y-85934000D02*
X153446000Y-85934000D01*
X148009500Y-92103500D02*
X146549500Y-92103500D01*
X148009500Y-88943500D02*
X144849500Y-88943500D01*
X148009500Y-88943500D02*
X148009500Y-89873500D01*
X148009500Y-92103500D02*
X148009500Y-91173500D01*
X153516500Y-81288500D02*
X152416500Y-81288500D01*
X153516500Y-81558500D02*
X153516500Y-81288500D01*
X155016500Y-81558500D02*
X153516500Y-81558500D01*
X153516500Y-74928500D02*
X150686500Y-74928500D01*
X153516500Y-74658500D02*
X153516500Y-74928500D01*
X155016500Y-74658500D02*
X153516500Y-74658500D01*
X148080000Y-80828000D02*
X146620000Y-80828000D01*
X148080000Y-77668000D02*
X144920000Y-77668000D01*
X148080000Y-77668000D02*
X148080000Y-78598000D01*
X148080000Y-80828000D02*
X148080000Y-79898000D01*
X106822000Y-77767000D02*
X106822000Y-79167000D01*
X111922000Y-77767000D02*
X111922000Y-73617000D01*
X106772000Y-77767000D02*
X106772000Y-73617000D01*
X111922000Y-77767000D02*
X111777000Y-77767000D01*
X111922000Y-73617000D02*
X111777000Y-73617000D01*
X106772000Y-73617000D02*
X106917000Y-73617000D01*
X106772000Y-77767000D02*
X106822000Y-77767000D01*
X107205000Y-95140000D02*
X104905000Y-95140000D01*
X107205000Y-87740000D02*
X107205000Y-95140000D01*
X104905000Y-87740000D02*
X107205000Y-87740000D01*
X99805000Y-87740000D02*
X102105000Y-87740000D01*
X99805000Y-95140000D02*
X99805000Y-87740000D01*
X102105000Y-95140000D02*
X99805000Y-95140000D01*
X140930000Y-119659000D02*
X140930000Y-121659000D01*
X135930000Y-119659000D02*
X135930000Y-121659000D01*
X135930000Y-121659000D02*
X140930000Y-121659000D01*
X140930000Y-119659000D02*
X141530000Y-119659000D01*
X135330000Y-119659000D02*
X135930000Y-119659000D01*
X141530000Y-107559000D02*
X135330000Y-107559000D01*
X135330000Y-119659000D02*
X135330000Y-117284000D01*
X135330000Y-115634000D02*
X135330000Y-114284000D01*
X135330000Y-112634000D02*
X135330000Y-110234000D01*
X135330000Y-108684000D02*
X135330000Y-107559000D01*
X141530000Y-109134000D02*
X141530000Y-119659000D01*
X135330000Y-108684000D02*
X133930000Y-108684000D01*
X135330000Y-110234000D02*
X133930000Y-110234000D01*
X118177000Y-104327000D02*
X118177000Y-102997000D01*
X119507000Y-104327000D02*
X118177000Y-104327000D01*
X120777000Y-104327000D02*
X120777000Y-101667000D01*
X120777000Y-101667000D02*
X125917000Y-101667000D01*
X120777000Y-104327000D02*
X125917000Y-104327000D01*
X125917000Y-104327000D02*
X125917000Y-101667000D01*
X123123000Y-118424000D02*
X121793000Y-118424000D01*
X123123000Y-117094000D02*
X123123000Y-118424000D01*
X123123000Y-115824000D02*
X120463000Y-115824000D01*
X120463000Y-115824000D02*
X120463000Y-110684000D01*
X123123000Y-115824000D02*
X123123000Y-110684000D01*
X123123000Y-110684000D02*
X120463000Y-110684000D01*
X126933000Y-118424000D02*
X125603000Y-118424000D01*
X126933000Y-117094000D02*
X126933000Y-118424000D01*
X126933000Y-115824000D02*
X124273000Y-115824000D01*
X124273000Y-115824000D02*
X124273000Y-110684000D01*
X126933000Y-115824000D02*
X126933000Y-110684000D01*
X126933000Y-110684000D02*
X124273000Y-110684000D01*
X119313000Y-118424000D02*
X117983000Y-118424000D01*
X119313000Y-117094000D02*
X119313000Y-118424000D01*
X119313000Y-115824000D02*
X116653000Y-115824000D01*
X116653000Y-115824000D02*
X116653000Y-110684000D01*
X119313000Y-115824000D02*
X119313000Y-110684000D01*
X119313000Y-110684000D02*
X116653000Y-110684000D01*
X133290000Y-69910000D02*
X133290000Y-68580000D01*
X134620000Y-69910000D02*
X133290000Y-69910000D01*
X135890000Y-69910000D02*
X135890000Y-67250000D01*
X135890000Y-67250000D02*
X143570000Y-67250000D01*
X135890000Y-69910000D02*
X143570000Y-69910000D01*
X143570000Y-69910000D02*
X143570000Y-67250000D01*
X121860000Y-69910000D02*
X121860000Y-68580000D01*
X123190000Y-69910000D02*
X121860000Y-69910000D01*
X124460000Y-69910000D02*
X124460000Y-67250000D01*
X124460000Y-67250000D02*
X132140000Y-67250000D01*
X124460000Y-69910000D02*
X132140000Y-69910000D01*
X132140000Y-69910000D02*
X132140000Y-67250000D01*
X162856000Y-71328000D02*
X162856000Y-71828000D01*
X163596000Y-71328000D02*
X162856000Y-71328000D01*
X167835000Y-77892000D02*
X167728000Y-77785000D01*
X170420000Y-80477000D02*
X170030000Y-80086000D01*
X167573000Y-78101000D02*
X167492000Y-78020000D01*
X170185000Y-80712000D02*
X169835000Y-80362000D01*
X170420000Y-75397000D02*
X170205000Y-75181000D01*
X174216000Y-81848000D02*
X163096000Y-81848000D01*
X174216000Y-71568000D02*
X163096000Y-71568000D01*
X163096000Y-71568000D02*
X163096000Y-81848000D01*
X174216000Y-71568000D02*
X174216000Y-81848000D01*
X172356000Y-71568000D02*
X172356000Y-81848000D01*
X166156000Y-71568000D02*
X166156000Y-81848000D01*
X163656000Y-71568000D02*
X163656000Y-81848000D01*
X170886000Y-79248000D02*
G75*
G03X170886000Y-79248000I-1930000J0D01*
G01*
X167025664Y-74201269D02*
G75*
G02X167120000Y-73571000I1930336J33269D01*
G01*
X167767825Y-72646355D02*
G75*
G02X170145000Y-72647000I1188175J-1521645D01*
G01*
X170170609Y-72667683D02*
G75*
G02X170171000Y-75668000I-1214609J-1500317D01*
G01*
X170144175Y-75689645D02*
G75*
G02X167767000Y-75689000I-1188175J1521645D01*
G01*
X167120461Y-74764403D02*
G75*
G02X167026000Y-74168000I1835539J596403D01*
G01*
X162856000Y-93680000D02*
X162856000Y-94180000D01*
X163596000Y-93680000D02*
X162856000Y-93680000D01*
X167835000Y-100244000D02*
X167728000Y-100137000D01*
X170420000Y-102829000D02*
X170030000Y-102438000D01*
X167573000Y-100453000D02*
X167492000Y-100372000D01*
X170185000Y-103064000D02*
X169835000Y-102714000D01*
X170420000Y-97749000D02*
X170205000Y-97533000D01*
X174216000Y-104200000D02*
X163096000Y-104200000D01*
X174216000Y-93920000D02*
X163096000Y-93920000D01*
X163096000Y-93920000D02*
X163096000Y-104200000D01*
X174216000Y-93920000D02*
X174216000Y-104200000D01*
X172356000Y-93920000D02*
X172356000Y-104200000D01*
X166156000Y-93920000D02*
X166156000Y-104200000D01*
X163656000Y-93920000D02*
X163656000Y-104200000D01*
X170886000Y-101600000D02*
G75*
G03X170886000Y-101600000I-1930000J0D01*
G01*
X167025664Y-96553269D02*
G75*
G02X167120000Y-95923000I1930336J33269D01*
G01*
X167767825Y-94998355D02*
G75*
G02X170145000Y-94999000I1188175J-1521645D01*
G01*
X170170609Y-95019683D02*
G75*
G02X170171000Y-98020000I-1214609J-1500317D01*
G01*
X170144175Y-98041645D02*
G75*
G02X167767000Y-98041000I-1188175J1521645D01*
G01*
X167120461Y-97116403D02*
G75*
G02X167026000Y-96520000I1835539J596403D01*
G01*
X162856000Y-82504000D02*
X162856000Y-83004000D01*
X163596000Y-82504000D02*
X162856000Y-82504000D01*
X167835000Y-89068000D02*
X167728000Y-88961000D01*
X170420000Y-91653000D02*
X170030000Y-91262000D01*
X167573000Y-89277000D02*
X167492000Y-89196000D01*
X170185000Y-91888000D02*
X169835000Y-91538000D01*
X170420000Y-86573000D02*
X170205000Y-86357000D01*
X174216000Y-93024000D02*
X163096000Y-93024000D01*
X174216000Y-82744000D02*
X163096000Y-82744000D01*
X163096000Y-82744000D02*
X163096000Y-93024000D01*
X174216000Y-82744000D02*
X174216000Y-93024000D01*
X172356000Y-82744000D02*
X172356000Y-93024000D01*
X166156000Y-82744000D02*
X166156000Y-93024000D01*
X163656000Y-82744000D02*
X163656000Y-93024000D01*
X170886000Y-90424000D02*
G75*
G03X170886000Y-90424000I-1930000J0D01*
G01*
X167025664Y-85377269D02*
G75*
G02X167120000Y-84747000I1930336J33269D01*
G01*
X167767825Y-83822355D02*
G75*
G02X170145000Y-83823000I1188175J-1521645D01*
G01*
X170170609Y-83843683D02*
G75*
G02X170171000Y-86844000I-1214609J-1500317D01*
G01*
X170144175Y-86865645D02*
G75*
G02X167767000Y-86865000I-1188175J1521645D01*
G01*
X167120461Y-85940403D02*
G75*
G02X167026000Y-85344000I1835539J596403D01*
G01*
X85640000Y-103985000D02*
X85640000Y-106585000D01*
X70940000Y-103985000D02*
X85640000Y-103985000D01*
X85640000Y-113185000D02*
X83740000Y-113185000D01*
X85640000Y-110485000D02*
X85640000Y-113185000D01*
X70940000Y-113185000D02*
X70940000Y-103985000D01*
X79740000Y-113185000D02*
X70940000Y-113185000D01*
X84790000Y-103785000D02*
X85840000Y-103785000D01*
X85840000Y-104835000D02*
X85840000Y-103785000D01*
X120750000Y-73938000D02*
G75*
G03X120750000Y-73938000I-100000J0D01*
G01*
X119930000Y-74638000D02*
X119930000Y-76238000D01*
X121370000Y-74638000D02*
X121370000Y-76238000D01*
X96480000Y-92870000D02*
X91480000Y-92870000D01*
X90380000Y-88570000D02*
X90380000Y-87470000D01*
X90380000Y-87470000D02*
X96480000Y-87470000D01*
X86243000Y-78542500D02*
X86243000Y-79192000D01*
X86243000Y-80969500D02*
X86243000Y-80320000D01*
X89068000Y-80756000D02*
G75*
G03X89068000Y-80756000I-100000J0D01*
G01*
X87493000Y-78542500D02*
X86243000Y-78542500D01*
X87493000Y-80969500D02*
X86243000Y-80969500D01*
X87730000Y-74779000D02*
G75*
G03X87730000Y-74779000I-100000J0D01*
G01*
X88350000Y-74079000D02*
X88350000Y-72479000D01*
X86910000Y-74079000D02*
X86910000Y-72479000D01*
X93210748Y-109930000D02*
X93733252Y-109930000D01*
X93210748Y-108510000D02*
X93733252Y-108510000D01*
X86915000Y-93180000D02*
X86915000Y-92180000D01*
X87415000Y-92680000D02*
X86415000Y-92680000D01*
X86175000Y-86974437D02*
X85110563Y-85910000D01*
X86175000Y-93365563D02*
X85110563Y-94430000D01*
X86175000Y-93365563D02*
X86175000Y-91680000D01*
X86175000Y-86974437D02*
X86175000Y-88660000D01*
X85110563Y-85910000D02*
X77655000Y-85910000D01*
X85110563Y-94430000D02*
X77655000Y-94430000D01*
X77655000Y-94430000D02*
X77655000Y-91680000D01*
X77655000Y-85910000D02*
X77655000Y-88660000D01*
X129284252Y-81078000D02*
X128761748Y-81078000D01*
X129284252Y-82498000D02*
X128761748Y-82498000D01*
X114733000Y-75176748D02*
X114733000Y-75699252D01*
X116153000Y-75176748D02*
X116153000Y-75699252D01*
X96468000Y-73540252D02*
X96468000Y-73017748D01*
X95048000Y-73540252D02*
X95048000Y-73017748D01*
X90880000Y-73540252D02*
X90880000Y-73017748D01*
X89460000Y-73540252D02*
X89460000Y-73017748D01*
X92254000Y-73017748D02*
X92254000Y-73540252D01*
X93674000Y-73017748D02*
X93674000Y-73540252D01*
D13*
X133202142Y-72290857D02*
X133233095Y-72321809D01*
X133264047Y-72414666D01*
X133264047Y-72476571D01*
X133233095Y-72569428D01*
X133171190Y-72631333D01*
X133109285Y-72662285D01*
X132985476Y-72693238D01*
X132892619Y-72693238D01*
X132768809Y-72662285D01*
X132706904Y-72631333D01*
X132645000Y-72569428D01*
X132614047Y-72476571D01*
X132614047Y-72414666D01*
X132645000Y-72321809D01*
X132675952Y-72290857D01*
X133264047Y-71671809D02*
X133264047Y-72043238D01*
X133264047Y-71857523D02*
X132614047Y-71857523D01*
X132706904Y-71919428D01*
X132768809Y-71981333D01*
X132799761Y-72043238D01*
X132675952Y-71424190D02*
X132645000Y-71393238D01*
X132614047Y-71331333D01*
X132614047Y-71176571D01*
X132645000Y-71114666D01*
X132675952Y-71083714D01*
X132737857Y-71052761D01*
X132799761Y-71052761D01*
X132892619Y-71083714D01*
X133264047Y-71455142D01*
X133264047Y-71052761D01*
D11*
X78130047Y-79172380D02*
X78656238Y-79172380D01*
X78718142Y-79141428D01*
X78749095Y-79110476D01*
X78780047Y-79048571D01*
X78780047Y-78924761D01*
X78749095Y-78862857D01*
X78718142Y-78831904D01*
X78656238Y-78800952D01*
X78130047Y-78800952D01*
X78749095Y-78522380D02*
X78780047Y-78429523D01*
X78780047Y-78274761D01*
X78749095Y-78212857D01*
X78718142Y-78181904D01*
X78656238Y-78150952D01*
X78594333Y-78150952D01*
X78532428Y-78181904D01*
X78501476Y-78212857D01*
X78470523Y-78274761D01*
X78439571Y-78398571D01*
X78408619Y-78460476D01*
X78377666Y-78491428D01*
X78315761Y-78522380D01*
X78253857Y-78522380D01*
X78191952Y-78491428D01*
X78161000Y-78460476D01*
X78130047Y-78398571D01*
X78130047Y-78243809D01*
X78161000Y-78150952D01*
X78439571Y-77655714D02*
X78470523Y-77562857D01*
X78501476Y-77531904D01*
X78563380Y-77500952D01*
X78656238Y-77500952D01*
X78718142Y-77531904D01*
X78749095Y-77562857D01*
X78780047Y-77624761D01*
X78780047Y-77872380D01*
X78130047Y-77872380D01*
X78130047Y-77655714D01*
X78161000Y-77593809D01*
X78191952Y-77562857D01*
X78253857Y-77531904D01*
X78315761Y-77531904D01*
X78377666Y-77562857D01*
X78408619Y-77593809D01*
X78439571Y-77655714D01*
X78439571Y-77872380D01*
X78841952Y-77377142D02*
X78841952Y-76881904D01*
X78718142Y-76355714D02*
X78749095Y-76386666D01*
X78780047Y-76479523D01*
X78780047Y-76541428D01*
X78749095Y-76634285D01*
X78687190Y-76696190D01*
X78625285Y-76727142D01*
X78501476Y-76758095D01*
X78408619Y-76758095D01*
X78284809Y-76727142D01*
X78222904Y-76696190D01*
X78161000Y-76634285D01*
X78130047Y-76541428D01*
X78130047Y-76479523D01*
X78161000Y-76386666D01*
X78191952Y-76355714D01*
X78780047Y-75736666D02*
X78780047Y-76108095D01*
X78780047Y-75922380D02*
X78130047Y-75922380D01*
X78222904Y-75984285D01*
X78284809Y-76046190D01*
X78315761Y-76108095D01*
X130339333Y-100184047D02*
X130339333Y-100648333D01*
X130308380Y-100741190D01*
X130246476Y-100803095D01*
X130153619Y-100834047D01*
X130091714Y-100834047D01*
X130586952Y-100184047D02*
X130989333Y-100184047D01*
X130772666Y-100431666D01*
X130865523Y-100431666D01*
X130927428Y-100462619D01*
X130958380Y-100493571D01*
X130989333Y-100555476D01*
X130989333Y-100710238D01*
X130958380Y-100772142D01*
X130927428Y-100803095D01*
X130865523Y-100834047D01*
X130679809Y-100834047D01*
X130617904Y-100803095D01*
X130586952Y-100772142D01*
X125998547Y-82332857D02*
X125689023Y-82549523D01*
X125998547Y-82704285D02*
X125348547Y-82704285D01*
X125348547Y-82456666D01*
X125379500Y-82394761D01*
X125410452Y-82363809D01*
X125472357Y-82332857D01*
X125565214Y-82332857D01*
X125627119Y-82363809D01*
X125658071Y-82394761D01*
X125689023Y-82456666D01*
X125689023Y-82704285D01*
X125348547Y-82116190D02*
X125348547Y-81713809D01*
X125596166Y-81930476D01*
X125596166Y-81837619D01*
X125627119Y-81775714D01*
X125658071Y-81744761D01*
X125719976Y-81713809D01*
X125874738Y-81713809D01*
X125936642Y-81744761D01*
X125967595Y-81775714D01*
X125998547Y-81837619D01*
X125998547Y-82023333D01*
X125967595Y-82085238D01*
X125936642Y-82116190D01*
X125627119Y-81342380D02*
X125596166Y-81404285D01*
X125565214Y-81435238D01*
X125503309Y-81466190D01*
X125472357Y-81466190D01*
X125410452Y-81435238D01*
X125379500Y-81404285D01*
X125348547Y-81342380D01*
X125348547Y-81218571D01*
X125379500Y-81156666D01*
X125410452Y-81125714D01*
X125472357Y-81094761D01*
X125503309Y-81094761D01*
X125565214Y-81125714D01*
X125596166Y-81156666D01*
X125627119Y-81218571D01*
X125627119Y-81342380D01*
X125658071Y-81404285D01*
X125689023Y-81435238D01*
X125750928Y-81466190D01*
X125874738Y-81466190D01*
X125936642Y-81435238D01*
X125967595Y-81404285D01*
X125998547Y-81342380D01*
X125998547Y-81218571D01*
X125967595Y-81156666D01*
X125936642Y-81125714D01*
X125874738Y-81094761D01*
X125750928Y-81094761D01*
X125689023Y-81125714D01*
X125658071Y-81156666D01*
X125627119Y-81218571D01*
X133292047Y-85052666D02*
X133756333Y-85052666D01*
X133849190Y-85083619D01*
X133911095Y-85145523D01*
X133942047Y-85238380D01*
X133942047Y-85300285D01*
X133508714Y-84464571D02*
X133942047Y-84464571D01*
X133261095Y-84619333D02*
X133725380Y-84774095D01*
X133725380Y-84371714D01*
X89814047Y-77655238D02*
X89814047Y-77283809D01*
X90464047Y-77469523D02*
X89814047Y-77469523D01*
X90464047Y-77067142D02*
X89814047Y-77067142D01*
X89814047Y-76819523D01*
X89845000Y-76757619D01*
X89875952Y-76726666D01*
X89937857Y-76695714D01*
X90030714Y-76695714D01*
X90092619Y-76726666D01*
X90123571Y-76757619D01*
X90154523Y-76819523D01*
X90154523Y-77067142D01*
X90464047Y-76076666D02*
X90464047Y-76448095D01*
X90464047Y-76262380D02*
X89814047Y-76262380D01*
X89906904Y-76324285D01*
X89968809Y-76386190D01*
X89999761Y-76448095D01*
X143107142Y-75927333D02*
X143138095Y-75958285D01*
X143169047Y-76051142D01*
X143169047Y-76113047D01*
X143138095Y-76205904D01*
X143076190Y-76267809D01*
X143014285Y-76298761D01*
X142890476Y-76329714D01*
X142797619Y-76329714D01*
X142673809Y-76298761D01*
X142611904Y-76267809D01*
X142550000Y-76205904D01*
X142519047Y-76113047D01*
X142519047Y-76051142D01*
X142550000Y-75958285D01*
X142580952Y-75927333D01*
X142519047Y-75710666D02*
X142519047Y-75277333D01*
X143169047Y-75555904D01*
X143107142Y-78467333D02*
X143138095Y-78498285D01*
X143169047Y-78591142D01*
X143169047Y-78653047D01*
X143138095Y-78745904D01*
X143076190Y-78807809D01*
X143014285Y-78838761D01*
X142890476Y-78869714D01*
X142797619Y-78869714D01*
X142673809Y-78838761D01*
X142611904Y-78807809D01*
X142550000Y-78745904D01*
X142519047Y-78653047D01*
X142519047Y-78591142D01*
X142550000Y-78498285D01*
X142580952Y-78467333D01*
X142519047Y-77910190D02*
X142519047Y-78034000D01*
X142550000Y-78095904D01*
X142580952Y-78126857D01*
X142673809Y-78188761D01*
X142797619Y-78219714D01*
X143045238Y-78219714D01*
X143107142Y-78188761D01*
X143138095Y-78157809D01*
X143169047Y-78095904D01*
X143169047Y-77972095D01*
X143138095Y-77910190D01*
X143107142Y-77879238D01*
X143045238Y-77848285D01*
X142890476Y-77848285D01*
X142828571Y-77879238D01*
X142797619Y-77910190D01*
X142766666Y-77972095D01*
X142766666Y-78095904D01*
X142797619Y-78157809D01*
X142828571Y-78188761D01*
X142890476Y-78219714D01*
X86614047Y-99539761D02*
X85964047Y-99539761D01*
X85964047Y-99385000D01*
X85995000Y-99292142D01*
X86056904Y-99230238D01*
X86118809Y-99199285D01*
X86242619Y-99168333D01*
X86335476Y-99168333D01*
X86459285Y-99199285D01*
X86521190Y-99230238D01*
X86583095Y-99292142D01*
X86614047Y-99385000D01*
X86614047Y-99539761D01*
X85964047Y-98611190D02*
X85964047Y-98735000D01*
X85995000Y-98796904D01*
X86025952Y-98827857D01*
X86118809Y-98889761D01*
X86242619Y-98920714D01*
X86490238Y-98920714D01*
X86552142Y-98889761D01*
X86583095Y-98858809D01*
X86614047Y-98796904D01*
X86614047Y-98673095D01*
X86583095Y-98611190D01*
X86552142Y-98580238D01*
X86490238Y-98549285D01*
X86335476Y-98549285D01*
X86273571Y-98580238D01*
X86242619Y-98611190D01*
X86211666Y-98673095D01*
X86211666Y-98796904D01*
X86242619Y-98858809D01*
X86273571Y-98889761D01*
X86335476Y-98920714D01*
X97068047Y-113255761D02*
X96418047Y-113255761D01*
X96418047Y-113101000D01*
X96449000Y-113008142D01*
X96510904Y-112946238D01*
X96572809Y-112915285D01*
X96696619Y-112884333D01*
X96789476Y-112884333D01*
X96913285Y-112915285D01*
X96975190Y-112946238D01*
X97037095Y-113008142D01*
X97068047Y-113101000D01*
X97068047Y-113255761D01*
X96418047Y-112667666D02*
X96418047Y-112234333D01*
X97068047Y-112512904D01*
X108937142Y-110272857D02*
X108968095Y-110303809D01*
X108999047Y-110396666D01*
X108999047Y-110458571D01*
X108968095Y-110551428D01*
X108906190Y-110613333D01*
X108844285Y-110644285D01*
X108720476Y-110675238D01*
X108627619Y-110675238D01*
X108503809Y-110644285D01*
X108441904Y-110613333D01*
X108380000Y-110551428D01*
X108349047Y-110458571D01*
X108349047Y-110396666D01*
X108380000Y-110303809D01*
X108410952Y-110272857D01*
X108999047Y-109653809D02*
X108999047Y-110025238D01*
X108999047Y-109839523D02*
X108349047Y-109839523D01*
X108441904Y-109901428D01*
X108503809Y-109963333D01*
X108534761Y-110025238D01*
X108349047Y-109096666D02*
X108349047Y-109220476D01*
X108380000Y-109282380D01*
X108410952Y-109313333D01*
X108503809Y-109375238D01*
X108627619Y-109406190D01*
X108875238Y-109406190D01*
X108937142Y-109375238D01*
X108968095Y-109344285D01*
X108999047Y-109282380D01*
X108999047Y-109158571D01*
X108968095Y-109096666D01*
X108937142Y-109065714D01*
X108875238Y-109034761D01*
X108720476Y-109034761D01*
X108658571Y-109065714D01*
X108627619Y-109096666D01*
X108596666Y-109158571D01*
X108596666Y-109282380D01*
X108627619Y-109344285D01*
X108658571Y-109375238D01*
X108720476Y-109406190D01*
X81497142Y-84749047D02*
X81280476Y-84439523D01*
X81125714Y-84749047D02*
X81125714Y-84099047D01*
X81373333Y-84099047D01*
X81435238Y-84130000D01*
X81466190Y-84160952D01*
X81497142Y-84222857D01*
X81497142Y-84315714D01*
X81466190Y-84377619D01*
X81435238Y-84408571D01*
X81373333Y-84439523D01*
X81125714Y-84439523D01*
X81713809Y-84099047D02*
X82116190Y-84099047D01*
X81899523Y-84346666D01*
X81992380Y-84346666D01*
X82054285Y-84377619D01*
X82085238Y-84408571D01*
X82116190Y-84470476D01*
X82116190Y-84625238D01*
X82085238Y-84687142D01*
X82054285Y-84718095D01*
X81992380Y-84749047D01*
X81806666Y-84749047D01*
X81744761Y-84718095D01*
X81713809Y-84687142D01*
X82332857Y-84099047D02*
X82766190Y-84099047D01*
X82487619Y-84749047D01*
X99354047Y-100493857D02*
X99044523Y-100710523D01*
X99354047Y-100865285D02*
X98704047Y-100865285D01*
X98704047Y-100617666D01*
X98735000Y-100555761D01*
X98765952Y-100524809D01*
X98827857Y-100493857D01*
X98920714Y-100493857D01*
X98982619Y-100524809D01*
X99013571Y-100555761D01*
X99044523Y-100617666D01*
X99044523Y-100865285D01*
X98704047Y-100277190D02*
X98704047Y-99874809D01*
X98951666Y-100091476D01*
X98951666Y-99998619D01*
X98982619Y-99936714D01*
X99013571Y-99905761D01*
X99075476Y-99874809D01*
X99230238Y-99874809D01*
X99292142Y-99905761D01*
X99323095Y-99936714D01*
X99354047Y-99998619D01*
X99354047Y-100184333D01*
X99323095Y-100246238D01*
X99292142Y-100277190D01*
X98920714Y-99317666D02*
X99354047Y-99317666D01*
X98673095Y-99472428D02*
X99137380Y-99627190D01*
X99137380Y-99224809D01*
X99354047Y-104811857D02*
X99044523Y-105028523D01*
X99354047Y-105183285D02*
X98704047Y-105183285D01*
X98704047Y-104935666D01*
X98735000Y-104873761D01*
X98765952Y-104842809D01*
X98827857Y-104811857D01*
X98920714Y-104811857D01*
X98982619Y-104842809D01*
X99013571Y-104873761D01*
X99044523Y-104935666D01*
X99044523Y-105183285D01*
X98704047Y-104595190D02*
X98704047Y-104192809D01*
X98951666Y-104409476D01*
X98951666Y-104316619D01*
X98982619Y-104254714D01*
X99013571Y-104223761D01*
X99075476Y-104192809D01*
X99230238Y-104192809D01*
X99292142Y-104223761D01*
X99323095Y-104254714D01*
X99354047Y-104316619D01*
X99354047Y-104502333D01*
X99323095Y-104564238D01*
X99292142Y-104595190D01*
X98704047Y-103976142D02*
X98704047Y-103573761D01*
X98951666Y-103790428D01*
X98951666Y-103697571D01*
X98982619Y-103635666D01*
X99013571Y-103604714D01*
X99075476Y-103573761D01*
X99230238Y-103573761D01*
X99292142Y-103604714D01*
X99323095Y-103635666D01*
X99354047Y-103697571D01*
X99354047Y-103883285D01*
X99323095Y-103945190D01*
X99292142Y-103976142D01*
X118128666Y-78018047D02*
X117912000Y-77708523D01*
X117757238Y-78018047D02*
X117757238Y-77368047D01*
X118004857Y-77368047D01*
X118066761Y-77399000D01*
X118097714Y-77429952D01*
X118128666Y-77491857D01*
X118128666Y-77584714D01*
X118097714Y-77646619D01*
X118066761Y-77677571D01*
X118004857Y-77708523D01*
X117757238Y-77708523D01*
X118685809Y-77368047D02*
X118562000Y-77368047D01*
X118500095Y-77399000D01*
X118469142Y-77429952D01*
X118407238Y-77522809D01*
X118376285Y-77646619D01*
X118376285Y-77894238D01*
X118407238Y-77956142D01*
X118438190Y-77987095D01*
X118500095Y-78018047D01*
X118623904Y-78018047D01*
X118685809Y-77987095D01*
X118716761Y-77956142D01*
X118747714Y-77894238D01*
X118747714Y-77739476D01*
X118716761Y-77677571D01*
X118685809Y-77646619D01*
X118623904Y-77615666D01*
X118500095Y-77615666D01*
X118438190Y-77646619D01*
X118407238Y-77677571D01*
X118376285Y-77739476D01*
X110127666Y-83860047D02*
X109911000Y-83550523D01*
X109756238Y-83860047D02*
X109756238Y-83210047D01*
X110003857Y-83210047D01*
X110065761Y-83241000D01*
X110096714Y-83271952D01*
X110127666Y-83333857D01*
X110127666Y-83426714D01*
X110096714Y-83488619D01*
X110065761Y-83519571D01*
X110003857Y-83550523D01*
X109756238Y-83550523D01*
X110715761Y-83210047D02*
X110406238Y-83210047D01*
X110375285Y-83519571D01*
X110406238Y-83488619D01*
X110468142Y-83457666D01*
X110622904Y-83457666D01*
X110684809Y-83488619D01*
X110715761Y-83519571D01*
X110746714Y-83581476D01*
X110746714Y-83736238D01*
X110715761Y-83798142D01*
X110684809Y-83829095D01*
X110622904Y-83860047D01*
X110468142Y-83860047D01*
X110406238Y-83829095D01*
X110375285Y-83798142D01*
X101005047Y-84491857D02*
X100695523Y-84708523D01*
X101005047Y-84863285D02*
X100355047Y-84863285D01*
X100355047Y-84615666D01*
X100386000Y-84553761D01*
X100416952Y-84522809D01*
X100478857Y-84491857D01*
X100571714Y-84491857D01*
X100633619Y-84522809D01*
X100664571Y-84553761D01*
X100695523Y-84615666D01*
X100695523Y-84863285D01*
X100571714Y-83934714D02*
X101005047Y-83934714D01*
X100324095Y-84089476D02*
X100788380Y-84244238D01*
X100788380Y-83841857D01*
X100416952Y-83625190D02*
X100386000Y-83594238D01*
X100355047Y-83532333D01*
X100355047Y-83377571D01*
X100386000Y-83315666D01*
X100416952Y-83284714D01*
X100478857Y-83253761D01*
X100540761Y-83253761D01*
X100633619Y-83284714D01*
X101005047Y-83656142D01*
X101005047Y-83253761D01*
X103799047Y-84491857D02*
X103489523Y-84708523D01*
X103799047Y-84863285D02*
X103149047Y-84863285D01*
X103149047Y-84615666D01*
X103180000Y-84553761D01*
X103210952Y-84522809D01*
X103272857Y-84491857D01*
X103365714Y-84491857D01*
X103427619Y-84522809D01*
X103458571Y-84553761D01*
X103489523Y-84615666D01*
X103489523Y-84863285D01*
X103365714Y-83934714D02*
X103799047Y-83934714D01*
X103118095Y-84089476D02*
X103582380Y-84244238D01*
X103582380Y-83841857D01*
X103799047Y-83253761D02*
X103799047Y-83625190D01*
X103799047Y-83439476D02*
X103149047Y-83439476D01*
X103241904Y-83501380D01*
X103303809Y-83563285D01*
X103334761Y-83625190D01*
X101005047Y-81189857D02*
X100695523Y-81406523D01*
X101005047Y-81561285D02*
X100355047Y-81561285D01*
X100355047Y-81313666D01*
X100386000Y-81251761D01*
X100416952Y-81220809D01*
X100478857Y-81189857D01*
X100571714Y-81189857D01*
X100633619Y-81220809D01*
X100664571Y-81251761D01*
X100695523Y-81313666D01*
X100695523Y-81561285D01*
X100571714Y-80632714D02*
X101005047Y-80632714D01*
X100324095Y-80787476D02*
X100788380Y-80942238D01*
X100788380Y-80539857D01*
X100355047Y-80168428D02*
X100355047Y-80106523D01*
X100386000Y-80044619D01*
X100416952Y-80013666D01*
X100478857Y-79982714D01*
X100602666Y-79951761D01*
X100757428Y-79951761D01*
X100881238Y-79982714D01*
X100943142Y-80013666D01*
X100974095Y-80044619D01*
X101005047Y-80106523D01*
X101005047Y-80168428D01*
X100974095Y-80230333D01*
X100943142Y-80261285D01*
X100881238Y-80292238D01*
X100757428Y-80323190D01*
X100602666Y-80323190D01*
X100478857Y-80292238D01*
X100416952Y-80261285D01*
X100386000Y-80230333D01*
X100355047Y-80168428D01*
X103799047Y-81189857D02*
X103489523Y-81406523D01*
X103799047Y-81561285D02*
X103149047Y-81561285D01*
X103149047Y-81313666D01*
X103180000Y-81251761D01*
X103210952Y-81220809D01*
X103272857Y-81189857D01*
X103365714Y-81189857D01*
X103427619Y-81220809D01*
X103458571Y-81251761D01*
X103489523Y-81313666D01*
X103489523Y-81561285D01*
X103149047Y-80973190D02*
X103149047Y-80570809D01*
X103396666Y-80787476D01*
X103396666Y-80694619D01*
X103427619Y-80632714D01*
X103458571Y-80601761D01*
X103520476Y-80570809D01*
X103675238Y-80570809D01*
X103737142Y-80601761D01*
X103768095Y-80632714D01*
X103799047Y-80694619D01*
X103799047Y-80880333D01*
X103768095Y-80942238D01*
X103737142Y-80973190D01*
X103799047Y-80261285D02*
X103799047Y-80137476D01*
X103768095Y-80075571D01*
X103737142Y-80044619D01*
X103644285Y-79982714D01*
X103520476Y-79951761D01*
X103272857Y-79951761D01*
X103210952Y-79982714D01*
X103180000Y-80013666D01*
X103149047Y-80075571D01*
X103149047Y-80199380D01*
X103180000Y-80261285D01*
X103210952Y-80292238D01*
X103272857Y-80323190D01*
X103427619Y-80323190D01*
X103489523Y-80292238D01*
X103520476Y-80261285D01*
X103551428Y-80199380D01*
X103551428Y-80075571D01*
X103520476Y-80013666D01*
X103489523Y-79982714D01*
X103427619Y-79951761D01*
X106317666Y-83860047D02*
X106101000Y-83550523D01*
X105946238Y-83860047D02*
X105946238Y-83210047D01*
X106193857Y-83210047D01*
X106255761Y-83241000D01*
X106286714Y-83271952D01*
X106317666Y-83333857D01*
X106317666Y-83426714D01*
X106286714Y-83488619D01*
X106255761Y-83519571D01*
X106193857Y-83550523D01*
X105946238Y-83550523D01*
X106874809Y-83426714D02*
X106874809Y-83860047D01*
X106720047Y-83179095D02*
X106565285Y-83643380D01*
X106967666Y-83643380D01*
X106317666Y-86400047D02*
X106101000Y-86090523D01*
X105946238Y-86400047D02*
X105946238Y-85750047D01*
X106193857Y-85750047D01*
X106255761Y-85781000D01*
X106286714Y-85811952D01*
X106317666Y-85873857D01*
X106317666Y-85966714D01*
X106286714Y-86028619D01*
X106255761Y-86059571D01*
X106193857Y-86090523D01*
X105946238Y-86090523D01*
X106534333Y-85750047D02*
X106936714Y-85750047D01*
X106720047Y-85997666D01*
X106812904Y-85997666D01*
X106874809Y-86028619D01*
X106905761Y-86059571D01*
X106936714Y-86121476D01*
X106936714Y-86276238D01*
X106905761Y-86338142D01*
X106874809Y-86369095D01*
X106812904Y-86400047D01*
X106627190Y-86400047D01*
X106565285Y-86369095D01*
X106534333Y-86338142D01*
X89608047Y-83674333D02*
X89298523Y-83891000D01*
X89608047Y-84045761D02*
X88958047Y-84045761D01*
X88958047Y-83798142D01*
X88989000Y-83736238D01*
X89019952Y-83705285D01*
X89081857Y-83674333D01*
X89174714Y-83674333D01*
X89236619Y-83705285D01*
X89267571Y-83736238D01*
X89298523Y-83798142D01*
X89298523Y-84045761D01*
X89019952Y-83426714D02*
X88989000Y-83395761D01*
X88958047Y-83333857D01*
X88958047Y-83179095D01*
X88989000Y-83117190D01*
X89019952Y-83086238D01*
X89081857Y-83055285D01*
X89143761Y-83055285D01*
X89236619Y-83086238D01*
X89608047Y-83457666D01*
X89608047Y-83055285D01*
X101165047Y-77578333D02*
X100855523Y-77795000D01*
X101165047Y-77949761D02*
X100515047Y-77949761D01*
X100515047Y-77702142D01*
X100546000Y-77640238D01*
X100576952Y-77609285D01*
X100638857Y-77578333D01*
X100731714Y-77578333D01*
X100793619Y-77609285D01*
X100824571Y-77640238D01*
X100855523Y-77702142D01*
X100855523Y-77949761D01*
X101165047Y-76959285D02*
X101165047Y-77330714D01*
X101165047Y-77145000D02*
X100515047Y-77145000D01*
X100607904Y-77206904D01*
X100669809Y-77268809D01*
X100700761Y-77330714D01*
X162600047Y-111217380D02*
X162600047Y-111526904D01*
X161950047Y-111526904D01*
X162259571Y-111000714D02*
X162259571Y-110784047D01*
X162600047Y-110691190D02*
X162600047Y-111000714D01*
X161950047Y-111000714D01*
X161950047Y-110691190D01*
X162600047Y-110412619D02*
X161950047Y-110412619D01*
X161950047Y-110257857D01*
X161981000Y-110165000D01*
X162042904Y-110103095D01*
X162104809Y-110072142D01*
X162228619Y-110041190D01*
X162321476Y-110041190D01*
X162445285Y-110072142D01*
X162507190Y-110103095D01*
X162569095Y-110165000D01*
X162600047Y-110257857D01*
X162600047Y-110412619D01*
X162600047Y-109422142D02*
X162600047Y-109793571D01*
X162600047Y-109607857D02*
X161950047Y-109607857D01*
X162042904Y-109669761D01*
X162104809Y-109731666D01*
X162135761Y-109793571D01*
X128564047Y-116085190D02*
X127914047Y-116085190D01*
X128564047Y-115775666D02*
X127914047Y-115775666D01*
X128564047Y-115404238D01*
X127914047Y-115404238D01*
X128564047Y-115094714D02*
X127914047Y-115094714D01*
X127914047Y-114847095D01*
X127945000Y-114785190D01*
X127975952Y-114754238D01*
X128037857Y-114723285D01*
X128130714Y-114723285D01*
X128192619Y-114754238D01*
X128223571Y-114785190D01*
X128254523Y-114847095D01*
X128254523Y-115094714D01*
X127914047Y-114444714D02*
X128440238Y-114444714D01*
X128502142Y-114413761D01*
X128533095Y-114382809D01*
X128564047Y-114320904D01*
X128564047Y-114197095D01*
X128533095Y-114135190D01*
X128502142Y-114104238D01*
X128440238Y-114073285D01*
X127914047Y-114073285D01*
X127914047Y-113856619D02*
X127914047Y-113485190D01*
X128564047Y-113670904D02*
X127914047Y-113670904D01*
X128625952Y-113423285D02*
X128625952Y-112928047D01*
X128502142Y-112401857D02*
X128533095Y-112432809D01*
X128564047Y-112525666D01*
X128564047Y-112587571D01*
X128533095Y-112680428D01*
X128471190Y-112742333D01*
X128409285Y-112773285D01*
X128285476Y-112804238D01*
X128192619Y-112804238D01*
X128068809Y-112773285D01*
X128006904Y-112742333D01*
X127945000Y-112680428D01*
X127914047Y-112587571D01*
X127914047Y-112525666D01*
X127945000Y-112432809D01*
X127975952Y-112401857D01*
X128564047Y-112123285D02*
X127914047Y-112123285D01*
X128564047Y-111751857D01*
X127914047Y-111751857D01*
X128502142Y-111070904D02*
X128533095Y-111101857D01*
X128564047Y-111194714D01*
X128564047Y-111256619D01*
X128533095Y-111349476D01*
X128471190Y-111411380D01*
X128409285Y-111442333D01*
X128285476Y-111473285D01*
X128192619Y-111473285D01*
X128068809Y-111442333D01*
X128006904Y-111411380D01*
X127945000Y-111349476D01*
X127914047Y-111256619D01*
X127914047Y-111194714D01*
X127945000Y-111101857D01*
X127975952Y-111070904D01*
X128564047Y-110451857D02*
X128564047Y-110823285D01*
X128564047Y-110637571D02*
X127914047Y-110637571D01*
X128006904Y-110699476D01*
X128068809Y-110761380D01*
X128099761Y-110823285D01*
X136977476Y-79613523D02*
X136977476Y-79923047D01*
X136760809Y-79273047D02*
X136977476Y-79613523D01*
X137194142Y-79273047D01*
X137751285Y-79923047D02*
X137379857Y-79923047D01*
X137565571Y-79923047D02*
X137565571Y-79273047D01*
X137503666Y-79365904D01*
X137441761Y-79427809D01*
X137379857Y-79458761D01*
X88346047Y-102857238D02*
X88872238Y-102857238D01*
X88934142Y-102826285D01*
X88965095Y-102795333D01*
X88996047Y-102733428D01*
X88996047Y-102609619D01*
X88965095Y-102547714D01*
X88934142Y-102516761D01*
X88872238Y-102485809D01*
X88346047Y-102485809D01*
X88346047Y-101866761D02*
X88346047Y-102176285D01*
X88655571Y-102207238D01*
X88624619Y-102176285D01*
X88593666Y-102114380D01*
X88593666Y-101959619D01*
X88624619Y-101897714D01*
X88655571Y-101866761D01*
X88717476Y-101835809D01*
X88872238Y-101835809D01*
X88934142Y-101866761D01*
X88965095Y-101897714D01*
X88996047Y-101959619D01*
X88996047Y-102114380D01*
X88965095Y-102176285D01*
X88934142Y-102207238D01*
X130949761Y-77749047D02*
X130949761Y-78275238D01*
X130980714Y-78337142D01*
X131011666Y-78368095D01*
X131073571Y-78399047D01*
X131197380Y-78399047D01*
X131259285Y-78368095D01*
X131290238Y-78337142D01*
X131321190Y-78275238D01*
X131321190Y-77749047D01*
X131568809Y-77749047D02*
X131971190Y-77749047D01*
X131754523Y-77996666D01*
X131847380Y-77996666D01*
X131909285Y-78027619D01*
X131940238Y-78058571D01*
X131971190Y-78120476D01*
X131971190Y-78275238D01*
X131940238Y-78337142D01*
X131909285Y-78368095D01*
X131847380Y-78399047D01*
X131661666Y-78399047D01*
X131599761Y-78368095D01*
X131568809Y-78337142D01*
X95086761Y-82018047D02*
X95086761Y-82544238D01*
X95117714Y-82606142D01*
X95148666Y-82637095D01*
X95210571Y-82668047D01*
X95334380Y-82668047D01*
X95396285Y-82637095D01*
X95427238Y-82606142D01*
X95458190Y-82544238D01*
X95458190Y-82018047D01*
X96108190Y-82668047D02*
X95736761Y-82668047D01*
X95922476Y-82668047D02*
X95922476Y-82018047D01*
X95860571Y-82110904D01*
X95798666Y-82172809D01*
X95736761Y-82203761D01*
X103319761Y-71021047D02*
X103691190Y-71021047D01*
X103505476Y-71671047D02*
X103505476Y-71021047D01*
X103907857Y-71671047D02*
X103907857Y-71021047D01*
X104155476Y-71021047D01*
X104217380Y-71052000D01*
X104248333Y-71082952D01*
X104279285Y-71144857D01*
X104279285Y-71237714D01*
X104248333Y-71299619D01*
X104217380Y-71330571D01*
X104155476Y-71361523D01*
X103907857Y-71361523D01*
X104836428Y-71237714D02*
X104836428Y-71671047D01*
X104681666Y-70990095D02*
X104526904Y-71454380D01*
X104929285Y-71454380D01*
X82829047Y-77655238D02*
X82829047Y-77283809D01*
X83479047Y-77469523D02*
X82829047Y-77469523D01*
X83479047Y-77067142D02*
X82829047Y-77067142D01*
X82829047Y-76819523D01*
X82860000Y-76757619D01*
X82890952Y-76726666D01*
X82952857Y-76695714D01*
X83045714Y-76695714D01*
X83107619Y-76726666D01*
X83138571Y-76757619D01*
X83169523Y-76819523D01*
X83169523Y-77067142D01*
X82829047Y-76479047D02*
X82829047Y-76076666D01*
X83076666Y-76293333D01*
X83076666Y-76200476D01*
X83107619Y-76138571D01*
X83138571Y-76107619D01*
X83200476Y-76076666D01*
X83355238Y-76076666D01*
X83417142Y-76107619D01*
X83448095Y-76138571D01*
X83479047Y-76200476D01*
X83479047Y-76386190D01*
X83448095Y-76448095D01*
X83417142Y-76479047D01*
X99509761Y-71021047D02*
X99881190Y-71021047D01*
X99695476Y-71671047D02*
X99695476Y-71021047D01*
X100097857Y-71671047D02*
X100097857Y-71021047D01*
X100345476Y-71021047D01*
X100407380Y-71052000D01*
X100438333Y-71082952D01*
X100469285Y-71144857D01*
X100469285Y-71237714D01*
X100438333Y-71299619D01*
X100407380Y-71330571D01*
X100345476Y-71361523D01*
X100097857Y-71361523D01*
X100716904Y-71082952D02*
X100747857Y-71052000D01*
X100809761Y-71021047D01*
X100964523Y-71021047D01*
X101026428Y-71052000D01*
X101057380Y-71082952D01*
X101088333Y-71144857D01*
X101088333Y-71206761D01*
X101057380Y-71299619D01*
X100685952Y-71671047D01*
X101088333Y-71671047D01*
X142528095Y-86591666D02*
X142559047Y-86498809D01*
X142559047Y-86344047D01*
X142528095Y-86282142D01*
X142497142Y-86251190D01*
X142435238Y-86220238D01*
X142373333Y-86220238D01*
X142311428Y-86251190D01*
X142280476Y-86282142D01*
X142249523Y-86344047D01*
X142218571Y-86467857D01*
X142187619Y-86529761D01*
X142156666Y-86560714D01*
X142094761Y-86591666D01*
X142032857Y-86591666D01*
X141970952Y-86560714D01*
X141940000Y-86529761D01*
X141909047Y-86467857D01*
X141909047Y-86313095D01*
X141940000Y-86220238D01*
X141909047Y-86003571D02*
X142559047Y-85848809D01*
X142094761Y-85725000D01*
X142559047Y-85601190D01*
X141909047Y-85446428D01*
X142559047Y-84858333D02*
X142559047Y-85229761D01*
X142559047Y-85044047D02*
X141909047Y-85044047D01*
X142001904Y-85105952D01*
X142063809Y-85167857D01*
X142094761Y-85229761D01*
X145438047Y-98697452D02*
X145128523Y-98914119D01*
X145438047Y-99068880D02*
X144788047Y-99068880D01*
X144788047Y-98821261D01*
X144819000Y-98759357D01*
X144849952Y-98728404D01*
X144911857Y-98697452D01*
X145004714Y-98697452D01*
X145066619Y-98728404D01*
X145097571Y-98759357D01*
X145128523Y-98821261D01*
X145128523Y-99068880D01*
X145499952Y-98573642D02*
X145499952Y-98078404D01*
X145438047Y-97923642D02*
X144788047Y-97923642D01*
X144788047Y-97676023D01*
X144819000Y-97614119D01*
X144849952Y-97583166D01*
X144911857Y-97552214D01*
X145004714Y-97552214D01*
X145066619Y-97583166D01*
X145097571Y-97614119D01*
X145128523Y-97676023D01*
X145128523Y-97923642D01*
X145004714Y-96995071D02*
X145438047Y-96995071D01*
X144757095Y-97149833D02*
X145221380Y-97304595D01*
X145221380Y-96902214D01*
X145517047Y-109680952D02*
X145207523Y-109897619D01*
X145517047Y-110052380D02*
X144867047Y-110052380D01*
X144867047Y-109804761D01*
X144898000Y-109742857D01*
X144928952Y-109711904D01*
X144990857Y-109680952D01*
X145083714Y-109680952D01*
X145145619Y-109711904D01*
X145176571Y-109742857D01*
X145207523Y-109804761D01*
X145207523Y-110052380D01*
X145578952Y-109557142D02*
X145578952Y-109061904D01*
X145517047Y-108907142D02*
X144867047Y-108907142D01*
X144867047Y-108659523D01*
X144898000Y-108597619D01*
X144928952Y-108566666D01*
X144990857Y-108535714D01*
X145083714Y-108535714D01*
X145145619Y-108566666D01*
X145176571Y-108597619D01*
X145207523Y-108659523D01*
X145207523Y-108907142D01*
X144867047Y-108319047D02*
X144867047Y-107916666D01*
X145114666Y-108133333D01*
X145114666Y-108040476D01*
X145145619Y-107978571D01*
X145176571Y-107947619D01*
X145238476Y-107916666D01*
X145393238Y-107916666D01*
X145455142Y-107947619D01*
X145486095Y-107978571D01*
X145517047Y-108040476D01*
X145517047Y-108226190D01*
X145486095Y-108288095D01*
X145455142Y-108319047D01*
X145511547Y-87648452D02*
X145202023Y-87865119D01*
X145511547Y-88019880D02*
X144861547Y-88019880D01*
X144861547Y-87772261D01*
X144892500Y-87710357D01*
X144923452Y-87679404D01*
X144985357Y-87648452D01*
X145078214Y-87648452D01*
X145140119Y-87679404D01*
X145171071Y-87710357D01*
X145202023Y-87772261D01*
X145202023Y-88019880D01*
X145573452Y-87524642D02*
X145573452Y-87029404D01*
X145511547Y-86874642D02*
X144861547Y-86874642D01*
X144861547Y-86627023D01*
X144892500Y-86565119D01*
X144923452Y-86534166D01*
X144985357Y-86503214D01*
X145078214Y-86503214D01*
X145140119Y-86534166D01*
X145171071Y-86565119D01*
X145202023Y-86627023D01*
X145202023Y-86874642D01*
X144923452Y-86255595D02*
X144892500Y-86224642D01*
X144861547Y-86162738D01*
X144861547Y-86007976D01*
X144892500Y-85946071D01*
X144923452Y-85915119D01*
X144985357Y-85884166D01*
X145047261Y-85884166D01*
X145140119Y-85915119D01*
X145511547Y-86286547D01*
X145511547Y-85884166D01*
X145582047Y-76372952D02*
X145272523Y-76589619D01*
X145582047Y-76744380D02*
X144932047Y-76744380D01*
X144932047Y-76496761D01*
X144963000Y-76434857D01*
X144993952Y-76403904D01*
X145055857Y-76372952D01*
X145148714Y-76372952D01*
X145210619Y-76403904D01*
X145241571Y-76434857D01*
X145272523Y-76496761D01*
X145272523Y-76744380D01*
X145643952Y-76249142D02*
X145643952Y-75753904D01*
X145582047Y-75599142D02*
X144932047Y-75599142D01*
X144932047Y-75351523D01*
X144963000Y-75289619D01*
X144993952Y-75258666D01*
X145055857Y-75227714D01*
X145148714Y-75227714D01*
X145210619Y-75258666D01*
X145241571Y-75289619D01*
X145272523Y-75351523D01*
X145272523Y-75599142D01*
X145582047Y-74608666D02*
X145582047Y-74980095D01*
X145582047Y-74794380D02*
X144932047Y-74794380D01*
X145024904Y-74856285D01*
X145086809Y-74918190D01*
X145117761Y-74980095D01*
X145438047Y-96157452D02*
X145128523Y-96374119D01*
X145438047Y-96528880D02*
X144788047Y-96528880D01*
X144788047Y-96281261D01*
X144819000Y-96219357D01*
X144849952Y-96188404D01*
X144911857Y-96157452D01*
X145004714Y-96157452D01*
X145066619Y-96188404D01*
X145097571Y-96219357D01*
X145128523Y-96281261D01*
X145128523Y-96528880D01*
X145499952Y-96033642D02*
X145499952Y-95538404D01*
X145438047Y-95383642D02*
X144788047Y-95383642D01*
X144788047Y-95228880D01*
X144819000Y-95136023D01*
X144880904Y-95074119D01*
X144942809Y-95043166D01*
X145066619Y-95012214D01*
X145159476Y-95012214D01*
X145283285Y-95043166D01*
X145345190Y-95074119D01*
X145407095Y-95136023D01*
X145438047Y-95228880D01*
X145438047Y-95383642D01*
X145004714Y-94455071D02*
X145438047Y-94455071D01*
X144757095Y-94609833D02*
X145221380Y-94764595D01*
X145221380Y-94362214D01*
X145517047Y-107140952D02*
X145207523Y-107357619D01*
X145517047Y-107512380D02*
X144867047Y-107512380D01*
X144867047Y-107264761D01*
X144898000Y-107202857D01*
X144928952Y-107171904D01*
X144990857Y-107140952D01*
X145083714Y-107140952D01*
X145145619Y-107171904D01*
X145176571Y-107202857D01*
X145207523Y-107264761D01*
X145207523Y-107512380D01*
X145578952Y-107017142D02*
X145578952Y-106521904D01*
X145517047Y-106367142D02*
X144867047Y-106367142D01*
X144867047Y-106212380D01*
X144898000Y-106119523D01*
X144959904Y-106057619D01*
X145021809Y-106026666D01*
X145145619Y-105995714D01*
X145238476Y-105995714D01*
X145362285Y-106026666D01*
X145424190Y-106057619D01*
X145486095Y-106119523D01*
X145517047Y-106212380D01*
X145517047Y-106367142D01*
X144867047Y-105779047D02*
X144867047Y-105376666D01*
X145114666Y-105593333D01*
X145114666Y-105500476D01*
X145145619Y-105438571D01*
X145176571Y-105407619D01*
X145238476Y-105376666D01*
X145393238Y-105376666D01*
X145455142Y-105407619D01*
X145486095Y-105438571D01*
X145517047Y-105500476D01*
X145517047Y-105686190D01*
X145486095Y-105748095D01*
X145455142Y-105779047D01*
X145511547Y-85108452D02*
X145202023Y-85325119D01*
X145511547Y-85479880D02*
X144861547Y-85479880D01*
X144861547Y-85232261D01*
X144892500Y-85170357D01*
X144923452Y-85139404D01*
X144985357Y-85108452D01*
X145078214Y-85108452D01*
X145140119Y-85139404D01*
X145171071Y-85170357D01*
X145202023Y-85232261D01*
X145202023Y-85479880D01*
X145573452Y-84984642D02*
X145573452Y-84489404D01*
X145511547Y-84334642D02*
X144861547Y-84334642D01*
X144861547Y-84179880D01*
X144892500Y-84087023D01*
X144954404Y-84025119D01*
X145016309Y-83994166D01*
X145140119Y-83963214D01*
X145232976Y-83963214D01*
X145356785Y-83994166D01*
X145418690Y-84025119D01*
X145480595Y-84087023D01*
X145511547Y-84179880D01*
X145511547Y-84334642D01*
X144923452Y-83715595D02*
X144892500Y-83684642D01*
X144861547Y-83622738D01*
X144861547Y-83467976D01*
X144892500Y-83406071D01*
X144923452Y-83375119D01*
X144985357Y-83344166D01*
X145047261Y-83344166D01*
X145140119Y-83375119D01*
X145511547Y-83746547D01*
X145511547Y-83344166D01*
X145582047Y-73832952D02*
X145272523Y-74049619D01*
X145582047Y-74204380D02*
X144932047Y-74204380D01*
X144932047Y-73956761D01*
X144963000Y-73894857D01*
X144993952Y-73863904D01*
X145055857Y-73832952D01*
X145148714Y-73832952D01*
X145210619Y-73863904D01*
X145241571Y-73894857D01*
X145272523Y-73956761D01*
X145272523Y-74204380D01*
X145643952Y-73709142D02*
X145643952Y-73213904D01*
X145582047Y-73059142D02*
X144932047Y-73059142D01*
X144932047Y-72904380D01*
X144963000Y-72811523D01*
X145024904Y-72749619D01*
X145086809Y-72718666D01*
X145210619Y-72687714D01*
X145303476Y-72687714D01*
X145427285Y-72718666D01*
X145489190Y-72749619D01*
X145551095Y-72811523D01*
X145582047Y-72904380D01*
X145582047Y-73059142D01*
X145582047Y-72068666D02*
X145582047Y-72440095D01*
X145582047Y-72254380D02*
X144932047Y-72254380D01*
X145024904Y-72316285D01*
X145086809Y-72378190D01*
X145117761Y-72440095D01*
X158950142Y-94246547D02*
X158733476Y-93937023D01*
X158578714Y-94246547D02*
X158578714Y-93596547D01*
X158826333Y-93596547D01*
X158888238Y-93627500D01*
X158919190Y-93658452D01*
X158950142Y-93720357D01*
X158950142Y-93813214D01*
X158919190Y-93875119D01*
X158888238Y-93906071D01*
X158826333Y-93937023D01*
X158578714Y-93937023D01*
X159166809Y-93596547D02*
X159569190Y-93596547D01*
X159352523Y-93844166D01*
X159445380Y-93844166D01*
X159507285Y-93875119D01*
X159538238Y-93906071D01*
X159569190Y-93967976D01*
X159569190Y-94122738D01*
X159538238Y-94184642D01*
X159507285Y-94215595D01*
X159445380Y-94246547D01*
X159259666Y-94246547D01*
X159197761Y-94215595D01*
X159166809Y-94184642D01*
X160126333Y-93596547D02*
X160002523Y-93596547D01*
X159940619Y-93627500D01*
X159909666Y-93658452D01*
X159847761Y-93751309D01*
X159816809Y-93875119D01*
X159816809Y-94122738D01*
X159847761Y-94184642D01*
X159878714Y-94215595D01*
X159940619Y-94246547D01*
X160064428Y-94246547D01*
X160126333Y-94215595D01*
X160157285Y-94184642D01*
X160188238Y-94122738D01*
X160188238Y-93967976D01*
X160157285Y-93906071D01*
X160126333Y-93875119D01*
X160064428Y-93844166D01*
X159940619Y-93844166D01*
X159878714Y-93875119D01*
X159847761Y-93906071D01*
X159816809Y-93967976D01*
X151838142Y-94246547D02*
X151621476Y-93937023D01*
X151466714Y-94246547D02*
X151466714Y-93596547D01*
X151714333Y-93596547D01*
X151776238Y-93627500D01*
X151807190Y-93658452D01*
X151838142Y-93720357D01*
X151838142Y-93813214D01*
X151807190Y-93875119D01*
X151776238Y-93906071D01*
X151714333Y-93937023D01*
X151466714Y-93937023D01*
X152054809Y-93596547D02*
X152457190Y-93596547D01*
X152240523Y-93844166D01*
X152333380Y-93844166D01*
X152395285Y-93875119D01*
X152426238Y-93906071D01*
X152457190Y-93967976D01*
X152457190Y-94122738D01*
X152426238Y-94184642D01*
X152395285Y-94215595D01*
X152333380Y-94246547D01*
X152147666Y-94246547D01*
X152085761Y-94215595D01*
X152054809Y-94184642D01*
X153045285Y-93596547D02*
X152735761Y-93596547D01*
X152704809Y-93906071D01*
X152735761Y-93875119D01*
X152797666Y-93844166D01*
X152952428Y-93844166D01*
X153014333Y-93875119D01*
X153045285Y-93906071D01*
X153076238Y-93967976D01*
X153076238Y-94122738D01*
X153045285Y-94184642D01*
X153014333Y-94215595D01*
X152952428Y-94246547D01*
X152797666Y-94246547D01*
X152735761Y-94215595D01*
X152704809Y-94184642D01*
X91412142Y-94529047D02*
X91195476Y-94219523D01*
X91040714Y-94529047D02*
X91040714Y-93879047D01*
X91288333Y-93879047D01*
X91350238Y-93910000D01*
X91381190Y-93940952D01*
X91412142Y-94002857D01*
X91412142Y-94095714D01*
X91381190Y-94157619D01*
X91350238Y-94188571D01*
X91288333Y-94219523D01*
X91040714Y-94219523D01*
X91628809Y-93879047D02*
X92031190Y-93879047D01*
X91814523Y-94126666D01*
X91907380Y-94126666D01*
X91969285Y-94157619D01*
X92000238Y-94188571D01*
X92031190Y-94250476D01*
X92031190Y-94405238D01*
X92000238Y-94467142D01*
X91969285Y-94498095D01*
X91907380Y-94529047D01*
X91721666Y-94529047D01*
X91659761Y-94498095D01*
X91628809Y-94467142D01*
X92278809Y-93940952D02*
X92309761Y-93910000D01*
X92371666Y-93879047D01*
X92526428Y-93879047D01*
X92588333Y-93910000D01*
X92619285Y-93940952D01*
X92650238Y-94002857D01*
X92650238Y-94064761D01*
X92619285Y-94157619D01*
X92247857Y-94529047D01*
X92650238Y-94529047D01*
X159029142Y-105230047D02*
X158812476Y-104920523D01*
X158657714Y-105230047D02*
X158657714Y-104580047D01*
X158905333Y-104580047D01*
X158967238Y-104611000D01*
X158998190Y-104641952D01*
X159029142Y-104703857D01*
X159029142Y-104796714D01*
X158998190Y-104858619D01*
X158967238Y-104889571D01*
X158905333Y-104920523D01*
X158657714Y-104920523D01*
X159245809Y-104580047D02*
X159648190Y-104580047D01*
X159431523Y-104827666D01*
X159524380Y-104827666D01*
X159586285Y-104858619D01*
X159617238Y-104889571D01*
X159648190Y-104951476D01*
X159648190Y-105106238D01*
X159617238Y-105168142D01*
X159586285Y-105199095D01*
X159524380Y-105230047D01*
X159338666Y-105230047D01*
X159276761Y-105199095D01*
X159245809Y-105168142D01*
X160267238Y-105230047D02*
X159895809Y-105230047D01*
X160081523Y-105230047D02*
X160081523Y-104580047D01*
X160019619Y-104672904D01*
X159957714Y-104734809D01*
X159895809Y-104765761D01*
X151917142Y-105230047D02*
X151700476Y-104920523D01*
X151545714Y-105230047D02*
X151545714Y-104580047D01*
X151793333Y-104580047D01*
X151855238Y-104611000D01*
X151886190Y-104641952D01*
X151917142Y-104703857D01*
X151917142Y-104796714D01*
X151886190Y-104858619D01*
X151855238Y-104889571D01*
X151793333Y-104920523D01*
X151545714Y-104920523D01*
X152133809Y-104580047D02*
X152536190Y-104580047D01*
X152319523Y-104827666D01*
X152412380Y-104827666D01*
X152474285Y-104858619D01*
X152505238Y-104889571D01*
X152536190Y-104951476D01*
X152536190Y-105106238D01*
X152505238Y-105168142D01*
X152474285Y-105199095D01*
X152412380Y-105230047D01*
X152226666Y-105230047D01*
X152164761Y-105199095D01*
X152133809Y-105168142D01*
X152938571Y-104580047D02*
X153000476Y-104580047D01*
X153062380Y-104611000D01*
X153093333Y-104641952D01*
X153124285Y-104703857D01*
X153155238Y-104827666D01*
X153155238Y-104982428D01*
X153124285Y-105106238D01*
X153093333Y-105168142D01*
X153062380Y-105199095D01*
X153000476Y-105230047D01*
X152938571Y-105230047D01*
X152876666Y-105199095D01*
X152845714Y-105168142D01*
X152814761Y-105106238D01*
X152783809Y-104982428D01*
X152783809Y-104827666D01*
X152814761Y-104703857D01*
X152845714Y-104641952D01*
X152876666Y-104611000D01*
X152938571Y-104580047D01*
X159023642Y-83197547D02*
X158806976Y-82888023D01*
X158652214Y-83197547D02*
X158652214Y-82547547D01*
X158899833Y-82547547D01*
X158961738Y-82578500D01*
X158992690Y-82609452D01*
X159023642Y-82671357D01*
X159023642Y-82764214D01*
X158992690Y-82826119D01*
X158961738Y-82857071D01*
X158899833Y-82888023D01*
X158652214Y-82888023D01*
X159271261Y-82609452D02*
X159302214Y-82578500D01*
X159364119Y-82547547D01*
X159518880Y-82547547D01*
X159580785Y-82578500D01*
X159611738Y-82609452D01*
X159642690Y-82671357D01*
X159642690Y-82733261D01*
X159611738Y-82826119D01*
X159240309Y-83197547D01*
X159642690Y-83197547D01*
X159952214Y-83197547D02*
X160076023Y-83197547D01*
X160137928Y-83166595D01*
X160168880Y-83135642D01*
X160230785Y-83042785D01*
X160261738Y-82918976D01*
X160261738Y-82671357D01*
X160230785Y-82609452D01*
X160199833Y-82578500D01*
X160137928Y-82547547D01*
X160014119Y-82547547D01*
X159952214Y-82578500D01*
X159921261Y-82609452D01*
X159890309Y-82671357D01*
X159890309Y-82826119D01*
X159921261Y-82888023D01*
X159952214Y-82918976D01*
X160014119Y-82949928D01*
X160137928Y-82949928D01*
X160199833Y-82918976D01*
X160230785Y-82888023D01*
X160261738Y-82826119D01*
X151911642Y-83197547D02*
X151694976Y-82888023D01*
X151540214Y-83197547D02*
X151540214Y-82547547D01*
X151787833Y-82547547D01*
X151849738Y-82578500D01*
X151880690Y-82609452D01*
X151911642Y-82671357D01*
X151911642Y-82764214D01*
X151880690Y-82826119D01*
X151849738Y-82857071D01*
X151787833Y-82888023D01*
X151540214Y-82888023D01*
X152159261Y-82609452D02*
X152190214Y-82578500D01*
X152252119Y-82547547D01*
X152406880Y-82547547D01*
X152468785Y-82578500D01*
X152499738Y-82609452D01*
X152530690Y-82671357D01*
X152530690Y-82733261D01*
X152499738Y-82826119D01*
X152128309Y-83197547D01*
X152530690Y-83197547D01*
X152902119Y-82826119D02*
X152840214Y-82795166D01*
X152809261Y-82764214D01*
X152778309Y-82702309D01*
X152778309Y-82671357D01*
X152809261Y-82609452D01*
X152840214Y-82578500D01*
X152902119Y-82547547D01*
X153025928Y-82547547D01*
X153087833Y-82578500D01*
X153118785Y-82609452D01*
X153149738Y-82671357D01*
X153149738Y-82702309D01*
X153118785Y-82764214D01*
X153087833Y-82795166D01*
X153025928Y-82826119D01*
X152902119Y-82826119D01*
X152840214Y-82857071D01*
X152809261Y-82888023D01*
X152778309Y-82949928D01*
X152778309Y-83073738D01*
X152809261Y-83135642D01*
X152840214Y-83166595D01*
X152902119Y-83197547D01*
X153025928Y-83197547D01*
X153087833Y-83166595D01*
X153118785Y-83135642D01*
X153149738Y-83073738D01*
X153149738Y-82949928D01*
X153118785Y-82888023D01*
X153087833Y-82857071D01*
X153025928Y-82826119D01*
X159094142Y-71922047D02*
X158877476Y-71612523D01*
X158722714Y-71922047D02*
X158722714Y-71272047D01*
X158970333Y-71272047D01*
X159032238Y-71303000D01*
X159063190Y-71333952D01*
X159094142Y-71395857D01*
X159094142Y-71488714D01*
X159063190Y-71550619D01*
X159032238Y-71581571D01*
X158970333Y-71612523D01*
X158722714Y-71612523D01*
X159341761Y-71333952D02*
X159372714Y-71303000D01*
X159434619Y-71272047D01*
X159589380Y-71272047D01*
X159651285Y-71303000D01*
X159682238Y-71333952D01*
X159713190Y-71395857D01*
X159713190Y-71457761D01*
X159682238Y-71550619D01*
X159310809Y-71922047D01*
X159713190Y-71922047D01*
X159929857Y-71272047D02*
X160363190Y-71272047D01*
X160084619Y-71922047D01*
X151982142Y-71922047D02*
X151765476Y-71612523D01*
X151610714Y-71922047D02*
X151610714Y-71272047D01*
X151858333Y-71272047D01*
X151920238Y-71303000D01*
X151951190Y-71333952D01*
X151982142Y-71395857D01*
X151982142Y-71488714D01*
X151951190Y-71550619D01*
X151920238Y-71581571D01*
X151858333Y-71612523D01*
X151610714Y-71612523D01*
X152229761Y-71333952D02*
X152260714Y-71303000D01*
X152322619Y-71272047D01*
X152477380Y-71272047D01*
X152539285Y-71303000D01*
X152570238Y-71333952D01*
X152601190Y-71395857D01*
X152601190Y-71457761D01*
X152570238Y-71550619D01*
X152198809Y-71922047D01*
X152601190Y-71922047D01*
X153158333Y-71272047D02*
X153034523Y-71272047D01*
X152972619Y-71303000D01*
X152941666Y-71333952D01*
X152879761Y-71426809D01*
X152848809Y-71550619D01*
X152848809Y-71798238D01*
X152879761Y-71860142D01*
X152910714Y-71891095D01*
X152972619Y-71922047D01*
X153096428Y-71922047D01*
X153158333Y-71891095D01*
X153189285Y-71860142D01*
X153220238Y-71798238D01*
X153220238Y-71643476D01*
X153189285Y-71581571D01*
X153158333Y-71550619D01*
X153096428Y-71519666D01*
X152972619Y-71519666D01*
X152910714Y-71550619D01*
X152879761Y-71581571D01*
X152848809Y-71643476D01*
X160830095Y-104785952D02*
X160768190Y-104755000D01*
X160706285Y-104693095D01*
X160613428Y-104600238D01*
X160551523Y-104569285D01*
X160489619Y-104569285D01*
X160520571Y-104724047D02*
X160458666Y-104693095D01*
X160396761Y-104631190D01*
X160365809Y-104507380D01*
X160365809Y-104290714D01*
X160396761Y-104166904D01*
X160458666Y-104105000D01*
X160520571Y-104074047D01*
X160644380Y-104074047D01*
X160706285Y-104105000D01*
X160768190Y-104166904D01*
X160799142Y-104290714D01*
X160799142Y-104507380D01*
X160768190Y-104631190D01*
X160706285Y-104693095D01*
X160644380Y-104724047D01*
X160520571Y-104724047D01*
X161108666Y-104724047D02*
X161232476Y-104724047D01*
X161294380Y-104693095D01*
X161325333Y-104662142D01*
X161387238Y-104569285D01*
X161418190Y-104445476D01*
X161418190Y-104197857D01*
X161387238Y-104135952D01*
X161356285Y-104105000D01*
X161294380Y-104074047D01*
X161170571Y-104074047D01*
X161108666Y-104105000D01*
X161077714Y-104135952D01*
X161046761Y-104197857D01*
X161046761Y-104352619D01*
X161077714Y-104414523D01*
X161108666Y-104445476D01*
X161170571Y-104476428D01*
X161294380Y-104476428D01*
X161356285Y-104445476D01*
X161387238Y-104414523D01*
X161418190Y-104352619D01*
X148766595Y-100760952D02*
X148704690Y-100730000D01*
X148642785Y-100668095D01*
X148549928Y-100575238D01*
X148488023Y-100544285D01*
X148426119Y-100544285D01*
X148457071Y-100699047D02*
X148395166Y-100668095D01*
X148333261Y-100606190D01*
X148302309Y-100482380D01*
X148302309Y-100265714D01*
X148333261Y-100141904D01*
X148395166Y-100080000D01*
X148457071Y-100049047D01*
X148580880Y-100049047D01*
X148642785Y-100080000D01*
X148704690Y-100141904D01*
X148735642Y-100265714D01*
X148735642Y-100482380D01*
X148704690Y-100606190D01*
X148642785Y-100668095D01*
X148580880Y-100699047D01*
X148457071Y-100699047D01*
X149107071Y-100327619D02*
X149045166Y-100296666D01*
X149014214Y-100265714D01*
X148983261Y-100203809D01*
X148983261Y-100172857D01*
X149014214Y-100110952D01*
X149045166Y-100080000D01*
X149107071Y-100049047D01*
X149230880Y-100049047D01*
X149292785Y-100080000D01*
X149323738Y-100110952D01*
X149354690Y-100172857D01*
X149354690Y-100203809D01*
X149323738Y-100265714D01*
X149292785Y-100296666D01*
X149230880Y-100327619D01*
X149107071Y-100327619D01*
X149045166Y-100358571D01*
X149014214Y-100389523D01*
X148983261Y-100451428D01*
X148983261Y-100575238D01*
X149014214Y-100637142D01*
X149045166Y-100668095D01*
X149107071Y-100699047D01*
X149230880Y-100699047D01*
X149292785Y-100668095D01*
X149323738Y-100637142D01*
X149354690Y-100575238D01*
X149354690Y-100451428D01*
X149323738Y-100389523D01*
X149292785Y-100358571D01*
X149230880Y-100327619D01*
X160909095Y-115769452D02*
X160847190Y-115738500D01*
X160785285Y-115676595D01*
X160692428Y-115583738D01*
X160630523Y-115552785D01*
X160568619Y-115552785D01*
X160599571Y-115707547D02*
X160537666Y-115676595D01*
X160475761Y-115614690D01*
X160444809Y-115490880D01*
X160444809Y-115274214D01*
X160475761Y-115150404D01*
X160537666Y-115088500D01*
X160599571Y-115057547D01*
X160723380Y-115057547D01*
X160785285Y-115088500D01*
X160847190Y-115150404D01*
X160878142Y-115274214D01*
X160878142Y-115490880D01*
X160847190Y-115614690D01*
X160785285Y-115676595D01*
X160723380Y-115707547D01*
X160599571Y-115707547D01*
X161094809Y-115057547D02*
X161528142Y-115057547D01*
X161249571Y-115707547D01*
X148845595Y-111744452D02*
X148783690Y-111713500D01*
X148721785Y-111651595D01*
X148628928Y-111558738D01*
X148567023Y-111527785D01*
X148505119Y-111527785D01*
X148536071Y-111682547D02*
X148474166Y-111651595D01*
X148412261Y-111589690D01*
X148381309Y-111465880D01*
X148381309Y-111249214D01*
X148412261Y-111125404D01*
X148474166Y-111063500D01*
X148536071Y-111032547D01*
X148659880Y-111032547D01*
X148721785Y-111063500D01*
X148783690Y-111125404D01*
X148814642Y-111249214D01*
X148814642Y-111465880D01*
X148783690Y-111589690D01*
X148721785Y-111651595D01*
X148659880Y-111682547D01*
X148536071Y-111682547D01*
X149371785Y-111032547D02*
X149247976Y-111032547D01*
X149186071Y-111063500D01*
X149155119Y-111094452D01*
X149093214Y-111187309D01*
X149062261Y-111311119D01*
X149062261Y-111558738D01*
X149093214Y-111620642D01*
X149124166Y-111651595D01*
X149186071Y-111682547D01*
X149309880Y-111682547D01*
X149371785Y-111651595D01*
X149402738Y-111620642D01*
X149433690Y-111558738D01*
X149433690Y-111403976D01*
X149402738Y-111342071D01*
X149371785Y-111311119D01*
X149309880Y-111280166D01*
X149186071Y-111280166D01*
X149124166Y-111311119D01*
X149093214Y-111342071D01*
X149062261Y-111403976D01*
X160903595Y-93736952D02*
X160841690Y-93706000D01*
X160779785Y-93644095D01*
X160686928Y-93551238D01*
X160625023Y-93520285D01*
X160563119Y-93520285D01*
X160594071Y-93675047D02*
X160532166Y-93644095D01*
X160470261Y-93582190D01*
X160439309Y-93458380D01*
X160439309Y-93241714D01*
X160470261Y-93117904D01*
X160532166Y-93056000D01*
X160594071Y-93025047D01*
X160717880Y-93025047D01*
X160779785Y-93056000D01*
X160841690Y-93117904D01*
X160872642Y-93241714D01*
X160872642Y-93458380D01*
X160841690Y-93582190D01*
X160779785Y-93644095D01*
X160717880Y-93675047D01*
X160594071Y-93675047D01*
X161460738Y-93025047D02*
X161151214Y-93025047D01*
X161120261Y-93334571D01*
X161151214Y-93303619D01*
X161213119Y-93272666D01*
X161367880Y-93272666D01*
X161429785Y-93303619D01*
X161460738Y-93334571D01*
X161491690Y-93396476D01*
X161491690Y-93551238D01*
X161460738Y-93613142D01*
X161429785Y-93644095D01*
X161367880Y-93675047D01*
X161213119Y-93675047D01*
X161151214Y-93644095D01*
X161120261Y-93613142D01*
X148840095Y-89711952D02*
X148778190Y-89681000D01*
X148716285Y-89619095D01*
X148623428Y-89526238D01*
X148561523Y-89495285D01*
X148499619Y-89495285D01*
X148530571Y-89650047D02*
X148468666Y-89619095D01*
X148406761Y-89557190D01*
X148375809Y-89433380D01*
X148375809Y-89216714D01*
X148406761Y-89092904D01*
X148468666Y-89031000D01*
X148530571Y-89000047D01*
X148654380Y-89000047D01*
X148716285Y-89031000D01*
X148778190Y-89092904D01*
X148809142Y-89216714D01*
X148809142Y-89433380D01*
X148778190Y-89557190D01*
X148716285Y-89619095D01*
X148654380Y-89650047D01*
X148530571Y-89650047D01*
X149366285Y-89216714D02*
X149366285Y-89650047D01*
X149211523Y-88969095D02*
X149056761Y-89433380D01*
X149459142Y-89433380D01*
X160974095Y-82461452D02*
X160912190Y-82430500D01*
X160850285Y-82368595D01*
X160757428Y-82275738D01*
X160695523Y-82244785D01*
X160633619Y-82244785D01*
X160664571Y-82399547D02*
X160602666Y-82368595D01*
X160540761Y-82306690D01*
X160509809Y-82182880D01*
X160509809Y-81966214D01*
X160540761Y-81842404D01*
X160602666Y-81780500D01*
X160664571Y-81749547D01*
X160788380Y-81749547D01*
X160850285Y-81780500D01*
X160912190Y-81842404D01*
X160943142Y-81966214D01*
X160943142Y-82182880D01*
X160912190Y-82306690D01*
X160850285Y-82368595D01*
X160788380Y-82399547D01*
X160664571Y-82399547D01*
X161159809Y-81749547D02*
X161562190Y-81749547D01*
X161345523Y-81997166D01*
X161438380Y-81997166D01*
X161500285Y-82028119D01*
X161531238Y-82059071D01*
X161562190Y-82120976D01*
X161562190Y-82275738D01*
X161531238Y-82337642D01*
X161500285Y-82368595D01*
X161438380Y-82399547D01*
X161252666Y-82399547D01*
X161190761Y-82368595D01*
X161159809Y-82337642D01*
X148910595Y-78436452D02*
X148848690Y-78405500D01*
X148786785Y-78343595D01*
X148693928Y-78250738D01*
X148632023Y-78219785D01*
X148570119Y-78219785D01*
X148601071Y-78374547D02*
X148539166Y-78343595D01*
X148477261Y-78281690D01*
X148446309Y-78157880D01*
X148446309Y-77941214D01*
X148477261Y-77817404D01*
X148539166Y-77755500D01*
X148601071Y-77724547D01*
X148724880Y-77724547D01*
X148786785Y-77755500D01*
X148848690Y-77817404D01*
X148879642Y-77941214D01*
X148879642Y-78157880D01*
X148848690Y-78281690D01*
X148786785Y-78343595D01*
X148724880Y-78374547D01*
X148601071Y-78374547D01*
X149127261Y-77786452D02*
X149158214Y-77755500D01*
X149220119Y-77724547D01*
X149374880Y-77724547D01*
X149436785Y-77755500D01*
X149467738Y-77786452D01*
X149498690Y-77848357D01*
X149498690Y-77910261D01*
X149467738Y-78003119D01*
X149096309Y-78374547D01*
X149498690Y-78374547D01*
X106202952Y-75753904D02*
X106172000Y-75815809D01*
X106110095Y-75877714D01*
X106017238Y-75970571D01*
X105986285Y-76032476D01*
X105986285Y-76094380D01*
X106141047Y-76063428D02*
X106110095Y-76125333D01*
X106048190Y-76187238D01*
X105924380Y-76218190D01*
X105707714Y-76218190D01*
X105583904Y-76187238D01*
X105522000Y-76125333D01*
X105491047Y-76063428D01*
X105491047Y-75939619D01*
X105522000Y-75877714D01*
X105583904Y-75815809D01*
X105707714Y-75784857D01*
X105924380Y-75784857D01*
X106048190Y-75815809D01*
X106110095Y-75877714D01*
X106141047Y-75939619D01*
X106141047Y-76063428D01*
X106141047Y-75165809D02*
X106141047Y-75537238D01*
X106141047Y-75351523D02*
X105491047Y-75351523D01*
X105583904Y-75413428D01*
X105645809Y-75475333D01*
X105676761Y-75537238D01*
X108249047Y-91548333D02*
X108249047Y-91857857D01*
X107599047Y-91857857D01*
X108249047Y-90991190D02*
X108249047Y-91362619D01*
X108249047Y-91176904D02*
X107599047Y-91176904D01*
X107691904Y-91238809D01*
X107753809Y-91300714D01*
X107784761Y-91362619D01*
X133374047Y-114874476D02*
X132724047Y-114874476D01*
X132724047Y-114626857D01*
X132755000Y-114564952D01*
X132785952Y-114534000D01*
X132847857Y-114503047D01*
X132940714Y-114503047D01*
X133002619Y-114534000D01*
X133033571Y-114564952D01*
X133064523Y-114626857D01*
X133064523Y-114874476D01*
X133033571Y-114224476D02*
X133033571Y-114007809D01*
X133374047Y-113914952D02*
X133374047Y-114224476D01*
X132724047Y-114224476D01*
X132724047Y-113914952D01*
X133374047Y-113636380D02*
X132724047Y-113636380D01*
X132724047Y-113481619D01*
X132755000Y-113388761D01*
X132816904Y-113326857D01*
X132878809Y-113295904D01*
X133002619Y-113264952D01*
X133095476Y-113264952D01*
X133219285Y-113295904D01*
X133281190Y-113326857D01*
X133343095Y-113388761D01*
X133374047Y-113481619D01*
X133374047Y-113636380D01*
X133188333Y-113017333D02*
X133188333Y-112707809D01*
X133374047Y-113079238D02*
X132724047Y-112862571D01*
X133374047Y-112645904D01*
X133374047Y-112119714D02*
X133374047Y-112429238D01*
X132724047Y-112429238D01*
X133374047Y-111562571D02*
X133374047Y-111934000D01*
X133374047Y-111748285D02*
X132724047Y-111748285D01*
X132816904Y-111810190D01*
X132878809Y-111872095D01*
X132909761Y-111934000D01*
X116821047Y-105504142D02*
X116821047Y-105132714D01*
X117471047Y-105318428D02*
X116821047Y-105318428D01*
X117471047Y-104544619D02*
X117161523Y-104761285D01*
X117471047Y-104916047D02*
X116821047Y-104916047D01*
X116821047Y-104668428D01*
X116852000Y-104606523D01*
X116882952Y-104575571D01*
X116944857Y-104544619D01*
X117037714Y-104544619D01*
X117099619Y-104575571D01*
X117130571Y-104606523D01*
X117161523Y-104668428D01*
X117161523Y-104916047D01*
X117471047Y-104266047D02*
X116821047Y-104266047D01*
X117471047Y-103956523D02*
X116821047Y-103956523D01*
X117285333Y-103739857D01*
X116821047Y-103523190D01*
X117471047Y-103523190D01*
X117532952Y-103368428D02*
X117532952Y-102873190D01*
X117471047Y-102718428D02*
X116821047Y-102718428D01*
X116821047Y-102470809D01*
X116852000Y-102408904D01*
X116882952Y-102377952D01*
X116944857Y-102347000D01*
X117037714Y-102347000D01*
X117099619Y-102377952D01*
X117130571Y-102408904D01*
X117161523Y-102470809D01*
X117161523Y-102718428D01*
X116821047Y-101944619D02*
X116821047Y-101820809D01*
X116852000Y-101758904D01*
X116913904Y-101697000D01*
X117037714Y-101666047D01*
X117254380Y-101666047D01*
X117378190Y-101697000D01*
X117440095Y-101758904D01*
X117471047Y-101820809D01*
X117471047Y-101944619D01*
X117440095Y-102006523D01*
X117378190Y-102068428D01*
X117254380Y-102099380D01*
X117037714Y-102099380D01*
X116913904Y-102068428D01*
X116852000Y-102006523D01*
X116821047Y-101944619D01*
X116821047Y-101480333D02*
X116821047Y-101108904D01*
X117471047Y-101294619D02*
X116821047Y-101294619D01*
X117471047Y-100551761D02*
X117471047Y-100923190D01*
X117471047Y-100737476D02*
X116821047Y-100737476D01*
X116913904Y-100799380D01*
X116975809Y-100861285D01*
X117006761Y-100923190D01*
X120164809Y-118770047D02*
X120381476Y-119420047D01*
X120598142Y-118770047D01*
X120783857Y-119389095D02*
X120876714Y-119420047D01*
X121031476Y-119420047D01*
X121093380Y-119389095D01*
X121124333Y-119358142D01*
X121155285Y-119296238D01*
X121155285Y-119234333D01*
X121124333Y-119172428D01*
X121093380Y-119141476D01*
X121031476Y-119110523D01*
X120907666Y-119079571D01*
X120845761Y-119048619D01*
X120814809Y-119017666D01*
X120783857Y-118955761D01*
X120783857Y-118893857D01*
X120814809Y-118831952D01*
X120845761Y-118801000D01*
X120907666Y-118770047D01*
X121062428Y-118770047D01*
X121155285Y-118801000D01*
X121433857Y-119420047D02*
X121433857Y-118770047D01*
X121805285Y-119420047D01*
X121805285Y-118770047D01*
X122114809Y-119420047D02*
X122114809Y-118770047D01*
X122486238Y-119420047D02*
X122207666Y-119048619D01*
X122486238Y-118770047D02*
X122114809Y-119141476D01*
X123105285Y-119420047D02*
X122733857Y-119420047D01*
X122919571Y-119420047D02*
X122919571Y-118770047D01*
X122857666Y-118862904D01*
X122795761Y-118924809D01*
X122733857Y-118955761D01*
X124798238Y-118801000D02*
X124736333Y-118770047D01*
X124643476Y-118770047D01*
X124550619Y-118801000D01*
X124488714Y-118862904D01*
X124457761Y-118924809D01*
X124426809Y-119048619D01*
X124426809Y-119141476D01*
X124457761Y-119265285D01*
X124488714Y-119327190D01*
X124550619Y-119389095D01*
X124643476Y-119420047D01*
X124705380Y-119420047D01*
X124798238Y-119389095D01*
X124829190Y-119358142D01*
X124829190Y-119141476D01*
X124705380Y-119141476D01*
X125107761Y-119420047D02*
X125107761Y-118770047D01*
X125479190Y-119420047D01*
X125479190Y-118770047D01*
X125788714Y-119420047D02*
X125788714Y-118770047D01*
X125943476Y-118770047D01*
X126036333Y-118801000D01*
X126098238Y-118862904D01*
X126129190Y-118924809D01*
X126160142Y-119048619D01*
X126160142Y-119141476D01*
X126129190Y-119265285D01*
X126098238Y-119327190D01*
X126036333Y-119389095D01*
X125943476Y-119420047D01*
X125788714Y-119420047D01*
X126779190Y-119420047D02*
X126407761Y-119420047D01*
X126593476Y-119420047D02*
X126593476Y-118770047D01*
X126531571Y-118862904D01*
X126469666Y-118924809D01*
X126407761Y-118955761D01*
X117178238Y-118770047D02*
X117580619Y-118770047D01*
X117363952Y-119017666D01*
X117456809Y-119017666D01*
X117518714Y-119048619D01*
X117549666Y-119079571D01*
X117580619Y-119141476D01*
X117580619Y-119296238D01*
X117549666Y-119358142D01*
X117518714Y-119389095D01*
X117456809Y-119420047D01*
X117271095Y-119420047D01*
X117209190Y-119389095D01*
X117178238Y-119358142D01*
X117766333Y-118770047D02*
X117983000Y-119420047D01*
X118199666Y-118770047D01*
X118354428Y-118770047D02*
X118756809Y-118770047D01*
X118540142Y-119017666D01*
X118633000Y-119017666D01*
X118694904Y-119048619D01*
X118725857Y-119079571D01*
X118756809Y-119141476D01*
X118756809Y-119296238D01*
X118725857Y-119358142D01*
X118694904Y-119389095D01*
X118633000Y-119420047D01*
X118447285Y-119420047D01*
X118385380Y-119389095D01*
X118354428Y-119358142D01*
X144820047Y-69524047D02*
X144170047Y-69524047D01*
X144231952Y-69245476D02*
X144201000Y-69214523D01*
X144170047Y-69152619D01*
X144170047Y-68997857D01*
X144201000Y-68935952D01*
X144231952Y-68905000D01*
X144293857Y-68874047D01*
X144355761Y-68874047D01*
X144448619Y-68905000D01*
X144820047Y-69276428D01*
X144820047Y-68874047D01*
X144758142Y-68224047D02*
X144789095Y-68255000D01*
X144820047Y-68347857D01*
X144820047Y-68409761D01*
X144789095Y-68502619D01*
X144727190Y-68564523D01*
X144665285Y-68595476D01*
X144541476Y-68626428D01*
X144448619Y-68626428D01*
X144324809Y-68595476D01*
X144262904Y-68564523D01*
X144201000Y-68502619D01*
X144170047Y-68409761D01*
X144170047Y-68347857D01*
X144201000Y-68255000D01*
X144231952Y-68224047D01*
X144231952Y-67976428D02*
X144201000Y-67945476D01*
X144170047Y-67883571D01*
X144170047Y-67728809D01*
X144201000Y-67666904D01*
X144231952Y-67635952D01*
X144293857Y-67605000D01*
X144355761Y-67605000D01*
X144448619Y-67635952D01*
X144820047Y-68007380D01*
X144820047Y-67605000D01*
X121198047Y-69524047D02*
X120548047Y-69524047D01*
X120609952Y-69245476D02*
X120579000Y-69214523D01*
X120548047Y-69152619D01*
X120548047Y-68997857D01*
X120579000Y-68935952D01*
X120609952Y-68905000D01*
X120671857Y-68874047D01*
X120733761Y-68874047D01*
X120826619Y-68905000D01*
X121198047Y-69276428D01*
X121198047Y-68874047D01*
X121136142Y-68224047D02*
X121167095Y-68255000D01*
X121198047Y-68347857D01*
X121198047Y-68409761D01*
X121167095Y-68502619D01*
X121105190Y-68564523D01*
X121043285Y-68595476D01*
X120919476Y-68626428D01*
X120826619Y-68626428D01*
X120702809Y-68595476D01*
X120640904Y-68564523D01*
X120579000Y-68502619D01*
X120548047Y-68409761D01*
X120548047Y-68347857D01*
X120579000Y-68255000D01*
X120609952Y-68224047D01*
X121198047Y-67605000D02*
X121198047Y-67976428D01*
X121198047Y-67790714D02*
X120548047Y-67790714D01*
X120640904Y-67852619D01*
X120702809Y-67914523D01*
X120733761Y-67976428D01*
X162259571Y-77488190D02*
X162259571Y-77704857D01*
X162600047Y-77704857D02*
X161950047Y-77704857D01*
X161950047Y-77395333D01*
X162414333Y-77178666D02*
X162414333Y-76869142D01*
X162600047Y-77240571D02*
X161950047Y-77023904D01*
X162600047Y-76807238D01*
X162600047Y-76590571D02*
X161950047Y-76590571D01*
X162600047Y-76219142D01*
X161950047Y-76219142D01*
X162259571Y-100573952D02*
X162259571Y-100357285D01*
X162600047Y-100264428D02*
X162600047Y-100573952D01*
X161950047Y-100573952D01*
X161950047Y-100264428D01*
X161950047Y-100047761D02*
X162600047Y-99614428D01*
X161950047Y-99614428D02*
X162600047Y-100047761D01*
X161950047Y-99459666D02*
X161950047Y-99088238D01*
X162600047Y-99273952D02*
X161950047Y-99273952D01*
X162600047Y-98531095D02*
X162600047Y-98902523D01*
X162600047Y-98716809D02*
X161950047Y-98716809D01*
X162042904Y-98778714D01*
X162104809Y-98840619D01*
X162135761Y-98902523D01*
X161950047Y-89444380D02*
X162600047Y-89289619D01*
X162135761Y-89165809D01*
X162600047Y-89042000D01*
X161950047Y-88887238D01*
X162600047Y-88639619D02*
X161950047Y-88639619D01*
X162600047Y-87958666D02*
X162290523Y-88175333D01*
X162600047Y-88330095D02*
X161950047Y-88330095D01*
X161950047Y-88082476D01*
X161981000Y-88020571D01*
X162011952Y-87989619D01*
X162073857Y-87958666D01*
X162166714Y-87958666D01*
X162228619Y-87989619D01*
X162259571Y-88020571D01*
X162290523Y-88082476D01*
X162290523Y-88330095D01*
X162259571Y-87680095D02*
X162259571Y-87463428D01*
X162600047Y-87370571D02*
X162600047Y-87680095D01*
X161950047Y-87680095D01*
X161950047Y-87370571D01*
X75420761Y-113751952D02*
X75451714Y-113721000D01*
X75513619Y-113690047D01*
X75668380Y-113690047D01*
X75730285Y-113721000D01*
X75761238Y-113751952D01*
X75792190Y-113813857D01*
X75792190Y-113875761D01*
X75761238Y-113968619D01*
X75389809Y-114340047D01*
X75792190Y-114340047D01*
X76194571Y-113690047D02*
X76256476Y-113690047D01*
X76318380Y-113721000D01*
X76349333Y-113751952D01*
X76380285Y-113813857D01*
X76411238Y-113937666D01*
X76411238Y-114092428D01*
X76380285Y-114216238D01*
X76349333Y-114278142D01*
X76318380Y-114309095D01*
X76256476Y-114340047D01*
X76194571Y-114340047D01*
X76132666Y-114309095D01*
X76101714Y-114278142D01*
X76070761Y-114216238D01*
X76039809Y-114092428D01*
X76039809Y-113937666D01*
X76070761Y-113813857D01*
X76101714Y-113751952D01*
X76132666Y-113721000D01*
X76194571Y-113690047D01*
X76689809Y-114092428D02*
X77185047Y-114092428D01*
X77463619Y-113751952D02*
X77494571Y-113721000D01*
X77556476Y-113690047D01*
X77711238Y-113690047D01*
X77773142Y-113721000D01*
X77804095Y-113751952D01*
X77835047Y-113813857D01*
X77835047Y-113875761D01*
X77804095Y-113968619D01*
X77432666Y-114340047D01*
X77835047Y-114340047D01*
X78392190Y-113906714D02*
X78392190Y-114340047D01*
X78237428Y-113659095D02*
X78082666Y-114123380D01*
X78485047Y-114123380D01*
X78639809Y-113690047D02*
X78856476Y-114340047D01*
X79073142Y-113690047D01*
X120170238Y-77510047D02*
X120170238Y-76860047D01*
X120325000Y-76860047D01*
X120417857Y-76891000D01*
X120479761Y-76952904D01*
X120510714Y-77014809D01*
X120541666Y-77138619D01*
X120541666Y-77231476D01*
X120510714Y-77355285D01*
X120479761Y-77417190D01*
X120417857Y-77479095D01*
X120325000Y-77510047D01*
X120170238Y-77510047D01*
X121129761Y-76860047D02*
X120820238Y-76860047D01*
X120789285Y-77169571D01*
X120820238Y-77138619D01*
X120882142Y-77107666D01*
X121036904Y-77107666D01*
X121098809Y-77138619D01*
X121129761Y-77169571D01*
X121160714Y-77231476D01*
X121160714Y-77386238D01*
X121129761Y-77448142D01*
X121098809Y-77479095D01*
X121036904Y-77510047D01*
X120882142Y-77510047D01*
X120820238Y-77479095D01*
X120789285Y-77448142D01*
X93500238Y-86964047D02*
X93500238Y-86314047D01*
X93655000Y-86314047D01*
X93747857Y-86345000D01*
X93809761Y-86406904D01*
X93840714Y-86468809D01*
X93871666Y-86592619D01*
X93871666Y-86685476D01*
X93840714Y-86809285D01*
X93809761Y-86871190D01*
X93747857Y-86933095D01*
X93655000Y-86964047D01*
X93500238Y-86964047D01*
X94088333Y-86314047D02*
X94490714Y-86314047D01*
X94274047Y-86561666D01*
X94366904Y-86561666D01*
X94428809Y-86592619D01*
X94459761Y-86623571D01*
X94490714Y-86685476D01*
X94490714Y-86840238D01*
X94459761Y-86902142D01*
X94428809Y-86933095D01*
X94366904Y-86964047D01*
X94181190Y-86964047D01*
X94119285Y-86933095D01*
X94088333Y-86902142D01*
X86236238Y-81866447D02*
X86236238Y-81216447D01*
X86391000Y-81216447D01*
X86483857Y-81247400D01*
X86545761Y-81309304D01*
X86576714Y-81371209D01*
X86607666Y-81495019D01*
X86607666Y-81587876D01*
X86576714Y-81711685D01*
X86545761Y-81773590D01*
X86483857Y-81835495D01*
X86391000Y-81866447D01*
X86236238Y-81866447D01*
X86855285Y-81278352D02*
X86886238Y-81247400D01*
X86948142Y-81216447D01*
X87102904Y-81216447D01*
X87164809Y-81247400D01*
X87195761Y-81278352D01*
X87226714Y-81340257D01*
X87226714Y-81402161D01*
X87195761Y-81495019D01*
X86824333Y-81866447D01*
X87226714Y-81866447D01*
X87150238Y-72049047D02*
X87150238Y-71399047D01*
X87305000Y-71399047D01*
X87397857Y-71430000D01*
X87459761Y-71491904D01*
X87490714Y-71553809D01*
X87521666Y-71677619D01*
X87521666Y-71770476D01*
X87490714Y-71894285D01*
X87459761Y-71956190D01*
X87397857Y-72018095D01*
X87305000Y-72049047D01*
X87150238Y-72049047D01*
X88140714Y-72049047D02*
X87769285Y-72049047D01*
X87955000Y-72049047D02*
X87955000Y-71399047D01*
X87893095Y-71491904D01*
X87831190Y-71553809D01*
X87769285Y-71584761D01*
X96244142Y-109637857D02*
X96275095Y-109668809D01*
X96306047Y-109761666D01*
X96306047Y-109823571D01*
X96275095Y-109916428D01*
X96213190Y-109978333D01*
X96151285Y-110009285D01*
X96027476Y-110040238D01*
X95934619Y-110040238D01*
X95810809Y-110009285D01*
X95748904Y-109978333D01*
X95687000Y-109916428D01*
X95656047Y-109823571D01*
X95656047Y-109761666D01*
X95687000Y-109668809D01*
X95717952Y-109637857D01*
X96306047Y-109018809D02*
X96306047Y-109390238D01*
X96306047Y-109204523D02*
X95656047Y-109204523D01*
X95748904Y-109266428D01*
X95810809Y-109328333D01*
X95841761Y-109390238D01*
X95656047Y-108430714D02*
X95656047Y-108740238D01*
X95965571Y-108771190D01*
X95934619Y-108740238D01*
X95903666Y-108678333D01*
X95903666Y-108523571D01*
X95934619Y-108461666D01*
X95965571Y-108430714D01*
X96027476Y-108399761D01*
X96182238Y-108399761D01*
X96244142Y-108430714D01*
X96275095Y-108461666D01*
X96306047Y-108523571D01*
X96306047Y-108678333D01*
X96275095Y-108740238D01*
X96244142Y-108771190D01*
X78322142Y-95602142D02*
X78291190Y-95633095D01*
X78198333Y-95664047D01*
X78136428Y-95664047D01*
X78043571Y-95633095D01*
X77981666Y-95571190D01*
X77950714Y-95509285D01*
X77919761Y-95385476D01*
X77919761Y-95292619D01*
X77950714Y-95168809D01*
X77981666Y-95106904D01*
X78043571Y-95045000D01*
X78136428Y-95014047D01*
X78198333Y-95014047D01*
X78291190Y-95045000D01*
X78322142Y-95075952D01*
X78941190Y-95664047D02*
X78569761Y-95664047D01*
X78755476Y-95664047D02*
X78755476Y-95014047D01*
X78693571Y-95106904D01*
X78631666Y-95168809D01*
X78569761Y-95199761D01*
X79498333Y-95230714D02*
X79498333Y-95664047D01*
X79343571Y-94983095D02*
X79188809Y-95447380D01*
X79591190Y-95447380D01*
X131541142Y-81896333D02*
X131572095Y-81927285D01*
X131603047Y-82020142D01*
X131603047Y-82082047D01*
X131572095Y-82174904D01*
X131510190Y-82236809D01*
X131448285Y-82267761D01*
X131324476Y-82298714D01*
X131231619Y-82298714D01*
X131107809Y-82267761D01*
X131045904Y-82236809D01*
X130984000Y-82174904D01*
X130953047Y-82082047D01*
X130953047Y-82020142D01*
X130984000Y-81927285D01*
X131014952Y-81896333D01*
X130953047Y-81308238D02*
X130953047Y-81617761D01*
X131262571Y-81648714D01*
X131231619Y-81617761D01*
X131200666Y-81555857D01*
X131200666Y-81401095D01*
X131231619Y-81339190D01*
X131262571Y-81308238D01*
X131324476Y-81277285D01*
X131479238Y-81277285D01*
X131541142Y-81308238D01*
X131572095Y-81339190D01*
X131603047Y-81401095D01*
X131603047Y-81555857D01*
X131572095Y-81617761D01*
X131541142Y-81648714D01*
X115334666Y-78337142D02*
X115303714Y-78368095D01*
X115210857Y-78399047D01*
X115148952Y-78399047D01*
X115056095Y-78368095D01*
X114994190Y-78306190D01*
X114963238Y-78244285D01*
X114932285Y-78120476D01*
X114932285Y-78027619D01*
X114963238Y-77903809D01*
X114994190Y-77841904D01*
X115056095Y-77780000D01*
X115148952Y-77749047D01*
X115210857Y-77749047D01*
X115303714Y-77780000D01*
X115334666Y-77810952D01*
X115891809Y-77965714D02*
X115891809Y-78399047D01*
X115737047Y-77718095D02*
X115582285Y-78182380D01*
X115984666Y-78182380D01*
X95649666Y-75797142D02*
X95618714Y-75828095D01*
X95525857Y-75859047D01*
X95463952Y-75859047D01*
X95371095Y-75828095D01*
X95309190Y-75766190D01*
X95278238Y-75704285D01*
X95247285Y-75580476D01*
X95247285Y-75487619D01*
X95278238Y-75363809D01*
X95309190Y-75301904D01*
X95371095Y-75240000D01*
X95463952Y-75209047D01*
X95525857Y-75209047D01*
X95618714Y-75240000D01*
X95649666Y-75270952D01*
X95866333Y-75209047D02*
X96268714Y-75209047D01*
X96052047Y-75456666D01*
X96144904Y-75456666D01*
X96206809Y-75487619D01*
X96237761Y-75518571D01*
X96268714Y-75580476D01*
X96268714Y-75735238D01*
X96237761Y-75797142D01*
X96206809Y-75828095D01*
X96144904Y-75859047D01*
X95959190Y-75859047D01*
X95897285Y-75828095D01*
X95866333Y-75797142D01*
X90061666Y-75797142D02*
X90030714Y-75828095D01*
X89937857Y-75859047D01*
X89875952Y-75859047D01*
X89783095Y-75828095D01*
X89721190Y-75766190D01*
X89690238Y-75704285D01*
X89659285Y-75580476D01*
X89659285Y-75487619D01*
X89690238Y-75363809D01*
X89721190Y-75301904D01*
X89783095Y-75240000D01*
X89875952Y-75209047D01*
X89937857Y-75209047D01*
X90030714Y-75240000D01*
X90061666Y-75270952D01*
X90309285Y-75270952D02*
X90340238Y-75240000D01*
X90402142Y-75209047D01*
X90556904Y-75209047D01*
X90618809Y-75240000D01*
X90649761Y-75270952D01*
X90680714Y-75332857D01*
X90680714Y-75394761D01*
X90649761Y-75487619D01*
X90278333Y-75859047D01*
X90680714Y-75859047D01*
X92855666Y-75797142D02*
X92824714Y-75828095D01*
X92731857Y-75859047D01*
X92669952Y-75859047D01*
X92577095Y-75828095D01*
X92515190Y-75766190D01*
X92484238Y-75704285D01*
X92453285Y-75580476D01*
X92453285Y-75487619D01*
X92484238Y-75363809D01*
X92515190Y-75301904D01*
X92577095Y-75240000D01*
X92669952Y-75209047D01*
X92731857Y-75209047D01*
X92824714Y-75240000D01*
X92855666Y-75270952D01*
X93474714Y-75859047D02*
X93103285Y-75859047D01*
X93289000Y-75859047D02*
X93289000Y-75209047D01*
X93227095Y-75301904D01*
X93165190Y-75363809D01*
X93103285Y-75394761D01*
M02*
