G04 #@! TF.GenerationSoftware,KiCad,Pcbnew,(5.1.0-rc2-41-g6b3e9b0ed)*
G04 #@! TF.CreationDate,2021-09-28T16:44:10+02:00*
G04 #@! TF.ProjectId,styro_control,73747972-6f5f-4636-9f6e-74726f6c2e6b,rev?*
G04 #@! TF.SameCoordinates,Original*
G04 #@! TF.FileFunction,Soldermask,Top*
G04 #@! TF.FilePolarity,Negative*
%FSLAX46Y46*%
G04 Gerber Fmt 4.6, Leading zero omitted, Abs format (unit mm)*
G04 Created by KiCad (PCBNEW (5.1.0-rc2-41-g6b3e9b0ed)) date 2021-09-28 16:44:10*
%MOMM*%
%LPD*%
G04 APERTURE LIST*
%ADD10C,0.100000*%
G04 APERTURE END LIST*
D10*
G36*
X138663642Y-117288781D02*
G01*
X138809414Y-117349162D01*
X138809416Y-117349163D01*
X138940608Y-117436822D01*
X139052178Y-117548392D01*
X139088757Y-117603137D01*
X139139838Y-117679586D01*
X139200219Y-117825358D01*
X139231000Y-117980107D01*
X139231000Y-118137893D01*
X139200219Y-118292642D01*
X139139838Y-118438414D01*
X139139837Y-118438416D01*
X139052178Y-118569608D01*
X138940608Y-118681178D01*
X138809416Y-118768837D01*
X138809415Y-118768838D01*
X138809414Y-118768838D01*
X138663642Y-118829219D01*
X138508893Y-118860000D01*
X138351107Y-118860000D01*
X138196358Y-118829219D01*
X138050586Y-118768838D01*
X138050585Y-118768838D01*
X138050584Y-118768837D01*
X137919392Y-118681178D01*
X137807822Y-118569608D01*
X137720163Y-118438416D01*
X137720162Y-118438414D01*
X137659781Y-118292642D01*
X137629000Y-118137893D01*
X137629000Y-117980107D01*
X137659781Y-117825358D01*
X137720162Y-117679586D01*
X137771243Y-117603137D01*
X137807822Y-117548392D01*
X137919392Y-117436822D01*
X138050584Y-117349163D01*
X138050586Y-117349162D01*
X138196358Y-117288781D01*
X138351107Y-117258000D01*
X138508893Y-117258000D01*
X138663642Y-117288781D01*
X138663642Y-117288781D01*
G37*
G36*
X172464487Y-116223996D02*
G01*
X172701253Y-116322068D01*
X172701255Y-116322069D01*
X172914339Y-116464447D01*
X173095553Y-116645661D01*
X173237932Y-116858747D01*
X173336004Y-117095513D01*
X173386000Y-117346861D01*
X173386000Y-117603139D01*
X173336004Y-117854487D01*
X173283970Y-117980107D01*
X173237931Y-118091255D01*
X173095553Y-118304339D01*
X172914339Y-118485553D01*
X172701255Y-118627931D01*
X172701254Y-118627932D01*
X172701253Y-118627932D01*
X172464487Y-118726004D01*
X172213139Y-118776000D01*
X171956861Y-118776000D01*
X171705513Y-118726004D01*
X171468747Y-118627932D01*
X171468746Y-118627932D01*
X171468745Y-118627931D01*
X171255661Y-118485553D01*
X171074447Y-118304339D01*
X170932069Y-118091255D01*
X170886030Y-117980107D01*
X170833996Y-117854487D01*
X170784000Y-117603139D01*
X170784000Y-117346861D01*
X170833996Y-117095513D01*
X170932068Y-116858747D01*
X171074447Y-116645661D01*
X171255661Y-116464447D01*
X171468745Y-116322069D01*
X171468747Y-116322068D01*
X171705513Y-116223996D01*
X171956861Y-116174000D01*
X172213139Y-116174000D01*
X172464487Y-116223996D01*
X172464487Y-116223996D01*
G37*
G36*
X77214487Y-116223996D02*
G01*
X77451253Y-116322068D01*
X77451255Y-116322069D01*
X77664339Y-116464447D01*
X77845553Y-116645661D01*
X77987932Y-116858747D01*
X78086004Y-117095513D01*
X78136000Y-117346861D01*
X78136000Y-117603139D01*
X78086004Y-117854487D01*
X78033970Y-117980107D01*
X77987931Y-118091255D01*
X77845553Y-118304339D01*
X77664339Y-118485553D01*
X77451255Y-118627931D01*
X77451254Y-118627932D01*
X77451253Y-118627932D01*
X77214487Y-118726004D01*
X76963139Y-118776000D01*
X76706861Y-118776000D01*
X76455513Y-118726004D01*
X76218747Y-118627932D01*
X76218746Y-118627932D01*
X76218745Y-118627931D01*
X76005661Y-118485553D01*
X75824447Y-118304339D01*
X75682069Y-118091255D01*
X75636030Y-117980107D01*
X75583996Y-117854487D01*
X75534000Y-117603139D01*
X75534000Y-117346861D01*
X75583996Y-117095513D01*
X75682068Y-116858747D01*
X75824447Y-116645661D01*
X76005661Y-116464447D01*
X76218745Y-116322069D01*
X76218747Y-116322068D01*
X76455513Y-116223996D01*
X76706861Y-116174000D01*
X76963139Y-116174000D01*
X77214487Y-116223996D01*
X77214487Y-116223996D01*
G37*
G36*
X126504000Y-117995000D02*
G01*
X124702000Y-117995000D01*
X124702000Y-116193000D01*
X126504000Y-116193000D01*
X126504000Y-117995000D01*
X126504000Y-117995000D01*
G37*
G36*
X122694000Y-117995000D02*
G01*
X120892000Y-117995000D01*
X120892000Y-116193000D01*
X122694000Y-116193000D01*
X122694000Y-117995000D01*
X122694000Y-117995000D01*
G37*
G36*
X118884000Y-117995000D02*
G01*
X117082000Y-117995000D01*
X117082000Y-116193000D01*
X118884000Y-116193000D01*
X118884000Y-117995000D01*
X118884000Y-117995000D01*
G37*
G36*
X136481000Y-117110000D02*
G01*
X133879000Y-117110000D01*
X133879000Y-115808000D01*
X136481000Y-115808000D01*
X136481000Y-117110000D01*
X136481000Y-117110000D01*
G37*
G36*
X130666442Y-113659518D02*
G01*
X130732627Y-113666037D01*
X130902466Y-113717557D01*
X131058991Y-113801222D01*
X131088441Y-113825391D01*
X131196186Y-113913814D01*
X131279448Y-114015271D01*
X131308778Y-114051009D01*
X131308779Y-114051011D01*
X131380666Y-114185500D01*
X131392443Y-114207534D01*
X131443963Y-114377373D01*
X131461359Y-114554000D01*
X131443963Y-114730627D01*
X131392443Y-114900466D01*
X131308778Y-115056991D01*
X131299171Y-115068697D01*
X131196186Y-115194186D01*
X131094729Y-115277448D01*
X131058991Y-115306778D01*
X130902466Y-115390443D01*
X130732627Y-115441963D01*
X130666442Y-115448482D01*
X130600260Y-115455000D01*
X130511740Y-115455000D01*
X130445558Y-115448482D01*
X130379373Y-115441963D01*
X130209534Y-115390443D01*
X130053009Y-115306778D01*
X130017271Y-115277448D01*
X129915814Y-115194186D01*
X129812829Y-115068697D01*
X129803222Y-115056991D01*
X129719557Y-114900466D01*
X129668037Y-114730627D01*
X129650641Y-114554000D01*
X129668037Y-114377373D01*
X129719557Y-114207534D01*
X129731335Y-114185500D01*
X129803221Y-114051011D01*
X129803222Y-114051009D01*
X129832552Y-114015271D01*
X129915814Y-113913814D01*
X130023559Y-113825391D01*
X130053009Y-113801222D01*
X130209534Y-113717557D01*
X130379373Y-113666037D01*
X130445558Y-113659518D01*
X130511740Y-113653000D01*
X130600260Y-113653000D01*
X130666442Y-113659518D01*
X130666442Y-113659518D01*
G37*
G36*
X118093442Y-113659518D02*
G01*
X118159627Y-113666037D01*
X118329466Y-113717557D01*
X118485991Y-113801222D01*
X118515441Y-113825391D01*
X118623186Y-113913814D01*
X118706448Y-114015271D01*
X118735778Y-114051009D01*
X118735779Y-114051011D01*
X118807666Y-114185500D01*
X118819443Y-114207534D01*
X118870963Y-114377373D01*
X118888359Y-114554000D01*
X118870963Y-114730627D01*
X118819443Y-114900466D01*
X118735778Y-115056991D01*
X118726171Y-115068697D01*
X118623186Y-115194186D01*
X118521729Y-115277448D01*
X118485991Y-115306778D01*
X118329466Y-115390443D01*
X118159627Y-115441963D01*
X118093442Y-115448482D01*
X118027260Y-115455000D01*
X117938740Y-115455000D01*
X117872558Y-115448482D01*
X117806373Y-115441963D01*
X117636534Y-115390443D01*
X117480009Y-115306778D01*
X117444271Y-115277448D01*
X117342814Y-115194186D01*
X117239829Y-115068697D01*
X117230222Y-115056991D01*
X117146557Y-114900466D01*
X117095037Y-114730627D01*
X117077641Y-114554000D01*
X117095037Y-114377373D01*
X117146557Y-114207534D01*
X117158335Y-114185500D01*
X117230221Y-114051011D01*
X117230222Y-114051009D01*
X117259552Y-114015271D01*
X117342814Y-113913814D01*
X117450559Y-113825391D01*
X117480009Y-113801222D01*
X117636534Y-113717557D01*
X117806373Y-113666037D01*
X117872558Y-113659518D01*
X117938740Y-113653000D01*
X118027260Y-113653000D01*
X118093442Y-113659518D01*
X118093442Y-113659518D01*
G37*
G36*
X125713442Y-113659518D02*
G01*
X125779627Y-113666037D01*
X125949466Y-113717557D01*
X126105991Y-113801222D01*
X126135441Y-113825391D01*
X126243186Y-113913814D01*
X126326448Y-114015271D01*
X126355778Y-114051009D01*
X126355779Y-114051011D01*
X126427666Y-114185500D01*
X126439443Y-114207534D01*
X126490963Y-114377373D01*
X126508359Y-114554000D01*
X126490963Y-114730627D01*
X126439443Y-114900466D01*
X126355778Y-115056991D01*
X126346171Y-115068697D01*
X126243186Y-115194186D01*
X126141729Y-115277448D01*
X126105991Y-115306778D01*
X125949466Y-115390443D01*
X125779627Y-115441963D01*
X125713442Y-115448482D01*
X125647260Y-115455000D01*
X125558740Y-115455000D01*
X125492558Y-115448482D01*
X125426373Y-115441963D01*
X125256534Y-115390443D01*
X125100009Y-115306778D01*
X125064271Y-115277448D01*
X124962814Y-115194186D01*
X124859829Y-115068697D01*
X124850222Y-115056991D01*
X124766557Y-114900466D01*
X124715037Y-114730627D01*
X124697641Y-114554000D01*
X124715037Y-114377373D01*
X124766557Y-114207534D01*
X124778335Y-114185500D01*
X124850221Y-114051011D01*
X124850222Y-114051009D01*
X124879552Y-114015271D01*
X124962814Y-113913814D01*
X125070559Y-113825391D01*
X125100009Y-113801222D01*
X125256534Y-113717557D01*
X125426373Y-113666037D01*
X125492558Y-113659518D01*
X125558740Y-113653000D01*
X125647260Y-113653000D01*
X125713442Y-113659518D01*
X125713442Y-113659518D01*
G37*
G36*
X121903442Y-113659518D02*
G01*
X121969627Y-113666037D01*
X122139466Y-113717557D01*
X122295991Y-113801222D01*
X122325441Y-113825391D01*
X122433186Y-113913814D01*
X122516448Y-114015271D01*
X122545778Y-114051009D01*
X122545779Y-114051011D01*
X122617666Y-114185500D01*
X122629443Y-114207534D01*
X122680963Y-114377373D01*
X122698359Y-114554000D01*
X122680963Y-114730627D01*
X122629443Y-114900466D01*
X122545778Y-115056991D01*
X122536171Y-115068697D01*
X122433186Y-115194186D01*
X122331729Y-115277448D01*
X122295991Y-115306778D01*
X122139466Y-115390443D01*
X121969627Y-115441963D01*
X121903442Y-115448482D01*
X121837260Y-115455000D01*
X121748740Y-115455000D01*
X121682558Y-115448482D01*
X121616373Y-115441963D01*
X121446534Y-115390443D01*
X121290009Y-115306778D01*
X121254271Y-115277448D01*
X121152814Y-115194186D01*
X121049829Y-115068697D01*
X121040222Y-115056991D01*
X120956557Y-114900466D01*
X120905037Y-114730627D01*
X120887641Y-114554000D01*
X120905037Y-114377373D01*
X120956557Y-114207534D01*
X120968335Y-114185500D01*
X121040221Y-114051011D01*
X121040222Y-114051009D01*
X121069552Y-114015271D01*
X121152814Y-113913814D01*
X121260559Y-113825391D01*
X121290009Y-113801222D01*
X121446534Y-113717557D01*
X121616373Y-113666037D01*
X121682558Y-113659518D01*
X121748740Y-113653000D01*
X121837260Y-113653000D01*
X121903442Y-113659518D01*
X121903442Y-113659518D01*
G37*
G36*
X82866366Y-111500695D02*
G01*
X83023460Y-111548349D01*
X83168231Y-111625731D01*
X83295128Y-111729872D01*
X83399269Y-111856769D01*
X83476651Y-112001540D01*
X83524305Y-112158634D01*
X83541000Y-112328140D01*
X83541000Y-114241860D01*
X83524305Y-114411366D01*
X83476651Y-114568460D01*
X83399269Y-114713231D01*
X83295128Y-114840128D01*
X83168231Y-114944269D01*
X83023460Y-115021651D01*
X82866366Y-115069305D01*
X82696860Y-115086000D01*
X80783140Y-115086000D01*
X80613634Y-115069305D01*
X80456540Y-115021651D01*
X80311769Y-114944269D01*
X80184872Y-114840128D01*
X80080731Y-114713231D01*
X80003349Y-114568460D01*
X79955695Y-114411366D01*
X79939000Y-114241860D01*
X79939000Y-112328140D01*
X79955695Y-112158634D01*
X80003349Y-112001540D01*
X80080731Y-111856769D01*
X80184872Y-111729872D01*
X80311769Y-111625731D01*
X80456540Y-111548349D01*
X80613634Y-111500695D01*
X80783140Y-111484000D01*
X82696860Y-111484000D01*
X82866366Y-111500695D01*
X82866366Y-111500695D01*
G37*
G36*
X104676934Y-111307671D02*
G01*
X104706877Y-111316754D01*
X104734465Y-111331500D01*
X104758651Y-111351349D01*
X104778500Y-111375535D01*
X104793246Y-111403123D01*
X104802329Y-111433066D01*
X104806000Y-111470340D01*
X104806000Y-114739660D01*
X104802329Y-114776934D01*
X104793246Y-114806877D01*
X104778500Y-114834465D01*
X104758651Y-114858651D01*
X104734465Y-114878500D01*
X104706877Y-114893246D01*
X104676934Y-114902329D01*
X104639660Y-114906000D01*
X102370340Y-114906000D01*
X102333066Y-114902329D01*
X102303123Y-114893246D01*
X102275535Y-114878500D01*
X102251349Y-114858651D01*
X102231500Y-114834465D01*
X102216754Y-114806877D01*
X102207671Y-114776934D01*
X102204000Y-114739660D01*
X102204000Y-111470340D01*
X102207671Y-111433066D01*
X102216754Y-111403123D01*
X102231500Y-111375535D01*
X102251349Y-111351349D01*
X102275535Y-111331500D01*
X102303123Y-111316754D01*
X102333066Y-111307671D01*
X102370340Y-111304000D01*
X104639660Y-111304000D01*
X104676934Y-111307671D01*
X104676934Y-111307671D01*
G37*
G36*
X161272500Y-114367500D02*
G01*
X154770500Y-114367500D01*
X154770500Y-108465500D01*
X161272500Y-108465500D01*
X161272500Y-114367500D01*
X161272500Y-114367500D01*
G37*
G36*
X152872500Y-114347500D02*
G01*
X150570500Y-114347500D01*
X150570500Y-113045500D01*
X152872500Y-113045500D01*
X152872500Y-114347500D01*
X152872500Y-114347500D01*
G37*
G36*
X169050072Y-111476918D02*
G01*
X169273847Y-111569608D01*
X169295939Y-111578759D01*
X169517212Y-111726610D01*
X169705390Y-111914788D01*
X169853241Y-112136061D01*
X169955082Y-112381928D01*
X170007000Y-112642938D01*
X170007000Y-112909062D01*
X169955082Y-113170072D01*
X169853241Y-113415939D01*
X169705390Y-113637212D01*
X169517212Y-113825390D01*
X169295939Y-113973241D01*
X169295938Y-113973242D01*
X169295937Y-113973242D01*
X169050072Y-114075082D01*
X168789063Y-114127000D01*
X168522937Y-114127000D01*
X168261928Y-114075082D01*
X168016063Y-113973242D01*
X168016062Y-113973242D01*
X168016061Y-113973241D01*
X167794788Y-113825390D01*
X167606610Y-113637212D01*
X167458759Y-113415939D01*
X167356918Y-113170072D01*
X167305000Y-112909062D01*
X167305000Y-112642938D01*
X167356918Y-112381928D01*
X167458759Y-112136061D01*
X167606610Y-111914788D01*
X167794788Y-111726610D01*
X168016061Y-111578759D01*
X168038154Y-111569608D01*
X168261928Y-111476918D01*
X168522937Y-111425000D01*
X168789063Y-111425000D01*
X169050072Y-111476918D01*
X169050072Y-111476918D01*
G37*
G36*
X136481000Y-114110000D02*
G01*
X133879000Y-114110000D01*
X133879000Y-112808000D01*
X136481000Y-112808000D01*
X136481000Y-114110000D01*
X136481000Y-114110000D01*
G37*
G36*
X146756000Y-113957000D02*
G01*
X144754000Y-113957000D01*
X144754000Y-113055000D01*
X146756000Y-113055000D01*
X146756000Y-113957000D01*
X146756000Y-113957000D01*
G37*
G36*
X95473000Y-113377000D02*
G01*
X94271000Y-113377000D01*
X94271000Y-112175000D01*
X95473000Y-112175000D01*
X95473000Y-113377000D01*
X95473000Y-113377000D01*
G37*
G36*
X92673000Y-113377000D02*
G01*
X91471000Y-113377000D01*
X91471000Y-112175000D01*
X92673000Y-112175000D01*
X92673000Y-113377000D01*
X92673000Y-113377000D01*
G37*
G36*
X149756000Y-113007000D02*
G01*
X147754000Y-113007000D01*
X147754000Y-112105000D01*
X149756000Y-112105000D01*
X149756000Y-113007000D01*
X149756000Y-113007000D01*
G37*
G36*
X131457000Y-112915000D02*
G01*
X129655000Y-112915000D01*
X129655000Y-111113000D01*
X131457000Y-111113000D01*
X131457000Y-112915000D01*
X131457000Y-112915000D01*
G37*
G36*
X121903443Y-111119519D02*
G01*
X121969627Y-111126037D01*
X122139466Y-111177557D01*
X122295991Y-111261222D01*
X122331729Y-111290552D01*
X122433186Y-111373814D01*
X122507712Y-111464626D01*
X122545778Y-111511009D01*
X122629443Y-111667534D01*
X122680963Y-111837373D01*
X122698359Y-112014000D01*
X122680963Y-112190627D01*
X122639249Y-112328140D01*
X122629442Y-112360468D01*
X122587611Y-112438728D01*
X122545778Y-112516991D01*
X122516448Y-112552729D01*
X122433186Y-112654186D01*
X122331729Y-112737448D01*
X122295991Y-112766778D01*
X122139466Y-112850443D01*
X121969627Y-112901963D01*
X121903442Y-112908482D01*
X121837260Y-112915000D01*
X121748740Y-112915000D01*
X121682558Y-112908482D01*
X121616373Y-112901963D01*
X121446534Y-112850443D01*
X121290009Y-112766778D01*
X121254271Y-112737448D01*
X121152814Y-112654186D01*
X121069552Y-112552729D01*
X121040222Y-112516991D01*
X120998389Y-112438728D01*
X120956558Y-112360468D01*
X120946751Y-112328140D01*
X120905037Y-112190627D01*
X120887641Y-112014000D01*
X120905037Y-111837373D01*
X120956557Y-111667534D01*
X121040222Y-111511009D01*
X121078288Y-111464626D01*
X121152814Y-111373814D01*
X121254271Y-111290552D01*
X121290009Y-111261222D01*
X121446534Y-111177557D01*
X121616373Y-111126037D01*
X121682557Y-111119519D01*
X121748740Y-111113000D01*
X121837260Y-111113000D01*
X121903443Y-111119519D01*
X121903443Y-111119519D01*
G37*
G36*
X118093443Y-111119519D02*
G01*
X118159627Y-111126037D01*
X118329466Y-111177557D01*
X118485991Y-111261222D01*
X118521729Y-111290552D01*
X118623186Y-111373814D01*
X118697712Y-111464626D01*
X118735778Y-111511009D01*
X118819443Y-111667534D01*
X118870963Y-111837373D01*
X118888359Y-112014000D01*
X118870963Y-112190627D01*
X118829249Y-112328140D01*
X118819442Y-112360468D01*
X118777611Y-112438728D01*
X118735778Y-112516991D01*
X118706448Y-112552729D01*
X118623186Y-112654186D01*
X118521729Y-112737448D01*
X118485991Y-112766778D01*
X118329466Y-112850443D01*
X118159627Y-112901963D01*
X118093442Y-112908482D01*
X118027260Y-112915000D01*
X117938740Y-112915000D01*
X117872558Y-112908482D01*
X117806373Y-112901963D01*
X117636534Y-112850443D01*
X117480009Y-112766778D01*
X117444271Y-112737448D01*
X117342814Y-112654186D01*
X117259552Y-112552729D01*
X117230222Y-112516991D01*
X117188389Y-112438728D01*
X117146558Y-112360468D01*
X117136751Y-112328140D01*
X117095037Y-112190627D01*
X117077641Y-112014000D01*
X117095037Y-111837373D01*
X117146557Y-111667534D01*
X117230222Y-111511009D01*
X117268288Y-111464626D01*
X117342814Y-111373814D01*
X117444271Y-111290552D01*
X117480009Y-111261222D01*
X117636534Y-111177557D01*
X117806373Y-111126037D01*
X117872557Y-111119519D01*
X117938740Y-111113000D01*
X118027260Y-111113000D01*
X118093443Y-111119519D01*
X118093443Y-111119519D01*
G37*
G36*
X125713443Y-111119519D02*
G01*
X125779627Y-111126037D01*
X125949466Y-111177557D01*
X126105991Y-111261222D01*
X126141729Y-111290552D01*
X126243186Y-111373814D01*
X126317712Y-111464626D01*
X126355778Y-111511009D01*
X126439443Y-111667534D01*
X126490963Y-111837373D01*
X126508359Y-112014000D01*
X126490963Y-112190627D01*
X126449249Y-112328140D01*
X126439442Y-112360468D01*
X126397611Y-112438728D01*
X126355778Y-112516991D01*
X126326448Y-112552729D01*
X126243186Y-112654186D01*
X126141729Y-112737448D01*
X126105991Y-112766778D01*
X125949466Y-112850443D01*
X125779627Y-112901963D01*
X125713442Y-112908482D01*
X125647260Y-112915000D01*
X125558740Y-112915000D01*
X125492558Y-112908482D01*
X125426373Y-112901963D01*
X125256534Y-112850443D01*
X125100009Y-112766778D01*
X125064271Y-112737448D01*
X124962814Y-112654186D01*
X124879552Y-112552729D01*
X124850222Y-112516991D01*
X124808389Y-112438728D01*
X124766558Y-112360468D01*
X124756751Y-112328140D01*
X124715037Y-112190627D01*
X124697641Y-112014000D01*
X124715037Y-111837373D01*
X124766557Y-111667534D01*
X124850222Y-111511009D01*
X124888288Y-111464626D01*
X124962814Y-111373814D01*
X125064271Y-111290552D01*
X125100009Y-111261222D01*
X125256534Y-111177557D01*
X125426373Y-111126037D01*
X125492557Y-111119519D01*
X125558740Y-111113000D01*
X125647260Y-111113000D01*
X125713443Y-111119519D01*
X125713443Y-111119519D01*
G37*
G36*
X152872500Y-112067500D02*
G01*
X150570500Y-112067500D01*
X150570500Y-110765500D01*
X152872500Y-110765500D01*
X152872500Y-112067500D01*
X152872500Y-112067500D01*
G37*
G36*
X146756000Y-112057000D02*
G01*
X144754000Y-112057000D01*
X144754000Y-111155000D01*
X146756000Y-111155000D01*
X146756000Y-112057000D01*
X146756000Y-112057000D01*
G37*
G36*
X138663642Y-110288781D02*
G01*
X138809414Y-110349162D01*
X138809416Y-110349163D01*
X138940608Y-110436822D01*
X139052178Y-110548392D01*
X139139837Y-110679584D01*
X139139838Y-110679586D01*
X139200219Y-110825358D01*
X139231000Y-110980107D01*
X139231000Y-111137893D01*
X139200219Y-111292642D01*
X139154456Y-111403123D01*
X139139837Y-111438416D01*
X139052178Y-111569608D01*
X138940608Y-111681178D01*
X138809416Y-111768837D01*
X138809415Y-111768838D01*
X138809414Y-111768838D01*
X138663642Y-111829219D01*
X138508893Y-111860000D01*
X138351107Y-111860000D01*
X138196358Y-111829219D01*
X138050586Y-111768838D01*
X138050585Y-111768838D01*
X138050584Y-111768837D01*
X137919392Y-111681178D01*
X137807822Y-111569608D01*
X137720163Y-111438416D01*
X137705544Y-111403123D01*
X137659781Y-111292642D01*
X137629000Y-111137893D01*
X137629000Y-110980107D01*
X137659781Y-110825358D01*
X137720162Y-110679586D01*
X137720163Y-110679584D01*
X137807822Y-110548392D01*
X137919392Y-110436822D01*
X138050584Y-110349163D01*
X138050586Y-110349162D01*
X138196358Y-110288781D01*
X138351107Y-110258000D01*
X138508893Y-110258000D01*
X138663642Y-110288781D01*
X138663642Y-110288781D01*
G37*
G36*
X79716979Y-106798293D02*
G01*
X79850625Y-106838834D01*
X79973784Y-106904664D01*
X80081740Y-106993260D01*
X80170336Y-107101216D01*
X80236166Y-107224375D01*
X80276707Y-107358021D01*
X80291000Y-107503140D01*
X80291000Y-109666860D01*
X80276707Y-109811979D01*
X80236166Y-109945625D01*
X80170336Y-110068784D01*
X80081740Y-110176740D01*
X79973784Y-110265336D01*
X79850625Y-110331166D01*
X79716979Y-110371707D01*
X79571860Y-110386000D01*
X77908140Y-110386000D01*
X77763021Y-110371707D01*
X77629375Y-110331166D01*
X77506216Y-110265336D01*
X77398260Y-110176740D01*
X77309664Y-110068784D01*
X77243834Y-109945625D01*
X77203293Y-109811979D01*
X77189000Y-109666860D01*
X77189000Y-107503140D01*
X77203293Y-107358021D01*
X77243834Y-107224375D01*
X77309664Y-107101216D01*
X77398260Y-106993260D01*
X77506216Y-106904664D01*
X77629375Y-106838834D01*
X77763021Y-106798293D01*
X77908140Y-106784000D01*
X79571860Y-106784000D01*
X79716979Y-106798293D01*
X79716979Y-106798293D01*
G37*
G36*
X86541000Y-110386000D02*
G01*
X82939000Y-110386000D01*
X82939000Y-106784000D01*
X86541000Y-106784000D01*
X86541000Y-110386000D01*
X86541000Y-110386000D01*
G37*
G36*
X136481000Y-110110000D02*
G01*
X133879000Y-110110000D01*
X133879000Y-108808000D01*
X136481000Y-108808000D01*
X136481000Y-110110000D01*
X136481000Y-110110000D01*
G37*
G36*
X92910674Y-108473465D02*
G01*
X92948367Y-108484899D01*
X92983103Y-108503466D01*
X93013548Y-108528452D01*
X93038534Y-108558897D01*
X93057101Y-108593633D01*
X93068535Y-108631326D01*
X93073000Y-108676661D01*
X93073000Y-109763339D01*
X93068535Y-109808674D01*
X93057101Y-109846367D01*
X93038534Y-109881103D01*
X93013548Y-109911548D01*
X92983103Y-109936534D01*
X92948367Y-109955101D01*
X92910674Y-109966535D01*
X92865339Y-109971000D01*
X92028661Y-109971000D01*
X91983326Y-109966535D01*
X91945633Y-109955101D01*
X91910897Y-109936534D01*
X91880452Y-109911548D01*
X91855466Y-109881103D01*
X91836899Y-109846367D01*
X91825465Y-109808674D01*
X91821000Y-109763339D01*
X91821000Y-108676661D01*
X91825465Y-108631326D01*
X91836899Y-108593633D01*
X91855466Y-108558897D01*
X91880452Y-108528452D01*
X91910897Y-108503466D01*
X91945633Y-108484899D01*
X91983326Y-108473465D01*
X92028661Y-108469000D01*
X92865339Y-108469000D01*
X92910674Y-108473465D01*
X92910674Y-108473465D01*
G37*
G36*
X94960674Y-108473465D02*
G01*
X94998367Y-108484899D01*
X95033103Y-108503466D01*
X95063548Y-108528452D01*
X95088534Y-108558897D01*
X95107101Y-108593633D01*
X95118535Y-108631326D01*
X95123000Y-108676661D01*
X95123000Y-109763339D01*
X95118535Y-109808674D01*
X95107101Y-109846367D01*
X95088534Y-109881103D01*
X95063548Y-109911548D01*
X95033103Y-109936534D01*
X94998367Y-109955101D01*
X94960674Y-109966535D01*
X94915339Y-109971000D01*
X94078661Y-109971000D01*
X94033326Y-109966535D01*
X93995633Y-109955101D01*
X93960897Y-109936534D01*
X93930452Y-109911548D01*
X93905466Y-109881103D01*
X93886899Y-109846367D01*
X93875465Y-109808674D01*
X93871000Y-109763339D01*
X93871000Y-108676661D01*
X93875465Y-108631326D01*
X93886899Y-108593633D01*
X93905466Y-108558897D01*
X93930452Y-108528452D01*
X93960897Y-108503466D01*
X93995633Y-108484899D01*
X94033326Y-108473465D01*
X94078661Y-108469000D01*
X94915339Y-108469000D01*
X94960674Y-108473465D01*
X94960674Y-108473465D01*
G37*
G36*
X152872500Y-109787500D02*
G01*
X150570500Y-109787500D01*
X150570500Y-108485500D01*
X152872500Y-108485500D01*
X152872500Y-109787500D01*
X152872500Y-109787500D01*
G37*
G36*
X149242674Y-108253465D02*
G01*
X149280367Y-108264899D01*
X149315103Y-108283466D01*
X149345548Y-108308452D01*
X149370534Y-108338897D01*
X149389101Y-108373633D01*
X149400535Y-108411326D01*
X149405000Y-108456661D01*
X149405000Y-109543339D01*
X149400535Y-109588674D01*
X149389101Y-109626367D01*
X149370534Y-109661103D01*
X149345548Y-109691548D01*
X149315103Y-109716534D01*
X149280367Y-109735101D01*
X149242674Y-109746535D01*
X149197339Y-109751000D01*
X148360661Y-109751000D01*
X148315326Y-109746535D01*
X148277633Y-109735101D01*
X148242897Y-109716534D01*
X148212452Y-109691548D01*
X148187466Y-109661103D01*
X148168899Y-109626367D01*
X148157465Y-109588674D01*
X148153000Y-109543339D01*
X148153000Y-108456661D01*
X148157465Y-108411326D01*
X148168899Y-108373633D01*
X148187466Y-108338897D01*
X148212452Y-108308452D01*
X148242897Y-108283466D01*
X148277633Y-108264899D01*
X148315326Y-108253465D01*
X148360661Y-108249000D01*
X149197339Y-108249000D01*
X149242674Y-108253465D01*
X149242674Y-108253465D01*
G37*
G36*
X147192674Y-108253465D02*
G01*
X147230367Y-108264899D01*
X147265103Y-108283466D01*
X147295548Y-108308452D01*
X147320534Y-108338897D01*
X147339101Y-108373633D01*
X147350535Y-108411326D01*
X147355000Y-108456661D01*
X147355000Y-109543339D01*
X147350535Y-109588674D01*
X147339101Y-109626367D01*
X147320534Y-109661103D01*
X147295548Y-109691548D01*
X147265103Y-109716534D01*
X147230367Y-109735101D01*
X147192674Y-109746535D01*
X147147339Y-109751000D01*
X146310661Y-109751000D01*
X146265326Y-109746535D01*
X146227633Y-109735101D01*
X146192897Y-109716534D01*
X146162452Y-109691548D01*
X146137466Y-109661103D01*
X146118899Y-109626367D01*
X146107465Y-109588674D01*
X146103000Y-109543339D01*
X146103000Y-108456661D01*
X146107465Y-108411326D01*
X146118899Y-108373633D01*
X146137466Y-108338897D01*
X146162452Y-108308452D01*
X146192897Y-108283466D01*
X146227633Y-108264899D01*
X146265326Y-108253465D01*
X146310661Y-108249000D01*
X147147339Y-108249000D01*
X147192674Y-108253465D01*
X147192674Y-108253465D01*
G37*
G36*
X124990153Y-106775922D02*
G01*
X125082194Y-106814047D01*
X125212359Y-106867963D01*
X125412342Y-107001587D01*
X125582413Y-107171658D01*
X125716037Y-107371641D01*
X125731183Y-107408207D01*
X125808078Y-107593847D01*
X125855000Y-107829742D01*
X125855000Y-108070258D01*
X125808078Y-108306153D01*
X125794515Y-108338897D01*
X125716037Y-108528359D01*
X125582413Y-108728342D01*
X125412342Y-108898413D01*
X125212359Y-109032037D01*
X125082194Y-109085953D01*
X124990153Y-109124078D01*
X124754259Y-109171000D01*
X124513741Y-109171000D01*
X124277847Y-109124078D01*
X124185806Y-109085953D01*
X124055641Y-109032037D01*
X123855658Y-108898413D01*
X123685587Y-108728342D01*
X123551963Y-108528359D01*
X123473485Y-108338897D01*
X123459922Y-108306153D01*
X123413000Y-108070258D01*
X123413000Y-107829742D01*
X123459922Y-107593847D01*
X123536817Y-107408207D01*
X123551963Y-107371641D01*
X123685587Y-107171658D01*
X123855658Y-107001587D01*
X124055641Y-106867963D01*
X124185806Y-106814047D01*
X124277847Y-106775922D01*
X124513741Y-106729000D01*
X124754259Y-106729000D01*
X124990153Y-106775922D01*
X124990153Y-106775922D01*
G37*
G36*
X119990153Y-106775922D02*
G01*
X120082194Y-106814047D01*
X120212359Y-106867963D01*
X120412342Y-107001587D01*
X120582413Y-107171658D01*
X120716037Y-107371641D01*
X120731183Y-107408207D01*
X120808078Y-107593847D01*
X120855000Y-107829742D01*
X120855000Y-108070258D01*
X120808078Y-108306153D01*
X120794515Y-108338897D01*
X120716037Y-108528359D01*
X120582413Y-108728342D01*
X120412342Y-108898413D01*
X120212359Y-109032037D01*
X120082194Y-109085953D01*
X119990153Y-109124078D01*
X119754259Y-109171000D01*
X119513741Y-109171000D01*
X119277847Y-109124078D01*
X119185806Y-109085953D01*
X119055641Y-109032037D01*
X118855658Y-108898413D01*
X118685587Y-108728342D01*
X118551963Y-108528359D01*
X118473485Y-108338897D01*
X118459922Y-108306153D01*
X118413000Y-108070258D01*
X118413000Y-107829742D01*
X118459922Y-107593847D01*
X118536817Y-107408207D01*
X118551963Y-107371641D01*
X118685587Y-107171658D01*
X118855658Y-107001587D01*
X119055641Y-106867963D01*
X119185806Y-106814047D01*
X119277847Y-106775922D01*
X119513741Y-106729000D01*
X119754259Y-106729000D01*
X119990153Y-106775922D01*
X119990153Y-106775922D01*
G37*
G36*
X170007000Y-109047000D02*
G01*
X167305000Y-109047000D01*
X167305000Y-106345000D01*
X170007000Y-106345000D01*
X170007000Y-109047000D01*
X170007000Y-109047000D01*
G37*
G36*
X142981000Y-109010000D02*
G01*
X140379000Y-109010000D01*
X140379000Y-107708000D01*
X142981000Y-107708000D01*
X142981000Y-109010000D01*
X142981000Y-109010000D01*
G37*
G36*
X104676934Y-104807671D02*
G01*
X104706877Y-104816754D01*
X104734465Y-104831500D01*
X104758651Y-104851349D01*
X104778500Y-104875535D01*
X104793246Y-104903123D01*
X104802329Y-104933066D01*
X104806000Y-104970340D01*
X104806000Y-108239660D01*
X104802329Y-108276934D01*
X104793246Y-108306877D01*
X104778500Y-108334465D01*
X104758651Y-108358651D01*
X104734465Y-108378500D01*
X104706877Y-108393246D01*
X104676934Y-108402329D01*
X104639660Y-108406000D01*
X102370340Y-108406000D01*
X102333066Y-108402329D01*
X102303123Y-108393246D01*
X102275535Y-108378500D01*
X102251349Y-108358651D01*
X102231500Y-108334465D01*
X102216754Y-108306877D01*
X102207671Y-108276934D01*
X102204000Y-108239660D01*
X102204000Y-104970340D01*
X102207671Y-104933066D01*
X102216754Y-104903123D01*
X102231500Y-104875535D01*
X102251349Y-104851349D01*
X102275535Y-104831500D01*
X102303123Y-104816754D01*
X102333066Y-104807671D01*
X102370340Y-104804000D01*
X104639660Y-104804000D01*
X104676934Y-104807671D01*
X104676934Y-104807671D01*
G37*
G36*
X151764674Y-105713465D02*
G01*
X151802367Y-105724899D01*
X151837103Y-105743466D01*
X151867548Y-105768452D01*
X151892534Y-105798897D01*
X151911101Y-105833633D01*
X151922535Y-105871326D01*
X151927000Y-105916661D01*
X151927000Y-107003339D01*
X151922535Y-107048674D01*
X151911101Y-107086367D01*
X151892534Y-107121103D01*
X151867548Y-107151548D01*
X151837103Y-107176534D01*
X151802367Y-107195101D01*
X151764674Y-107206535D01*
X151719339Y-107211000D01*
X150882661Y-107211000D01*
X150837326Y-107206535D01*
X150799633Y-107195101D01*
X150764897Y-107176534D01*
X150734452Y-107151548D01*
X150709466Y-107121103D01*
X150690899Y-107086367D01*
X150679465Y-107048674D01*
X150675000Y-107003339D01*
X150675000Y-105916661D01*
X150679465Y-105871326D01*
X150690899Y-105833633D01*
X150709466Y-105798897D01*
X150734452Y-105768452D01*
X150764897Y-105743466D01*
X150799633Y-105724899D01*
X150837326Y-105713465D01*
X150882661Y-105709000D01*
X151719339Y-105709000D01*
X151764674Y-105713465D01*
X151764674Y-105713465D01*
G37*
G36*
X149242674Y-105713465D02*
G01*
X149280367Y-105724899D01*
X149315103Y-105743466D01*
X149345548Y-105768452D01*
X149370534Y-105798897D01*
X149389101Y-105833633D01*
X149400535Y-105871326D01*
X149405000Y-105916661D01*
X149405000Y-107003339D01*
X149400535Y-107048674D01*
X149389101Y-107086367D01*
X149370534Y-107121103D01*
X149345548Y-107151548D01*
X149315103Y-107176534D01*
X149280367Y-107195101D01*
X149242674Y-107206535D01*
X149197339Y-107211000D01*
X148360661Y-107211000D01*
X148315326Y-107206535D01*
X148277633Y-107195101D01*
X148242897Y-107176534D01*
X148212452Y-107151548D01*
X148187466Y-107121103D01*
X148168899Y-107086367D01*
X148157465Y-107048674D01*
X148153000Y-107003339D01*
X148153000Y-105916661D01*
X148157465Y-105871326D01*
X148168899Y-105833633D01*
X148187466Y-105798897D01*
X148212452Y-105768452D01*
X148242897Y-105743466D01*
X148277633Y-105724899D01*
X148315326Y-105713465D01*
X148360661Y-105709000D01*
X149197339Y-105709000D01*
X149242674Y-105713465D01*
X149242674Y-105713465D01*
G37*
G36*
X147192674Y-105713465D02*
G01*
X147230367Y-105724899D01*
X147265103Y-105743466D01*
X147295548Y-105768452D01*
X147320534Y-105798897D01*
X147339101Y-105833633D01*
X147350535Y-105871326D01*
X147355000Y-105916661D01*
X147355000Y-107003339D01*
X147350535Y-107048674D01*
X147339101Y-107086367D01*
X147320534Y-107121103D01*
X147295548Y-107151548D01*
X147265103Y-107176534D01*
X147230367Y-107195101D01*
X147192674Y-107206535D01*
X147147339Y-107211000D01*
X146310661Y-107211000D01*
X146265326Y-107206535D01*
X146227633Y-107195101D01*
X146192897Y-107176534D01*
X146162452Y-107151548D01*
X146137466Y-107121103D01*
X146118899Y-107086367D01*
X146107465Y-107048674D01*
X146103000Y-107003339D01*
X146103000Y-105916661D01*
X146107465Y-105871326D01*
X146118899Y-105833633D01*
X146137466Y-105798897D01*
X146162452Y-105768452D01*
X146192897Y-105743466D01*
X146227633Y-105724899D01*
X146265326Y-105713465D01*
X146310661Y-105709000D01*
X147147339Y-105709000D01*
X147192674Y-105713465D01*
X147192674Y-105713465D01*
G37*
G36*
X161053674Y-105713465D02*
G01*
X161091367Y-105724899D01*
X161126103Y-105743466D01*
X161156548Y-105768452D01*
X161181534Y-105798897D01*
X161200101Y-105833633D01*
X161211535Y-105871326D01*
X161216000Y-105916661D01*
X161216000Y-107003339D01*
X161211535Y-107048674D01*
X161200101Y-107086367D01*
X161181534Y-107121103D01*
X161156548Y-107151548D01*
X161126103Y-107176534D01*
X161091367Y-107195101D01*
X161053674Y-107206535D01*
X161008339Y-107211000D01*
X160171661Y-107211000D01*
X160126326Y-107206535D01*
X160088633Y-107195101D01*
X160053897Y-107176534D01*
X160023452Y-107151548D01*
X159998466Y-107121103D01*
X159979899Y-107086367D01*
X159968465Y-107048674D01*
X159964000Y-107003339D01*
X159964000Y-105916661D01*
X159968465Y-105871326D01*
X159979899Y-105833633D01*
X159998466Y-105798897D01*
X160023452Y-105768452D01*
X160053897Y-105743466D01*
X160088633Y-105724899D01*
X160126326Y-105713465D01*
X160171661Y-105709000D01*
X161008339Y-105709000D01*
X161053674Y-105713465D01*
X161053674Y-105713465D01*
G37*
G36*
X159003674Y-105713465D02*
G01*
X159041367Y-105724899D01*
X159076103Y-105743466D01*
X159106548Y-105768452D01*
X159131534Y-105798897D01*
X159150101Y-105833633D01*
X159161535Y-105871326D01*
X159166000Y-105916661D01*
X159166000Y-107003339D01*
X159161535Y-107048674D01*
X159150101Y-107086367D01*
X159131534Y-107121103D01*
X159106548Y-107151548D01*
X159076103Y-107176534D01*
X159041367Y-107195101D01*
X159003674Y-107206535D01*
X158958339Y-107211000D01*
X158121661Y-107211000D01*
X158076326Y-107206535D01*
X158038633Y-107195101D01*
X158003897Y-107176534D01*
X157973452Y-107151548D01*
X157948466Y-107121103D01*
X157929899Y-107086367D01*
X157918465Y-107048674D01*
X157914000Y-107003339D01*
X157914000Y-105916661D01*
X157918465Y-105871326D01*
X157929899Y-105833633D01*
X157948466Y-105798897D01*
X157973452Y-105768452D01*
X158003897Y-105743466D01*
X158038633Y-105724899D01*
X158076326Y-105713465D01*
X158121661Y-105709000D01*
X158958339Y-105709000D01*
X159003674Y-105713465D01*
X159003674Y-105713465D01*
G37*
G36*
X153814674Y-105713465D02*
G01*
X153852367Y-105724899D01*
X153887103Y-105743466D01*
X153917548Y-105768452D01*
X153942534Y-105798897D01*
X153961101Y-105833633D01*
X153972535Y-105871326D01*
X153977000Y-105916661D01*
X153977000Y-107003339D01*
X153972535Y-107048674D01*
X153961101Y-107086367D01*
X153942534Y-107121103D01*
X153917548Y-107151548D01*
X153887103Y-107176534D01*
X153852367Y-107195101D01*
X153814674Y-107206535D01*
X153769339Y-107211000D01*
X152932661Y-107211000D01*
X152887326Y-107206535D01*
X152849633Y-107195101D01*
X152814897Y-107176534D01*
X152784452Y-107151548D01*
X152759466Y-107121103D01*
X152740899Y-107086367D01*
X152729465Y-107048674D01*
X152725000Y-107003339D01*
X152725000Y-105916661D01*
X152729465Y-105871326D01*
X152740899Y-105833633D01*
X152759466Y-105798897D01*
X152784452Y-105768452D01*
X152814897Y-105743466D01*
X152849633Y-105724899D01*
X152887326Y-105713465D01*
X152932661Y-105709000D01*
X153769339Y-105709000D01*
X153814674Y-105713465D01*
X153814674Y-105713465D01*
G37*
G36*
X135932228Y-104423483D02*
G01*
X136120922Y-104480723D01*
X136294815Y-104573671D01*
X136447239Y-104698761D01*
X136572329Y-104851185D01*
X136665277Y-105025078D01*
X136722517Y-105213772D01*
X136741843Y-105410000D01*
X136722517Y-105606228D01*
X136665277Y-105794922D01*
X136572329Y-105968815D01*
X136447239Y-106121239D01*
X136294815Y-106246329D01*
X136120922Y-106339277D01*
X135932228Y-106396517D01*
X135785175Y-106411000D01*
X135486825Y-106411000D01*
X135339772Y-106396517D01*
X135151078Y-106339277D01*
X134977185Y-106246329D01*
X134824761Y-106121239D01*
X134699671Y-105968815D01*
X134606723Y-105794922D01*
X134549483Y-105606228D01*
X134530157Y-105410000D01*
X134549483Y-105213772D01*
X134606723Y-105025078D01*
X134699671Y-104851185D01*
X134824761Y-104698761D01*
X134977185Y-104573671D01*
X135151078Y-104480723D01*
X135339772Y-104423483D01*
X135486825Y-104409000D01*
X135785175Y-104409000D01*
X135932228Y-104423483D01*
X135932228Y-104423483D01*
G37*
G36*
X141012228Y-104423483D02*
G01*
X141200922Y-104480723D01*
X141374815Y-104573671D01*
X141527239Y-104698761D01*
X141652329Y-104851185D01*
X141745277Y-105025078D01*
X141802517Y-105213772D01*
X141821843Y-105410000D01*
X141802517Y-105606228D01*
X141745277Y-105794922D01*
X141652329Y-105968815D01*
X141527239Y-106121239D01*
X141374815Y-106246329D01*
X141200922Y-106339277D01*
X141012228Y-106396517D01*
X140865175Y-106411000D01*
X140566825Y-106411000D01*
X140419772Y-106396517D01*
X140231078Y-106339277D01*
X140057185Y-106246329D01*
X139904761Y-106121239D01*
X139779671Y-105968815D01*
X139686723Y-105794922D01*
X139629483Y-105606228D01*
X139610157Y-105410000D01*
X139629483Y-105213772D01*
X139686723Y-105025078D01*
X139779671Y-104851185D01*
X139904761Y-104698761D01*
X140057185Y-104573671D01*
X140231078Y-104480723D01*
X140419772Y-104423483D01*
X140566825Y-104409000D01*
X140865175Y-104409000D01*
X141012228Y-104423483D01*
X141012228Y-104423483D01*
G37*
G36*
X130666443Y-104515519D02*
G01*
X130732627Y-104522037D01*
X130902466Y-104573557D01*
X131058991Y-104657222D01*
X131094729Y-104686552D01*
X131196186Y-104769814D01*
X131262964Y-104851185D01*
X131308778Y-104907009D01*
X131392443Y-105063534D01*
X131443963Y-105233373D01*
X131461359Y-105410000D01*
X131443963Y-105586627D01*
X131392443Y-105756466D01*
X131308778Y-105912991D01*
X131279448Y-105948729D01*
X131196186Y-106050186D01*
X131109606Y-106121239D01*
X131058991Y-106162778D01*
X130902466Y-106246443D01*
X130732627Y-106297963D01*
X130666442Y-106304482D01*
X130600260Y-106311000D01*
X130511740Y-106311000D01*
X130445558Y-106304482D01*
X130379373Y-106297963D01*
X130209534Y-106246443D01*
X130053009Y-106162778D01*
X130002394Y-106121239D01*
X129915814Y-106050186D01*
X129832552Y-105948729D01*
X129803222Y-105912991D01*
X129719557Y-105756466D01*
X129668037Y-105586627D01*
X129650641Y-105410000D01*
X129668037Y-105233373D01*
X129719557Y-105063534D01*
X129803222Y-104907009D01*
X129849036Y-104851185D01*
X129915814Y-104769814D01*
X130017271Y-104686552D01*
X130053009Y-104657222D01*
X130209534Y-104573557D01*
X130379373Y-104522037D01*
X130445557Y-104515519D01*
X130511740Y-104509000D01*
X130600260Y-104509000D01*
X130666443Y-104515519D01*
X130666443Y-104515519D01*
G37*
G36*
X93188000Y-105888000D02*
G01*
X92486000Y-105888000D01*
X92486000Y-104236000D01*
X93188000Y-104236000D01*
X93188000Y-105888000D01*
X93188000Y-105888000D01*
G37*
G36*
X94458000Y-105888000D02*
G01*
X93756000Y-105888000D01*
X93756000Y-104236000D01*
X94458000Y-104236000D01*
X94458000Y-105888000D01*
X94458000Y-105888000D01*
G37*
G36*
X90648000Y-105888000D02*
G01*
X89946000Y-105888000D01*
X89946000Y-104236000D01*
X90648000Y-104236000D01*
X90648000Y-105888000D01*
X90648000Y-105888000D01*
G37*
G36*
X91918000Y-105888000D02*
G01*
X91216000Y-105888000D01*
X91216000Y-104236000D01*
X91918000Y-104236000D01*
X91918000Y-105888000D01*
X91918000Y-105888000D01*
G37*
G36*
X97915591Y-104697085D02*
G01*
X97949569Y-104707393D01*
X97980890Y-104724134D01*
X98008339Y-104746661D01*
X98030866Y-104774110D01*
X98047607Y-104805431D01*
X98057915Y-104839409D01*
X98062000Y-104880890D01*
X98062000Y-105482110D01*
X98057915Y-105523591D01*
X98047607Y-105557569D01*
X98030866Y-105588890D01*
X98008339Y-105616339D01*
X97980890Y-105638866D01*
X97949569Y-105655607D01*
X97915591Y-105665915D01*
X97874110Y-105670000D01*
X97197890Y-105670000D01*
X97156409Y-105665915D01*
X97122431Y-105655607D01*
X97091110Y-105638866D01*
X97063661Y-105616339D01*
X97041134Y-105588890D01*
X97024393Y-105557569D01*
X97014085Y-105523591D01*
X97010000Y-105482110D01*
X97010000Y-104880890D01*
X97014085Y-104839409D01*
X97024393Y-104805431D01*
X97041134Y-104774110D01*
X97063661Y-104746661D01*
X97091110Y-104724134D01*
X97122431Y-104707393D01*
X97156409Y-104697085D01*
X97197890Y-104693000D01*
X97874110Y-104693000D01*
X97915591Y-104697085D01*
X97915591Y-104697085D01*
G37*
G36*
X97915591Y-103122085D02*
G01*
X97949569Y-103132393D01*
X97980890Y-103149134D01*
X98008339Y-103171661D01*
X98030866Y-103199110D01*
X98047607Y-103230431D01*
X98057915Y-103264409D01*
X98062000Y-103305890D01*
X98062000Y-103907110D01*
X98057915Y-103948591D01*
X98047607Y-103982569D01*
X98030866Y-104013890D01*
X98008339Y-104041339D01*
X97980890Y-104063866D01*
X97949569Y-104080607D01*
X97915591Y-104090915D01*
X97874110Y-104095000D01*
X97197890Y-104095000D01*
X97156409Y-104090915D01*
X97122431Y-104080607D01*
X97091110Y-104063866D01*
X97063661Y-104041339D01*
X97041134Y-104013890D01*
X97024393Y-103982569D01*
X97014085Y-103948591D01*
X97010000Y-103907110D01*
X97010000Y-103305890D01*
X97014085Y-103264409D01*
X97024393Y-103230431D01*
X97041134Y-103199110D01*
X97063661Y-103171661D01*
X97091110Y-103149134D01*
X97122431Y-103132393D01*
X97156409Y-103122085D01*
X97197890Y-103118000D01*
X97874110Y-103118000D01*
X97915591Y-103122085D01*
X97915591Y-103122085D01*
G37*
G36*
X124697443Y-102102519D02*
G01*
X124763627Y-102109037D01*
X124933466Y-102160557D01*
X125089991Y-102244222D01*
X125125729Y-102273552D01*
X125227186Y-102356814D01*
X125310448Y-102458271D01*
X125339778Y-102494009D01*
X125423443Y-102650534D01*
X125474963Y-102820373D01*
X125492359Y-102997000D01*
X125474963Y-103173627D01*
X125423443Y-103343466D01*
X125339778Y-103499991D01*
X125310448Y-103535729D01*
X125227186Y-103637186D01*
X125125729Y-103720448D01*
X125089991Y-103749778D01*
X124933466Y-103833443D01*
X124763627Y-103884963D01*
X124697442Y-103891482D01*
X124631260Y-103898000D01*
X124542740Y-103898000D01*
X124476557Y-103891481D01*
X124410373Y-103884963D01*
X124240534Y-103833443D01*
X124084009Y-103749778D01*
X124048271Y-103720448D01*
X123946814Y-103637186D01*
X123863552Y-103535729D01*
X123834222Y-103499991D01*
X123750557Y-103343466D01*
X123699037Y-103173627D01*
X123681641Y-102997000D01*
X123699037Y-102820373D01*
X123750557Y-102650534D01*
X123834222Y-102494009D01*
X123863552Y-102458271D01*
X123946814Y-102356814D01*
X124048271Y-102273552D01*
X124084009Y-102244222D01*
X124240534Y-102160557D01*
X124410373Y-102109037D01*
X124476558Y-102102518D01*
X124542740Y-102096000D01*
X124631260Y-102096000D01*
X124697443Y-102102519D01*
X124697443Y-102102519D01*
G37*
G36*
X122157443Y-102102519D02*
G01*
X122223627Y-102109037D01*
X122393466Y-102160557D01*
X122549991Y-102244222D01*
X122585729Y-102273552D01*
X122687186Y-102356814D01*
X122770448Y-102458271D01*
X122799778Y-102494009D01*
X122883443Y-102650534D01*
X122934963Y-102820373D01*
X122952359Y-102997000D01*
X122934963Y-103173627D01*
X122883443Y-103343466D01*
X122799778Y-103499991D01*
X122770448Y-103535729D01*
X122687186Y-103637186D01*
X122585729Y-103720448D01*
X122549991Y-103749778D01*
X122393466Y-103833443D01*
X122223627Y-103884963D01*
X122157442Y-103891482D01*
X122091260Y-103898000D01*
X122002740Y-103898000D01*
X121936557Y-103891481D01*
X121870373Y-103884963D01*
X121700534Y-103833443D01*
X121544009Y-103749778D01*
X121508271Y-103720448D01*
X121406814Y-103637186D01*
X121323552Y-103535729D01*
X121294222Y-103499991D01*
X121210557Y-103343466D01*
X121159037Y-103173627D01*
X121141641Y-102997000D01*
X121159037Y-102820373D01*
X121210557Y-102650534D01*
X121294222Y-102494009D01*
X121323552Y-102458271D01*
X121406814Y-102356814D01*
X121508271Y-102273552D01*
X121544009Y-102244222D01*
X121700534Y-102160557D01*
X121870373Y-102109037D01*
X121936558Y-102102518D01*
X122002740Y-102096000D01*
X122091260Y-102096000D01*
X122157443Y-102102519D01*
X122157443Y-102102519D01*
G37*
G36*
X120408000Y-103898000D02*
G01*
X118606000Y-103898000D01*
X118606000Y-102096000D01*
X120408000Y-102096000D01*
X120408000Y-103898000D01*
X120408000Y-103898000D01*
G37*
G36*
X141012228Y-101883483D02*
G01*
X141200922Y-101940723D01*
X141374815Y-102033671D01*
X141527239Y-102158761D01*
X141652329Y-102311185D01*
X141745277Y-102485078D01*
X141802517Y-102673772D01*
X141821843Y-102870000D01*
X141802517Y-103066228D01*
X141745277Y-103254922D01*
X141652329Y-103428815D01*
X141527239Y-103581239D01*
X141374815Y-103706329D01*
X141200922Y-103799277D01*
X141012228Y-103856517D01*
X140865175Y-103871000D01*
X140566825Y-103871000D01*
X140419772Y-103856517D01*
X140231078Y-103799277D01*
X140057185Y-103706329D01*
X139904761Y-103581239D01*
X139779671Y-103428815D01*
X139686723Y-103254922D01*
X139629483Y-103066228D01*
X139610157Y-102870000D01*
X139629483Y-102673772D01*
X139686723Y-102485078D01*
X139779671Y-102311185D01*
X139904761Y-102158761D01*
X140057185Y-102033671D01*
X140231078Y-101940723D01*
X140419772Y-101883483D01*
X140566825Y-101869000D01*
X140865175Y-101869000D01*
X141012228Y-101883483D01*
X141012228Y-101883483D01*
G37*
G36*
X135932228Y-101883483D02*
G01*
X136120922Y-101940723D01*
X136294815Y-102033671D01*
X136447239Y-102158761D01*
X136572329Y-102311185D01*
X136665277Y-102485078D01*
X136722517Y-102673772D01*
X136741843Y-102870000D01*
X136722517Y-103066228D01*
X136665277Y-103254922D01*
X136572329Y-103428815D01*
X136447239Y-103581239D01*
X136294815Y-103706329D01*
X136120922Y-103799277D01*
X135932228Y-103856517D01*
X135785175Y-103871000D01*
X135486825Y-103871000D01*
X135339772Y-103856517D01*
X135151078Y-103799277D01*
X134977185Y-103706329D01*
X134824761Y-103581239D01*
X134699671Y-103428815D01*
X134606723Y-103254922D01*
X134549483Y-103066228D01*
X134530157Y-102870000D01*
X134549483Y-102673772D01*
X134606723Y-102485078D01*
X134699671Y-102311185D01*
X134824761Y-102158761D01*
X134977185Y-102033671D01*
X135151078Y-101940723D01*
X135339772Y-101883483D01*
X135486825Y-101869000D01*
X135785175Y-101869000D01*
X135932228Y-101883483D01*
X135932228Y-101883483D01*
G37*
G36*
X131457000Y-103771000D02*
G01*
X129655000Y-103771000D01*
X129655000Y-101969000D01*
X131457000Y-101969000D01*
X131457000Y-103771000D01*
X131457000Y-103771000D01*
G37*
G36*
X161193500Y-103384000D02*
G01*
X154691500Y-103384000D01*
X154691500Y-97482000D01*
X161193500Y-97482000D01*
X161193500Y-103384000D01*
X161193500Y-103384000D01*
G37*
G36*
X152793500Y-103364000D02*
G01*
X150491500Y-103364000D01*
X150491500Y-102062000D01*
X152793500Y-102062000D01*
X152793500Y-103364000D01*
X152793500Y-103364000D01*
G37*
G36*
X146677000Y-102973500D02*
G01*
X144675000Y-102973500D01*
X144675000Y-102071500D01*
X146677000Y-102071500D01*
X146677000Y-102973500D01*
X146677000Y-102973500D01*
G37*
G36*
X169050072Y-100300918D02*
G01*
X169263671Y-100389393D01*
X169295939Y-100402759D01*
X169517212Y-100550610D01*
X169705390Y-100738788D01*
X169805636Y-100888815D01*
X169853242Y-100960063D01*
X169955082Y-101205928D01*
X170007000Y-101466937D01*
X170007000Y-101733063D01*
X169955082Y-101994072D01*
X169886866Y-102158762D01*
X169853241Y-102239939D01*
X169705390Y-102461212D01*
X169517212Y-102649390D01*
X169295939Y-102797241D01*
X169295938Y-102797242D01*
X169295937Y-102797242D01*
X169050072Y-102899082D01*
X168789063Y-102951000D01*
X168522937Y-102951000D01*
X168261928Y-102899082D01*
X168016063Y-102797242D01*
X168016062Y-102797242D01*
X168016061Y-102797241D01*
X167794788Y-102649390D01*
X167606610Y-102461212D01*
X167458759Y-102239939D01*
X167425135Y-102158762D01*
X167356918Y-101994072D01*
X167305000Y-101733063D01*
X167305000Y-101466937D01*
X167356918Y-101205928D01*
X167458758Y-100960063D01*
X167506365Y-100888815D01*
X167606610Y-100738788D01*
X167794788Y-100550610D01*
X168016061Y-100402759D01*
X168048330Y-100389393D01*
X168261928Y-100300918D01*
X168522937Y-100249000D01*
X168789063Y-100249000D01*
X169050072Y-100300918D01*
X169050072Y-100300918D01*
G37*
G36*
X84771000Y-102361000D02*
G01*
X82869000Y-102361000D01*
X82869000Y-99759000D01*
X84771000Y-99759000D01*
X84771000Y-102361000D01*
X84771000Y-102361000D01*
G37*
G36*
X149677000Y-102023500D02*
G01*
X147675000Y-102023500D01*
X147675000Y-101121500D01*
X149677000Y-101121500D01*
X149677000Y-102023500D01*
X149677000Y-102023500D01*
G37*
G36*
X97915591Y-100379085D02*
G01*
X97949569Y-100389393D01*
X97980890Y-100406134D01*
X98008339Y-100428661D01*
X98030866Y-100456110D01*
X98047607Y-100487431D01*
X98057915Y-100521409D01*
X98062000Y-100562890D01*
X98062000Y-101164110D01*
X98057915Y-101205591D01*
X98047607Y-101239569D01*
X98030866Y-101270890D01*
X98008339Y-101298339D01*
X97980890Y-101320866D01*
X97949569Y-101337607D01*
X97915591Y-101347915D01*
X97874110Y-101352000D01*
X97197890Y-101352000D01*
X97156409Y-101347915D01*
X97122431Y-101337607D01*
X97091110Y-101320866D01*
X97063661Y-101298339D01*
X97041134Y-101270890D01*
X97024393Y-101239569D01*
X97014085Y-101205591D01*
X97010000Y-101164110D01*
X97010000Y-100562890D01*
X97014085Y-100521409D01*
X97024393Y-100487431D01*
X97041134Y-100456110D01*
X97063661Y-100428661D01*
X97091110Y-100406134D01*
X97122431Y-100389393D01*
X97156409Y-100379085D01*
X97197890Y-100375000D01*
X97874110Y-100375000D01*
X97915591Y-100379085D01*
X97915591Y-100379085D01*
G37*
G36*
X141817000Y-101331000D02*
G01*
X139615000Y-101331000D01*
X139615000Y-99329000D01*
X141817000Y-99329000D01*
X141817000Y-101331000D01*
X141817000Y-101331000D01*
G37*
G36*
X135932228Y-99343483D02*
G01*
X136120922Y-99400723D01*
X136294815Y-99493671D01*
X136447239Y-99618761D01*
X136572329Y-99771185D01*
X136665277Y-99945078D01*
X136722517Y-100133772D01*
X136741843Y-100330000D01*
X136722517Y-100526228D01*
X136665277Y-100714922D01*
X136572329Y-100888815D01*
X136447239Y-101041239D01*
X136294815Y-101166329D01*
X136120922Y-101259277D01*
X135932228Y-101316517D01*
X135785175Y-101331000D01*
X135486825Y-101331000D01*
X135339772Y-101316517D01*
X135151078Y-101259277D01*
X134977185Y-101166329D01*
X134824761Y-101041239D01*
X134699671Y-100888815D01*
X134606723Y-100714922D01*
X134549483Y-100526228D01*
X134530157Y-100330000D01*
X134549483Y-100133772D01*
X134606723Y-99945078D01*
X134699671Y-99771185D01*
X134824761Y-99618761D01*
X134977185Y-99493671D01*
X135151078Y-99400723D01*
X135339772Y-99343483D01*
X135486825Y-99329000D01*
X135785175Y-99329000D01*
X135932228Y-99343483D01*
X135932228Y-99343483D01*
G37*
G36*
X152793500Y-101084000D02*
G01*
X150491500Y-101084000D01*
X150491500Y-99782000D01*
X152793500Y-99782000D01*
X152793500Y-101084000D01*
X152793500Y-101084000D01*
G37*
G36*
X146677000Y-101073500D02*
G01*
X144675000Y-101073500D01*
X144675000Y-100171500D01*
X146677000Y-100171500D01*
X146677000Y-101073500D01*
X146677000Y-101073500D01*
G37*
G36*
X94458000Y-100488000D02*
G01*
X93756000Y-100488000D01*
X93756000Y-98836000D01*
X94458000Y-98836000D01*
X94458000Y-100488000D01*
X94458000Y-100488000D01*
G37*
G36*
X90648000Y-100488000D02*
G01*
X89946000Y-100488000D01*
X89946000Y-98836000D01*
X90648000Y-98836000D01*
X90648000Y-100488000D01*
X90648000Y-100488000D01*
G37*
G36*
X91918000Y-100488000D02*
G01*
X91216000Y-100488000D01*
X91216000Y-98836000D01*
X91918000Y-98836000D01*
X91918000Y-100488000D01*
X91918000Y-100488000D01*
G37*
G36*
X93188000Y-100488000D02*
G01*
X92486000Y-100488000D01*
X92486000Y-98836000D01*
X93188000Y-98836000D01*
X93188000Y-100488000D01*
X93188000Y-100488000D01*
G37*
G36*
X79305331Y-96253211D02*
G01*
X79633092Y-96388974D01*
X79928070Y-96586072D01*
X80178928Y-96836930D01*
X80376026Y-97131908D01*
X80511789Y-97459669D01*
X80581000Y-97807616D01*
X80581000Y-98162384D01*
X80511789Y-98510331D01*
X80376026Y-98838092D01*
X80178928Y-99133070D01*
X79928070Y-99383928D01*
X79633092Y-99581026D01*
X79305331Y-99716789D01*
X78957384Y-99786000D01*
X78602616Y-99786000D01*
X78254669Y-99716789D01*
X77926908Y-99581026D01*
X77631930Y-99383928D01*
X77381072Y-99133070D01*
X77183974Y-98838092D01*
X77048211Y-98510331D01*
X76979000Y-98162384D01*
X76979000Y-97807616D01*
X77048211Y-97459669D01*
X77183974Y-97131908D01*
X77381072Y-96836930D01*
X77631930Y-96586072D01*
X77926908Y-96388974D01*
X78254669Y-96253211D01*
X78602616Y-96184000D01*
X78957384Y-96184000D01*
X79305331Y-96253211D01*
X79305331Y-96253211D01*
G37*
G36*
X109705331Y-96253211D02*
G01*
X110033092Y-96388974D01*
X110328070Y-96586072D01*
X110578928Y-96836930D01*
X110776026Y-97131908D01*
X110911789Y-97459669D01*
X110981000Y-97807616D01*
X110981000Y-98162384D01*
X110911789Y-98510331D01*
X110776026Y-98838092D01*
X110578928Y-99133070D01*
X110328070Y-99383928D01*
X110033092Y-99581026D01*
X109705331Y-99716789D01*
X109357384Y-99786000D01*
X109002616Y-99786000D01*
X108654669Y-99716789D01*
X108326908Y-99581026D01*
X108031930Y-99383928D01*
X107781072Y-99133070D01*
X107583974Y-98838092D01*
X107448211Y-98510331D01*
X107379000Y-98162384D01*
X107379000Y-97807616D01*
X107448211Y-97459669D01*
X107583974Y-97131908D01*
X107781072Y-96836930D01*
X108031930Y-96586072D01*
X108326908Y-96388974D01*
X108654669Y-96253211D01*
X109002616Y-96184000D01*
X109357384Y-96184000D01*
X109705331Y-96253211D01*
X109705331Y-96253211D01*
G37*
G36*
X97915591Y-98804085D02*
G01*
X97949569Y-98814393D01*
X97980890Y-98831134D01*
X98008339Y-98853661D01*
X98030866Y-98881110D01*
X98047607Y-98912431D01*
X98057915Y-98946409D01*
X98062000Y-98987890D01*
X98062000Y-99589110D01*
X98057915Y-99630591D01*
X98047607Y-99664569D01*
X98030866Y-99695890D01*
X98008339Y-99723339D01*
X97980890Y-99745866D01*
X97949569Y-99762607D01*
X97915591Y-99772915D01*
X97874110Y-99777000D01*
X97197890Y-99777000D01*
X97156409Y-99772915D01*
X97122431Y-99762607D01*
X97091110Y-99745866D01*
X97063661Y-99723339D01*
X97041134Y-99695890D01*
X97024393Y-99664569D01*
X97014085Y-99630591D01*
X97010000Y-99589110D01*
X97010000Y-98987890D01*
X97014085Y-98946409D01*
X97024393Y-98912431D01*
X97041134Y-98881110D01*
X97063661Y-98853661D01*
X97091110Y-98831134D01*
X97122431Y-98814393D01*
X97156409Y-98804085D01*
X97197890Y-98800000D01*
X97874110Y-98800000D01*
X97915591Y-98804085D01*
X97915591Y-98804085D01*
G37*
G36*
X122490153Y-96775922D02*
G01*
X122582194Y-96814047D01*
X122712359Y-96867963D01*
X122912342Y-97001587D01*
X123082413Y-97171658D01*
X123216037Y-97371641D01*
X123308078Y-97593848D01*
X123355000Y-97829741D01*
X123355000Y-98070259D01*
X123308078Y-98306152D01*
X123216037Y-98528359D01*
X123082413Y-98728342D01*
X122912342Y-98898413D01*
X122712359Y-99032037D01*
X122582194Y-99085953D01*
X122490153Y-99124078D01*
X122372205Y-99147539D01*
X122254259Y-99171000D01*
X122013741Y-99171000D01*
X121895795Y-99147539D01*
X121777847Y-99124078D01*
X121685806Y-99085953D01*
X121555641Y-99032037D01*
X121355658Y-98898413D01*
X121185587Y-98728342D01*
X121051963Y-98528359D01*
X120959922Y-98306152D01*
X120913000Y-98070259D01*
X120913000Y-97829741D01*
X120959922Y-97593848D01*
X121051963Y-97371641D01*
X121185587Y-97171658D01*
X121355658Y-97001587D01*
X121555641Y-96867963D01*
X121685806Y-96814047D01*
X121777847Y-96775922D01*
X121895795Y-96752461D01*
X122013741Y-96729000D01*
X122254259Y-96729000D01*
X122490153Y-96775922D01*
X122490153Y-96775922D01*
G37*
G36*
X152793500Y-98804000D02*
G01*
X150491500Y-98804000D01*
X150491500Y-97502000D01*
X152793500Y-97502000D01*
X152793500Y-98804000D01*
X152793500Y-98804000D01*
G37*
G36*
X149163674Y-97269965D02*
G01*
X149201367Y-97281399D01*
X149236103Y-97299966D01*
X149266548Y-97324952D01*
X149291534Y-97355397D01*
X149310101Y-97390133D01*
X149321535Y-97427826D01*
X149326000Y-97473161D01*
X149326000Y-98559839D01*
X149321535Y-98605174D01*
X149310101Y-98642867D01*
X149291534Y-98677603D01*
X149266548Y-98708048D01*
X149236103Y-98733034D01*
X149201367Y-98751601D01*
X149163674Y-98763035D01*
X149118339Y-98767500D01*
X148281661Y-98767500D01*
X148236326Y-98763035D01*
X148198633Y-98751601D01*
X148163897Y-98733034D01*
X148133452Y-98708048D01*
X148108466Y-98677603D01*
X148089899Y-98642867D01*
X148078465Y-98605174D01*
X148074000Y-98559839D01*
X148074000Y-97473161D01*
X148078465Y-97427826D01*
X148089899Y-97390133D01*
X148108466Y-97355397D01*
X148133452Y-97324952D01*
X148163897Y-97299966D01*
X148198633Y-97281399D01*
X148236326Y-97269965D01*
X148281661Y-97265500D01*
X149118339Y-97265500D01*
X149163674Y-97269965D01*
X149163674Y-97269965D01*
G37*
G36*
X147113674Y-97269965D02*
G01*
X147151367Y-97281399D01*
X147186103Y-97299966D01*
X147216548Y-97324952D01*
X147241534Y-97355397D01*
X147260101Y-97390133D01*
X147271535Y-97427826D01*
X147276000Y-97473161D01*
X147276000Y-98559839D01*
X147271535Y-98605174D01*
X147260101Y-98642867D01*
X147241534Y-98677603D01*
X147216548Y-98708048D01*
X147186103Y-98733034D01*
X147151367Y-98751601D01*
X147113674Y-98763035D01*
X147068339Y-98767500D01*
X146231661Y-98767500D01*
X146186326Y-98763035D01*
X146148633Y-98751601D01*
X146113897Y-98733034D01*
X146083452Y-98708048D01*
X146058466Y-98677603D01*
X146039899Y-98642867D01*
X146028465Y-98605174D01*
X146024000Y-98559839D01*
X146024000Y-97473161D01*
X146028465Y-97427826D01*
X146039899Y-97390133D01*
X146058466Y-97355397D01*
X146083452Y-97324952D01*
X146113897Y-97299966D01*
X146148633Y-97281399D01*
X146186326Y-97269965D01*
X146231661Y-97265500D01*
X147068339Y-97265500D01*
X147113674Y-97269965D01*
X147113674Y-97269965D01*
G37*
G36*
X84771000Y-98361000D02*
G01*
X82869000Y-98361000D01*
X82869000Y-95759000D01*
X84771000Y-95759000D01*
X84771000Y-98361000D01*
X84771000Y-98361000D01*
G37*
G36*
X170007000Y-97871000D02*
G01*
X167305000Y-97871000D01*
X167305000Y-95169000D01*
X170007000Y-95169000D01*
X170007000Y-97871000D01*
X170007000Y-97871000D01*
G37*
G36*
X91268674Y-95138465D02*
G01*
X91306367Y-95149899D01*
X91341103Y-95168466D01*
X91371548Y-95193452D01*
X91396534Y-95223897D01*
X91415101Y-95258633D01*
X91426535Y-95296326D01*
X91431000Y-95341661D01*
X91431000Y-96428339D01*
X91426535Y-96473674D01*
X91415101Y-96511367D01*
X91396534Y-96546103D01*
X91371548Y-96576548D01*
X91341103Y-96601534D01*
X91306367Y-96620101D01*
X91268674Y-96631535D01*
X91223339Y-96636000D01*
X90386661Y-96636000D01*
X90341326Y-96631535D01*
X90303633Y-96620101D01*
X90268897Y-96601534D01*
X90238452Y-96576548D01*
X90213466Y-96546103D01*
X90194899Y-96511367D01*
X90183465Y-96473674D01*
X90179000Y-96428339D01*
X90179000Y-95341661D01*
X90183465Y-95296326D01*
X90194899Y-95258633D01*
X90213466Y-95223897D01*
X90238452Y-95193452D01*
X90268897Y-95168466D01*
X90303633Y-95149899D01*
X90341326Y-95138465D01*
X90386661Y-95134000D01*
X91223339Y-95134000D01*
X91268674Y-95138465D01*
X91268674Y-95138465D01*
G37*
G36*
X93318674Y-95138465D02*
G01*
X93356367Y-95149899D01*
X93391103Y-95168466D01*
X93421548Y-95193452D01*
X93446534Y-95223897D01*
X93465101Y-95258633D01*
X93476535Y-95296326D01*
X93481000Y-95341661D01*
X93481000Y-96428339D01*
X93476535Y-96473674D01*
X93465101Y-96511367D01*
X93446534Y-96546103D01*
X93421548Y-96576548D01*
X93391103Y-96601534D01*
X93356367Y-96620101D01*
X93318674Y-96631535D01*
X93273339Y-96636000D01*
X92436661Y-96636000D01*
X92391326Y-96631535D01*
X92353633Y-96620101D01*
X92318897Y-96601534D01*
X92288452Y-96576548D01*
X92263466Y-96546103D01*
X92244899Y-96511367D01*
X92233465Y-96473674D01*
X92229000Y-96428339D01*
X92229000Y-95341661D01*
X92233465Y-95296326D01*
X92244899Y-95258633D01*
X92263466Y-95223897D01*
X92288452Y-95193452D01*
X92318897Y-95168466D01*
X92353633Y-95149899D01*
X92391326Y-95138465D01*
X92436661Y-95134000D01*
X93273339Y-95134000D01*
X93318674Y-95138465D01*
X93318674Y-95138465D01*
G37*
G36*
X149163674Y-94729965D02*
G01*
X149201367Y-94741399D01*
X149236103Y-94759966D01*
X149266548Y-94784952D01*
X149291534Y-94815397D01*
X149310101Y-94850133D01*
X149321535Y-94887826D01*
X149326000Y-94933161D01*
X149326000Y-96019839D01*
X149321535Y-96065174D01*
X149310101Y-96102867D01*
X149291534Y-96137603D01*
X149266548Y-96168048D01*
X149236103Y-96193034D01*
X149201367Y-96211601D01*
X149163674Y-96223035D01*
X149118339Y-96227500D01*
X148281661Y-96227500D01*
X148236326Y-96223035D01*
X148198633Y-96211601D01*
X148163897Y-96193034D01*
X148133452Y-96168048D01*
X148108466Y-96137603D01*
X148089899Y-96102867D01*
X148078465Y-96065174D01*
X148074000Y-96019839D01*
X148074000Y-94933161D01*
X148078465Y-94887826D01*
X148089899Y-94850133D01*
X148108466Y-94815397D01*
X148133452Y-94784952D01*
X148163897Y-94759966D01*
X148198633Y-94741399D01*
X148236326Y-94729965D01*
X148281661Y-94725500D01*
X149118339Y-94725500D01*
X149163674Y-94729965D01*
X149163674Y-94729965D01*
G37*
G36*
X147113674Y-94729965D02*
G01*
X147151367Y-94741399D01*
X147186103Y-94759966D01*
X147216548Y-94784952D01*
X147241534Y-94815397D01*
X147260101Y-94850133D01*
X147271535Y-94887826D01*
X147276000Y-94933161D01*
X147276000Y-96019839D01*
X147271535Y-96065174D01*
X147260101Y-96102867D01*
X147241534Y-96137603D01*
X147216548Y-96168048D01*
X147186103Y-96193034D01*
X147151367Y-96211601D01*
X147113674Y-96223035D01*
X147068339Y-96227500D01*
X146231661Y-96227500D01*
X146186326Y-96223035D01*
X146148633Y-96211601D01*
X146113897Y-96193034D01*
X146083452Y-96168048D01*
X146058466Y-96137603D01*
X146039899Y-96102867D01*
X146028465Y-96065174D01*
X146024000Y-96019839D01*
X146024000Y-94933161D01*
X146028465Y-94887826D01*
X146039899Y-94850133D01*
X146058466Y-94815397D01*
X146083452Y-94784952D01*
X146113897Y-94759966D01*
X146148633Y-94741399D01*
X146186326Y-94729965D01*
X146231661Y-94725500D01*
X147068339Y-94725500D01*
X147113674Y-94729965D01*
X147113674Y-94729965D01*
G37*
G36*
X160974674Y-94729965D02*
G01*
X161012367Y-94741399D01*
X161047103Y-94759966D01*
X161077548Y-94784952D01*
X161102534Y-94815397D01*
X161121101Y-94850133D01*
X161132535Y-94887826D01*
X161137000Y-94933161D01*
X161137000Y-96019839D01*
X161132535Y-96065174D01*
X161121101Y-96102867D01*
X161102534Y-96137603D01*
X161077548Y-96168048D01*
X161047103Y-96193034D01*
X161012367Y-96211601D01*
X160974674Y-96223035D01*
X160929339Y-96227500D01*
X160092661Y-96227500D01*
X160047326Y-96223035D01*
X160009633Y-96211601D01*
X159974897Y-96193034D01*
X159944452Y-96168048D01*
X159919466Y-96137603D01*
X159900899Y-96102867D01*
X159889465Y-96065174D01*
X159885000Y-96019839D01*
X159885000Y-94933161D01*
X159889465Y-94887826D01*
X159900899Y-94850133D01*
X159919466Y-94815397D01*
X159944452Y-94784952D01*
X159974897Y-94759966D01*
X160009633Y-94741399D01*
X160047326Y-94729965D01*
X160092661Y-94725500D01*
X160929339Y-94725500D01*
X160974674Y-94729965D01*
X160974674Y-94729965D01*
G37*
G36*
X158924674Y-94729965D02*
G01*
X158962367Y-94741399D01*
X158997103Y-94759966D01*
X159027548Y-94784952D01*
X159052534Y-94815397D01*
X159071101Y-94850133D01*
X159082535Y-94887826D01*
X159087000Y-94933161D01*
X159087000Y-96019839D01*
X159082535Y-96065174D01*
X159071101Y-96102867D01*
X159052534Y-96137603D01*
X159027548Y-96168048D01*
X158997103Y-96193034D01*
X158962367Y-96211601D01*
X158924674Y-96223035D01*
X158879339Y-96227500D01*
X158042661Y-96227500D01*
X157997326Y-96223035D01*
X157959633Y-96211601D01*
X157924897Y-96193034D01*
X157894452Y-96168048D01*
X157869466Y-96137603D01*
X157850899Y-96102867D01*
X157839465Y-96065174D01*
X157835000Y-96019839D01*
X157835000Y-94933161D01*
X157839465Y-94887826D01*
X157850899Y-94850133D01*
X157869466Y-94815397D01*
X157894452Y-94784952D01*
X157924897Y-94759966D01*
X157959633Y-94741399D01*
X157997326Y-94729965D01*
X158042661Y-94725500D01*
X158879339Y-94725500D01*
X158924674Y-94729965D01*
X158924674Y-94729965D01*
G37*
G36*
X153735674Y-94729965D02*
G01*
X153773367Y-94741399D01*
X153808103Y-94759966D01*
X153838548Y-94784952D01*
X153863534Y-94815397D01*
X153882101Y-94850133D01*
X153893535Y-94887826D01*
X153898000Y-94933161D01*
X153898000Y-96019839D01*
X153893535Y-96065174D01*
X153882101Y-96102867D01*
X153863534Y-96137603D01*
X153838548Y-96168048D01*
X153808103Y-96193034D01*
X153773367Y-96211601D01*
X153735674Y-96223035D01*
X153690339Y-96227500D01*
X152853661Y-96227500D01*
X152808326Y-96223035D01*
X152770633Y-96211601D01*
X152735897Y-96193034D01*
X152705452Y-96168048D01*
X152680466Y-96137603D01*
X152661899Y-96102867D01*
X152650465Y-96065174D01*
X152646000Y-96019839D01*
X152646000Y-94933161D01*
X152650465Y-94887826D01*
X152661899Y-94850133D01*
X152680466Y-94815397D01*
X152705452Y-94784952D01*
X152735897Y-94759966D01*
X152770633Y-94741399D01*
X152808326Y-94729965D01*
X152853661Y-94725500D01*
X153690339Y-94725500D01*
X153735674Y-94729965D01*
X153735674Y-94729965D01*
G37*
G36*
X151685674Y-94729965D02*
G01*
X151723367Y-94741399D01*
X151758103Y-94759966D01*
X151788548Y-94784952D01*
X151813534Y-94815397D01*
X151832101Y-94850133D01*
X151843535Y-94887826D01*
X151848000Y-94933161D01*
X151848000Y-96019839D01*
X151843535Y-96065174D01*
X151832101Y-96102867D01*
X151813534Y-96137603D01*
X151788548Y-96168048D01*
X151758103Y-96193034D01*
X151723367Y-96211601D01*
X151685674Y-96223035D01*
X151640339Y-96227500D01*
X150803661Y-96227500D01*
X150758326Y-96223035D01*
X150720633Y-96211601D01*
X150685897Y-96193034D01*
X150655452Y-96168048D01*
X150630466Y-96137603D01*
X150611899Y-96102867D01*
X150600465Y-96065174D01*
X150596000Y-96019839D01*
X150596000Y-94933161D01*
X150600465Y-94887826D01*
X150611899Y-94850133D01*
X150630466Y-94815397D01*
X150655452Y-94784952D01*
X150685897Y-94759966D01*
X150720633Y-94741399D01*
X150758326Y-94729965D01*
X150803661Y-94725500D01*
X151640339Y-94725500D01*
X151685674Y-94729965D01*
X151685674Y-94729965D01*
G37*
G36*
X104656000Y-95441000D02*
G01*
X102354000Y-95441000D01*
X102354000Y-93839000D01*
X104656000Y-93839000D01*
X104656000Y-95441000D01*
X104656000Y-95441000D01*
G37*
G36*
X97431000Y-92471000D02*
G01*
X95329000Y-92471000D01*
X95329000Y-91269000D01*
X97431000Y-91269000D01*
X97431000Y-92471000D01*
X97431000Y-92471000D01*
G37*
G36*
X92631000Y-92471000D02*
G01*
X90529000Y-92471000D01*
X90529000Y-91269000D01*
X92631000Y-91269000D01*
X92631000Y-92471000D01*
X92631000Y-92471000D01*
G37*
G36*
X161267000Y-92335000D02*
G01*
X154765000Y-92335000D01*
X154765000Y-86433000D01*
X161267000Y-86433000D01*
X161267000Y-92335000D01*
X161267000Y-92335000D01*
G37*
G36*
X152867000Y-92315000D02*
G01*
X150565000Y-92315000D01*
X150565000Y-91013000D01*
X152867000Y-91013000D01*
X152867000Y-92315000D01*
X152867000Y-92315000D01*
G37*
G36*
X146750500Y-91924500D02*
G01*
X144748500Y-91924500D01*
X144748500Y-91022500D01*
X146750500Y-91022500D01*
X146750500Y-91924500D01*
X146750500Y-91924500D01*
G37*
G36*
X169037916Y-89122500D02*
G01*
X169050072Y-89124918D01*
X169295939Y-89226759D01*
X169407328Y-89301187D01*
X169517211Y-89374609D01*
X169705391Y-89562789D01*
X169853242Y-89784063D01*
X169955082Y-90029928D01*
X169984138Y-90176000D01*
X170007000Y-90290938D01*
X170007000Y-90557062D01*
X169955082Y-90818072D01*
X169853241Y-91063939D01*
X169705390Y-91285212D01*
X169517212Y-91473390D01*
X169295939Y-91621241D01*
X169295938Y-91621242D01*
X169295937Y-91621242D01*
X169050072Y-91723082D01*
X168789063Y-91775000D01*
X168522937Y-91775000D01*
X168261928Y-91723082D01*
X168016063Y-91621242D01*
X168016062Y-91621242D01*
X168016061Y-91621241D01*
X167794788Y-91473390D01*
X167606610Y-91285212D01*
X167458759Y-91063939D01*
X167356918Y-90818072D01*
X167305000Y-90557062D01*
X167305000Y-90290938D01*
X167327863Y-90176000D01*
X167356918Y-90029928D01*
X167458758Y-89784063D01*
X167606609Y-89562789D01*
X167794789Y-89374609D01*
X167904672Y-89301187D01*
X168016061Y-89226759D01*
X168261928Y-89124918D01*
X168274084Y-89122500D01*
X168522937Y-89073000D01*
X168789063Y-89073000D01*
X169037916Y-89122500D01*
X169037916Y-89122500D01*
G37*
G36*
X80336934Y-88872671D02*
G01*
X80366877Y-88881754D01*
X80394465Y-88896500D01*
X80418651Y-88916349D01*
X80438500Y-88940535D01*
X80453246Y-88968123D01*
X80462329Y-88998066D01*
X80466000Y-89035340D01*
X80466000Y-91304660D01*
X80462329Y-91341934D01*
X80453246Y-91371877D01*
X80438500Y-91399465D01*
X80418651Y-91423651D01*
X80394465Y-91443500D01*
X80366877Y-91458246D01*
X80336934Y-91467329D01*
X80299660Y-91471000D01*
X77030340Y-91471000D01*
X76993066Y-91467329D01*
X76963123Y-91458246D01*
X76935535Y-91443500D01*
X76911349Y-91423651D01*
X76891500Y-91399465D01*
X76876754Y-91371877D01*
X76867671Y-91341934D01*
X76864000Y-91304660D01*
X76864000Y-89035340D01*
X76867671Y-88998066D01*
X76876754Y-88968123D01*
X76891500Y-88940535D01*
X76911349Y-88916349D01*
X76935535Y-88896500D01*
X76963123Y-88881754D01*
X76993066Y-88872671D01*
X77030340Y-88869000D01*
X80299660Y-88869000D01*
X80336934Y-88872671D01*
X80336934Y-88872671D01*
G37*
G36*
X86836934Y-88872671D02*
G01*
X86866877Y-88881754D01*
X86894465Y-88896500D01*
X86918651Y-88916349D01*
X86938500Y-88940535D01*
X86953246Y-88968123D01*
X86962329Y-88998066D01*
X86966000Y-89035340D01*
X86966000Y-91304660D01*
X86962329Y-91341934D01*
X86953246Y-91371877D01*
X86938500Y-91399465D01*
X86918651Y-91423651D01*
X86894465Y-91443500D01*
X86866877Y-91458246D01*
X86836934Y-91467329D01*
X86799660Y-91471000D01*
X83530340Y-91471000D01*
X83493066Y-91467329D01*
X83463123Y-91458246D01*
X83435535Y-91443500D01*
X83411349Y-91423651D01*
X83391500Y-91399465D01*
X83376754Y-91371877D01*
X83367671Y-91341934D01*
X83364000Y-91304660D01*
X83364000Y-89035340D01*
X83367671Y-88998066D01*
X83376754Y-88968123D01*
X83391500Y-88940535D01*
X83411349Y-88916349D01*
X83435535Y-88896500D01*
X83463123Y-88881754D01*
X83493066Y-88872671D01*
X83530340Y-88869000D01*
X86799660Y-88869000D01*
X86836934Y-88872671D01*
X86836934Y-88872671D01*
G37*
G36*
X149750500Y-90974500D02*
G01*
X147748500Y-90974500D01*
X147748500Y-90072500D01*
X149750500Y-90072500D01*
X149750500Y-90974500D01*
X149750500Y-90974500D01*
G37*
G36*
X97431000Y-90771000D02*
G01*
X95329000Y-90771000D01*
X95329000Y-89569000D01*
X97431000Y-89569000D01*
X97431000Y-90771000D01*
X97431000Y-90771000D01*
G37*
G36*
X92631000Y-90771000D02*
G01*
X90529000Y-90771000D01*
X90529000Y-89569000D01*
X92631000Y-89569000D01*
X92631000Y-90771000D01*
X92631000Y-90771000D01*
G37*
G36*
X141316000Y-90176000D02*
G01*
X139814000Y-90176000D01*
X139814000Y-88474000D01*
X141316000Y-88474000D01*
X141316000Y-90176000D01*
X141316000Y-90176000D01*
G37*
G36*
X138316000Y-90176000D02*
G01*
X136814000Y-90176000D01*
X136814000Y-88474000D01*
X138316000Y-88474000D01*
X138316000Y-90176000D01*
X138316000Y-90176000D01*
G37*
G36*
X152867000Y-90035000D02*
G01*
X150565000Y-90035000D01*
X150565000Y-88733000D01*
X152867000Y-88733000D01*
X152867000Y-90035000D01*
X152867000Y-90035000D01*
G37*
G36*
X146750500Y-90024500D02*
G01*
X144748500Y-90024500D01*
X144748500Y-89122500D01*
X146750500Y-89122500D01*
X146750500Y-90024500D01*
X146750500Y-90024500D01*
G37*
G36*
X92631000Y-89071000D02*
G01*
X90529000Y-89071000D01*
X90529000Y-87869000D01*
X92631000Y-87869000D01*
X92631000Y-89071000D01*
X92631000Y-89071000D01*
G37*
G36*
X97431000Y-89071000D02*
G01*
X95329000Y-89071000D01*
X95329000Y-87869000D01*
X97431000Y-87869000D01*
X97431000Y-89071000D01*
X97431000Y-89071000D01*
G37*
G36*
X104656000Y-89041000D02*
G01*
X102354000Y-89041000D01*
X102354000Y-87439000D01*
X104656000Y-87439000D01*
X104656000Y-89041000D01*
X104656000Y-89041000D01*
G37*
G36*
X152867000Y-87755000D02*
G01*
X150565000Y-87755000D01*
X150565000Y-86453000D01*
X152867000Y-86453000D01*
X152867000Y-87755000D01*
X152867000Y-87755000D01*
G37*
G36*
X149237174Y-86220965D02*
G01*
X149274867Y-86232399D01*
X149309603Y-86250966D01*
X149340048Y-86275952D01*
X149365034Y-86306397D01*
X149383601Y-86341133D01*
X149395035Y-86378826D01*
X149399500Y-86424161D01*
X149399500Y-87510839D01*
X149395035Y-87556174D01*
X149383601Y-87593867D01*
X149365034Y-87628603D01*
X149340048Y-87659048D01*
X149309603Y-87684034D01*
X149274867Y-87702601D01*
X149237174Y-87714035D01*
X149191839Y-87718500D01*
X148355161Y-87718500D01*
X148309826Y-87714035D01*
X148272133Y-87702601D01*
X148237397Y-87684034D01*
X148206952Y-87659048D01*
X148181966Y-87628603D01*
X148163399Y-87593867D01*
X148151965Y-87556174D01*
X148147500Y-87510839D01*
X148147500Y-86424161D01*
X148151965Y-86378826D01*
X148163399Y-86341133D01*
X148181966Y-86306397D01*
X148206952Y-86275952D01*
X148237397Y-86250966D01*
X148272133Y-86232399D01*
X148309826Y-86220965D01*
X148355161Y-86216500D01*
X149191839Y-86216500D01*
X149237174Y-86220965D01*
X149237174Y-86220965D01*
G37*
G36*
X147187174Y-86220965D02*
G01*
X147224867Y-86232399D01*
X147259603Y-86250966D01*
X147290048Y-86275952D01*
X147315034Y-86306397D01*
X147333601Y-86341133D01*
X147345035Y-86378826D01*
X147349500Y-86424161D01*
X147349500Y-87510839D01*
X147345035Y-87556174D01*
X147333601Y-87593867D01*
X147315034Y-87628603D01*
X147290048Y-87659048D01*
X147259603Y-87684034D01*
X147224867Y-87702601D01*
X147187174Y-87714035D01*
X147141839Y-87718500D01*
X146305161Y-87718500D01*
X146259826Y-87714035D01*
X146222133Y-87702601D01*
X146187397Y-87684034D01*
X146156952Y-87659048D01*
X146131966Y-87628603D01*
X146113399Y-87593867D01*
X146101965Y-87556174D01*
X146097500Y-87510839D01*
X146097500Y-86424161D01*
X146101965Y-86378826D01*
X146113399Y-86341133D01*
X146131966Y-86306397D01*
X146156952Y-86275952D01*
X146187397Y-86250966D01*
X146222133Y-86232399D01*
X146259826Y-86220965D01*
X146305161Y-86216500D01*
X147141839Y-86216500D01*
X147187174Y-86220965D01*
X147187174Y-86220965D01*
G37*
G36*
X170007000Y-86695000D02*
G01*
X167305000Y-86695000D01*
X167305000Y-83993000D01*
X170007000Y-83993000D01*
X170007000Y-86695000D01*
X170007000Y-86695000D01*
G37*
G36*
X132219000Y-85737000D02*
G01*
X130417000Y-85737000D01*
X130417000Y-83935000D01*
X132219000Y-83935000D01*
X132219000Y-85737000D01*
X132219000Y-85737000D01*
G37*
G36*
X128888443Y-83941519D02*
G01*
X128954627Y-83948037D01*
X129124466Y-83999557D01*
X129280991Y-84083222D01*
X129312706Y-84109250D01*
X129418186Y-84195814D01*
X129501448Y-84297271D01*
X129530778Y-84333009D01*
X129568795Y-84404134D01*
X129610177Y-84481552D01*
X129614443Y-84489534D01*
X129665963Y-84659373D01*
X129683359Y-84836000D01*
X129665963Y-85012627D01*
X129614443Y-85182466D01*
X129530778Y-85338991D01*
X129521743Y-85350000D01*
X129418186Y-85476186D01*
X129316729Y-85559448D01*
X129280991Y-85588778D01*
X129124466Y-85672443D01*
X128954627Y-85723963D01*
X128888443Y-85730481D01*
X128822260Y-85737000D01*
X128733740Y-85737000D01*
X128667557Y-85730481D01*
X128601373Y-85723963D01*
X128431534Y-85672443D01*
X128275009Y-85588778D01*
X128239271Y-85559448D01*
X128137814Y-85476186D01*
X128034257Y-85350000D01*
X128025222Y-85338991D01*
X127941557Y-85182466D01*
X127890037Y-85012627D01*
X127872641Y-84836000D01*
X127890037Y-84659373D01*
X127941557Y-84489534D01*
X127945824Y-84481552D01*
X127987205Y-84404134D01*
X128025222Y-84333009D01*
X128054552Y-84297271D01*
X128137814Y-84195814D01*
X128243294Y-84109250D01*
X128275009Y-84083222D01*
X128431534Y-83999557D01*
X128601373Y-83948037D01*
X128667557Y-83941519D01*
X128733740Y-83935000D01*
X128822260Y-83935000D01*
X128888443Y-83941519D01*
X128888443Y-83941519D01*
G37*
G36*
X107555591Y-84314085D02*
G01*
X107589569Y-84324393D01*
X107620890Y-84341134D01*
X107648339Y-84363661D01*
X107670866Y-84391110D01*
X107687607Y-84422431D01*
X107697915Y-84456409D01*
X107702000Y-84497890D01*
X107702000Y-85174110D01*
X107697915Y-85215591D01*
X107687607Y-85249569D01*
X107670866Y-85280890D01*
X107648339Y-85308339D01*
X107620890Y-85330866D01*
X107589569Y-85347607D01*
X107555591Y-85357915D01*
X107514110Y-85362000D01*
X106912890Y-85362000D01*
X106871409Y-85357915D01*
X106837431Y-85347607D01*
X106806110Y-85330866D01*
X106778661Y-85308339D01*
X106756134Y-85280890D01*
X106739393Y-85249569D01*
X106729085Y-85215591D01*
X106725000Y-85174110D01*
X106725000Y-84497890D01*
X106729085Y-84456409D01*
X106739393Y-84422431D01*
X106756134Y-84391110D01*
X106778661Y-84363661D01*
X106806110Y-84341134D01*
X106837431Y-84324393D01*
X106871409Y-84314085D01*
X106912890Y-84310000D01*
X107514110Y-84310000D01*
X107555591Y-84314085D01*
X107555591Y-84314085D01*
G37*
G36*
X105980591Y-84314085D02*
G01*
X106014569Y-84324393D01*
X106045890Y-84341134D01*
X106073339Y-84363661D01*
X106095866Y-84391110D01*
X106112607Y-84422431D01*
X106122915Y-84456409D01*
X106127000Y-84497890D01*
X106127000Y-85174110D01*
X106122915Y-85215591D01*
X106112607Y-85249569D01*
X106095866Y-85280890D01*
X106073339Y-85308339D01*
X106045890Y-85330866D01*
X106014569Y-85347607D01*
X105980591Y-85357915D01*
X105939110Y-85362000D01*
X105337890Y-85362000D01*
X105296409Y-85357915D01*
X105262431Y-85347607D01*
X105231110Y-85330866D01*
X105203661Y-85308339D01*
X105181134Y-85280890D01*
X105164393Y-85249569D01*
X105154085Y-85215591D01*
X105150000Y-85174110D01*
X105150000Y-84497890D01*
X105154085Y-84456409D01*
X105164393Y-84422431D01*
X105181134Y-84391110D01*
X105203661Y-84363661D01*
X105231110Y-84341134D01*
X105262431Y-84324393D01*
X105296409Y-84314085D01*
X105337890Y-84310000D01*
X105939110Y-84310000D01*
X105980591Y-84314085D01*
X105980591Y-84314085D01*
G37*
G36*
X99820591Y-84377085D02*
G01*
X99854569Y-84387393D01*
X99885890Y-84404134D01*
X99913339Y-84426661D01*
X99935866Y-84454110D01*
X99952607Y-84485431D01*
X99962915Y-84519409D01*
X99967000Y-84560890D01*
X99967000Y-85162110D01*
X99962915Y-85203591D01*
X99952607Y-85237569D01*
X99935866Y-85268890D01*
X99913339Y-85296339D01*
X99885890Y-85318866D01*
X99854569Y-85335607D01*
X99820591Y-85345915D01*
X99779110Y-85350000D01*
X99102890Y-85350000D01*
X99061409Y-85345915D01*
X99027431Y-85335607D01*
X98996110Y-85318866D01*
X98968661Y-85296339D01*
X98946134Y-85268890D01*
X98929393Y-85237569D01*
X98919085Y-85203591D01*
X98915000Y-85162110D01*
X98915000Y-84560890D01*
X98919085Y-84519409D01*
X98929393Y-84485431D01*
X98946134Y-84454110D01*
X98968661Y-84426661D01*
X98996110Y-84404134D01*
X99027431Y-84387393D01*
X99061409Y-84377085D01*
X99102890Y-84373000D01*
X99779110Y-84373000D01*
X99820591Y-84377085D01*
X99820591Y-84377085D01*
G37*
G36*
X102614591Y-84377085D02*
G01*
X102648569Y-84387393D01*
X102679890Y-84404134D01*
X102707339Y-84426661D01*
X102729866Y-84454110D01*
X102746607Y-84485431D01*
X102756915Y-84519409D01*
X102761000Y-84560890D01*
X102761000Y-85162110D01*
X102756915Y-85203591D01*
X102746607Y-85237569D01*
X102729866Y-85268890D01*
X102707339Y-85296339D01*
X102679890Y-85318866D01*
X102648569Y-85335607D01*
X102614591Y-85345915D01*
X102573110Y-85350000D01*
X101896890Y-85350000D01*
X101855409Y-85345915D01*
X101821431Y-85335607D01*
X101790110Y-85318866D01*
X101762661Y-85296339D01*
X101740134Y-85268890D01*
X101723393Y-85237569D01*
X101713085Y-85203591D01*
X101709000Y-85162110D01*
X101709000Y-84560890D01*
X101713085Y-84519409D01*
X101723393Y-84485431D01*
X101740134Y-84454110D01*
X101762661Y-84426661D01*
X101790110Y-84404134D01*
X101821431Y-84387393D01*
X101855409Y-84377085D01*
X101896890Y-84373000D01*
X102573110Y-84373000D01*
X102614591Y-84377085D01*
X102614591Y-84377085D01*
G37*
G36*
X149237174Y-83680965D02*
G01*
X149274867Y-83692399D01*
X149309603Y-83710966D01*
X149340048Y-83735952D01*
X149365034Y-83766397D01*
X149383601Y-83801133D01*
X149395035Y-83838826D01*
X149399500Y-83884161D01*
X149399500Y-84970839D01*
X149395035Y-85016174D01*
X149383601Y-85053867D01*
X149365034Y-85088603D01*
X149340048Y-85119048D01*
X149309603Y-85144034D01*
X149274867Y-85162601D01*
X149237174Y-85174035D01*
X149191839Y-85178500D01*
X148355161Y-85178500D01*
X148309826Y-85174035D01*
X148272133Y-85162601D01*
X148237397Y-85144034D01*
X148206952Y-85119048D01*
X148181966Y-85088603D01*
X148163399Y-85053867D01*
X148151965Y-85016174D01*
X148147500Y-84970839D01*
X148147500Y-83884161D01*
X148151965Y-83838826D01*
X148163399Y-83801133D01*
X148181966Y-83766397D01*
X148206952Y-83735952D01*
X148237397Y-83710966D01*
X148272133Y-83692399D01*
X148309826Y-83680965D01*
X148355161Y-83676500D01*
X149191839Y-83676500D01*
X149237174Y-83680965D01*
X149237174Y-83680965D01*
G37*
G36*
X161048174Y-83680965D02*
G01*
X161085867Y-83692399D01*
X161120603Y-83710966D01*
X161151048Y-83735952D01*
X161176034Y-83766397D01*
X161194601Y-83801133D01*
X161206035Y-83838826D01*
X161210500Y-83884161D01*
X161210500Y-84970839D01*
X161206035Y-85016174D01*
X161194601Y-85053867D01*
X161176034Y-85088603D01*
X161151048Y-85119048D01*
X161120603Y-85144034D01*
X161085867Y-85162601D01*
X161048174Y-85174035D01*
X161002839Y-85178500D01*
X160166161Y-85178500D01*
X160120826Y-85174035D01*
X160083133Y-85162601D01*
X160048397Y-85144034D01*
X160017952Y-85119048D01*
X159992966Y-85088603D01*
X159974399Y-85053867D01*
X159962965Y-85016174D01*
X159958500Y-84970839D01*
X159958500Y-83884161D01*
X159962965Y-83838826D01*
X159974399Y-83801133D01*
X159992966Y-83766397D01*
X160017952Y-83735952D01*
X160048397Y-83710966D01*
X160083133Y-83692399D01*
X160120826Y-83680965D01*
X160166161Y-83676500D01*
X161002839Y-83676500D01*
X161048174Y-83680965D01*
X161048174Y-83680965D01*
G37*
G36*
X147187174Y-83680965D02*
G01*
X147224867Y-83692399D01*
X147259603Y-83710966D01*
X147290048Y-83735952D01*
X147315034Y-83766397D01*
X147333601Y-83801133D01*
X147345035Y-83838826D01*
X147349500Y-83884161D01*
X147349500Y-84970839D01*
X147345035Y-85016174D01*
X147333601Y-85053867D01*
X147315034Y-85088603D01*
X147290048Y-85119048D01*
X147259603Y-85144034D01*
X147224867Y-85162601D01*
X147187174Y-85174035D01*
X147141839Y-85178500D01*
X146305161Y-85178500D01*
X146259826Y-85174035D01*
X146222133Y-85162601D01*
X146187397Y-85144034D01*
X146156952Y-85119048D01*
X146131966Y-85088603D01*
X146113399Y-85053867D01*
X146101965Y-85016174D01*
X146097500Y-84970839D01*
X146097500Y-83884161D01*
X146101965Y-83838826D01*
X146113399Y-83801133D01*
X146131966Y-83766397D01*
X146156952Y-83735952D01*
X146187397Y-83710966D01*
X146222133Y-83692399D01*
X146259826Y-83680965D01*
X146305161Y-83676500D01*
X147141839Y-83676500D01*
X147187174Y-83680965D01*
X147187174Y-83680965D01*
G37*
G36*
X158998174Y-83680965D02*
G01*
X159035867Y-83692399D01*
X159070603Y-83710966D01*
X159101048Y-83735952D01*
X159126034Y-83766397D01*
X159144601Y-83801133D01*
X159156035Y-83838826D01*
X159160500Y-83884161D01*
X159160500Y-84970839D01*
X159156035Y-85016174D01*
X159144601Y-85053867D01*
X159126034Y-85088603D01*
X159101048Y-85119048D01*
X159070603Y-85144034D01*
X159035867Y-85162601D01*
X158998174Y-85174035D01*
X158952839Y-85178500D01*
X158116161Y-85178500D01*
X158070826Y-85174035D01*
X158033133Y-85162601D01*
X157998397Y-85144034D01*
X157967952Y-85119048D01*
X157942966Y-85088603D01*
X157924399Y-85053867D01*
X157912965Y-85016174D01*
X157908500Y-84970839D01*
X157908500Y-83884161D01*
X157912965Y-83838826D01*
X157924399Y-83801133D01*
X157942966Y-83766397D01*
X157967952Y-83735952D01*
X157998397Y-83710966D01*
X158033133Y-83692399D01*
X158070826Y-83680965D01*
X158116161Y-83676500D01*
X158952839Y-83676500D01*
X158998174Y-83680965D01*
X158998174Y-83680965D01*
G37*
G36*
X151759174Y-83680965D02*
G01*
X151796867Y-83692399D01*
X151831603Y-83710966D01*
X151862048Y-83735952D01*
X151887034Y-83766397D01*
X151905601Y-83801133D01*
X151917035Y-83838826D01*
X151921500Y-83884161D01*
X151921500Y-84970839D01*
X151917035Y-85016174D01*
X151905601Y-85053867D01*
X151887034Y-85088603D01*
X151862048Y-85119048D01*
X151831603Y-85144034D01*
X151796867Y-85162601D01*
X151759174Y-85174035D01*
X151713839Y-85178500D01*
X150877161Y-85178500D01*
X150831826Y-85174035D01*
X150794133Y-85162601D01*
X150759397Y-85144034D01*
X150728952Y-85119048D01*
X150703966Y-85088603D01*
X150685399Y-85053867D01*
X150673965Y-85016174D01*
X150669500Y-84970839D01*
X150669500Y-83884161D01*
X150673965Y-83838826D01*
X150685399Y-83801133D01*
X150703966Y-83766397D01*
X150728952Y-83735952D01*
X150759397Y-83710966D01*
X150794133Y-83692399D01*
X150831826Y-83680965D01*
X150877161Y-83676500D01*
X151713839Y-83676500D01*
X151759174Y-83680965D01*
X151759174Y-83680965D01*
G37*
G36*
X153809174Y-83680965D02*
G01*
X153846867Y-83692399D01*
X153881603Y-83710966D01*
X153912048Y-83735952D01*
X153937034Y-83766397D01*
X153955601Y-83801133D01*
X153967035Y-83838826D01*
X153971500Y-83884161D01*
X153971500Y-84970839D01*
X153967035Y-85016174D01*
X153955601Y-85053867D01*
X153937034Y-85088603D01*
X153912048Y-85119048D01*
X153881603Y-85144034D01*
X153846867Y-85162601D01*
X153809174Y-85174035D01*
X153763839Y-85178500D01*
X152927161Y-85178500D01*
X152881826Y-85174035D01*
X152844133Y-85162601D01*
X152809397Y-85144034D01*
X152778952Y-85119048D01*
X152753966Y-85088603D01*
X152735399Y-85053867D01*
X152723965Y-85016174D01*
X152719500Y-84970839D01*
X152719500Y-83884161D01*
X152723965Y-83838826D01*
X152735399Y-83801133D01*
X152753966Y-83766397D01*
X152778952Y-83735952D01*
X152809397Y-83710966D01*
X152844133Y-83692399D01*
X152881826Y-83680965D01*
X152927161Y-83676500D01*
X153763839Y-83676500D01*
X153809174Y-83680965D01*
X153809174Y-83680965D01*
G37*
G36*
X85965591Y-83806085D02*
G01*
X85999569Y-83816393D01*
X86030890Y-83833134D01*
X86058339Y-83855661D01*
X86080866Y-83883110D01*
X86097607Y-83914431D01*
X86107915Y-83948409D01*
X86112000Y-83989890D01*
X86112000Y-84666110D01*
X86107915Y-84707591D01*
X86097607Y-84741569D01*
X86080866Y-84772890D01*
X86058339Y-84800339D01*
X86030890Y-84822866D01*
X85999569Y-84839607D01*
X85965591Y-84849915D01*
X85924110Y-84854000D01*
X85322890Y-84854000D01*
X85281409Y-84849915D01*
X85247431Y-84839607D01*
X85216110Y-84822866D01*
X85188661Y-84800339D01*
X85166134Y-84772890D01*
X85149393Y-84741569D01*
X85139085Y-84707591D01*
X85135000Y-84666110D01*
X85135000Y-83989890D01*
X85139085Y-83948409D01*
X85149393Y-83914431D01*
X85166134Y-83883110D01*
X85188661Y-83855661D01*
X85216110Y-83833134D01*
X85247431Y-83816393D01*
X85281409Y-83806085D01*
X85322890Y-83802000D01*
X85924110Y-83802000D01*
X85965591Y-83806085D01*
X85965591Y-83806085D01*
G37*
G36*
X84390591Y-83806085D02*
G01*
X84424569Y-83816393D01*
X84455890Y-83833134D01*
X84483339Y-83855661D01*
X84505866Y-83883110D01*
X84522607Y-83914431D01*
X84532915Y-83948409D01*
X84537000Y-83989890D01*
X84537000Y-84666110D01*
X84532915Y-84707591D01*
X84522607Y-84741569D01*
X84505866Y-84772890D01*
X84483339Y-84800339D01*
X84455890Y-84822866D01*
X84424569Y-84839607D01*
X84390591Y-84849915D01*
X84349110Y-84854000D01*
X83747890Y-84854000D01*
X83706409Y-84849915D01*
X83672431Y-84839607D01*
X83641110Y-84822866D01*
X83613661Y-84800339D01*
X83591134Y-84772890D01*
X83574393Y-84741569D01*
X83564085Y-84707591D01*
X83560000Y-84666110D01*
X83560000Y-83989890D01*
X83564085Y-83948409D01*
X83574393Y-83914431D01*
X83591134Y-83883110D01*
X83613661Y-83855661D01*
X83641110Y-83833134D01*
X83672431Y-83816393D01*
X83706409Y-83806085D01*
X83747890Y-83802000D01*
X84349110Y-83802000D01*
X84390591Y-83806085D01*
X84390591Y-83806085D01*
G37*
G36*
X88263591Y-83869085D02*
G01*
X88297569Y-83879393D01*
X88328890Y-83896134D01*
X88356339Y-83918661D01*
X88378866Y-83946110D01*
X88395607Y-83977431D01*
X88405915Y-84011409D01*
X88410000Y-84052890D01*
X88410000Y-84654110D01*
X88405915Y-84695591D01*
X88395607Y-84729569D01*
X88378866Y-84760890D01*
X88356339Y-84788339D01*
X88328890Y-84810866D01*
X88297569Y-84827607D01*
X88263591Y-84837915D01*
X88222110Y-84842000D01*
X87545890Y-84842000D01*
X87504409Y-84837915D01*
X87470431Y-84827607D01*
X87439110Y-84810866D01*
X87411661Y-84788339D01*
X87389134Y-84760890D01*
X87372393Y-84729569D01*
X87362085Y-84695591D01*
X87358000Y-84654110D01*
X87358000Y-84052890D01*
X87362085Y-84011409D01*
X87372393Y-83977431D01*
X87389134Y-83946110D01*
X87411661Y-83918661D01*
X87439110Y-83896134D01*
X87470431Y-83879393D01*
X87504409Y-83869085D01*
X87545890Y-83865000D01*
X88222110Y-83865000D01*
X88263591Y-83869085D01*
X88263591Y-83869085D01*
G37*
G36*
X102614591Y-82802085D02*
G01*
X102648569Y-82812393D01*
X102679890Y-82829134D01*
X102707339Y-82851661D01*
X102729866Y-82879110D01*
X102746607Y-82910431D01*
X102756915Y-82944409D01*
X102761000Y-82985890D01*
X102761000Y-83587110D01*
X102756915Y-83628591D01*
X102746607Y-83662569D01*
X102729866Y-83693890D01*
X102707339Y-83721339D01*
X102679890Y-83743866D01*
X102648569Y-83760607D01*
X102614591Y-83770915D01*
X102573110Y-83775000D01*
X101896890Y-83775000D01*
X101855409Y-83770915D01*
X101821431Y-83760607D01*
X101790110Y-83743866D01*
X101762661Y-83721339D01*
X101740134Y-83693890D01*
X101723393Y-83662569D01*
X101713085Y-83628591D01*
X101709000Y-83587110D01*
X101709000Y-82985890D01*
X101713085Y-82944409D01*
X101723393Y-82910431D01*
X101740134Y-82879110D01*
X101762661Y-82851661D01*
X101790110Y-82829134D01*
X101821431Y-82812393D01*
X101855409Y-82802085D01*
X101896890Y-82798000D01*
X102573110Y-82798000D01*
X102614591Y-82802085D01*
X102614591Y-82802085D01*
G37*
G36*
X99820591Y-82802085D02*
G01*
X99854569Y-82812393D01*
X99885890Y-82829134D01*
X99913339Y-82851661D01*
X99935866Y-82879110D01*
X99952607Y-82910431D01*
X99962915Y-82944409D01*
X99967000Y-82985890D01*
X99967000Y-83587110D01*
X99962915Y-83628591D01*
X99952607Y-83662569D01*
X99935866Y-83693890D01*
X99913339Y-83721339D01*
X99885890Y-83743866D01*
X99854569Y-83760607D01*
X99820591Y-83770915D01*
X99779110Y-83775000D01*
X99102890Y-83775000D01*
X99061409Y-83770915D01*
X99027431Y-83760607D01*
X98996110Y-83743866D01*
X98968661Y-83721339D01*
X98946134Y-83693890D01*
X98929393Y-83662569D01*
X98919085Y-83628591D01*
X98915000Y-83587110D01*
X98915000Y-82985890D01*
X98919085Y-82944409D01*
X98929393Y-82910431D01*
X98946134Y-82879110D01*
X98968661Y-82851661D01*
X98996110Y-82829134D01*
X99027431Y-82812393D01*
X99061409Y-82802085D01*
X99102890Y-82798000D01*
X99779110Y-82798000D01*
X99820591Y-82802085D01*
X99820591Y-82802085D01*
G37*
G36*
X88263591Y-82294085D02*
G01*
X88297569Y-82304393D01*
X88328890Y-82321134D01*
X88356339Y-82343661D01*
X88378866Y-82371110D01*
X88395607Y-82402431D01*
X88405915Y-82436409D01*
X88410000Y-82477890D01*
X88410000Y-83079110D01*
X88405915Y-83120591D01*
X88395607Y-83154569D01*
X88378866Y-83185890D01*
X88356339Y-83213339D01*
X88328890Y-83235866D01*
X88297569Y-83252607D01*
X88263591Y-83262915D01*
X88222110Y-83267000D01*
X87545890Y-83267000D01*
X87504409Y-83262915D01*
X87470431Y-83252607D01*
X87439110Y-83235866D01*
X87411661Y-83213339D01*
X87389134Y-83185890D01*
X87372393Y-83154569D01*
X87362085Y-83120591D01*
X87358000Y-83079110D01*
X87358000Y-82477890D01*
X87362085Y-82436409D01*
X87372393Y-82402431D01*
X87389134Y-82371110D01*
X87411661Y-82343661D01*
X87439110Y-82321134D01*
X87470431Y-82304393D01*
X87504409Y-82294085D01*
X87545890Y-82290000D01*
X88222110Y-82290000D01*
X88263591Y-82294085D01*
X88263591Y-82294085D01*
G37*
G36*
X138316000Y-82976000D02*
G01*
X136814000Y-82976000D01*
X136814000Y-81274000D01*
X138316000Y-81274000D01*
X138316000Y-82976000D01*
X138316000Y-82976000D01*
G37*
G36*
X141316000Y-82976000D02*
G01*
X139814000Y-82976000D01*
X139814000Y-81274000D01*
X141316000Y-81274000D01*
X141316000Y-82976000D01*
X141316000Y-82976000D01*
G37*
G36*
X111365591Y-81774085D02*
G01*
X111399569Y-81784393D01*
X111430890Y-81801134D01*
X111458339Y-81823661D01*
X111480866Y-81851110D01*
X111497607Y-81882431D01*
X111507915Y-81916409D01*
X111512000Y-81957890D01*
X111512000Y-82634110D01*
X111507915Y-82675591D01*
X111497607Y-82709569D01*
X111480866Y-82740890D01*
X111458339Y-82768339D01*
X111430890Y-82790866D01*
X111399569Y-82807607D01*
X111365591Y-82817915D01*
X111324110Y-82822000D01*
X110722890Y-82822000D01*
X110681409Y-82817915D01*
X110647431Y-82807607D01*
X110616110Y-82790866D01*
X110588661Y-82768339D01*
X110566134Y-82740890D01*
X110549393Y-82709569D01*
X110539085Y-82675591D01*
X110535000Y-82634110D01*
X110535000Y-81957890D01*
X110539085Y-81916409D01*
X110549393Y-81882431D01*
X110566134Y-81851110D01*
X110588661Y-81823661D01*
X110616110Y-81801134D01*
X110647431Y-81784393D01*
X110681409Y-81774085D01*
X110722890Y-81770000D01*
X111324110Y-81770000D01*
X111365591Y-81774085D01*
X111365591Y-81774085D01*
G37*
G36*
X109790591Y-81774085D02*
G01*
X109824569Y-81784393D01*
X109855890Y-81801134D01*
X109883339Y-81823661D01*
X109905866Y-81851110D01*
X109922607Y-81882431D01*
X109932915Y-81916409D01*
X109937000Y-81957890D01*
X109937000Y-82634110D01*
X109932915Y-82675591D01*
X109922607Y-82709569D01*
X109905866Y-82740890D01*
X109883339Y-82768339D01*
X109855890Y-82790866D01*
X109824569Y-82807607D01*
X109790591Y-82817915D01*
X109749110Y-82822000D01*
X109147890Y-82822000D01*
X109106409Y-82817915D01*
X109072431Y-82807607D01*
X109041110Y-82790866D01*
X109013661Y-82768339D01*
X108991134Y-82740890D01*
X108974393Y-82709569D01*
X108964085Y-82675591D01*
X108960000Y-82634110D01*
X108960000Y-81957890D01*
X108964085Y-81916409D01*
X108974393Y-81882431D01*
X108991134Y-81851110D01*
X109013661Y-81823661D01*
X109041110Y-81801134D01*
X109072431Y-81784393D01*
X109106409Y-81774085D01*
X109147890Y-81770000D01*
X109749110Y-81770000D01*
X109790591Y-81774085D01*
X109790591Y-81774085D01*
G37*
G36*
X105980591Y-81774085D02*
G01*
X106014569Y-81784393D01*
X106045890Y-81801134D01*
X106073339Y-81823661D01*
X106095866Y-81851110D01*
X106112607Y-81882431D01*
X106122915Y-81916409D01*
X106127000Y-81957890D01*
X106127000Y-82634110D01*
X106122915Y-82675591D01*
X106112607Y-82709569D01*
X106095866Y-82740890D01*
X106073339Y-82768339D01*
X106045890Y-82790866D01*
X106014569Y-82807607D01*
X105980591Y-82817915D01*
X105939110Y-82822000D01*
X105337890Y-82822000D01*
X105296409Y-82817915D01*
X105262431Y-82807607D01*
X105231110Y-82790866D01*
X105203661Y-82768339D01*
X105181134Y-82740890D01*
X105164393Y-82709569D01*
X105154085Y-82675591D01*
X105150000Y-82634110D01*
X105150000Y-81957890D01*
X105154085Y-81916409D01*
X105164393Y-81882431D01*
X105181134Y-81851110D01*
X105203661Y-81823661D01*
X105231110Y-81801134D01*
X105262431Y-81784393D01*
X105296409Y-81774085D01*
X105337890Y-81770000D01*
X105939110Y-81770000D01*
X105980591Y-81774085D01*
X105980591Y-81774085D01*
G37*
G36*
X107555591Y-81774085D02*
G01*
X107589569Y-81784393D01*
X107620890Y-81801134D01*
X107648339Y-81823661D01*
X107670866Y-81851110D01*
X107687607Y-81882431D01*
X107697915Y-81916409D01*
X107702000Y-81957890D01*
X107702000Y-82634110D01*
X107697915Y-82675591D01*
X107687607Y-82709569D01*
X107670866Y-82740890D01*
X107648339Y-82768339D01*
X107620890Y-82790866D01*
X107589569Y-82807607D01*
X107555591Y-82817915D01*
X107514110Y-82822000D01*
X106912890Y-82822000D01*
X106871409Y-82817915D01*
X106837431Y-82807607D01*
X106806110Y-82790866D01*
X106778661Y-82768339D01*
X106756134Y-82740890D01*
X106739393Y-82709569D01*
X106729085Y-82675591D01*
X106725000Y-82634110D01*
X106725000Y-81957890D01*
X106729085Y-81916409D01*
X106739393Y-81882431D01*
X106756134Y-81851110D01*
X106778661Y-81823661D01*
X106806110Y-81801134D01*
X106837431Y-81784393D01*
X106871409Y-81774085D01*
X106912890Y-81770000D01*
X107514110Y-81770000D01*
X107555591Y-81774085D01*
X107555591Y-81774085D01*
G37*
G36*
X92377355Y-77839083D02*
G01*
X92382029Y-77840501D01*
X92386330Y-77842800D01*
X92392702Y-77848029D01*
X92413076Y-77861643D01*
X92435715Y-77871020D01*
X92459749Y-77875800D01*
X92484253Y-77875800D01*
X92508286Y-77871019D01*
X92530925Y-77861642D01*
X92551298Y-77848029D01*
X92557670Y-77842800D01*
X92561971Y-77840501D01*
X92566645Y-77839083D01*
X92577641Y-77838000D01*
X92866359Y-77838000D01*
X92877355Y-77839083D01*
X92882029Y-77840501D01*
X92886330Y-77842800D01*
X92892702Y-77848029D01*
X92913076Y-77861643D01*
X92935715Y-77871020D01*
X92959749Y-77875800D01*
X92984253Y-77875800D01*
X93008286Y-77871019D01*
X93030925Y-77861642D01*
X93051298Y-77848029D01*
X93057670Y-77842800D01*
X93061971Y-77840501D01*
X93066645Y-77839083D01*
X93077641Y-77838000D01*
X93366359Y-77838000D01*
X93377355Y-77839083D01*
X93382029Y-77840501D01*
X93386330Y-77842800D01*
X93392702Y-77848029D01*
X93413076Y-77861643D01*
X93435715Y-77871020D01*
X93459749Y-77875800D01*
X93484253Y-77875800D01*
X93508286Y-77871019D01*
X93530925Y-77861642D01*
X93551298Y-77848029D01*
X93557670Y-77842800D01*
X93561971Y-77840501D01*
X93566645Y-77839083D01*
X93577641Y-77838000D01*
X93866359Y-77838000D01*
X93877355Y-77839083D01*
X93882029Y-77840501D01*
X93886330Y-77842800D01*
X93892702Y-77848029D01*
X93913076Y-77861643D01*
X93935715Y-77871020D01*
X93959749Y-77875800D01*
X93984253Y-77875800D01*
X94008286Y-77871019D01*
X94030925Y-77861642D01*
X94051298Y-77848029D01*
X94057670Y-77842800D01*
X94061971Y-77840501D01*
X94066645Y-77839083D01*
X94077641Y-77838000D01*
X94366359Y-77838000D01*
X94377355Y-77839083D01*
X94382029Y-77840501D01*
X94386330Y-77842800D01*
X94392702Y-77848029D01*
X94413076Y-77861643D01*
X94435715Y-77871020D01*
X94459749Y-77875800D01*
X94484253Y-77875800D01*
X94508286Y-77871019D01*
X94530925Y-77861642D01*
X94551298Y-77848029D01*
X94557670Y-77842800D01*
X94561971Y-77840501D01*
X94566645Y-77839083D01*
X94577641Y-77838000D01*
X94866359Y-77838000D01*
X94877355Y-77839083D01*
X94882029Y-77840501D01*
X94886331Y-77842800D01*
X94890104Y-77845896D01*
X94893200Y-77849669D01*
X94895499Y-77853971D01*
X94896917Y-77858645D01*
X94898000Y-77869641D01*
X94898000Y-78713001D01*
X94900402Y-78737387D01*
X94907515Y-78760836D01*
X94919066Y-78782447D01*
X94934611Y-78801389D01*
X94953553Y-78816934D01*
X94975164Y-78828485D01*
X94998613Y-78835598D01*
X95022999Y-78838000D01*
X95866359Y-78838000D01*
X95877355Y-78839083D01*
X95882029Y-78840501D01*
X95886331Y-78842800D01*
X95890104Y-78845896D01*
X95893200Y-78849669D01*
X95895499Y-78853971D01*
X95896917Y-78858645D01*
X95898000Y-78869641D01*
X95898000Y-79158359D01*
X95896917Y-79169355D01*
X95895499Y-79174029D01*
X95893200Y-79178330D01*
X95887971Y-79184702D01*
X95874357Y-79205076D01*
X95864980Y-79227715D01*
X95860200Y-79251749D01*
X95860200Y-79276253D01*
X95864981Y-79300286D01*
X95874358Y-79322925D01*
X95887971Y-79343298D01*
X95893200Y-79349670D01*
X95895499Y-79353971D01*
X95896917Y-79358645D01*
X95898000Y-79369641D01*
X95898000Y-79658359D01*
X95896917Y-79669355D01*
X95895499Y-79674029D01*
X95893200Y-79678330D01*
X95887971Y-79684702D01*
X95874357Y-79705076D01*
X95864980Y-79727715D01*
X95860200Y-79751749D01*
X95860200Y-79776253D01*
X95864981Y-79800286D01*
X95874358Y-79822925D01*
X95887971Y-79843298D01*
X95893200Y-79849670D01*
X95895499Y-79853971D01*
X95896917Y-79858645D01*
X95898000Y-79869641D01*
X95898000Y-80158359D01*
X95896917Y-80169355D01*
X95895499Y-80174029D01*
X95893200Y-80178330D01*
X95887971Y-80184702D01*
X95874357Y-80205076D01*
X95864980Y-80227715D01*
X95860200Y-80251749D01*
X95860200Y-80276253D01*
X95864981Y-80300286D01*
X95874358Y-80322925D01*
X95887971Y-80343298D01*
X95893200Y-80349670D01*
X95895499Y-80353971D01*
X95896917Y-80358645D01*
X95898000Y-80369641D01*
X95898000Y-80658359D01*
X95896917Y-80669355D01*
X95895499Y-80674029D01*
X95893200Y-80678330D01*
X95887971Y-80684702D01*
X95874357Y-80705076D01*
X95864980Y-80727715D01*
X95860200Y-80751749D01*
X95860200Y-80776253D01*
X95864981Y-80800286D01*
X95874358Y-80822925D01*
X95887971Y-80843298D01*
X95893200Y-80849670D01*
X95895499Y-80853971D01*
X95896917Y-80858645D01*
X95898000Y-80869641D01*
X95898000Y-81158359D01*
X95896917Y-81169355D01*
X95895499Y-81174029D01*
X95893200Y-81178330D01*
X95887971Y-81184702D01*
X95874357Y-81205076D01*
X95864980Y-81227715D01*
X95860200Y-81251749D01*
X95860200Y-81276253D01*
X95864981Y-81300286D01*
X95874358Y-81322925D01*
X95887971Y-81343298D01*
X95893200Y-81349670D01*
X95895499Y-81353971D01*
X95896917Y-81358645D01*
X95898000Y-81369641D01*
X95898000Y-81658359D01*
X95896917Y-81669355D01*
X95895499Y-81674029D01*
X95893200Y-81678331D01*
X95890104Y-81682104D01*
X95886331Y-81685200D01*
X95882029Y-81687499D01*
X95877355Y-81688917D01*
X95866359Y-81690000D01*
X95022999Y-81690000D01*
X94998613Y-81692402D01*
X94975164Y-81699515D01*
X94953553Y-81711066D01*
X94934611Y-81726611D01*
X94919066Y-81745553D01*
X94907515Y-81767164D01*
X94900402Y-81790613D01*
X94898000Y-81814999D01*
X94898000Y-82658359D01*
X94896917Y-82669355D01*
X94895499Y-82674029D01*
X94893200Y-82678331D01*
X94890104Y-82682104D01*
X94886331Y-82685200D01*
X94882029Y-82687499D01*
X94877355Y-82688917D01*
X94866359Y-82690000D01*
X94577641Y-82690000D01*
X94566645Y-82688917D01*
X94561971Y-82687499D01*
X94557670Y-82685200D01*
X94551298Y-82679971D01*
X94530924Y-82666357D01*
X94508285Y-82656980D01*
X94484251Y-82652200D01*
X94459747Y-82652200D01*
X94435714Y-82656981D01*
X94413075Y-82666358D01*
X94392702Y-82679971D01*
X94386330Y-82685200D01*
X94382029Y-82687499D01*
X94377355Y-82688917D01*
X94366359Y-82690000D01*
X94077641Y-82690000D01*
X94066645Y-82688917D01*
X94061971Y-82687499D01*
X94057670Y-82685200D01*
X94051298Y-82679971D01*
X94030924Y-82666357D01*
X94008285Y-82656980D01*
X93984251Y-82652200D01*
X93959747Y-82652200D01*
X93935714Y-82656981D01*
X93913075Y-82666358D01*
X93892702Y-82679971D01*
X93886330Y-82685200D01*
X93882029Y-82687499D01*
X93877355Y-82688917D01*
X93866359Y-82690000D01*
X93577641Y-82690000D01*
X93566645Y-82688917D01*
X93561971Y-82687499D01*
X93557670Y-82685200D01*
X93551298Y-82679971D01*
X93530924Y-82666357D01*
X93508285Y-82656980D01*
X93484251Y-82652200D01*
X93459747Y-82652200D01*
X93435714Y-82656981D01*
X93413075Y-82666358D01*
X93392702Y-82679971D01*
X93386330Y-82685200D01*
X93382029Y-82687499D01*
X93377355Y-82688917D01*
X93366359Y-82690000D01*
X93077641Y-82690000D01*
X93066645Y-82688917D01*
X93061971Y-82687499D01*
X93057670Y-82685200D01*
X93051298Y-82679971D01*
X93030924Y-82666357D01*
X93008285Y-82656980D01*
X92984251Y-82652200D01*
X92959747Y-82652200D01*
X92935714Y-82656981D01*
X92913075Y-82666358D01*
X92892702Y-82679971D01*
X92886330Y-82685200D01*
X92882029Y-82687499D01*
X92877355Y-82688917D01*
X92866359Y-82690000D01*
X92577641Y-82690000D01*
X92566645Y-82688917D01*
X92561971Y-82687499D01*
X92557670Y-82685200D01*
X92551298Y-82679971D01*
X92530924Y-82666357D01*
X92508285Y-82656980D01*
X92484251Y-82652200D01*
X92459747Y-82652200D01*
X92435714Y-82656981D01*
X92413075Y-82666358D01*
X92392702Y-82679971D01*
X92386330Y-82685200D01*
X92382029Y-82687499D01*
X92377355Y-82688917D01*
X92366359Y-82690000D01*
X92077641Y-82690000D01*
X92066645Y-82688917D01*
X92061971Y-82687499D01*
X92057669Y-82685200D01*
X92053896Y-82682104D01*
X92050800Y-82678331D01*
X92048501Y-82674029D01*
X92047083Y-82669355D01*
X92046000Y-82658359D01*
X92046000Y-81814999D01*
X92043598Y-81790613D01*
X92036485Y-81767164D01*
X92024934Y-81745553D01*
X92009389Y-81726611D01*
X91990447Y-81711066D01*
X91968836Y-81699515D01*
X91945387Y-81692402D01*
X91921001Y-81690000D01*
X91077641Y-81690000D01*
X91066645Y-81688917D01*
X91061971Y-81687499D01*
X91057669Y-81685200D01*
X91053896Y-81682104D01*
X91050800Y-81678331D01*
X91048501Y-81674029D01*
X91047083Y-81669355D01*
X91046000Y-81658359D01*
X91046000Y-81369641D01*
X91047083Y-81358645D01*
X91048501Y-81353971D01*
X91050800Y-81349670D01*
X91056029Y-81343298D01*
X91069643Y-81322924D01*
X91079020Y-81300285D01*
X91083800Y-81276251D01*
X91083800Y-81251747D01*
X91079019Y-81227714D01*
X91069642Y-81205075D01*
X91056029Y-81184702D01*
X91050800Y-81178330D01*
X91048501Y-81174029D01*
X91047083Y-81169355D01*
X91046000Y-81158359D01*
X91046000Y-80869641D01*
X91047083Y-80858645D01*
X91048501Y-80853971D01*
X91050800Y-80849670D01*
X91056029Y-80843298D01*
X91069643Y-80822924D01*
X91079020Y-80800285D01*
X91083800Y-80776251D01*
X91083800Y-80751747D01*
X91079019Y-80727714D01*
X91069642Y-80705075D01*
X91056029Y-80684702D01*
X91050800Y-80678330D01*
X91048501Y-80674029D01*
X91047083Y-80669355D01*
X91046000Y-80658359D01*
X91046000Y-80369641D01*
X91047083Y-80358645D01*
X91048501Y-80353971D01*
X91050800Y-80349670D01*
X91056029Y-80343298D01*
X91069643Y-80322924D01*
X91079020Y-80300285D01*
X91083800Y-80276251D01*
X91083800Y-80251747D01*
X91079019Y-80227714D01*
X91069642Y-80205075D01*
X91056029Y-80184702D01*
X91050800Y-80178330D01*
X91048501Y-80174029D01*
X91047083Y-80169355D01*
X91046000Y-80158359D01*
X91046000Y-79869641D01*
X91047083Y-79858645D01*
X91048501Y-79853971D01*
X91050800Y-79849670D01*
X91056029Y-79843298D01*
X91069643Y-79822924D01*
X91079020Y-79800285D01*
X91083800Y-79776251D01*
X91083800Y-79751747D01*
X91079019Y-79727714D01*
X91069642Y-79705075D01*
X91056029Y-79684702D01*
X91050800Y-79678330D01*
X91048501Y-79674029D01*
X91047083Y-79669355D01*
X91046000Y-79658359D01*
X91046000Y-79369641D01*
X91047083Y-79358645D01*
X91048501Y-79353971D01*
X91050800Y-79349670D01*
X91056029Y-79343298D01*
X91069643Y-79322924D01*
X91079020Y-79300285D01*
X91083800Y-79276251D01*
X91083800Y-79251747D01*
X91079019Y-79227714D01*
X91069642Y-79205075D01*
X91056029Y-79184702D01*
X91050800Y-79178330D01*
X91048501Y-79174029D01*
X91047083Y-79169355D01*
X91046000Y-79158359D01*
X91046000Y-78869641D01*
X91047083Y-78858645D01*
X91048501Y-78853971D01*
X91050800Y-78849669D01*
X91053896Y-78845896D01*
X91057669Y-78842800D01*
X91061971Y-78840501D01*
X91066645Y-78839083D01*
X91077641Y-78838000D01*
X91921001Y-78838000D01*
X91945387Y-78835598D01*
X91968836Y-78828485D01*
X91990447Y-78816934D01*
X92009389Y-78801389D01*
X92024934Y-78782447D01*
X92036485Y-78760836D01*
X92043598Y-78737387D01*
X92046000Y-78713001D01*
X92046000Y-77869641D01*
X92047083Y-77858645D01*
X92048501Y-77853971D01*
X92050800Y-77849669D01*
X92053896Y-77845896D01*
X92057669Y-77842800D01*
X92061971Y-77840501D01*
X92066645Y-77839083D01*
X92077641Y-77838000D01*
X92366359Y-77838000D01*
X92377355Y-77839083D01*
X92377355Y-77839083D01*
G37*
G36*
X128461674Y-81041465D02*
G01*
X128499367Y-81052899D01*
X128534103Y-81071466D01*
X128564548Y-81096452D01*
X128589534Y-81126897D01*
X128608101Y-81161633D01*
X128619535Y-81199326D01*
X128624000Y-81244661D01*
X128624000Y-82331339D01*
X128619535Y-82376674D01*
X128608101Y-82414367D01*
X128589534Y-82449103D01*
X128564548Y-82479548D01*
X128534103Y-82504534D01*
X128499367Y-82523101D01*
X128461674Y-82534535D01*
X128416339Y-82539000D01*
X127579661Y-82539000D01*
X127534326Y-82534535D01*
X127496633Y-82523101D01*
X127461897Y-82504534D01*
X127431452Y-82479548D01*
X127406466Y-82449103D01*
X127387899Y-82414367D01*
X127376465Y-82376674D01*
X127372000Y-82331339D01*
X127372000Y-81244661D01*
X127376465Y-81199326D01*
X127387899Y-81161633D01*
X127406466Y-81126897D01*
X127431452Y-81096452D01*
X127461897Y-81071466D01*
X127496633Y-81052899D01*
X127534326Y-81041465D01*
X127579661Y-81037000D01*
X128416339Y-81037000D01*
X128461674Y-81041465D01*
X128461674Y-81041465D01*
G37*
G36*
X130511674Y-81041465D02*
G01*
X130549367Y-81052899D01*
X130584103Y-81071466D01*
X130614548Y-81096452D01*
X130639534Y-81126897D01*
X130658101Y-81161633D01*
X130669535Y-81199326D01*
X130674000Y-81244661D01*
X130674000Y-82331339D01*
X130669535Y-82376674D01*
X130658101Y-82414367D01*
X130639534Y-82449103D01*
X130614548Y-82479548D01*
X130584103Y-82504534D01*
X130549367Y-82523101D01*
X130511674Y-82534535D01*
X130466339Y-82539000D01*
X129629661Y-82539000D01*
X129584326Y-82534535D01*
X129546633Y-82523101D01*
X129511897Y-82504534D01*
X129481452Y-82479548D01*
X129456466Y-82449103D01*
X129437899Y-82414367D01*
X129426465Y-82376674D01*
X129422000Y-82331339D01*
X129422000Y-81244661D01*
X129426465Y-81199326D01*
X129437899Y-81161633D01*
X129456466Y-81126897D01*
X129481452Y-81096452D01*
X129511897Y-81071466D01*
X129546633Y-81052899D01*
X129584326Y-81041465D01*
X129629661Y-81037000D01*
X130466339Y-81037000D01*
X130511674Y-81041465D01*
X130511674Y-81041465D01*
G37*
G36*
X124548091Y-81393085D02*
G01*
X124582069Y-81403393D01*
X124613390Y-81420134D01*
X124640839Y-81442661D01*
X124663366Y-81470110D01*
X124680107Y-81501431D01*
X124690415Y-81535409D01*
X124694500Y-81576890D01*
X124694500Y-82253110D01*
X124690415Y-82294591D01*
X124680107Y-82328569D01*
X124663366Y-82359890D01*
X124640839Y-82387339D01*
X124613390Y-82409866D01*
X124582069Y-82426607D01*
X124548091Y-82436915D01*
X124506610Y-82441000D01*
X123905390Y-82441000D01*
X123863909Y-82436915D01*
X123829931Y-82426607D01*
X123798610Y-82409866D01*
X123771161Y-82387339D01*
X123748634Y-82359890D01*
X123731893Y-82328569D01*
X123721585Y-82294591D01*
X123717500Y-82253110D01*
X123717500Y-81576890D01*
X123721585Y-81535409D01*
X123731893Y-81501431D01*
X123748634Y-81470110D01*
X123771161Y-81442661D01*
X123798610Y-81420134D01*
X123829931Y-81403393D01*
X123863909Y-81393085D01*
X123905390Y-81389000D01*
X124506610Y-81389000D01*
X124548091Y-81393085D01*
X124548091Y-81393085D01*
G37*
G36*
X122973091Y-81393085D02*
G01*
X123007069Y-81403393D01*
X123038390Y-81420134D01*
X123065839Y-81442661D01*
X123088366Y-81470110D01*
X123105107Y-81501431D01*
X123115415Y-81535409D01*
X123119500Y-81576890D01*
X123119500Y-82253110D01*
X123115415Y-82294591D01*
X123105107Y-82328569D01*
X123088366Y-82359890D01*
X123065839Y-82387339D01*
X123038390Y-82409866D01*
X123007069Y-82426607D01*
X122973091Y-82436915D01*
X122931610Y-82441000D01*
X122330390Y-82441000D01*
X122288909Y-82436915D01*
X122254931Y-82426607D01*
X122223610Y-82409866D01*
X122196161Y-82387339D01*
X122173634Y-82359890D01*
X122156893Y-82328569D01*
X122146585Y-82294591D01*
X122142500Y-82253110D01*
X122142500Y-81576890D01*
X122146585Y-81535409D01*
X122156893Y-81501431D01*
X122173634Y-81470110D01*
X122196161Y-81442661D01*
X122223610Y-81420134D01*
X122254931Y-81403393D01*
X122288909Y-81393085D01*
X122330390Y-81389000D01*
X122931610Y-81389000D01*
X122973091Y-81393085D01*
X122973091Y-81393085D01*
G37*
G36*
X80810213Y-81296249D02*
G01*
X80904652Y-81324897D01*
X80991687Y-81371418D01*
X81067975Y-81434025D01*
X81130582Y-81510313D01*
X81177103Y-81597348D01*
X81205751Y-81691787D01*
X81215424Y-81790000D01*
X81205751Y-81888213D01*
X81177103Y-81982652D01*
X81130582Y-82069687D01*
X81067975Y-82145975D01*
X80991687Y-82208582D01*
X80904652Y-82255103D01*
X80810213Y-82283751D01*
X80736612Y-82291000D01*
X79587388Y-82291000D01*
X79513787Y-82283751D01*
X79419348Y-82255103D01*
X79332313Y-82208582D01*
X79256025Y-82145975D01*
X79193418Y-82069687D01*
X79146897Y-81982652D01*
X79118249Y-81888213D01*
X79108576Y-81790000D01*
X79118249Y-81691787D01*
X79146897Y-81597348D01*
X79193418Y-81510313D01*
X79256025Y-81434025D01*
X79332313Y-81371418D01*
X79419348Y-81324897D01*
X79513787Y-81296249D01*
X79587388Y-81289000D01*
X80736612Y-81289000D01*
X80810213Y-81296249D01*
X80810213Y-81296249D01*
G37*
G36*
X76490213Y-81296249D02*
G01*
X76584652Y-81324897D01*
X76671687Y-81371418D01*
X76747975Y-81434025D01*
X76810582Y-81510313D01*
X76857103Y-81597348D01*
X76885751Y-81691787D01*
X76895424Y-81790000D01*
X76885751Y-81888213D01*
X76857103Y-81982652D01*
X76810582Y-82069687D01*
X76747975Y-82145975D01*
X76671687Y-82208582D01*
X76584652Y-82255103D01*
X76490213Y-82283751D01*
X76416612Y-82291000D01*
X75567388Y-82291000D01*
X75493787Y-82283751D01*
X75399348Y-82255103D01*
X75312313Y-82208582D01*
X75236025Y-82145975D01*
X75173418Y-82069687D01*
X75126897Y-81982652D01*
X75098249Y-81888213D01*
X75088576Y-81790000D01*
X75098249Y-81691787D01*
X75126897Y-81597348D01*
X75173418Y-81510313D01*
X75236025Y-81434025D01*
X75312313Y-81371418D01*
X75399348Y-81324897D01*
X75493787Y-81296249D01*
X75567388Y-81289000D01*
X76416612Y-81289000D01*
X76490213Y-81296249D01*
X76490213Y-81296249D01*
G37*
G36*
X102614591Y-81075085D02*
G01*
X102648569Y-81085393D01*
X102679890Y-81102134D01*
X102707339Y-81124661D01*
X102729866Y-81152110D01*
X102746607Y-81183431D01*
X102756915Y-81217409D01*
X102761000Y-81258890D01*
X102761000Y-81860110D01*
X102756915Y-81901591D01*
X102746607Y-81935569D01*
X102729866Y-81966890D01*
X102707339Y-81994339D01*
X102679890Y-82016866D01*
X102648569Y-82033607D01*
X102614591Y-82043915D01*
X102573110Y-82048000D01*
X101896890Y-82048000D01*
X101855409Y-82043915D01*
X101821431Y-82033607D01*
X101790110Y-82016866D01*
X101762661Y-81994339D01*
X101740134Y-81966890D01*
X101723393Y-81935569D01*
X101713085Y-81901591D01*
X101709000Y-81860110D01*
X101709000Y-81258890D01*
X101713085Y-81217409D01*
X101723393Y-81183431D01*
X101740134Y-81152110D01*
X101762661Y-81124661D01*
X101790110Y-81102134D01*
X101821431Y-81085393D01*
X101855409Y-81075085D01*
X101896890Y-81071000D01*
X102573110Y-81071000D01*
X102614591Y-81075085D01*
X102614591Y-81075085D01*
G37*
G36*
X99820591Y-81075085D02*
G01*
X99854569Y-81085393D01*
X99885890Y-81102134D01*
X99913339Y-81124661D01*
X99935866Y-81152110D01*
X99952607Y-81183431D01*
X99962915Y-81217409D01*
X99967000Y-81258890D01*
X99967000Y-81860110D01*
X99962915Y-81901591D01*
X99952607Y-81935569D01*
X99935866Y-81966890D01*
X99913339Y-81994339D01*
X99885890Y-82016866D01*
X99854569Y-82033607D01*
X99820591Y-82043915D01*
X99779110Y-82048000D01*
X99102890Y-82048000D01*
X99061409Y-82043915D01*
X99027431Y-82033607D01*
X98996110Y-82016866D01*
X98968661Y-81994339D01*
X98946134Y-81966890D01*
X98929393Y-81935569D01*
X98919085Y-81901591D01*
X98915000Y-81860110D01*
X98915000Y-81258890D01*
X98919085Y-81217409D01*
X98929393Y-81183431D01*
X98946134Y-81152110D01*
X98968661Y-81124661D01*
X98996110Y-81102134D01*
X99027431Y-81085393D01*
X99061409Y-81075085D01*
X99102890Y-81071000D01*
X99779110Y-81071000D01*
X99820591Y-81075085D01*
X99820591Y-81075085D01*
G37*
G36*
X161337500Y-81059500D02*
G01*
X154835500Y-81059500D01*
X154835500Y-75157500D01*
X161337500Y-75157500D01*
X161337500Y-81059500D01*
X161337500Y-81059500D01*
G37*
G36*
X152937500Y-81039500D02*
G01*
X150635500Y-81039500D01*
X150635500Y-79737500D01*
X152937500Y-79737500D01*
X152937500Y-81039500D01*
X152937500Y-81039500D01*
G37*
G36*
X81373000Y-81021000D02*
G01*
X80111000Y-81021000D01*
X80111000Y-73919000D01*
X81373000Y-73919000D01*
X81373000Y-81021000D01*
X81373000Y-81021000D01*
G37*
G36*
X88474000Y-80707000D02*
G01*
X87142000Y-80707000D01*
X87142000Y-80105000D01*
X88474000Y-80105000D01*
X88474000Y-80707000D01*
X88474000Y-80707000D01*
G37*
G36*
X146821000Y-80649000D02*
G01*
X144819000Y-80649000D01*
X144819000Y-79747000D01*
X146821000Y-79747000D01*
X146821000Y-80649000D01*
X146821000Y-80649000D01*
G37*
G36*
X169050072Y-77948918D02*
G01*
X169281290Y-78044691D01*
X169295939Y-78050759D01*
X169363646Y-78096000D01*
X169517211Y-78198609D01*
X169705391Y-78386789D01*
X169737176Y-78434359D01*
X169819865Y-78558110D01*
X169853242Y-78608063D01*
X169955082Y-78853928D01*
X170007000Y-79114937D01*
X170007000Y-79381063D01*
X169955082Y-79642072D01*
X169857727Y-79877110D01*
X169853241Y-79887939D01*
X169827809Y-79926000D01*
X169705391Y-80109211D01*
X169517211Y-80297391D01*
X169446410Y-80344699D01*
X169295939Y-80445241D01*
X169295938Y-80445242D01*
X169295937Y-80445242D01*
X169050072Y-80547082D01*
X168789063Y-80599000D01*
X168522937Y-80599000D01*
X168261928Y-80547082D01*
X168016063Y-80445242D01*
X168016062Y-80445242D01*
X168016061Y-80445241D01*
X167865590Y-80344699D01*
X167794789Y-80297391D01*
X167606609Y-80109211D01*
X167484191Y-79926000D01*
X167458759Y-79887939D01*
X167454274Y-79877110D01*
X167356918Y-79642072D01*
X167305000Y-79381063D01*
X167305000Y-79114937D01*
X167356918Y-78853928D01*
X167458758Y-78608063D01*
X167492136Y-78558110D01*
X167574824Y-78434359D01*
X167606609Y-78386789D01*
X167794789Y-78198609D01*
X167948354Y-78096000D01*
X168016061Y-78050759D01*
X168030711Y-78044691D01*
X168261928Y-77948918D01*
X168522937Y-77897000D01*
X168789063Y-77897000D01*
X169050072Y-77948918D01*
X169050072Y-77948918D01*
G37*
G36*
X102614591Y-79500085D02*
G01*
X102648569Y-79510393D01*
X102679890Y-79527134D01*
X102707339Y-79549661D01*
X102729866Y-79577110D01*
X102746607Y-79608431D01*
X102756915Y-79642409D01*
X102761000Y-79683890D01*
X102761000Y-80285110D01*
X102756915Y-80326591D01*
X102746607Y-80360569D01*
X102729866Y-80391890D01*
X102707339Y-80419339D01*
X102679890Y-80441866D01*
X102648569Y-80458607D01*
X102614591Y-80468915D01*
X102573110Y-80473000D01*
X101896890Y-80473000D01*
X101855409Y-80468915D01*
X101821431Y-80458607D01*
X101790110Y-80441866D01*
X101762661Y-80419339D01*
X101740134Y-80391890D01*
X101723393Y-80360569D01*
X101713085Y-80326591D01*
X101709000Y-80285110D01*
X101709000Y-79683890D01*
X101713085Y-79642409D01*
X101723393Y-79608431D01*
X101740134Y-79577110D01*
X101762661Y-79549661D01*
X101790110Y-79527134D01*
X101821431Y-79510393D01*
X101855409Y-79500085D01*
X101896890Y-79496000D01*
X102573110Y-79496000D01*
X102614591Y-79500085D01*
X102614591Y-79500085D01*
G37*
G36*
X99820591Y-79500085D02*
G01*
X99854569Y-79510393D01*
X99885890Y-79527134D01*
X99913339Y-79549661D01*
X99935866Y-79577110D01*
X99952607Y-79608431D01*
X99962915Y-79642409D01*
X99967000Y-79683890D01*
X99967000Y-80285110D01*
X99962915Y-80326591D01*
X99952607Y-80360569D01*
X99935866Y-80391890D01*
X99913339Y-80419339D01*
X99885890Y-80441866D01*
X99854569Y-80458607D01*
X99820591Y-80468915D01*
X99779110Y-80473000D01*
X99102890Y-80473000D01*
X99061409Y-80468915D01*
X99027431Y-80458607D01*
X98996110Y-80441866D01*
X98968661Y-80419339D01*
X98946134Y-80391890D01*
X98929393Y-80360569D01*
X98919085Y-80326591D01*
X98915000Y-80285110D01*
X98915000Y-79683890D01*
X98919085Y-79642409D01*
X98929393Y-79608431D01*
X98946134Y-79577110D01*
X98968661Y-79549661D01*
X98996110Y-79527134D01*
X99027431Y-79510393D01*
X99061409Y-79500085D01*
X99102890Y-79496000D01*
X99779110Y-79496000D01*
X99820591Y-79500085D01*
X99820591Y-79500085D01*
G37*
G36*
X86594000Y-80057000D02*
G01*
X85262000Y-80057000D01*
X85262000Y-79455000D01*
X86594000Y-79455000D01*
X86594000Y-80057000D01*
X86594000Y-80057000D01*
G37*
G36*
X149821000Y-79699000D02*
G01*
X147819000Y-79699000D01*
X147819000Y-78797000D01*
X149821000Y-78797000D01*
X149821000Y-79699000D01*
X149821000Y-79699000D01*
G37*
G36*
X88474000Y-79407000D02*
G01*
X87142000Y-79407000D01*
X87142000Y-78805000D01*
X88474000Y-78805000D01*
X88474000Y-79407000D01*
X88474000Y-79407000D01*
G37*
G36*
X111603000Y-79218000D02*
G01*
X110901000Y-79218000D01*
X110901000Y-77566000D01*
X111603000Y-77566000D01*
X111603000Y-79218000D01*
X111603000Y-79218000D01*
G37*
G36*
X110333000Y-79218000D02*
G01*
X109631000Y-79218000D01*
X109631000Y-77566000D01*
X110333000Y-77566000D01*
X110333000Y-79218000D01*
X110333000Y-79218000D01*
G37*
G36*
X109063000Y-79218000D02*
G01*
X108361000Y-79218000D01*
X108361000Y-77566000D01*
X109063000Y-77566000D01*
X109063000Y-79218000D01*
X109063000Y-79218000D01*
G37*
G36*
X107793000Y-79218000D02*
G01*
X107091000Y-79218000D01*
X107091000Y-77566000D01*
X107793000Y-77566000D01*
X107793000Y-79218000D01*
X107793000Y-79218000D01*
G37*
G36*
X138238000Y-78890000D02*
G01*
X136336000Y-78890000D01*
X136336000Y-77788000D01*
X138238000Y-77788000D01*
X138238000Y-78890000D01*
X138238000Y-78890000D01*
G37*
G36*
X140128499Y-77837445D02*
G01*
X140165995Y-77848820D01*
X140200554Y-77867292D01*
X140230847Y-77892153D01*
X140255708Y-77922446D01*
X140274180Y-77957005D01*
X140285555Y-77994501D01*
X140290000Y-78039638D01*
X140290000Y-78678362D01*
X140285555Y-78723499D01*
X140274180Y-78760995D01*
X140255708Y-78795554D01*
X140230847Y-78825847D01*
X140200554Y-78850708D01*
X140165995Y-78869180D01*
X140128499Y-78880555D01*
X140083362Y-78885000D01*
X139344638Y-78885000D01*
X139299501Y-78880555D01*
X139262005Y-78869180D01*
X139227446Y-78850708D01*
X139197153Y-78825847D01*
X139172292Y-78795554D01*
X139153820Y-78760995D01*
X139142445Y-78723499D01*
X139138000Y-78678362D01*
X139138000Y-78039638D01*
X139142445Y-77994501D01*
X139153820Y-77957005D01*
X139172292Y-77922446D01*
X139197153Y-77892153D01*
X139227446Y-77867292D01*
X139262005Y-77848820D01*
X139299501Y-77837445D01*
X139344638Y-77833000D01*
X140083362Y-77833000D01*
X140128499Y-77837445D01*
X140128499Y-77837445D01*
G37*
G36*
X141878499Y-77837445D02*
G01*
X141915995Y-77848820D01*
X141950554Y-77867292D01*
X141980847Y-77892153D01*
X142005708Y-77922446D01*
X142024180Y-77957005D01*
X142035555Y-77994501D01*
X142040000Y-78039638D01*
X142040000Y-78678362D01*
X142035555Y-78723499D01*
X142024180Y-78760995D01*
X142005708Y-78795554D01*
X141980847Y-78825847D01*
X141950554Y-78850708D01*
X141915995Y-78869180D01*
X141878499Y-78880555D01*
X141833362Y-78885000D01*
X141094638Y-78885000D01*
X141049501Y-78880555D01*
X141012005Y-78869180D01*
X140977446Y-78850708D01*
X140947153Y-78825847D01*
X140922292Y-78795554D01*
X140903820Y-78760995D01*
X140892445Y-78723499D01*
X140888000Y-78678362D01*
X140888000Y-78039638D01*
X140892445Y-77994501D01*
X140903820Y-77957005D01*
X140922292Y-77922446D01*
X140947153Y-77892153D01*
X140977446Y-77867292D01*
X141012005Y-77848820D01*
X141049501Y-77837445D01*
X141094638Y-77833000D01*
X141833362Y-77833000D01*
X141878499Y-77837445D01*
X141878499Y-77837445D01*
G37*
G36*
X152937500Y-78759500D02*
G01*
X150635500Y-78759500D01*
X150635500Y-77457500D01*
X152937500Y-77457500D01*
X152937500Y-78759500D01*
X152937500Y-78759500D01*
G37*
G36*
X146821000Y-78749000D02*
G01*
X144819000Y-78749000D01*
X144819000Y-77847000D01*
X146821000Y-77847000D01*
X146821000Y-78749000D01*
X146821000Y-78749000D01*
G37*
G36*
X99820591Y-77773085D02*
G01*
X99854569Y-77783393D01*
X99885890Y-77800134D01*
X99913339Y-77822661D01*
X99935866Y-77850110D01*
X99952607Y-77881431D01*
X99962915Y-77915409D01*
X99967000Y-77956890D01*
X99967000Y-78558110D01*
X99962915Y-78599591D01*
X99952607Y-78633569D01*
X99935866Y-78664890D01*
X99913339Y-78692339D01*
X99885890Y-78714866D01*
X99854569Y-78731607D01*
X99820591Y-78741915D01*
X99779110Y-78746000D01*
X99102890Y-78746000D01*
X99061409Y-78741915D01*
X99027431Y-78731607D01*
X98996110Y-78714866D01*
X98968661Y-78692339D01*
X98946134Y-78664890D01*
X98929393Y-78633569D01*
X98919085Y-78599591D01*
X98915000Y-78558110D01*
X98915000Y-77956890D01*
X98919085Y-77915409D01*
X98929393Y-77881431D01*
X98946134Y-77850110D01*
X98968661Y-77822661D01*
X98996110Y-77800134D01*
X99027431Y-77783393D01*
X99061409Y-77773085D01*
X99102890Y-77769000D01*
X99779110Y-77769000D01*
X99820591Y-77773085D01*
X99820591Y-77773085D01*
G37*
G36*
X127310355Y-72665083D02*
G01*
X127315029Y-72666501D01*
X127319330Y-72668800D01*
X127325702Y-72674029D01*
X127346076Y-72687643D01*
X127368715Y-72697020D01*
X127392749Y-72701800D01*
X127417253Y-72701800D01*
X127441286Y-72697019D01*
X127463925Y-72687642D01*
X127484298Y-72674029D01*
X127490670Y-72668800D01*
X127494971Y-72666501D01*
X127499645Y-72665083D01*
X127510641Y-72664000D01*
X127799359Y-72664000D01*
X127810355Y-72665083D01*
X127815029Y-72666501D01*
X127819330Y-72668800D01*
X127825702Y-72674029D01*
X127846076Y-72687643D01*
X127868715Y-72697020D01*
X127892749Y-72701800D01*
X127917253Y-72701800D01*
X127941286Y-72697019D01*
X127963925Y-72687642D01*
X127984298Y-72674029D01*
X127990670Y-72668800D01*
X127994971Y-72666501D01*
X127999645Y-72665083D01*
X128010641Y-72664000D01*
X128299359Y-72664000D01*
X128310355Y-72665083D01*
X128315029Y-72666501D01*
X128319330Y-72668800D01*
X128325702Y-72674029D01*
X128346076Y-72687643D01*
X128368715Y-72697020D01*
X128392749Y-72701800D01*
X128417253Y-72701800D01*
X128441286Y-72697019D01*
X128463925Y-72687642D01*
X128484298Y-72674029D01*
X128490670Y-72668800D01*
X128494971Y-72666501D01*
X128499645Y-72665083D01*
X128510641Y-72664000D01*
X128799359Y-72664000D01*
X128810355Y-72665083D01*
X128815029Y-72666501D01*
X128819330Y-72668800D01*
X128825702Y-72674029D01*
X128846076Y-72687643D01*
X128868715Y-72697020D01*
X128892749Y-72701800D01*
X128917253Y-72701800D01*
X128941286Y-72697019D01*
X128963925Y-72687642D01*
X128984298Y-72674029D01*
X128990670Y-72668800D01*
X128994971Y-72666501D01*
X128999645Y-72665083D01*
X129010641Y-72664000D01*
X129299359Y-72664000D01*
X129310355Y-72665083D01*
X129315029Y-72666501D01*
X129319330Y-72668800D01*
X129325702Y-72674029D01*
X129346076Y-72687643D01*
X129368715Y-72697020D01*
X129392749Y-72701800D01*
X129417253Y-72701800D01*
X129441286Y-72697019D01*
X129463925Y-72687642D01*
X129484298Y-72674029D01*
X129490670Y-72668800D01*
X129494971Y-72666501D01*
X129499645Y-72665083D01*
X129510641Y-72664000D01*
X129799359Y-72664000D01*
X129810355Y-72665083D01*
X129815029Y-72666501D01*
X129819330Y-72668800D01*
X129825702Y-72674029D01*
X129846076Y-72687643D01*
X129868715Y-72697020D01*
X129892749Y-72701800D01*
X129917253Y-72701800D01*
X129941286Y-72697019D01*
X129963925Y-72687642D01*
X129984298Y-72674029D01*
X129990670Y-72668800D01*
X129994971Y-72666501D01*
X129999645Y-72665083D01*
X130010641Y-72664000D01*
X130299359Y-72664000D01*
X130310355Y-72665083D01*
X130315029Y-72666501D01*
X130319330Y-72668800D01*
X130325702Y-72674029D01*
X130346076Y-72687643D01*
X130368715Y-72697020D01*
X130392749Y-72701800D01*
X130417253Y-72701800D01*
X130441286Y-72697019D01*
X130463925Y-72687642D01*
X130484298Y-72674029D01*
X130490670Y-72668800D01*
X130494971Y-72666501D01*
X130499645Y-72665083D01*
X130510641Y-72664000D01*
X130799359Y-72664000D01*
X130810355Y-72665083D01*
X130815029Y-72666501D01*
X130819331Y-72668800D01*
X130823104Y-72671896D01*
X130826200Y-72675669D01*
X130828499Y-72679971D01*
X130829917Y-72684645D01*
X130831000Y-72695641D01*
X130831000Y-73514001D01*
X130833402Y-73538387D01*
X130840515Y-73561836D01*
X130852066Y-73583447D01*
X130867611Y-73602389D01*
X130886553Y-73617934D01*
X130908164Y-73629485D01*
X130931613Y-73636598D01*
X130955999Y-73639000D01*
X131774359Y-73639000D01*
X131785355Y-73640083D01*
X131790029Y-73641501D01*
X131794331Y-73643800D01*
X131798104Y-73646896D01*
X131801200Y-73650669D01*
X131803499Y-73654971D01*
X131804917Y-73659645D01*
X131806000Y-73670641D01*
X131806000Y-73959359D01*
X131804917Y-73970355D01*
X131803499Y-73975029D01*
X131801200Y-73979330D01*
X131795971Y-73985702D01*
X131782357Y-74006076D01*
X131772980Y-74028715D01*
X131768200Y-74052749D01*
X131768200Y-74077253D01*
X131772981Y-74101286D01*
X131782358Y-74123925D01*
X131795971Y-74144298D01*
X131801200Y-74150670D01*
X131803499Y-74154971D01*
X131804917Y-74159645D01*
X131806000Y-74170641D01*
X131806000Y-74459359D01*
X131804917Y-74470355D01*
X131803499Y-74475029D01*
X131801200Y-74479330D01*
X131795971Y-74485702D01*
X131782357Y-74506076D01*
X131772980Y-74528715D01*
X131768200Y-74552749D01*
X131768200Y-74577253D01*
X131772981Y-74601286D01*
X131782358Y-74623925D01*
X131795971Y-74644298D01*
X131801200Y-74650670D01*
X131803499Y-74654971D01*
X131804917Y-74659645D01*
X131806000Y-74670641D01*
X131806000Y-74959359D01*
X131804917Y-74970355D01*
X131803499Y-74975029D01*
X131801200Y-74979330D01*
X131795971Y-74985702D01*
X131782357Y-75006076D01*
X131772980Y-75028715D01*
X131768200Y-75052749D01*
X131768200Y-75077253D01*
X131772981Y-75101286D01*
X131782358Y-75123925D01*
X131795971Y-75144298D01*
X131801200Y-75150670D01*
X131803499Y-75154971D01*
X131804917Y-75159645D01*
X131806000Y-75170641D01*
X131806000Y-75459359D01*
X131804917Y-75470355D01*
X131803499Y-75475029D01*
X131801200Y-75479330D01*
X131795971Y-75485702D01*
X131782357Y-75506076D01*
X131772980Y-75528715D01*
X131768200Y-75552749D01*
X131768200Y-75577253D01*
X131772981Y-75601286D01*
X131782358Y-75623925D01*
X131795971Y-75644298D01*
X131801200Y-75650670D01*
X131803499Y-75654971D01*
X131804917Y-75659645D01*
X131806000Y-75670641D01*
X131806000Y-75959359D01*
X131804917Y-75970355D01*
X131803499Y-75975029D01*
X131801200Y-75979330D01*
X131795971Y-75985702D01*
X131782357Y-76006076D01*
X131772980Y-76028715D01*
X131768200Y-76052749D01*
X131768200Y-76077253D01*
X131772981Y-76101286D01*
X131782358Y-76123925D01*
X131795971Y-76144298D01*
X131801200Y-76150670D01*
X131803499Y-76154971D01*
X131804917Y-76159645D01*
X131806000Y-76170641D01*
X131806000Y-76459359D01*
X131804917Y-76470355D01*
X131803499Y-76475029D01*
X131801200Y-76479330D01*
X131795971Y-76485702D01*
X131782357Y-76506076D01*
X131772980Y-76528715D01*
X131768200Y-76552749D01*
X131768200Y-76577253D01*
X131772981Y-76601286D01*
X131782358Y-76623925D01*
X131795971Y-76644298D01*
X131801200Y-76650670D01*
X131803499Y-76654971D01*
X131804917Y-76659645D01*
X131806000Y-76670641D01*
X131806000Y-76959359D01*
X131804917Y-76970355D01*
X131803499Y-76975029D01*
X131801200Y-76979330D01*
X131795971Y-76985702D01*
X131782357Y-77006076D01*
X131772980Y-77028715D01*
X131768200Y-77052749D01*
X131768200Y-77077253D01*
X131772981Y-77101286D01*
X131782358Y-77123925D01*
X131795971Y-77144298D01*
X131801200Y-77150670D01*
X131803499Y-77154971D01*
X131804917Y-77159645D01*
X131806000Y-77170641D01*
X131806000Y-77459359D01*
X131804917Y-77470355D01*
X131803499Y-77475029D01*
X131801200Y-77479331D01*
X131798104Y-77483104D01*
X131794331Y-77486200D01*
X131790029Y-77488499D01*
X131785355Y-77489917D01*
X131774359Y-77491000D01*
X130955999Y-77491000D01*
X130931613Y-77493402D01*
X130908164Y-77500515D01*
X130886553Y-77512066D01*
X130867611Y-77527611D01*
X130852066Y-77546553D01*
X130840515Y-77568164D01*
X130833402Y-77591613D01*
X130831000Y-77615999D01*
X130831000Y-78434359D01*
X130829917Y-78445355D01*
X130828499Y-78450029D01*
X130826200Y-78454331D01*
X130823104Y-78458104D01*
X130819331Y-78461200D01*
X130815029Y-78463499D01*
X130810355Y-78464917D01*
X130799359Y-78466000D01*
X130510641Y-78466000D01*
X130499645Y-78464917D01*
X130494971Y-78463499D01*
X130490670Y-78461200D01*
X130484298Y-78455971D01*
X130463924Y-78442357D01*
X130441285Y-78432980D01*
X130417251Y-78428200D01*
X130392747Y-78428200D01*
X130368714Y-78432981D01*
X130346075Y-78442358D01*
X130325702Y-78455971D01*
X130319330Y-78461200D01*
X130315029Y-78463499D01*
X130310355Y-78464917D01*
X130299359Y-78466000D01*
X130010641Y-78466000D01*
X129999645Y-78464917D01*
X129994971Y-78463499D01*
X129990670Y-78461200D01*
X129984298Y-78455971D01*
X129963924Y-78442357D01*
X129941285Y-78432980D01*
X129917251Y-78428200D01*
X129892747Y-78428200D01*
X129868714Y-78432981D01*
X129846075Y-78442358D01*
X129825702Y-78455971D01*
X129819330Y-78461200D01*
X129815029Y-78463499D01*
X129810355Y-78464917D01*
X129799359Y-78466000D01*
X129510641Y-78466000D01*
X129499645Y-78464917D01*
X129494971Y-78463499D01*
X129490670Y-78461200D01*
X129484298Y-78455971D01*
X129463924Y-78442357D01*
X129441285Y-78432980D01*
X129417251Y-78428200D01*
X129392747Y-78428200D01*
X129368714Y-78432981D01*
X129346075Y-78442358D01*
X129325702Y-78455971D01*
X129319330Y-78461200D01*
X129315029Y-78463499D01*
X129310355Y-78464917D01*
X129299359Y-78466000D01*
X129010641Y-78466000D01*
X128999645Y-78464917D01*
X128994971Y-78463499D01*
X128990670Y-78461200D01*
X128984298Y-78455971D01*
X128963924Y-78442357D01*
X128941285Y-78432980D01*
X128917251Y-78428200D01*
X128892747Y-78428200D01*
X128868714Y-78432981D01*
X128846075Y-78442358D01*
X128825702Y-78455971D01*
X128819330Y-78461200D01*
X128815029Y-78463499D01*
X128810355Y-78464917D01*
X128799359Y-78466000D01*
X128510641Y-78466000D01*
X128499645Y-78464917D01*
X128494971Y-78463499D01*
X128490670Y-78461200D01*
X128484298Y-78455971D01*
X128463924Y-78442357D01*
X128441285Y-78432980D01*
X128417251Y-78428200D01*
X128392747Y-78428200D01*
X128368714Y-78432981D01*
X128346075Y-78442358D01*
X128325702Y-78455971D01*
X128319330Y-78461200D01*
X128315029Y-78463499D01*
X128310355Y-78464917D01*
X128299359Y-78466000D01*
X128010641Y-78466000D01*
X127999645Y-78464917D01*
X127994971Y-78463499D01*
X127990670Y-78461200D01*
X127984298Y-78455971D01*
X127963924Y-78442357D01*
X127941285Y-78432980D01*
X127917251Y-78428200D01*
X127892747Y-78428200D01*
X127868714Y-78432981D01*
X127846075Y-78442358D01*
X127825702Y-78455971D01*
X127819330Y-78461200D01*
X127815029Y-78463499D01*
X127810355Y-78464917D01*
X127799359Y-78466000D01*
X127510641Y-78466000D01*
X127499645Y-78464917D01*
X127494971Y-78463499D01*
X127490670Y-78461200D01*
X127484298Y-78455971D01*
X127463924Y-78442357D01*
X127441285Y-78432980D01*
X127417251Y-78428200D01*
X127392747Y-78428200D01*
X127368714Y-78432981D01*
X127346075Y-78442358D01*
X127325702Y-78455971D01*
X127319330Y-78461200D01*
X127315029Y-78463499D01*
X127310355Y-78464917D01*
X127299359Y-78466000D01*
X127010641Y-78466000D01*
X126999645Y-78464917D01*
X126994971Y-78463499D01*
X126990669Y-78461200D01*
X126986896Y-78458104D01*
X126983800Y-78454331D01*
X126981501Y-78450029D01*
X126980083Y-78445355D01*
X126979000Y-78434359D01*
X126979000Y-77615999D01*
X126976598Y-77591613D01*
X126969485Y-77568164D01*
X126957934Y-77546553D01*
X126942389Y-77527611D01*
X126923447Y-77512066D01*
X126901836Y-77500515D01*
X126878387Y-77493402D01*
X126854001Y-77491000D01*
X126035641Y-77491000D01*
X126024645Y-77489917D01*
X126019971Y-77488499D01*
X126015669Y-77486200D01*
X126011896Y-77483104D01*
X126008800Y-77479331D01*
X126006501Y-77475029D01*
X126005083Y-77470355D01*
X126004000Y-77459359D01*
X126004000Y-77170641D01*
X126005083Y-77159645D01*
X126006501Y-77154971D01*
X126008800Y-77150670D01*
X126014029Y-77144298D01*
X126027643Y-77123924D01*
X126037020Y-77101285D01*
X126041800Y-77077251D01*
X126041800Y-77052747D01*
X126037019Y-77028714D01*
X126027642Y-77006075D01*
X126014029Y-76985702D01*
X126008800Y-76979330D01*
X126006501Y-76975029D01*
X126005083Y-76970355D01*
X126004000Y-76959359D01*
X126004000Y-76670641D01*
X126005083Y-76659645D01*
X126006501Y-76654971D01*
X126008800Y-76650670D01*
X126014029Y-76644298D01*
X126027643Y-76623924D01*
X126037020Y-76601285D01*
X126041800Y-76577251D01*
X126041800Y-76552747D01*
X126037019Y-76528714D01*
X126027642Y-76506075D01*
X126014029Y-76485702D01*
X126008800Y-76479330D01*
X126006501Y-76475029D01*
X126005083Y-76470355D01*
X126004000Y-76459359D01*
X126004000Y-76170641D01*
X126005083Y-76159645D01*
X126006501Y-76154971D01*
X126008800Y-76150670D01*
X126014029Y-76144298D01*
X126027643Y-76123924D01*
X126037020Y-76101285D01*
X126041800Y-76077251D01*
X126041800Y-76052747D01*
X126037019Y-76028714D01*
X126027642Y-76006075D01*
X126014029Y-75985702D01*
X126008800Y-75979330D01*
X126006501Y-75975029D01*
X126005083Y-75970355D01*
X126004000Y-75959359D01*
X126004000Y-75670641D01*
X126005083Y-75659645D01*
X126006501Y-75654971D01*
X126008800Y-75650670D01*
X126014029Y-75644298D01*
X126027643Y-75623924D01*
X126037020Y-75601285D01*
X126041800Y-75577251D01*
X126041800Y-75552747D01*
X126037019Y-75528714D01*
X126027642Y-75506075D01*
X126014029Y-75485702D01*
X126008800Y-75479330D01*
X126006501Y-75475029D01*
X126005083Y-75470355D01*
X126004000Y-75459359D01*
X126004000Y-75170641D01*
X126005083Y-75159645D01*
X126006501Y-75154971D01*
X126008800Y-75150670D01*
X126014029Y-75144298D01*
X126027643Y-75123924D01*
X126037020Y-75101285D01*
X126041800Y-75077251D01*
X126041800Y-75052747D01*
X126037019Y-75028714D01*
X126027642Y-75006075D01*
X126014029Y-74985702D01*
X126008800Y-74979330D01*
X126006501Y-74975029D01*
X126005083Y-74970355D01*
X126004000Y-74959359D01*
X126004000Y-74670641D01*
X126005083Y-74659645D01*
X126006501Y-74654971D01*
X126008800Y-74650670D01*
X126014029Y-74644298D01*
X126027643Y-74623924D01*
X126037020Y-74601285D01*
X126041800Y-74577251D01*
X126041800Y-74552747D01*
X126037019Y-74528714D01*
X126027642Y-74506075D01*
X126014029Y-74485702D01*
X126008800Y-74479330D01*
X126006501Y-74475029D01*
X126005083Y-74470355D01*
X126004000Y-74459359D01*
X126004000Y-74170641D01*
X126005083Y-74159645D01*
X126006501Y-74154971D01*
X126008800Y-74150670D01*
X126014029Y-74144298D01*
X126027643Y-74123924D01*
X126037020Y-74101285D01*
X126041800Y-74077251D01*
X126041800Y-74052747D01*
X126037019Y-74028714D01*
X126027642Y-74006075D01*
X126014029Y-73985702D01*
X126008800Y-73979330D01*
X126006501Y-73975029D01*
X126005083Y-73970355D01*
X126004000Y-73959359D01*
X126004000Y-73670641D01*
X126005083Y-73659645D01*
X126006501Y-73654971D01*
X126008800Y-73650669D01*
X126011896Y-73646896D01*
X126015669Y-73643800D01*
X126019971Y-73641501D01*
X126024645Y-73640083D01*
X126035641Y-73639000D01*
X126854001Y-73639000D01*
X126878387Y-73636598D01*
X126901836Y-73629485D01*
X126923447Y-73617934D01*
X126942389Y-73602389D01*
X126957934Y-73583447D01*
X126969485Y-73561836D01*
X126976598Y-73538387D01*
X126979000Y-73514001D01*
X126979000Y-72695641D01*
X126980083Y-72684645D01*
X126981501Y-72679971D01*
X126983800Y-72675669D01*
X126986896Y-72671896D01*
X126990669Y-72668800D01*
X126994971Y-72666501D01*
X126999645Y-72665083D01*
X127010641Y-72664000D01*
X127299359Y-72664000D01*
X127310355Y-72665083D01*
X127310355Y-72665083D01*
G37*
G36*
X88498642Y-76064781D02*
G01*
X88644414Y-76125162D01*
X88644416Y-76125163D01*
X88775608Y-76212822D01*
X88887178Y-76324392D01*
X88974837Y-76455584D01*
X88974838Y-76455586D01*
X89035219Y-76601358D01*
X89066000Y-76756107D01*
X89066000Y-76913893D01*
X89035219Y-77068642D01*
X88983574Y-77193324D01*
X88974837Y-77214416D01*
X88887178Y-77345608D01*
X88775608Y-77457178D01*
X88644416Y-77544837D01*
X88644415Y-77544838D01*
X88644414Y-77544838D01*
X88498642Y-77605219D01*
X88343893Y-77636000D01*
X88186107Y-77636000D01*
X88031358Y-77605219D01*
X87885586Y-77544838D01*
X87885585Y-77544838D01*
X87885584Y-77544837D01*
X87754392Y-77457178D01*
X87642822Y-77345608D01*
X87555163Y-77214416D01*
X87546426Y-77193324D01*
X87494781Y-77068642D01*
X87464000Y-76913893D01*
X87464000Y-76756107D01*
X87494781Y-76601358D01*
X87555162Y-76455586D01*
X87555163Y-76455584D01*
X87642822Y-76324392D01*
X87754392Y-76212822D01*
X87885584Y-76125163D01*
X87885586Y-76125162D01*
X88031358Y-76064781D01*
X88186107Y-76034000D01*
X88343893Y-76034000D01*
X88498642Y-76064781D01*
X88498642Y-76064781D01*
G37*
G36*
X85323642Y-76064781D02*
G01*
X85469414Y-76125162D01*
X85469416Y-76125163D01*
X85600608Y-76212822D01*
X85712178Y-76324392D01*
X85799837Y-76455584D01*
X85799838Y-76455586D01*
X85860219Y-76601358D01*
X85891000Y-76756107D01*
X85891000Y-76913893D01*
X85860219Y-77068642D01*
X85808574Y-77193324D01*
X85799837Y-77214416D01*
X85712178Y-77345608D01*
X85600608Y-77457178D01*
X85469416Y-77544837D01*
X85469415Y-77544838D01*
X85469414Y-77544838D01*
X85323642Y-77605219D01*
X85168893Y-77636000D01*
X85011107Y-77636000D01*
X84856358Y-77605219D01*
X84710586Y-77544838D01*
X84710585Y-77544838D01*
X84710584Y-77544837D01*
X84579392Y-77457178D01*
X84467822Y-77345608D01*
X84380163Y-77214416D01*
X84371426Y-77193324D01*
X84319781Y-77068642D01*
X84289000Y-76913893D01*
X84289000Y-76756107D01*
X84319781Y-76601358D01*
X84380162Y-76455586D01*
X84380163Y-76455584D01*
X84467822Y-76324392D01*
X84579392Y-76212822D01*
X84710584Y-76125163D01*
X84710586Y-76125162D01*
X84856358Y-76064781D01*
X85011107Y-76034000D01*
X85168893Y-76034000D01*
X85323642Y-76064781D01*
X85323642Y-76064781D01*
G37*
G36*
X99820591Y-76198085D02*
G01*
X99854569Y-76208393D01*
X99885890Y-76225134D01*
X99913339Y-76247661D01*
X99935866Y-76275110D01*
X99952607Y-76306431D01*
X99962915Y-76340409D01*
X99967000Y-76381890D01*
X99967000Y-76983110D01*
X99962915Y-77024591D01*
X99952607Y-77058569D01*
X99935866Y-77089890D01*
X99913339Y-77117339D01*
X99885890Y-77139866D01*
X99854569Y-77156607D01*
X99820591Y-77166915D01*
X99779110Y-77171000D01*
X99102890Y-77171000D01*
X99061409Y-77166915D01*
X99027431Y-77156607D01*
X98996110Y-77139866D01*
X98968661Y-77117339D01*
X98946134Y-77089890D01*
X98929393Y-77058569D01*
X98919085Y-77024591D01*
X98915000Y-76983110D01*
X98915000Y-76381890D01*
X98919085Y-76340409D01*
X98929393Y-76306431D01*
X98946134Y-76275110D01*
X98968661Y-76247661D01*
X98996110Y-76225134D01*
X99027431Y-76208393D01*
X99061409Y-76198085D01*
X99102890Y-76194000D01*
X99779110Y-76194000D01*
X99820591Y-76198085D01*
X99820591Y-76198085D01*
G37*
G36*
X116031674Y-75841465D02*
G01*
X116069367Y-75852899D01*
X116104103Y-75871466D01*
X116134548Y-75896452D01*
X116159534Y-75926897D01*
X116178101Y-75961633D01*
X116189535Y-75999326D01*
X116194000Y-76044661D01*
X116194000Y-76881339D01*
X116189535Y-76926674D01*
X116178101Y-76964367D01*
X116159534Y-76999103D01*
X116134548Y-77029548D01*
X116104103Y-77054534D01*
X116069367Y-77073101D01*
X116031674Y-77084535D01*
X115986339Y-77089000D01*
X114899661Y-77089000D01*
X114854326Y-77084535D01*
X114816633Y-77073101D01*
X114781897Y-77054534D01*
X114751452Y-77029548D01*
X114726466Y-76999103D01*
X114707899Y-76964367D01*
X114696465Y-76926674D01*
X114692000Y-76881339D01*
X114692000Y-76044661D01*
X114696465Y-75999326D01*
X114707899Y-75961633D01*
X114726466Y-75926897D01*
X114751452Y-75896452D01*
X114781897Y-75871466D01*
X114816633Y-75852899D01*
X114854326Y-75841465D01*
X114899661Y-75837000D01*
X115986339Y-75837000D01*
X116031674Y-75841465D01*
X116031674Y-75841465D01*
G37*
G36*
X118616591Y-75741085D02*
G01*
X118650569Y-75751393D01*
X118681890Y-75768134D01*
X118709339Y-75790661D01*
X118731866Y-75818110D01*
X118748607Y-75849431D01*
X118758915Y-75883409D01*
X118763000Y-75924890D01*
X118763000Y-76526110D01*
X118758915Y-76567591D01*
X118748607Y-76601569D01*
X118731866Y-76632890D01*
X118709339Y-76660339D01*
X118681890Y-76682866D01*
X118650569Y-76699607D01*
X118616591Y-76709915D01*
X118575110Y-76714000D01*
X117898890Y-76714000D01*
X117857409Y-76709915D01*
X117823431Y-76699607D01*
X117792110Y-76682866D01*
X117764661Y-76660339D01*
X117742134Y-76632890D01*
X117725393Y-76601569D01*
X117715085Y-76567591D01*
X117711000Y-76526110D01*
X117711000Y-75924890D01*
X117715085Y-75883409D01*
X117725393Y-75849431D01*
X117742134Y-75818110D01*
X117764661Y-75790661D01*
X117792110Y-75768134D01*
X117823431Y-75751393D01*
X117857409Y-75741085D01*
X117898890Y-75737000D01*
X118575110Y-75737000D01*
X118616591Y-75741085D01*
X118616591Y-75741085D01*
G37*
G36*
X152937500Y-76479500D02*
G01*
X150635500Y-76479500D01*
X150635500Y-75177500D01*
X152937500Y-75177500D01*
X152937500Y-76479500D01*
X152937500Y-76479500D01*
G37*
G36*
X147257674Y-74945465D02*
G01*
X147295367Y-74956899D01*
X147330103Y-74975466D01*
X147360548Y-75000452D01*
X147385534Y-75030897D01*
X147404101Y-75065633D01*
X147415535Y-75103326D01*
X147420000Y-75148661D01*
X147420000Y-76235339D01*
X147415535Y-76280674D01*
X147404101Y-76318367D01*
X147385534Y-76353103D01*
X147360548Y-76383548D01*
X147330103Y-76408534D01*
X147295367Y-76427101D01*
X147257674Y-76438535D01*
X147212339Y-76443000D01*
X146375661Y-76443000D01*
X146330326Y-76438535D01*
X146292633Y-76427101D01*
X146257897Y-76408534D01*
X146227452Y-76383548D01*
X146202466Y-76353103D01*
X146183899Y-76318367D01*
X146172465Y-76280674D01*
X146168000Y-76235339D01*
X146168000Y-75148661D01*
X146172465Y-75103326D01*
X146183899Y-75065633D01*
X146202466Y-75030897D01*
X146227452Y-75000452D01*
X146257897Y-74975466D01*
X146292633Y-74956899D01*
X146330326Y-74945465D01*
X146375661Y-74941000D01*
X147212339Y-74941000D01*
X147257674Y-74945465D01*
X147257674Y-74945465D01*
G37*
G36*
X149307674Y-74945465D02*
G01*
X149345367Y-74956899D01*
X149380103Y-74975466D01*
X149410548Y-75000452D01*
X149435534Y-75030897D01*
X149454101Y-75065633D01*
X149465535Y-75103326D01*
X149470000Y-75148661D01*
X149470000Y-76235339D01*
X149465535Y-76280674D01*
X149454101Y-76318367D01*
X149435534Y-76353103D01*
X149410548Y-76383548D01*
X149380103Y-76408534D01*
X149345367Y-76427101D01*
X149307674Y-76438535D01*
X149262339Y-76443000D01*
X148425661Y-76443000D01*
X148380326Y-76438535D01*
X148342633Y-76427101D01*
X148307897Y-76408534D01*
X148277452Y-76383548D01*
X148252466Y-76353103D01*
X148233899Y-76318367D01*
X148222465Y-76280674D01*
X148218000Y-76235339D01*
X148218000Y-75148661D01*
X148222465Y-75103326D01*
X148233899Y-75065633D01*
X148252466Y-75030897D01*
X148277452Y-75000452D01*
X148307897Y-74975466D01*
X148342633Y-74956899D01*
X148380326Y-74945465D01*
X148425661Y-74941000D01*
X149262339Y-74941000D01*
X149307674Y-74945465D01*
X149307674Y-74945465D01*
G37*
G36*
X138238000Y-76390000D02*
G01*
X136336000Y-76390000D01*
X136336000Y-75288000D01*
X138238000Y-75288000D01*
X138238000Y-76390000D01*
X138238000Y-76390000D01*
G37*
G36*
X121101000Y-76389000D02*
G01*
X120199000Y-76389000D01*
X120199000Y-75737000D01*
X121101000Y-75737000D01*
X121101000Y-76389000D01*
X121101000Y-76389000D01*
G37*
G36*
X141878499Y-75297445D02*
G01*
X141915995Y-75308820D01*
X141950554Y-75327292D01*
X141980847Y-75352153D01*
X142005708Y-75382446D01*
X142024180Y-75417005D01*
X142035555Y-75454501D01*
X142040000Y-75499638D01*
X142040000Y-76138362D01*
X142035555Y-76183499D01*
X142024180Y-76220995D01*
X142005708Y-76255554D01*
X141980847Y-76285847D01*
X141950554Y-76310708D01*
X141915995Y-76329180D01*
X141878499Y-76340555D01*
X141833362Y-76345000D01*
X141094638Y-76345000D01*
X141049501Y-76340555D01*
X141012005Y-76329180D01*
X140977446Y-76310708D01*
X140947153Y-76285847D01*
X140922292Y-76255554D01*
X140903820Y-76220995D01*
X140892445Y-76183499D01*
X140888000Y-76138362D01*
X140888000Y-75499638D01*
X140892445Y-75454501D01*
X140903820Y-75417005D01*
X140922292Y-75382446D01*
X140947153Y-75352153D01*
X140977446Y-75327292D01*
X141012005Y-75308820D01*
X141049501Y-75297445D01*
X141094638Y-75293000D01*
X141833362Y-75293000D01*
X141878499Y-75297445D01*
X141878499Y-75297445D01*
G37*
G36*
X140128499Y-75297445D02*
G01*
X140165995Y-75308820D01*
X140200554Y-75327292D01*
X140230847Y-75352153D01*
X140255708Y-75382446D01*
X140274180Y-75417005D01*
X140285555Y-75454501D01*
X140290000Y-75499638D01*
X140290000Y-76138362D01*
X140285555Y-76183499D01*
X140274180Y-76220995D01*
X140255708Y-76255554D01*
X140230847Y-76285847D01*
X140200554Y-76310708D01*
X140165995Y-76329180D01*
X140128499Y-76340555D01*
X140083362Y-76345000D01*
X139344638Y-76345000D01*
X139299501Y-76340555D01*
X139262005Y-76329180D01*
X139227446Y-76310708D01*
X139197153Y-76285847D01*
X139172292Y-76255554D01*
X139153820Y-76220995D01*
X139142445Y-76183499D01*
X139138000Y-76138362D01*
X139138000Y-75499638D01*
X139142445Y-75454501D01*
X139153820Y-75417005D01*
X139172292Y-75382446D01*
X139197153Y-75352153D01*
X139227446Y-75327292D01*
X139262005Y-75308820D01*
X139299501Y-75297445D01*
X139344638Y-75293000D01*
X140083362Y-75293000D01*
X140128499Y-75297445D01*
X140128499Y-75297445D01*
G37*
G36*
X170007000Y-75519000D02*
G01*
X167305000Y-75519000D01*
X167305000Y-72817000D01*
X170007000Y-72817000D01*
X170007000Y-75519000D01*
X170007000Y-75519000D01*
G37*
G36*
X118616591Y-74166085D02*
G01*
X118650569Y-74176393D01*
X118681890Y-74193134D01*
X118709339Y-74215661D01*
X118731866Y-74243110D01*
X118748607Y-74274431D01*
X118758915Y-74308409D01*
X118763000Y-74349890D01*
X118763000Y-74951110D01*
X118758915Y-74992591D01*
X118748607Y-75026569D01*
X118731866Y-75057890D01*
X118709339Y-75085339D01*
X118681890Y-75107866D01*
X118650569Y-75124607D01*
X118616591Y-75134915D01*
X118575110Y-75139000D01*
X117898890Y-75139000D01*
X117857409Y-75134915D01*
X117823431Y-75124607D01*
X117792110Y-75107866D01*
X117764661Y-75085339D01*
X117742134Y-75057890D01*
X117725393Y-75026569D01*
X117715085Y-74992591D01*
X117711000Y-74951110D01*
X117711000Y-74349890D01*
X117715085Y-74308409D01*
X117725393Y-74274431D01*
X117742134Y-74243110D01*
X117764661Y-74215661D01*
X117792110Y-74193134D01*
X117823431Y-74176393D01*
X117857409Y-74166085D01*
X117898890Y-74162000D01*
X118575110Y-74162000D01*
X118616591Y-74166085D01*
X118616591Y-74166085D01*
G37*
G36*
X121101000Y-75139000D02*
G01*
X120199000Y-75139000D01*
X120199000Y-74487000D01*
X121101000Y-74487000D01*
X121101000Y-75139000D01*
X121101000Y-75139000D01*
G37*
G36*
X116031674Y-73791465D02*
G01*
X116069367Y-73802899D01*
X116104103Y-73821466D01*
X116134548Y-73846452D01*
X116159534Y-73876897D01*
X116178101Y-73911633D01*
X116189535Y-73949326D01*
X116194000Y-73994661D01*
X116194000Y-74831339D01*
X116189535Y-74876674D01*
X116178101Y-74914367D01*
X116159534Y-74949103D01*
X116134548Y-74979548D01*
X116104103Y-75004534D01*
X116069367Y-75023101D01*
X116031674Y-75034535D01*
X115986339Y-75039000D01*
X114899661Y-75039000D01*
X114854326Y-75034535D01*
X114816633Y-75023101D01*
X114781897Y-75004534D01*
X114751452Y-74979548D01*
X114726466Y-74949103D01*
X114707899Y-74914367D01*
X114696465Y-74876674D01*
X114692000Y-74831339D01*
X114692000Y-73994661D01*
X114696465Y-73949326D01*
X114707899Y-73911633D01*
X114726466Y-73876897D01*
X114751452Y-73846452D01*
X114781897Y-73821466D01*
X114816633Y-73802899D01*
X114854326Y-73791465D01*
X114899661Y-73787000D01*
X115986339Y-73787000D01*
X116031674Y-73791465D01*
X116031674Y-73791465D01*
G37*
G36*
X90758674Y-73682465D02*
G01*
X90796367Y-73693899D01*
X90831103Y-73712466D01*
X90861548Y-73737452D01*
X90886534Y-73767897D01*
X90905101Y-73802633D01*
X90916535Y-73840326D01*
X90921000Y-73885661D01*
X90921000Y-74722339D01*
X90916535Y-74767674D01*
X90905101Y-74805367D01*
X90886534Y-74840103D01*
X90861548Y-74870548D01*
X90831103Y-74895534D01*
X90796367Y-74914101D01*
X90758674Y-74925535D01*
X90713339Y-74930000D01*
X89626661Y-74930000D01*
X89581326Y-74925535D01*
X89543633Y-74914101D01*
X89508897Y-74895534D01*
X89478452Y-74870548D01*
X89453466Y-74840103D01*
X89434899Y-74805367D01*
X89423465Y-74767674D01*
X89419000Y-74722339D01*
X89419000Y-73885661D01*
X89423465Y-73840326D01*
X89434899Y-73802633D01*
X89453466Y-73767897D01*
X89478452Y-73737452D01*
X89508897Y-73712466D01*
X89543633Y-73693899D01*
X89581326Y-73682465D01*
X89626661Y-73678000D01*
X90713339Y-73678000D01*
X90758674Y-73682465D01*
X90758674Y-73682465D01*
G37*
G36*
X96346674Y-73682465D02*
G01*
X96384367Y-73693899D01*
X96419103Y-73712466D01*
X96449548Y-73737452D01*
X96474534Y-73767897D01*
X96493101Y-73802633D01*
X96504535Y-73840326D01*
X96509000Y-73885661D01*
X96509000Y-74722339D01*
X96504535Y-74767674D01*
X96493101Y-74805367D01*
X96474534Y-74840103D01*
X96449548Y-74870548D01*
X96419103Y-74895534D01*
X96384367Y-74914101D01*
X96346674Y-74925535D01*
X96301339Y-74930000D01*
X95214661Y-74930000D01*
X95169326Y-74925535D01*
X95131633Y-74914101D01*
X95096897Y-74895534D01*
X95066452Y-74870548D01*
X95041466Y-74840103D01*
X95022899Y-74805367D01*
X95011465Y-74767674D01*
X95007000Y-74722339D01*
X95007000Y-73885661D01*
X95011465Y-73840326D01*
X95022899Y-73802633D01*
X95041466Y-73767897D01*
X95066452Y-73737452D01*
X95096897Y-73712466D01*
X95131633Y-73693899D01*
X95169326Y-73682465D01*
X95214661Y-73678000D01*
X96301339Y-73678000D01*
X96346674Y-73682465D01*
X96346674Y-73682465D01*
G37*
G36*
X93552674Y-73682465D02*
G01*
X93590367Y-73693899D01*
X93625103Y-73712466D01*
X93655548Y-73737452D01*
X93680534Y-73767897D01*
X93699101Y-73802633D01*
X93710535Y-73840326D01*
X93715000Y-73885661D01*
X93715000Y-74722339D01*
X93710535Y-74767674D01*
X93699101Y-74805367D01*
X93680534Y-74840103D01*
X93655548Y-74870548D01*
X93625103Y-74895534D01*
X93590367Y-74914101D01*
X93552674Y-74925535D01*
X93507339Y-74930000D01*
X92420661Y-74930000D01*
X92375326Y-74925535D01*
X92337633Y-74914101D01*
X92302897Y-74895534D01*
X92272452Y-74870548D01*
X92247466Y-74840103D01*
X92228899Y-74805367D01*
X92217465Y-74767674D01*
X92213000Y-74722339D01*
X92213000Y-73885661D01*
X92217465Y-73840326D01*
X92228899Y-73802633D01*
X92247466Y-73767897D01*
X92272452Y-73737452D01*
X92302897Y-73712466D01*
X92337633Y-73693899D01*
X92375326Y-73682465D01*
X92420661Y-73678000D01*
X93507339Y-73678000D01*
X93552674Y-73682465D01*
X93552674Y-73682465D01*
G37*
G36*
X88081000Y-74230000D02*
G01*
X87179000Y-74230000D01*
X87179000Y-73578000D01*
X88081000Y-73578000D01*
X88081000Y-74230000D01*
X88081000Y-74230000D01*
G37*
G36*
X151829674Y-72405465D02*
G01*
X151867367Y-72416899D01*
X151902103Y-72435466D01*
X151932548Y-72460452D01*
X151957534Y-72490897D01*
X151976101Y-72525633D01*
X151987535Y-72563326D01*
X151992000Y-72608661D01*
X151992000Y-73695339D01*
X151987535Y-73740674D01*
X151976101Y-73778367D01*
X151957534Y-73813103D01*
X151932548Y-73843548D01*
X151902103Y-73868534D01*
X151867367Y-73887101D01*
X151829674Y-73898535D01*
X151784339Y-73903000D01*
X150947661Y-73903000D01*
X150902326Y-73898535D01*
X150864633Y-73887101D01*
X150829897Y-73868534D01*
X150799452Y-73843548D01*
X150774466Y-73813103D01*
X150755899Y-73778367D01*
X150744465Y-73740674D01*
X150740000Y-73695339D01*
X150740000Y-72608661D01*
X150744465Y-72563326D01*
X150755899Y-72525633D01*
X150774466Y-72490897D01*
X150799452Y-72460452D01*
X150829897Y-72435466D01*
X150864633Y-72416899D01*
X150902326Y-72405465D01*
X150947661Y-72401000D01*
X151784339Y-72401000D01*
X151829674Y-72405465D01*
X151829674Y-72405465D01*
G37*
G36*
X153879674Y-72405465D02*
G01*
X153917367Y-72416899D01*
X153952103Y-72435466D01*
X153982548Y-72460452D01*
X154007534Y-72490897D01*
X154026101Y-72525633D01*
X154037535Y-72563326D01*
X154042000Y-72608661D01*
X154042000Y-73695339D01*
X154037535Y-73740674D01*
X154026101Y-73778367D01*
X154007534Y-73813103D01*
X153982548Y-73843548D01*
X153952103Y-73868534D01*
X153917367Y-73887101D01*
X153879674Y-73898535D01*
X153834339Y-73903000D01*
X152997661Y-73903000D01*
X152952326Y-73898535D01*
X152914633Y-73887101D01*
X152879897Y-73868534D01*
X152849452Y-73843548D01*
X152824466Y-73813103D01*
X152805899Y-73778367D01*
X152794465Y-73740674D01*
X152790000Y-73695339D01*
X152790000Y-72608661D01*
X152794465Y-72563326D01*
X152805899Y-72525633D01*
X152824466Y-72490897D01*
X152849452Y-72460452D01*
X152879897Y-72435466D01*
X152914633Y-72416899D01*
X152952326Y-72405465D01*
X152997661Y-72401000D01*
X153834339Y-72401000D01*
X153879674Y-72405465D01*
X153879674Y-72405465D01*
G37*
G36*
X161118674Y-72405465D02*
G01*
X161156367Y-72416899D01*
X161191103Y-72435466D01*
X161221548Y-72460452D01*
X161246534Y-72490897D01*
X161265101Y-72525633D01*
X161276535Y-72563326D01*
X161281000Y-72608661D01*
X161281000Y-73695339D01*
X161276535Y-73740674D01*
X161265101Y-73778367D01*
X161246534Y-73813103D01*
X161221548Y-73843548D01*
X161191103Y-73868534D01*
X161156367Y-73887101D01*
X161118674Y-73898535D01*
X161073339Y-73903000D01*
X160236661Y-73903000D01*
X160191326Y-73898535D01*
X160153633Y-73887101D01*
X160118897Y-73868534D01*
X160088452Y-73843548D01*
X160063466Y-73813103D01*
X160044899Y-73778367D01*
X160033465Y-73740674D01*
X160029000Y-73695339D01*
X160029000Y-72608661D01*
X160033465Y-72563326D01*
X160044899Y-72525633D01*
X160063466Y-72490897D01*
X160088452Y-72460452D01*
X160118897Y-72435466D01*
X160153633Y-72416899D01*
X160191326Y-72405465D01*
X160236661Y-72401000D01*
X161073339Y-72401000D01*
X161118674Y-72405465D01*
X161118674Y-72405465D01*
G37*
G36*
X159068674Y-72405465D02*
G01*
X159106367Y-72416899D01*
X159141103Y-72435466D01*
X159171548Y-72460452D01*
X159196534Y-72490897D01*
X159215101Y-72525633D01*
X159226535Y-72563326D01*
X159231000Y-72608661D01*
X159231000Y-73695339D01*
X159226535Y-73740674D01*
X159215101Y-73778367D01*
X159196534Y-73813103D01*
X159171548Y-73843548D01*
X159141103Y-73868534D01*
X159106367Y-73887101D01*
X159068674Y-73898535D01*
X159023339Y-73903000D01*
X158186661Y-73903000D01*
X158141326Y-73898535D01*
X158103633Y-73887101D01*
X158068897Y-73868534D01*
X158038452Y-73843548D01*
X158013466Y-73813103D01*
X157994899Y-73778367D01*
X157983465Y-73740674D01*
X157979000Y-73695339D01*
X157979000Y-72608661D01*
X157983465Y-72563326D01*
X157994899Y-72525633D01*
X158013466Y-72490897D01*
X158038452Y-72460452D01*
X158068897Y-72435466D01*
X158103633Y-72416899D01*
X158141326Y-72405465D01*
X158186661Y-72401000D01*
X159023339Y-72401000D01*
X159068674Y-72405465D01*
X159068674Y-72405465D01*
G37*
G36*
X149307674Y-72405465D02*
G01*
X149345367Y-72416899D01*
X149380103Y-72435466D01*
X149410548Y-72460452D01*
X149435534Y-72490897D01*
X149454101Y-72525633D01*
X149465535Y-72563326D01*
X149470000Y-72608661D01*
X149470000Y-73695339D01*
X149465535Y-73740674D01*
X149454101Y-73778367D01*
X149435534Y-73813103D01*
X149410548Y-73843548D01*
X149380103Y-73868534D01*
X149345367Y-73887101D01*
X149307674Y-73898535D01*
X149262339Y-73903000D01*
X148425661Y-73903000D01*
X148380326Y-73898535D01*
X148342633Y-73887101D01*
X148307897Y-73868534D01*
X148277452Y-73843548D01*
X148252466Y-73813103D01*
X148233899Y-73778367D01*
X148222465Y-73740674D01*
X148218000Y-73695339D01*
X148218000Y-72608661D01*
X148222465Y-72563326D01*
X148233899Y-72525633D01*
X148252466Y-72490897D01*
X148277452Y-72460452D01*
X148307897Y-72435466D01*
X148342633Y-72416899D01*
X148380326Y-72405465D01*
X148425661Y-72401000D01*
X149262339Y-72401000D01*
X149307674Y-72405465D01*
X149307674Y-72405465D01*
G37*
G36*
X147257674Y-72405465D02*
G01*
X147295367Y-72416899D01*
X147330103Y-72435466D01*
X147360548Y-72460452D01*
X147385534Y-72490897D01*
X147404101Y-72525633D01*
X147415535Y-72563326D01*
X147420000Y-72608661D01*
X147420000Y-73695339D01*
X147415535Y-73740674D01*
X147404101Y-73778367D01*
X147385534Y-73813103D01*
X147360548Y-73843548D01*
X147330103Y-73868534D01*
X147295367Y-73887101D01*
X147257674Y-73898535D01*
X147212339Y-73903000D01*
X146375661Y-73903000D01*
X146330326Y-73898535D01*
X146292633Y-73887101D01*
X146257897Y-73868534D01*
X146227452Y-73843548D01*
X146202466Y-73813103D01*
X146183899Y-73778367D01*
X146172465Y-73740674D01*
X146168000Y-73695339D01*
X146168000Y-72608661D01*
X146172465Y-72563326D01*
X146183899Y-72525633D01*
X146202466Y-72490897D01*
X146227452Y-72460452D01*
X146257897Y-72435466D01*
X146292633Y-72416899D01*
X146330326Y-72405465D01*
X146375661Y-72401000D01*
X147212339Y-72401000D01*
X147257674Y-72405465D01*
X147257674Y-72405465D01*
G37*
G36*
X104373642Y-72254781D02*
G01*
X104498420Y-72306466D01*
X104519416Y-72315163D01*
X104650608Y-72402822D01*
X104762178Y-72514392D01*
X104849837Y-72645584D01*
X104849838Y-72645586D01*
X104910219Y-72791358D01*
X104941000Y-72946107D01*
X104941000Y-73103893D01*
X104910219Y-73258642D01*
X104850408Y-73403038D01*
X104849837Y-73404416D01*
X104762178Y-73535608D01*
X104650608Y-73647178D01*
X104519416Y-73734837D01*
X104519415Y-73734838D01*
X104519414Y-73734838D01*
X104373642Y-73795219D01*
X104218893Y-73826000D01*
X104061107Y-73826000D01*
X103906358Y-73795219D01*
X103760586Y-73734838D01*
X103760585Y-73734838D01*
X103760584Y-73734837D01*
X103629392Y-73647178D01*
X103517822Y-73535608D01*
X103430163Y-73404416D01*
X103429592Y-73403038D01*
X103369781Y-73258642D01*
X103339000Y-73103893D01*
X103339000Y-72946107D01*
X103369781Y-72791358D01*
X103430162Y-72645586D01*
X103430163Y-72645584D01*
X103517822Y-72514392D01*
X103629392Y-72402822D01*
X103760584Y-72315163D01*
X103781580Y-72306466D01*
X103906358Y-72254781D01*
X104061107Y-72224000D01*
X104218893Y-72224000D01*
X104373642Y-72254781D01*
X104373642Y-72254781D01*
G37*
G36*
X100563642Y-72254781D02*
G01*
X100688420Y-72306466D01*
X100709416Y-72315163D01*
X100840608Y-72402822D01*
X100952178Y-72514392D01*
X101039837Y-72645584D01*
X101039838Y-72645586D01*
X101100219Y-72791358D01*
X101131000Y-72946107D01*
X101131000Y-73103893D01*
X101100219Y-73258642D01*
X101040408Y-73403038D01*
X101039837Y-73404416D01*
X100952178Y-73535608D01*
X100840608Y-73647178D01*
X100709416Y-73734837D01*
X100709415Y-73734838D01*
X100709414Y-73734838D01*
X100563642Y-73795219D01*
X100408893Y-73826000D01*
X100251107Y-73826000D01*
X100096358Y-73795219D01*
X99950586Y-73734838D01*
X99950585Y-73734838D01*
X99950584Y-73734837D01*
X99819392Y-73647178D01*
X99707822Y-73535608D01*
X99620163Y-73404416D01*
X99619592Y-73403038D01*
X99559781Y-73258642D01*
X99529000Y-73103893D01*
X99529000Y-72946107D01*
X99559781Y-72791358D01*
X99620162Y-72645586D01*
X99620163Y-72645584D01*
X99707822Y-72514392D01*
X99819392Y-72402822D01*
X99950584Y-72315163D01*
X99971580Y-72306466D01*
X100096358Y-72254781D01*
X100251107Y-72224000D01*
X100408893Y-72224000D01*
X100563642Y-72254781D01*
X100563642Y-72254781D01*
G37*
G36*
X111603000Y-73818000D02*
G01*
X110901000Y-73818000D01*
X110901000Y-72166000D01*
X111603000Y-72166000D01*
X111603000Y-73818000D01*
X111603000Y-73818000D01*
G37*
G36*
X110333000Y-73818000D02*
G01*
X109631000Y-73818000D01*
X109631000Y-72166000D01*
X110333000Y-72166000D01*
X110333000Y-73818000D01*
X110333000Y-73818000D01*
G37*
G36*
X109063000Y-73818000D02*
G01*
X108361000Y-73818000D01*
X108361000Y-72166000D01*
X109063000Y-72166000D01*
X109063000Y-73818000D01*
X109063000Y-73818000D01*
G37*
G36*
X107793000Y-73818000D02*
G01*
X107091000Y-73818000D01*
X107091000Y-72166000D01*
X107793000Y-72166000D01*
X107793000Y-73818000D01*
X107793000Y-73818000D01*
G37*
G36*
X80810213Y-72656249D02*
G01*
X80904652Y-72684897D01*
X80991687Y-72731418D01*
X81067975Y-72794025D01*
X81130582Y-72870313D01*
X81177103Y-72957348D01*
X81205751Y-73051787D01*
X81215424Y-73150000D01*
X81205751Y-73248213D01*
X81177103Y-73342652D01*
X81130582Y-73429687D01*
X81067975Y-73505975D01*
X80991687Y-73568582D01*
X80904652Y-73615103D01*
X80810213Y-73643751D01*
X80736612Y-73651000D01*
X79587388Y-73651000D01*
X79513787Y-73643751D01*
X79419348Y-73615103D01*
X79332313Y-73568582D01*
X79256025Y-73505975D01*
X79193418Y-73429687D01*
X79146897Y-73342652D01*
X79118249Y-73248213D01*
X79108576Y-73150000D01*
X79118249Y-73051787D01*
X79146897Y-72957348D01*
X79193418Y-72870313D01*
X79256025Y-72794025D01*
X79332313Y-72731418D01*
X79419348Y-72684897D01*
X79513787Y-72656249D01*
X79587388Y-72649000D01*
X80736612Y-72649000D01*
X80810213Y-72656249D01*
X80810213Y-72656249D01*
G37*
G36*
X76490213Y-72656249D02*
G01*
X76584652Y-72684897D01*
X76671687Y-72731418D01*
X76747975Y-72794025D01*
X76810582Y-72870313D01*
X76857103Y-72957348D01*
X76885751Y-73051787D01*
X76895424Y-73150000D01*
X76885751Y-73248213D01*
X76857103Y-73342652D01*
X76810582Y-73429687D01*
X76747975Y-73505975D01*
X76671687Y-73568582D01*
X76584652Y-73615103D01*
X76490213Y-73643751D01*
X76416612Y-73651000D01*
X75567388Y-73651000D01*
X75493787Y-73643751D01*
X75399348Y-73615103D01*
X75312313Y-73568582D01*
X75236025Y-73505975D01*
X75173418Y-73429687D01*
X75126897Y-73342652D01*
X75098249Y-73248213D01*
X75088576Y-73150000D01*
X75098249Y-73051787D01*
X75126897Y-72957348D01*
X75173418Y-72870313D01*
X75236025Y-72794025D01*
X75312313Y-72731418D01*
X75399348Y-72684897D01*
X75493787Y-72656249D01*
X75567388Y-72649000D01*
X76416612Y-72649000D01*
X76490213Y-72656249D01*
X76490213Y-72656249D01*
G37*
G36*
X135208674Y-72276465D02*
G01*
X135246367Y-72287899D01*
X135281103Y-72306466D01*
X135311548Y-72331452D01*
X135336534Y-72361897D01*
X135355101Y-72396633D01*
X135366535Y-72434326D01*
X135371000Y-72479661D01*
X135371000Y-73316339D01*
X135366535Y-73361674D01*
X135355101Y-73399367D01*
X135336534Y-73434103D01*
X135311548Y-73464548D01*
X135281103Y-73489534D01*
X135246367Y-73508101D01*
X135208674Y-73519535D01*
X135163339Y-73524000D01*
X134076661Y-73524000D01*
X134031326Y-73519535D01*
X133993633Y-73508101D01*
X133958897Y-73489534D01*
X133928452Y-73464548D01*
X133903466Y-73434103D01*
X133884899Y-73399367D01*
X133873465Y-73361674D01*
X133869000Y-73316339D01*
X133869000Y-72479661D01*
X133873465Y-72434326D01*
X133884899Y-72396633D01*
X133903466Y-72361897D01*
X133928452Y-72331452D01*
X133958897Y-72306466D01*
X133993633Y-72287899D01*
X134031326Y-72276465D01*
X134076661Y-72272000D01*
X135163339Y-72272000D01*
X135208674Y-72276465D01*
X135208674Y-72276465D01*
G37*
G36*
X88081000Y-72980000D02*
G01*
X87179000Y-72980000D01*
X87179000Y-72328000D01*
X88081000Y-72328000D01*
X88081000Y-72980000D01*
X88081000Y-72980000D01*
G37*
G36*
X96346674Y-71632465D02*
G01*
X96384367Y-71643899D01*
X96419103Y-71662466D01*
X96449548Y-71687452D01*
X96474534Y-71717897D01*
X96493101Y-71752633D01*
X96504535Y-71790326D01*
X96509000Y-71835661D01*
X96509000Y-72672339D01*
X96504535Y-72717674D01*
X96493101Y-72755367D01*
X96474534Y-72790103D01*
X96449548Y-72820548D01*
X96419103Y-72845534D01*
X96384367Y-72864101D01*
X96346674Y-72875535D01*
X96301339Y-72880000D01*
X95214661Y-72880000D01*
X95169326Y-72875535D01*
X95131633Y-72864101D01*
X95096897Y-72845534D01*
X95066452Y-72820548D01*
X95041466Y-72790103D01*
X95022899Y-72755367D01*
X95011465Y-72717674D01*
X95007000Y-72672339D01*
X95007000Y-71835661D01*
X95011465Y-71790326D01*
X95022899Y-71752633D01*
X95041466Y-71717897D01*
X95066452Y-71687452D01*
X95096897Y-71662466D01*
X95131633Y-71643899D01*
X95169326Y-71632465D01*
X95214661Y-71628000D01*
X96301339Y-71628000D01*
X96346674Y-71632465D01*
X96346674Y-71632465D01*
G37*
G36*
X90758674Y-71632465D02*
G01*
X90796367Y-71643899D01*
X90831103Y-71662466D01*
X90861548Y-71687452D01*
X90886534Y-71717897D01*
X90905101Y-71752633D01*
X90916535Y-71790326D01*
X90921000Y-71835661D01*
X90921000Y-72672339D01*
X90916535Y-72717674D01*
X90905101Y-72755367D01*
X90886534Y-72790103D01*
X90861548Y-72820548D01*
X90831103Y-72845534D01*
X90796367Y-72864101D01*
X90758674Y-72875535D01*
X90713339Y-72880000D01*
X89626661Y-72880000D01*
X89581326Y-72875535D01*
X89543633Y-72864101D01*
X89508897Y-72845534D01*
X89478452Y-72820548D01*
X89453466Y-72790103D01*
X89434899Y-72755367D01*
X89423465Y-72717674D01*
X89419000Y-72672339D01*
X89419000Y-71835661D01*
X89423465Y-71790326D01*
X89434899Y-71752633D01*
X89453466Y-71717897D01*
X89478452Y-71687452D01*
X89508897Y-71662466D01*
X89543633Y-71643899D01*
X89581326Y-71632465D01*
X89626661Y-71628000D01*
X90713339Y-71628000D01*
X90758674Y-71632465D01*
X90758674Y-71632465D01*
G37*
G36*
X93552674Y-71632465D02*
G01*
X93590367Y-71643899D01*
X93625103Y-71662466D01*
X93655548Y-71687452D01*
X93680534Y-71717897D01*
X93699101Y-71752633D01*
X93710535Y-71790326D01*
X93715000Y-71835661D01*
X93715000Y-72672339D01*
X93710535Y-72717674D01*
X93699101Y-72755367D01*
X93680534Y-72790103D01*
X93655548Y-72820548D01*
X93625103Y-72845534D01*
X93590367Y-72864101D01*
X93552674Y-72875535D01*
X93507339Y-72880000D01*
X92420661Y-72880000D01*
X92375326Y-72875535D01*
X92337633Y-72864101D01*
X92302897Y-72845534D01*
X92272452Y-72820548D01*
X92247466Y-72790103D01*
X92228899Y-72755367D01*
X92217465Y-72717674D01*
X92213000Y-72672339D01*
X92213000Y-71835661D01*
X92217465Y-71790326D01*
X92228899Y-71752633D01*
X92247466Y-71717897D01*
X92272452Y-71687452D01*
X92302897Y-71662466D01*
X92337633Y-71643899D01*
X92375326Y-71632465D01*
X92420661Y-71628000D01*
X93507339Y-71628000D01*
X93552674Y-71632465D01*
X93552674Y-71632465D01*
G37*
G36*
X135208674Y-70226465D02*
G01*
X135246367Y-70237899D01*
X135281103Y-70256466D01*
X135311548Y-70281452D01*
X135336534Y-70311897D01*
X135355101Y-70346633D01*
X135366535Y-70384326D01*
X135371000Y-70429661D01*
X135371000Y-71266339D01*
X135366535Y-71311674D01*
X135355101Y-71349367D01*
X135336534Y-71384103D01*
X135311548Y-71414548D01*
X135281103Y-71439534D01*
X135246367Y-71458101D01*
X135208674Y-71469535D01*
X135163339Y-71474000D01*
X134076661Y-71474000D01*
X134031326Y-71469535D01*
X133993633Y-71458101D01*
X133958897Y-71439534D01*
X133928452Y-71414548D01*
X133903466Y-71384103D01*
X133884899Y-71349367D01*
X133873465Y-71311674D01*
X133869000Y-71266339D01*
X133869000Y-70429661D01*
X133873465Y-70384326D01*
X133884899Y-70346633D01*
X133903466Y-70311897D01*
X133928452Y-70281452D01*
X133958897Y-70256466D01*
X133993633Y-70237899D01*
X134031326Y-70226465D01*
X134076661Y-70222000D01*
X135163339Y-70222000D01*
X135208674Y-70226465D01*
X135208674Y-70226465D01*
G37*
G36*
X109705331Y-67653211D02*
G01*
X110033092Y-67788974D01*
X110328070Y-67986072D01*
X110578928Y-68236930D01*
X110776026Y-68531908D01*
X110911789Y-68859669D01*
X110981000Y-69207616D01*
X110981000Y-69562384D01*
X110911789Y-69910331D01*
X110776026Y-70238092D01*
X110578928Y-70533070D01*
X110328070Y-70783928D01*
X110033092Y-70981026D01*
X109705331Y-71116789D01*
X109357384Y-71186000D01*
X109002616Y-71186000D01*
X108654669Y-71116789D01*
X108326908Y-70981026D01*
X108031930Y-70783928D01*
X107781072Y-70533070D01*
X107583974Y-70238092D01*
X107448211Y-69910331D01*
X107379000Y-69562384D01*
X107379000Y-69207616D01*
X107448211Y-68859669D01*
X107583974Y-68531908D01*
X107781072Y-68236930D01*
X108031930Y-67986072D01*
X108326908Y-67788974D01*
X108654669Y-67653211D01*
X109002616Y-67584000D01*
X109357384Y-67584000D01*
X109705331Y-67653211D01*
X109705331Y-67653211D01*
G37*
G36*
X79305331Y-67653211D02*
G01*
X79633092Y-67788974D01*
X79928070Y-67986072D01*
X80178928Y-68236930D01*
X80376026Y-68531908D01*
X80511789Y-68859669D01*
X80581000Y-69207616D01*
X80581000Y-69562384D01*
X80511789Y-69910331D01*
X80376026Y-70238092D01*
X80178928Y-70533070D01*
X79928070Y-70783928D01*
X79633092Y-70981026D01*
X79305331Y-71116789D01*
X78957384Y-71186000D01*
X78602616Y-71186000D01*
X78254669Y-71116789D01*
X77926908Y-70981026D01*
X77631930Y-70783928D01*
X77381072Y-70533070D01*
X77183974Y-70238092D01*
X77048211Y-69910331D01*
X76979000Y-69562384D01*
X76979000Y-69207616D01*
X77048211Y-68859669D01*
X77183974Y-68531908D01*
X77381072Y-68236930D01*
X77631930Y-67986072D01*
X77926908Y-67788974D01*
X78254669Y-67653211D01*
X78602616Y-67584000D01*
X78957384Y-67584000D01*
X79305331Y-67653211D01*
X79305331Y-67653211D01*
G37*
G36*
X172464487Y-67328996D02*
G01*
X172701253Y-67427068D01*
X172701255Y-67427069D01*
X172914339Y-67569447D01*
X173095553Y-67750661D01*
X173221942Y-67939815D01*
X173237932Y-67963747D01*
X173336004Y-68200513D01*
X173386000Y-68451861D01*
X173386000Y-68708139D01*
X173336004Y-68959487D01*
X173237932Y-69196253D01*
X173237931Y-69196255D01*
X173095553Y-69409339D01*
X172914339Y-69590553D01*
X172701255Y-69732931D01*
X172701254Y-69732932D01*
X172701253Y-69732932D01*
X172464487Y-69831004D01*
X172213139Y-69881000D01*
X171956861Y-69881000D01*
X171705513Y-69831004D01*
X171468747Y-69732932D01*
X171468746Y-69732932D01*
X171468745Y-69732931D01*
X171255661Y-69590553D01*
X171074447Y-69409339D01*
X170932069Y-69196255D01*
X170932068Y-69196253D01*
X170833996Y-68959487D01*
X170784000Y-68708139D01*
X170784000Y-68451861D01*
X170833996Y-68200513D01*
X170932068Y-67963747D01*
X170948059Y-67939815D01*
X171074447Y-67750661D01*
X171255661Y-67569447D01*
X171468745Y-67427069D01*
X171468747Y-67427068D01*
X171705513Y-67328996D01*
X171956861Y-67279000D01*
X172213139Y-67279000D01*
X172464487Y-67328996D01*
X172464487Y-67328996D01*
G37*
G36*
X142350443Y-67685519D02*
G01*
X142416627Y-67692037D01*
X142586466Y-67743557D01*
X142742991Y-67827222D01*
X142778729Y-67856552D01*
X142880186Y-67939814D01*
X142961310Y-68038665D01*
X142992778Y-68077009D01*
X143076443Y-68233534D01*
X143127963Y-68403373D01*
X143145359Y-68580000D01*
X143127963Y-68756627D01*
X143076443Y-68926466D01*
X142992778Y-69082991D01*
X142963448Y-69118729D01*
X142880186Y-69220186D01*
X142778729Y-69303448D01*
X142742991Y-69332778D01*
X142586466Y-69416443D01*
X142416627Y-69467963D01*
X142350442Y-69474482D01*
X142284260Y-69481000D01*
X142195740Y-69481000D01*
X142129558Y-69474482D01*
X142063373Y-69467963D01*
X141893534Y-69416443D01*
X141737009Y-69332778D01*
X141701271Y-69303448D01*
X141599814Y-69220186D01*
X141516552Y-69118729D01*
X141487222Y-69082991D01*
X141403557Y-68926466D01*
X141352037Y-68756627D01*
X141334641Y-68580000D01*
X141352037Y-68403373D01*
X141403557Y-68233534D01*
X141487222Y-68077009D01*
X141518690Y-68038665D01*
X141599814Y-67939814D01*
X141701271Y-67856552D01*
X141737009Y-67827222D01*
X141893534Y-67743557D01*
X142063373Y-67692037D01*
X142129557Y-67685519D01*
X142195740Y-67679000D01*
X142284260Y-67679000D01*
X142350443Y-67685519D01*
X142350443Y-67685519D01*
G37*
G36*
X124091000Y-69481000D02*
G01*
X122289000Y-69481000D01*
X122289000Y-67679000D01*
X124091000Y-67679000D01*
X124091000Y-69481000D01*
X124091000Y-69481000D01*
G37*
G36*
X125840443Y-67685519D02*
G01*
X125906627Y-67692037D01*
X126076466Y-67743557D01*
X126232991Y-67827222D01*
X126268729Y-67856552D01*
X126370186Y-67939814D01*
X126451310Y-68038665D01*
X126482778Y-68077009D01*
X126566443Y-68233534D01*
X126617963Y-68403373D01*
X126635359Y-68580000D01*
X126617963Y-68756627D01*
X126566443Y-68926466D01*
X126482778Y-69082991D01*
X126453448Y-69118729D01*
X126370186Y-69220186D01*
X126268729Y-69303448D01*
X126232991Y-69332778D01*
X126076466Y-69416443D01*
X125906627Y-69467963D01*
X125840442Y-69474482D01*
X125774260Y-69481000D01*
X125685740Y-69481000D01*
X125619558Y-69474482D01*
X125553373Y-69467963D01*
X125383534Y-69416443D01*
X125227009Y-69332778D01*
X125191271Y-69303448D01*
X125089814Y-69220186D01*
X125006552Y-69118729D01*
X124977222Y-69082991D01*
X124893557Y-68926466D01*
X124842037Y-68756627D01*
X124824641Y-68580000D01*
X124842037Y-68403373D01*
X124893557Y-68233534D01*
X124977222Y-68077009D01*
X125008690Y-68038665D01*
X125089814Y-67939814D01*
X125191271Y-67856552D01*
X125227009Y-67827222D01*
X125383534Y-67743557D01*
X125553373Y-67692037D01*
X125619557Y-67685519D01*
X125685740Y-67679000D01*
X125774260Y-67679000D01*
X125840443Y-67685519D01*
X125840443Y-67685519D01*
G37*
G36*
X128380443Y-67685519D02*
G01*
X128446627Y-67692037D01*
X128616466Y-67743557D01*
X128772991Y-67827222D01*
X128808729Y-67856552D01*
X128910186Y-67939814D01*
X128991310Y-68038665D01*
X129022778Y-68077009D01*
X129106443Y-68233534D01*
X129157963Y-68403373D01*
X129175359Y-68580000D01*
X129157963Y-68756627D01*
X129106443Y-68926466D01*
X129022778Y-69082991D01*
X128993448Y-69118729D01*
X128910186Y-69220186D01*
X128808729Y-69303448D01*
X128772991Y-69332778D01*
X128616466Y-69416443D01*
X128446627Y-69467963D01*
X128380442Y-69474482D01*
X128314260Y-69481000D01*
X128225740Y-69481000D01*
X128159558Y-69474482D01*
X128093373Y-69467963D01*
X127923534Y-69416443D01*
X127767009Y-69332778D01*
X127731271Y-69303448D01*
X127629814Y-69220186D01*
X127546552Y-69118729D01*
X127517222Y-69082991D01*
X127433557Y-68926466D01*
X127382037Y-68756627D01*
X127364641Y-68580000D01*
X127382037Y-68403373D01*
X127433557Y-68233534D01*
X127517222Y-68077009D01*
X127548690Y-68038665D01*
X127629814Y-67939814D01*
X127731271Y-67856552D01*
X127767009Y-67827222D01*
X127923534Y-67743557D01*
X128093373Y-67692037D01*
X128159557Y-67685519D01*
X128225740Y-67679000D01*
X128314260Y-67679000D01*
X128380443Y-67685519D01*
X128380443Y-67685519D01*
G37*
G36*
X130920443Y-67685519D02*
G01*
X130986627Y-67692037D01*
X131156466Y-67743557D01*
X131312991Y-67827222D01*
X131348729Y-67856552D01*
X131450186Y-67939814D01*
X131531310Y-68038665D01*
X131562778Y-68077009D01*
X131646443Y-68233534D01*
X131697963Y-68403373D01*
X131715359Y-68580000D01*
X131697963Y-68756627D01*
X131646443Y-68926466D01*
X131562778Y-69082991D01*
X131533448Y-69118729D01*
X131450186Y-69220186D01*
X131348729Y-69303448D01*
X131312991Y-69332778D01*
X131156466Y-69416443D01*
X130986627Y-69467963D01*
X130920442Y-69474482D01*
X130854260Y-69481000D01*
X130765740Y-69481000D01*
X130699558Y-69474482D01*
X130633373Y-69467963D01*
X130463534Y-69416443D01*
X130307009Y-69332778D01*
X130271271Y-69303448D01*
X130169814Y-69220186D01*
X130086552Y-69118729D01*
X130057222Y-69082991D01*
X129973557Y-68926466D01*
X129922037Y-68756627D01*
X129904641Y-68580000D01*
X129922037Y-68403373D01*
X129973557Y-68233534D01*
X130057222Y-68077009D01*
X130088690Y-68038665D01*
X130169814Y-67939814D01*
X130271271Y-67856552D01*
X130307009Y-67827222D01*
X130463534Y-67743557D01*
X130633373Y-67692037D01*
X130699557Y-67685519D01*
X130765740Y-67679000D01*
X130854260Y-67679000D01*
X130920443Y-67685519D01*
X130920443Y-67685519D01*
G37*
G36*
X135521000Y-69481000D02*
G01*
X133719000Y-69481000D01*
X133719000Y-67679000D01*
X135521000Y-67679000D01*
X135521000Y-69481000D01*
X135521000Y-69481000D01*
G37*
G36*
X137270443Y-67685519D02*
G01*
X137336627Y-67692037D01*
X137506466Y-67743557D01*
X137662991Y-67827222D01*
X137698729Y-67856552D01*
X137800186Y-67939814D01*
X137881310Y-68038665D01*
X137912778Y-68077009D01*
X137996443Y-68233534D01*
X138047963Y-68403373D01*
X138065359Y-68580000D01*
X138047963Y-68756627D01*
X137996443Y-68926466D01*
X137912778Y-69082991D01*
X137883448Y-69118729D01*
X137800186Y-69220186D01*
X137698729Y-69303448D01*
X137662991Y-69332778D01*
X137506466Y-69416443D01*
X137336627Y-69467963D01*
X137270442Y-69474482D01*
X137204260Y-69481000D01*
X137115740Y-69481000D01*
X137049558Y-69474482D01*
X136983373Y-69467963D01*
X136813534Y-69416443D01*
X136657009Y-69332778D01*
X136621271Y-69303448D01*
X136519814Y-69220186D01*
X136436552Y-69118729D01*
X136407222Y-69082991D01*
X136323557Y-68926466D01*
X136272037Y-68756627D01*
X136254641Y-68580000D01*
X136272037Y-68403373D01*
X136323557Y-68233534D01*
X136407222Y-68077009D01*
X136438690Y-68038665D01*
X136519814Y-67939814D01*
X136621271Y-67856552D01*
X136657009Y-67827222D01*
X136813534Y-67743557D01*
X136983373Y-67692037D01*
X137049557Y-67685519D01*
X137115740Y-67679000D01*
X137204260Y-67679000D01*
X137270443Y-67685519D01*
X137270443Y-67685519D01*
G37*
G36*
X139810443Y-67685519D02*
G01*
X139876627Y-67692037D01*
X140046466Y-67743557D01*
X140202991Y-67827222D01*
X140238729Y-67856552D01*
X140340186Y-67939814D01*
X140421310Y-68038665D01*
X140452778Y-68077009D01*
X140536443Y-68233534D01*
X140587963Y-68403373D01*
X140605359Y-68580000D01*
X140587963Y-68756627D01*
X140536443Y-68926466D01*
X140452778Y-69082991D01*
X140423448Y-69118729D01*
X140340186Y-69220186D01*
X140238729Y-69303448D01*
X140202991Y-69332778D01*
X140046466Y-69416443D01*
X139876627Y-69467963D01*
X139810442Y-69474482D01*
X139744260Y-69481000D01*
X139655740Y-69481000D01*
X139589558Y-69474482D01*
X139523373Y-69467963D01*
X139353534Y-69416443D01*
X139197009Y-69332778D01*
X139161271Y-69303448D01*
X139059814Y-69220186D01*
X138976552Y-69118729D01*
X138947222Y-69082991D01*
X138863557Y-68926466D01*
X138812037Y-68756627D01*
X138794641Y-68580000D01*
X138812037Y-68403373D01*
X138863557Y-68233534D01*
X138947222Y-68077009D01*
X138978690Y-68038665D01*
X139059814Y-67939814D01*
X139161271Y-67856552D01*
X139197009Y-67827222D01*
X139353534Y-67743557D01*
X139523373Y-67692037D01*
X139589557Y-67685519D01*
X139655740Y-67679000D01*
X139744260Y-67679000D01*
X139810443Y-67685519D01*
X139810443Y-67685519D01*
G37*
G36*
X95527395Y-67030546D02*
G01*
X95700466Y-67102234D01*
X95700467Y-67102235D01*
X95856227Y-67206310D01*
X95988690Y-67338773D01*
X95988691Y-67338775D01*
X96092766Y-67494534D01*
X96164454Y-67667605D01*
X96201000Y-67851333D01*
X96201000Y-68038667D01*
X96164454Y-68222395D01*
X96092766Y-68395466D01*
X96087481Y-68403375D01*
X95988690Y-68551227D01*
X95856227Y-68683690D01*
X95819639Y-68708137D01*
X95700466Y-68787766D01*
X95527395Y-68859454D01*
X95343667Y-68896000D01*
X95156333Y-68896000D01*
X94972605Y-68859454D01*
X94799534Y-68787766D01*
X94680361Y-68708137D01*
X94643773Y-68683690D01*
X94511310Y-68551227D01*
X94412519Y-68403375D01*
X94407234Y-68395466D01*
X94335546Y-68222395D01*
X94299000Y-68038667D01*
X94299000Y-67851333D01*
X94335546Y-67667605D01*
X94407234Y-67494534D01*
X94511309Y-67338775D01*
X94511310Y-67338773D01*
X94643773Y-67206310D01*
X94799533Y-67102235D01*
X94799534Y-67102234D01*
X94972605Y-67030546D01*
X95156333Y-66994000D01*
X95343667Y-66994000D01*
X95527395Y-67030546D01*
X95527395Y-67030546D01*
G37*
G36*
X92987395Y-67030546D02*
G01*
X93160466Y-67102234D01*
X93160467Y-67102235D01*
X93316227Y-67206310D01*
X93448690Y-67338773D01*
X93448691Y-67338775D01*
X93552766Y-67494534D01*
X93624454Y-67667605D01*
X93661000Y-67851333D01*
X93661000Y-68038667D01*
X93624454Y-68222395D01*
X93552766Y-68395466D01*
X93547481Y-68403375D01*
X93448690Y-68551227D01*
X93316227Y-68683690D01*
X93279639Y-68708137D01*
X93160466Y-68787766D01*
X92987395Y-68859454D01*
X92803667Y-68896000D01*
X92616333Y-68896000D01*
X92432605Y-68859454D01*
X92259534Y-68787766D01*
X92140361Y-68708137D01*
X92103773Y-68683690D01*
X91971310Y-68551227D01*
X91872519Y-68403375D01*
X91867234Y-68395466D01*
X91795546Y-68222395D01*
X91759000Y-68038667D01*
X91759000Y-67851333D01*
X91795546Y-67667605D01*
X91867234Y-67494534D01*
X91971309Y-67338775D01*
X91971310Y-67338773D01*
X92103773Y-67206310D01*
X92259533Y-67102235D01*
X92259534Y-67102234D01*
X92432605Y-67030546D01*
X92616333Y-66994000D01*
X92803667Y-66994000D01*
X92987395Y-67030546D01*
X92987395Y-67030546D01*
G37*
G36*
X98067395Y-67030546D02*
G01*
X98240466Y-67102234D01*
X98240467Y-67102235D01*
X98396227Y-67206310D01*
X98528690Y-67338773D01*
X98528691Y-67338775D01*
X98632766Y-67494534D01*
X98704454Y-67667605D01*
X98741000Y-67851333D01*
X98741000Y-68038667D01*
X98704454Y-68222395D01*
X98632766Y-68395466D01*
X98627481Y-68403375D01*
X98528690Y-68551227D01*
X98396227Y-68683690D01*
X98359639Y-68708137D01*
X98240466Y-68787766D01*
X98067395Y-68859454D01*
X97883667Y-68896000D01*
X97696333Y-68896000D01*
X97512605Y-68859454D01*
X97339534Y-68787766D01*
X97220361Y-68708137D01*
X97183773Y-68683690D01*
X97051310Y-68551227D01*
X96952519Y-68403375D01*
X96947234Y-68395466D01*
X96875546Y-68222395D01*
X96839000Y-68038667D01*
X96839000Y-67851333D01*
X96875546Y-67667605D01*
X96947234Y-67494534D01*
X97051309Y-67338775D01*
X97051310Y-67338773D01*
X97183773Y-67206310D01*
X97339533Y-67102235D01*
X97339534Y-67102234D01*
X97512605Y-67030546D01*
X97696333Y-66994000D01*
X97883667Y-66994000D01*
X98067395Y-67030546D01*
X98067395Y-67030546D01*
G37*
G36*
X90447395Y-67030546D02*
G01*
X90620466Y-67102234D01*
X90620467Y-67102235D01*
X90776227Y-67206310D01*
X90908690Y-67338773D01*
X90908691Y-67338775D01*
X91012766Y-67494534D01*
X91084454Y-67667605D01*
X91121000Y-67851333D01*
X91121000Y-68038667D01*
X91084454Y-68222395D01*
X91012766Y-68395466D01*
X91007481Y-68403375D01*
X90908690Y-68551227D01*
X90776227Y-68683690D01*
X90739639Y-68708137D01*
X90620466Y-68787766D01*
X90447395Y-68859454D01*
X90263667Y-68896000D01*
X90076333Y-68896000D01*
X89892605Y-68859454D01*
X89719534Y-68787766D01*
X89600361Y-68708137D01*
X89563773Y-68683690D01*
X89431310Y-68551227D01*
X89332519Y-68403375D01*
X89327234Y-68395466D01*
X89255546Y-68222395D01*
X89219000Y-68038667D01*
X89219000Y-67851333D01*
X89255546Y-67667605D01*
X89327234Y-67494534D01*
X89431309Y-67338775D01*
X89431310Y-67338773D01*
X89563773Y-67206310D01*
X89719533Y-67102235D01*
X89719534Y-67102234D01*
X89892605Y-67030546D01*
X90076333Y-66994000D01*
X90263667Y-66994000D01*
X90447395Y-67030546D01*
X90447395Y-67030546D01*
G37*
M02*
