G04 #@! TF.GenerationSoftware,KiCad,Pcbnew,(5.1.0-rc2-41-g6b3e9b0ed)*
G04 #@! TF.CreationDate,2021-09-28T16:44:10+02:00*
G04 #@! TF.ProjectId,styro_control,73747972-6f5f-4636-9f6e-74726f6c2e6b,rev?*
G04 #@! TF.SameCoordinates,Original*
G04 #@! TF.FileFunction,Soldermask,Bot*
G04 #@! TF.FilePolarity,Negative*
%FSLAX46Y46*%
G04 Gerber Fmt 4.6, Leading zero omitted, Abs format (unit mm)*
G04 Created by KiCad (PCBNEW (5.1.0-rc2-41-g6b3e9b0ed)) date 2021-09-28 16:44:10*
%MOMM*%
%LPD*%
G04 APERTURE LIST*
%ADD10C,0.100000*%
G04 APERTURE END LIST*
D10*
G36*
X138663642Y-117288781D02*
G01*
X138809414Y-117349162D01*
X138809416Y-117349163D01*
X138940608Y-117436822D01*
X139052178Y-117548392D01*
X139088757Y-117603137D01*
X139139838Y-117679586D01*
X139200219Y-117825358D01*
X139231000Y-117980107D01*
X139231000Y-118137893D01*
X139200219Y-118292642D01*
X139139838Y-118438414D01*
X139139837Y-118438416D01*
X139052178Y-118569608D01*
X138940608Y-118681178D01*
X138809416Y-118768837D01*
X138809415Y-118768838D01*
X138809414Y-118768838D01*
X138663642Y-118829219D01*
X138508893Y-118860000D01*
X138351107Y-118860000D01*
X138196358Y-118829219D01*
X138050586Y-118768838D01*
X138050585Y-118768838D01*
X138050584Y-118768837D01*
X137919392Y-118681178D01*
X137807822Y-118569608D01*
X137720163Y-118438416D01*
X137720162Y-118438414D01*
X137659781Y-118292642D01*
X137629000Y-118137893D01*
X137629000Y-117980107D01*
X137659781Y-117825358D01*
X137720162Y-117679586D01*
X137771243Y-117603137D01*
X137807822Y-117548392D01*
X137919392Y-117436822D01*
X138050584Y-117349163D01*
X138050586Y-117349162D01*
X138196358Y-117288781D01*
X138351107Y-117258000D01*
X138508893Y-117258000D01*
X138663642Y-117288781D01*
X138663642Y-117288781D01*
G37*
G36*
X77214487Y-116223996D02*
G01*
X77451253Y-116322068D01*
X77451255Y-116322069D01*
X77664339Y-116464447D01*
X77845553Y-116645661D01*
X77987932Y-116858747D01*
X78086004Y-117095513D01*
X78136000Y-117346861D01*
X78136000Y-117603139D01*
X78086004Y-117854487D01*
X78033970Y-117980107D01*
X77987931Y-118091255D01*
X77845553Y-118304339D01*
X77664339Y-118485553D01*
X77451255Y-118627931D01*
X77451254Y-118627932D01*
X77451253Y-118627932D01*
X77214487Y-118726004D01*
X76963139Y-118776000D01*
X76706861Y-118776000D01*
X76455513Y-118726004D01*
X76218747Y-118627932D01*
X76218746Y-118627932D01*
X76218745Y-118627931D01*
X76005661Y-118485553D01*
X75824447Y-118304339D01*
X75682069Y-118091255D01*
X75636030Y-117980107D01*
X75583996Y-117854487D01*
X75534000Y-117603139D01*
X75534000Y-117346861D01*
X75583996Y-117095513D01*
X75682068Y-116858747D01*
X75824447Y-116645661D01*
X76005661Y-116464447D01*
X76218745Y-116322069D01*
X76218747Y-116322068D01*
X76455513Y-116223996D01*
X76706861Y-116174000D01*
X76963139Y-116174000D01*
X77214487Y-116223996D01*
X77214487Y-116223996D01*
G37*
G36*
X172464487Y-116223996D02*
G01*
X172701253Y-116322068D01*
X172701255Y-116322069D01*
X172914339Y-116464447D01*
X173095553Y-116645661D01*
X173237932Y-116858747D01*
X173336004Y-117095513D01*
X173386000Y-117346861D01*
X173386000Y-117603139D01*
X173336004Y-117854487D01*
X173283970Y-117980107D01*
X173237931Y-118091255D01*
X173095553Y-118304339D01*
X172914339Y-118485553D01*
X172701255Y-118627931D01*
X172701254Y-118627932D01*
X172701253Y-118627932D01*
X172464487Y-118726004D01*
X172213139Y-118776000D01*
X171956861Y-118776000D01*
X171705513Y-118726004D01*
X171468747Y-118627932D01*
X171468746Y-118627932D01*
X171468745Y-118627931D01*
X171255661Y-118485553D01*
X171074447Y-118304339D01*
X170932069Y-118091255D01*
X170886030Y-117980107D01*
X170833996Y-117854487D01*
X170784000Y-117603139D01*
X170784000Y-117346861D01*
X170833996Y-117095513D01*
X170932068Y-116858747D01*
X171074447Y-116645661D01*
X171255661Y-116464447D01*
X171468745Y-116322069D01*
X171468747Y-116322068D01*
X171705513Y-116223996D01*
X171956861Y-116174000D01*
X172213139Y-116174000D01*
X172464487Y-116223996D01*
X172464487Y-116223996D01*
G37*
G36*
X126504000Y-117995000D02*
G01*
X124702000Y-117995000D01*
X124702000Y-116193000D01*
X126504000Y-116193000D01*
X126504000Y-117995000D01*
X126504000Y-117995000D01*
G37*
G36*
X118884000Y-117995000D02*
G01*
X117082000Y-117995000D01*
X117082000Y-116193000D01*
X118884000Y-116193000D01*
X118884000Y-117995000D01*
X118884000Y-117995000D01*
G37*
G36*
X122694000Y-117995000D02*
G01*
X120892000Y-117995000D01*
X120892000Y-116193000D01*
X122694000Y-116193000D01*
X122694000Y-117995000D01*
X122694000Y-117995000D01*
G37*
G36*
X125713442Y-113659518D02*
G01*
X125779627Y-113666037D01*
X125949466Y-113717557D01*
X126105991Y-113801222D01*
X126135441Y-113825391D01*
X126243186Y-113913814D01*
X126325637Y-114014282D01*
X126355778Y-114051009D01*
X126355779Y-114051011D01*
X126427666Y-114185500D01*
X126439443Y-114207534D01*
X126490963Y-114377373D01*
X126508359Y-114554000D01*
X126490963Y-114730627D01*
X126439443Y-114900466D01*
X126355778Y-115056991D01*
X126346171Y-115068697D01*
X126243186Y-115194186D01*
X126141729Y-115277448D01*
X126105991Y-115306778D01*
X125949466Y-115390443D01*
X125779627Y-115441963D01*
X125713442Y-115448482D01*
X125647260Y-115455000D01*
X125558740Y-115455000D01*
X125492558Y-115448482D01*
X125426373Y-115441963D01*
X125256534Y-115390443D01*
X125100009Y-115306778D01*
X125064271Y-115277448D01*
X124962814Y-115194186D01*
X124859829Y-115068697D01*
X124850222Y-115056991D01*
X124766557Y-114900466D01*
X124715037Y-114730627D01*
X124697641Y-114554000D01*
X124715037Y-114377373D01*
X124766557Y-114207534D01*
X124778335Y-114185500D01*
X124850221Y-114051011D01*
X124850222Y-114051009D01*
X124880363Y-114014282D01*
X124962814Y-113913814D01*
X125070559Y-113825391D01*
X125100009Y-113801222D01*
X125256534Y-113717557D01*
X125426373Y-113666037D01*
X125492558Y-113659518D01*
X125558740Y-113653000D01*
X125647260Y-113653000D01*
X125713442Y-113659518D01*
X125713442Y-113659518D01*
G37*
G36*
X121903442Y-113659518D02*
G01*
X121969627Y-113666037D01*
X122139466Y-113717557D01*
X122295991Y-113801222D01*
X122325441Y-113825391D01*
X122433186Y-113913814D01*
X122515637Y-114014282D01*
X122545778Y-114051009D01*
X122545779Y-114051011D01*
X122617666Y-114185500D01*
X122629443Y-114207534D01*
X122680963Y-114377373D01*
X122698359Y-114554000D01*
X122680963Y-114730627D01*
X122629443Y-114900466D01*
X122545778Y-115056991D01*
X122536171Y-115068697D01*
X122433186Y-115194186D01*
X122331729Y-115277448D01*
X122295991Y-115306778D01*
X122139466Y-115390443D01*
X121969627Y-115441963D01*
X121903442Y-115448482D01*
X121837260Y-115455000D01*
X121748740Y-115455000D01*
X121682558Y-115448482D01*
X121616373Y-115441963D01*
X121446534Y-115390443D01*
X121290009Y-115306778D01*
X121254271Y-115277448D01*
X121152814Y-115194186D01*
X121049829Y-115068697D01*
X121040222Y-115056991D01*
X120956557Y-114900466D01*
X120905037Y-114730627D01*
X120887641Y-114554000D01*
X120905037Y-114377373D01*
X120956557Y-114207534D01*
X120968335Y-114185500D01*
X121040221Y-114051011D01*
X121040222Y-114051009D01*
X121070363Y-114014282D01*
X121152814Y-113913814D01*
X121260559Y-113825391D01*
X121290009Y-113801222D01*
X121446534Y-113717557D01*
X121616373Y-113666037D01*
X121682558Y-113659518D01*
X121748740Y-113653000D01*
X121837260Y-113653000D01*
X121903442Y-113659518D01*
X121903442Y-113659518D01*
G37*
G36*
X118093442Y-113659518D02*
G01*
X118159627Y-113666037D01*
X118329466Y-113717557D01*
X118485991Y-113801222D01*
X118515441Y-113825391D01*
X118623186Y-113913814D01*
X118705637Y-114014282D01*
X118735778Y-114051009D01*
X118735779Y-114051011D01*
X118807666Y-114185500D01*
X118819443Y-114207534D01*
X118870963Y-114377373D01*
X118888359Y-114554000D01*
X118870963Y-114730627D01*
X118819443Y-114900466D01*
X118735778Y-115056991D01*
X118726171Y-115068697D01*
X118623186Y-115194186D01*
X118521729Y-115277448D01*
X118485991Y-115306778D01*
X118329466Y-115390443D01*
X118159627Y-115441963D01*
X118093442Y-115448482D01*
X118027260Y-115455000D01*
X117938740Y-115455000D01*
X117872558Y-115448482D01*
X117806373Y-115441963D01*
X117636534Y-115390443D01*
X117480009Y-115306778D01*
X117444271Y-115277448D01*
X117342814Y-115194186D01*
X117239829Y-115068697D01*
X117230222Y-115056991D01*
X117146557Y-114900466D01*
X117095037Y-114730627D01*
X117077641Y-114554000D01*
X117095037Y-114377373D01*
X117146557Y-114207534D01*
X117158335Y-114185500D01*
X117230221Y-114051011D01*
X117230222Y-114051009D01*
X117260363Y-114014282D01*
X117342814Y-113913814D01*
X117450559Y-113825391D01*
X117480009Y-113801222D01*
X117636534Y-113717557D01*
X117806373Y-113666037D01*
X117872558Y-113659518D01*
X117938740Y-113653000D01*
X118027260Y-113653000D01*
X118093442Y-113659518D01*
X118093442Y-113659518D01*
G37*
G36*
X130666442Y-113659518D02*
G01*
X130732627Y-113666037D01*
X130902466Y-113717557D01*
X131058991Y-113801222D01*
X131088441Y-113825391D01*
X131196186Y-113913814D01*
X131278637Y-114014282D01*
X131308778Y-114051009D01*
X131308779Y-114051011D01*
X131380666Y-114185500D01*
X131392443Y-114207534D01*
X131443963Y-114377373D01*
X131461359Y-114554000D01*
X131443963Y-114730627D01*
X131392443Y-114900466D01*
X131308778Y-115056991D01*
X131299171Y-115068697D01*
X131196186Y-115194186D01*
X131094729Y-115277448D01*
X131058991Y-115306778D01*
X130902466Y-115390443D01*
X130732627Y-115441963D01*
X130666442Y-115448482D01*
X130600260Y-115455000D01*
X130511740Y-115455000D01*
X130445558Y-115448482D01*
X130379373Y-115441963D01*
X130209534Y-115390443D01*
X130053009Y-115306778D01*
X130017271Y-115277448D01*
X129915814Y-115194186D01*
X129812829Y-115068697D01*
X129803222Y-115056991D01*
X129719557Y-114900466D01*
X129668037Y-114730627D01*
X129650641Y-114554000D01*
X129668037Y-114377373D01*
X129719557Y-114207534D01*
X129731335Y-114185500D01*
X129803221Y-114051011D01*
X129803222Y-114051009D01*
X129833363Y-114014282D01*
X129915814Y-113913814D01*
X130023559Y-113825391D01*
X130053009Y-113801222D01*
X130209534Y-113717557D01*
X130379373Y-113666037D01*
X130445558Y-113659518D01*
X130511740Y-113653000D01*
X130600260Y-113653000D01*
X130666442Y-113659518D01*
X130666442Y-113659518D01*
G37*
G36*
X82866366Y-111500695D02*
G01*
X83023460Y-111548349D01*
X83168231Y-111625731D01*
X83295128Y-111729872D01*
X83399269Y-111856769D01*
X83476651Y-112001540D01*
X83524305Y-112158634D01*
X83541000Y-112328140D01*
X83541000Y-114241860D01*
X83524305Y-114411366D01*
X83476651Y-114568460D01*
X83399269Y-114713231D01*
X83295128Y-114840128D01*
X83168231Y-114944269D01*
X83023460Y-115021651D01*
X82866366Y-115069305D01*
X82696860Y-115086000D01*
X80783140Y-115086000D01*
X80613634Y-115069305D01*
X80456540Y-115021651D01*
X80311769Y-114944269D01*
X80184872Y-114840128D01*
X80080731Y-114713231D01*
X80003349Y-114568460D01*
X79955695Y-114411366D01*
X79939000Y-114241860D01*
X79939000Y-112328140D01*
X79955695Y-112158634D01*
X80003349Y-112001540D01*
X80080731Y-111856769D01*
X80184872Y-111729872D01*
X80311769Y-111625731D01*
X80456540Y-111548349D01*
X80613634Y-111500695D01*
X80783140Y-111484000D01*
X82696860Y-111484000D01*
X82866366Y-111500695D01*
X82866366Y-111500695D01*
G37*
G36*
X169050072Y-111476918D02*
G01*
X169273847Y-111569608D01*
X169295939Y-111578759D01*
X169349918Y-111614827D01*
X169517211Y-111726609D01*
X169705391Y-111914789D01*
X169853242Y-112136063D01*
X169955082Y-112381928D01*
X170007000Y-112642937D01*
X170007000Y-112909063D01*
X169955082Y-113170072D01*
X169853242Y-113415937D01*
X169705391Y-113637211D01*
X169517211Y-113825391D01*
X169446447Y-113872674D01*
X169295939Y-113973241D01*
X169295938Y-113973242D01*
X169295937Y-113973242D01*
X169050072Y-114075082D01*
X168789063Y-114127000D01*
X168522937Y-114127000D01*
X168261928Y-114075082D01*
X168016063Y-113973242D01*
X168016062Y-113973242D01*
X168016061Y-113973241D01*
X167865553Y-113872674D01*
X167794789Y-113825391D01*
X167606609Y-113637211D01*
X167458758Y-113415937D01*
X167356918Y-113170072D01*
X167305000Y-112909063D01*
X167305000Y-112642937D01*
X167356918Y-112381928D01*
X167458758Y-112136063D01*
X167606609Y-111914789D01*
X167794789Y-111726609D01*
X167962082Y-111614827D01*
X168016061Y-111578759D01*
X168038154Y-111569608D01*
X168261928Y-111476918D01*
X168522937Y-111425000D01*
X168789063Y-111425000D01*
X169050072Y-111476918D01*
X169050072Y-111476918D01*
G37*
G36*
X165916820Y-112414103D02*
G01*
X165950985Y-112424467D01*
X165982464Y-112441293D01*
X166010060Y-112463940D01*
X166032707Y-112491536D01*
X166049533Y-112523015D01*
X166059897Y-112557180D01*
X166064000Y-112598842D01*
X166064000Y-113848158D01*
X166059897Y-113889820D01*
X166049533Y-113923985D01*
X166032707Y-113955464D01*
X166010060Y-113983060D01*
X165982464Y-114005707D01*
X165950985Y-114022533D01*
X165916820Y-114032897D01*
X165875158Y-114037000D01*
X162800842Y-114037000D01*
X162759180Y-114032897D01*
X162725015Y-114022533D01*
X162693536Y-114005707D01*
X162665940Y-113983060D01*
X162643293Y-113955464D01*
X162626467Y-113923985D01*
X162616103Y-113889820D01*
X162612000Y-113848158D01*
X162612000Y-112598842D01*
X162616103Y-112557180D01*
X162626467Y-112523015D01*
X162643293Y-112491536D01*
X162665940Y-112463940D01*
X162693536Y-112441293D01*
X162725015Y-112424467D01*
X162759180Y-112414103D01*
X162800842Y-112410000D01*
X165875158Y-112410000D01*
X165916820Y-112414103D01*
X165916820Y-112414103D01*
G37*
G36*
X161254674Y-112537465D02*
G01*
X161292367Y-112548899D01*
X161327103Y-112567466D01*
X161357548Y-112592452D01*
X161382534Y-112622897D01*
X161401101Y-112657633D01*
X161412535Y-112695326D01*
X161417000Y-112740661D01*
X161417000Y-113827339D01*
X161412535Y-113872674D01*
X161401101Y-113910367D01*
X161382534Y-113945103D01*
X161357548Y-113975548D01*
X161327103Y-114000534D01*
X161292367Y-114019101D01*
X161254674Y-114030535D01*
X161209339Y-114035000D01*
X160372661Y-114035000D01*
X160327326Y-114030535D01*
X160289633Y-114019101D01*
X160254897Y-114000534D01*
X160224452Y-113975548D01*
X160199466Y-113945103D01*
X160180899Y-113910367D01*
X160169465Y-113872674D01*
X160165000Y-113827339D01*
X160165000Y-112740661D01*
X160169465Y-112695326D01*
X160180899Y-112657633D01*
X160199466Y-112622897D01*
X160224452Y-112592452D01*
X160254897Y-112567466D01*
X160289633Y-112548899D01*
X160327326Y-112537465D01*
X160372661Y-112533000D01*
X161209339Y-112533000D01*
X161254674Y-112537465D01*
X161254674Y-112537465D01*
G37*
G36*
X159204674Y-112537465D02*
G01*
X159242367Y-112548899D01*
X159277103Y-112567466D01*
X159307548Y-112592452D01*
X159332534Y-112622897D01*
X159351101Y-112657633D01*
X159362535Y-112695326D01*
X159367000Y-112740661D01*
X159367000Y-113827339D01*
X159362535Y-113872674D01*
X159351101Y-113910367D01*
X159332534Y-113945103D01*
X159307548Y-113975548D01*
X159277103Y-114000534D01*
X159242367Y-114019101D01*
X159204674Y-114030535D01*
X159159339Y-114035000D01*
X158322661Y-114035000D01*
X158277326Y-114030535D01*
X158239633Y-114019101D01*
X158204897Y-114000534D01*
X158174452Y-113975548D01*
X158149466Y-113945103D01*
X158130899Y-113910367D01*
X158119465Y-113872674D01*
X158115000Y-113827339D01*
X158115000Y-112740661D01*
X158119465Y-112695326D01*
X158130899Y-112657633D01*
X158149466Y-112622897D01*
X158174452Y-112592452D01*
X158204897Y-112567466D01*
X158239633Y-112548899D01*
X158277326Y-112537465D01*
X158322661Y-112533000D01*
X159159339Y-112533000D01*
X159204674Y-112537465D01*
X159204674Y-112537465D01*
G37*
G36*
X118093443Y-111119519D02*
G01*
X118159627Y-111126037D01*
X118329466Y-111177557D01*
X118485991Y-111261222D01*
X118521729Y-111290552D01*
X118623186Y-111373814D01*
X118706448Y-111475271D01*
X118735778Y-111511009D01*
X118819443Y-111667534D01*
X118870963Y-111837373D01*
X118888359Y-112014000D01*
X118870963Y-112190627D01*
X118829249Y-112328140D01*
X118819442Y-112360468D01*
X118782114Y-112430303D01*
X118735778Y-112516991D01*
X118718975Y-112537465D01*
X118623186Y-112654186D01*
X118521729Y-112737448D01*
X118485991Y-112766778D01*
X118329466Y-112850443D01*
X118159627Y-112901963D01*
X118093442Y-112908482D01*
X118027260Y-112915000D01*
X117938740Y-112915000D01*
X117872558Y-112908482D01*
X117806373Y-112901963D01*
X117636534Y-112850443D01*
X117480009Y-112766778D01*
X117444271Y-112737448D01*
X117342814Y-112654186D01*
X117247025Y-112537465D01*
X117230222Y-112516991D01*
X117183886Y-112430303D01*
X117146558Y-112360468D01*
X117136751Y-112328140D01*
X117095037Y-112190627D01*
X117077641Y-112014000D01*
X117095037Y-111837373D01*
X117146557Y-111667534D01*
X117230222Y-111511009D01*
X117259552Y-111475271D01*
X117342814Y-111373814D01*
X117444271Y-111290552D01*
X117480009Y-111261222D01*
X117636534Y-111177557D01*
X117806373Y-111126037D01*
X117872557Y-111119519D01*
X117938740Y-111113000D01*
X118027260Y-111113000D01*
X118093443Y-111119519D01*
X118093443Y-111119519D01*
G37*
G36*
X121903443Y-111119519D02*
G01*
X121969627Y-111126037D01*
X122139466Y-111177557D01*
X122295991Y-111261222D01*
X122331729Y-111290552D01*
X122433186Y-111373814D01*
X122516448Y-111475271D01*
X122545778Y-111511009D01*
X122629443Y-111667534D01*
X122680963Y-111837373D01*
X122698359Y-112014000D01*
X122680963Y-112190627D01*
X122639249Y-112328140D01*
X122629442Y-112360468D01*
X122592114Y-112430303D01*
X122545778Y-112516991D01*
X122528975Y-112537465D01*
X122433186Y-112654186D01*
X122331729Y-112737448D01*
X122295991Y-112766778D01*
X122139466Y-112850443D01*
X121969627Y-112901963D01*
X121903442Y-112908482D01*
X121837260Y-112915000D01*
X121748740Y-112915000D01*
X121682558Y-112908482D01*
X121616373Y-112901963D01*
X121446534Y-112850443D01*
X121290009Y-112766778D01*
X121254271Y-112737448D01*
X121152814Y-112654186D01*
X121057025Y-112537465D01*
X121040222Y-112516991D01*
X120993886Y-112430303D01*
X120956558Y-112360468D01*
X120946751Y-112328140D01*
X120905037Y-112190627D01*
X120887641Y-112014000D01*
X120905037Y-111837373D01*
X120956557Y-111667534D01*
X121040222Y-111511009D01*
X121069552Y-111475271D01*
X121152814Y-111373814D01*
X121254271Y-111290552D01*
X121290009Y-111261222D01*
X121446534Y-111177557D01*
X121616373Y-111126037D01*
X121682557Y-111119519D01*
X121748740Y-111113000D01*
X121837260Y-111113000D01*
X121903443Y-111119519D01*
X121903443Y-111119519D01*
G37*
G36*
X125713443Y-111119519D02*
G01*
X125779627Y-111126037D01*
X125949466Y-111177557D01*
X126105991Y-111261222D01*
X126141729Y-111290552D01*
X126243186Y-111373814D01*
X126326448Y-111475271D01*
X126355778Y-111511009D01*
X126439443Y-111667534D01*
X126490963Y-111837373D01*
X126508359Y-112014000D01*
X126490963Y-112190627D01*
X126449249Y-112328140D01*
X126439442Y-112360468D01*
X126402114Y-112430303D01*
X126355778Y-112516991D01*
X126338975Y-112537465D01*
X126243186Y-112654186D01*
X126141729Y-112737448D01*
X126105991Y-112766778D01*
X125949466Y-112850443D01*
X125779627Y-112901963D01*
X125713442Y-112908482D01*
X125647260Y-112915000D01*
X125558740Y-112915000D01*
X125492558Y-112908482D01*
X125426373Y-112901963D01*
X125256534Y-112850443D01*
X125100009Y-112766778D01*
X125064271Y-112737448D01*
X124962814Y-112654186D01*
X124867025Y-112537465D01*
X124850222Y-112516991D01*
X124803886Y-112430303D01*
X124766558Y-112360468D01*
X124756751Y-112328140D01*
X124715037Y-112190627D01*
X124697641Y-112014000D01*
X124715037Y-111837373D01*
X124766557Y-111667534D01*
X124850222Y-111511009D01*
X124879552Y-111475271D01*
X124962814Y-111373814D01*
X125064271Y-111290552D01*
X125100009Y-111261222D01*
X125256534Y-111177557D01*
X125426373Y-111126037D01*
X125492557Y-111119519D01*
X125558740Y-111113000D01*
X125647260Y-111113000D01*
X125713443Y-111119519D01*
X125713443Y-111119519D01*
G37*
G36*
X131457000Y-112915000D02*
G01*
X129655000Y-112915000D01*
X129655000Y-111113000D01*
X131457000Y-111113000D01*
X131457000Y-112915000D01*
X131457000Y-112915000D01*
G37*
G36*
X157306674Y-110639465D02*
G01*
X157344367Y-110650899D01*
X157379103Y-110669466D01*
X157409548Y-110694452D01*
X157434534Y-110724897D01*
X157453101Y-110759633D01*
X157464535Y-110797326D01*
X157469000Y-110842661D01*
X157469000Y-111679339D01*
X157464535Y-111724674D01*
X157453101Y-111762367D01*
X157434534Y-111797103D01*
X157409548Y-111827548D01*
X157379103Y-111852534D01*
X157344367Y-111871101D01*
X157306674Y-111882535D01*
X157261339Y-111887000D01*
X156174661Y-111887000D01*
X156129326Y-111882535D01*
X156091633Y-111871101D01*
X156056897Y-111852534D01*
X156026452Y-111827548D01*
X156001466Y-111797103D01*
X155982899Y-111762367D01*
X155971465Y-111724674D01*
X155967000Y-111679339D01*
X155967000Y-110842661D01*
X155971465Y-110797326D01*
X155982899Y-110759633D01*
X156001466Y-110724897D01*
X156026452Y-110694452D01*
X156056897Y-110669466D01*
X156091633Y-110650899D01*
X156129326Y-110639465D01*
X156174661Y-110635000D01*
X157261339Y-110635000D01*
X157306674Y-110639465D01*
X157306674Y-110639465D01*
G37*
G36*
X138663642Y-110288781D02*
G01*
X138809414Y-110349162D01*
X138809416Y-110349163D01*
X138940608Y-110436822D01*
X139052178Y-110548392D01*
X139120670Y-110650899D01*
X139139838Y-110679586D01*
X139200219Y-110825358D01*
X139231000Y-110980107D01*
X139231000Y-111137893D01*
X139200219Y-111292642D01*
X139166596Y-111373814D01*
X139139837Y-111438416D01*
X139052178Y-111569608D01*
X138940608Y-111681178D01*
X138809416Y-111768837D01*
X138809415Y-111768838D01*
X138809414Y-111768838D01*
X138663642Y-111829219D01*
X138508893Y-111860000D01*
X138351107Y-111860000D01*
X138196358Y-111829219D01*
X138050586Y-111768838D01*
X138050585Y-111768838D01*
X138050584Y-111768837D01*
X137919392Y-111681178D01*
X137807822Y-111569608D01*
X137720163Y-111438416D01*
X137693404Y-111373814D01*
X137659781Y-111292642D01*
X137629000Y-111137893D01*
X137629000Y-110980107D01*
X137659781Y-110825358D01*
X137720162Y-110679586D01*
X137739330Y-110650899D01*
X137807822Y-110548392D01*
X137919392Y-110436822D01*
X138050584Y-110349163D01*
X138050586Y-110349162D01*
X138196358Y-110288781D01*
X138351107Y-110258000D01*
X138508893Y-110258000D01*
X138663642Y-110288781D01*
X138663642Y-110288781D01*
G37*
G36*
X86541000Y-110386000D02*
G01*
X82939000Y-110386000D01*
X82939000Y-106784000D01*
X86541000Y-106784000D01*
X86541000Y-110386000D01*
X86541000Y-110386000D01*
G37*
G36*
X79716979Y-106798293D02*
G01*
X79850625Y-106838834D01*
X79973784Y-106904664D01*
X80081740Y-106993260D01*
X80170336Y-107101216D01*
X80236166Y-107224375D01*
X80276707Y-107358021D01*
X80291000Y-107503140D01*
X80291000Y-109666860D01*
X80276707Y-109811979D01*
X80236166Y-109945625D01*
X80170336Y-110068784D01*
X80081740Y-110176740D01*
X79973784Y-110265336D01*
X79850625Y-110331166D01*
X79716979Y-110371707D01*
X79571860Y-110386000D01*
X77908140Y-110386000D01*
X77763021Y-110371707D01*
X77629375Y-110331166D01*
X77506216Y-110265336D01*
X77398260Y-110176740D01*
X77309664Y-110068784D01*
X77243834Y-109945625D01*
X77203293Y-109811979D01*
X77189000Y-109666860D01*
X77189000Y-107503140D01*
X77203293Y-107358021D01*
X77243834Y-107224375D01*
X77309664Y-107101216D01*
X77398260Y-106993260D01*
X77506216Y-106904664D01*
X77629375Y-106838834D01*
X77763021Y-106798293D01*
X77908140Y-106784000D01*
X79571860Y-106784000D01*
X79716979Y-106798293D01*
X79716979Y-106798293D01*
G37*
G36*
X157306674Y-108589465D02*
G01*
X157344367Y-108600899D01*
X157379103Y-108619466D01*
X157409548Y-108644452D01*
X157434534Y-108674897D01*
X157453101Y-108709633D01*
X157464535Y-108747326D01*
X157469000Y-108792661D01*
X157469000Y-109629339D01*
X157464535Y-109674674D01*
X157453101Y-109712367D01*
X157434534Y-109747103D01*
X157409548Y-109777548D01*
X157379103Y-109802534D01*
X157344367Y-109821101D01*
X157306674Y-109832535D01*
X157261339Y-109837000D01*
X156174661Y-109837000D01*
X156129326Y-109832535D01*
X156091633Y-109821101D01*
X156056897Y-109802534D01*
X156026452Y-109777548D01*
X156001466Y-109747103D01*
X155982899Y-109712367D01*
X155971465Y-109674674D01*
X155967000Y-109629339D01*
X155967000Y-108792661D01*
X155971465Y-108747326D01*
X155982899Y-108709633D01*
X156001466Y-108674897D01*
X156026452Y-108644452D01*
X156056897Y-108619466D01*
X156091633Y-108600899D01*
X156129326Y-108589465D01*
X156174661Y-108585000D01*
X157261339Y-108585000D01*
X157306674Y-108589465D01*
X157306674Y-108589465D01*
G37*
G36*
X124990153Y-106775922D02*
G01*
X125082194Y-106814047D01*
X125212359Y-106867963D01*
X125412342Y-107001587D01*
X125582413Y-107171658D01*
X125716037Y-107371641D01*
X125808078Y-107593848D01*
X125855000Y-107829741D01*
X125855000Y-108070259D01*
X125808078Y-108306152D01*
X125716037Y-108528359D01*
X125582413Y-108728342D01*
X125412342Y-108898413D01*
X125212359Y-109032037D01*
X125082194Y-109085953D01*
X124990153Y-109124078D01*
X124754259Y-109171000D01*
X124513741Y-109171000D01*
X124277847Y-109124078D01*
X124185806Y-109085953D01*
X124055641Y-109032037D01*
X123855658Y-108898413D01*
X123685587Y-108728342D01*
X123551963Y-108528359D01*
X123459922Y-108306152D01*
X123413000Y-108070259D01*
X123413000Y-107829741D01*
X123459922Y-107593848D01*
X123551963Y-107371641D01*
X123685587Y-107171658D01*
X123855658Y-107001587D01*
X124055641Y-106867963D01*
X124185806Y-106814047D01*
X124277847Y-106775922D01*
X124513741Y-106729000D01*
X124754259Y-106729000D01*
X124990153Y-106775922D01*
X124990153Y-106775922D01*
G37*
G36*
X119990153Y-106775922D02*
G01*
X120082194Y-106814047D01*
X120212359Y-106867963D01*
X120412342Y-107001587D01*
X120582413Y-107171658D01*
X120716037Y-107371641D01*
X120808078Y-107593848D01*
X120855000Y-107829741D01*
X120855000Y-108070259D01*
X120808078Y-108306152D01*
X120716037Y-108528359D01*
X120582413Y-108728342D01*
X120412342Y-108898413D01*
X120212359Y-109032037D01*
X120082194Y-109085953D01*
X119990153Y-109124078D01*
X119754259Y-109171000D01*
X119513741Y-109171000D01*
X119277847Y-109124078D01*
X119185806Y-109085953D01*
X119055641Y-109032037D01*
X118855658Y-108898413D01*
X118685587Y-108728342D01*
X118551963Y-108528359D01*
X118459922Y-108306152D01*
X118413000Y-108070259D01*
X118413000Y-107829741D01*
X118459922Y-107593848D01*
X118551963Y-107371641D01*
X118685587Y-107171658D01*
X118855658Y-107001587D01*
X119055641Y-106867963D01*
X119185806Y-106814047D01*
X119277847Y-106775922D01*
X119513741Y-106729000D01*
X119754259Y-106729000D01*
X119990153Y-106775922D01*
X119990153Y-106775922D01*
G37*
G36*
X170007000Y-109047000D02*
G01*
X167305000Y-109047000D01*
X167305000Y-106345000D01*
X170007000Y-106345000D01*
X170007000Y-109047000D01*
X170007000Y-109047000D01*
G37*
G36*
X165916820Y-106439103D02*
G01*
X165950985Y-106449467D01*
X165982464Y-106466293D01*
X166010060Y-106488940D01*
X166032707Y-106516536D01*
X166049533Y-106548015D01*
X166059897Y-106582180D01*
X166064000Y-106623842D01*
X166064000Y-107873158D01*
X166059897Y-107914820D01*
X166049533Y-107948985D01*
X166032707Y-107980464D01*
X166010060Y-108008060D01*
X165982464Y-108030707D01*
X165950985Y-108047533D01*
X165916820Y-108057897D01*
X165875158Y-108062000D01*
X162800842Y-108062000D01*
X162759180Y-108057897D01*
X162725015Y-108047533D01*
X162693536Y-108030707D01*
X162665940Y-108008060D01*
X162643293Y-107980464D01*
X162626467Y-107948985D01*
X162616103Y-107914820D01*
X162612000Y-107873158D01*
X162612000Y-106623842D01*
X162616103Y-106582180D01*
X162626467Y-106548015D01*
X162643293Y-106516536D01*
X162665940Y-106488940D01*
X162693536Y-106466293D01*
X162725015Y-106449467D01*
X162759180Y-106439103D01*
X162800842Y-106435000D01*
X165875158Y-106435000D01*
X165916820Y-106439103D01*
X165916820Y-106439103D01*
G37*
G36*
X159195674Y-106441465D02*
G01*
X159233367Y-106452899D01*
X159268103Y-106471466D01*
X159298548Y-106496452D01*
X159323534Y-106526897D01*
X159342101Y-106561633D01*
X159353535Y-106599326D01*
X159358000Y-106644661D01*
X159358000Y-107731339D01*
X159353535Y-107776674D01*
X159342101Y-107814367D01*
X159323534Y-107849103D01*
X159298548Y-107879548D01*
X159268103Y-107904534D01*
X159233367Y-107923101D01*
X159195674Y-107934535D01*
X159150339Y-107939000D01*
X158313661Y-107939000D01*
X158268326Y-107934535D01*
X158230633Y-107923101D01*
X158195897Y-107904534D01*
X158165452Y-107879548D01*
X158140466Y-107849103D01*
X158121899Y-107814367D01*
X158110465Y-107776674D01*
X158106000Y-107731339D01*
X158106000Y-106644661D01*
X158110465Y-106599326D01*
X158121899Y-106561633D01*
X158140466Y-106526897D01*
X158165452Y-106496452D01*
X158195897Y-106471466D01*
X158230633Y-106452899D01*
X158268326Y-106441465D01*
X158313661Y-106437000D01*
X159150339Y-106437000D01*
X159195674Y-106441465D01*
X159195674Y-106441465D01*
G37*
G36*
X161245674Y-106441465D02*
G01*
X161283367Y-106452899D01*
X161318103Y-106471466D01*
X161348548Y-106496452D01*
X161373534Y-106526897D01*
X161392101Y-106561633D01*
X161403535Y-106599326D01*
X161408000Y-106644661D01*
X161408000Y-107731339D01*
X161403535Y-107776674D01*
X161392101Y-107814367D01*
X161373534Y-107849103D01*
X161348548Y-107879548D01*
X161318103Y-107904534D01*
X161283367Y-107923101D01*
X161245674Y-107934535D01*
X161200339Y-107939000D01*
X160363661Y-107939000D01*
X160318326Y-107934535D01*
X160280633Y-107923101D01*
X160245897Y-107904534D01*
X160215452Y-107879548D01*
X160190466Y-107849103D01*
X160171899Y-107814367D01*
X160160465Y-107776674D01*
X160156000Y-107731339D01*
X160156000Y-106644661D01*
X160160465Y-106599326D01*
X160171899Y-106561633D01*
X160190466Y-106526897D01*
X160215452Y-106496452D01*
X160245897Y-106471466D01*
X160280633Y-106452899D01*
X160318326Y-106441465D01*
X160363661Y-106437000D01*
X161200339Y-106437000D01*
X161245674Y-106441465D01*
X161245674Y-106441465D01*
G37*
G36*
X135932228Y-104423483D02*
G01*
X136120922Y-104480723D01*
X136294815Y-104573671D01*
X136447239Y-104698761D01*
X136572329Y-104851185D01*
X136665277Y-105025078D01*
X136722517Y-105213772D01*
X136741843Y-105410000D01*
X136722517Y-105606228D01*
X136665277Y-105794922D01*
X136572329Y-105968815D01*
X136447239Y-106121239D01*
X136294815Y-106246329D01*
X136120922Y-106339277D01*
X135932228Y-106396517D01*
X135785175Y-106411000D01*
X135486825Y-106411000D01*
X135339772Y-106396517D01*
X135151078Y-106339277D01*
X134977185Y-106246329D01*
X134824761Y-106121239D01*
X134699671Y-105968815D01*
X134606723Y-105794922D01*
X134549483Y-105606228D01*
X134530157Y-105410000D01*
X134549483Y-105213772D01*
X134606723Y-105025078D01*
X134699671Y-104851185D01*
X134824761Y-104698761D01*
X134977185Y-104573671D01*
X135151078Y-104480723D01*
X135339772Y-104423483D01*
X135486825Y-104409000D01*
X135785175Y-104409000D01*
X135932228Y-104423483D01*
X135932228Y-104423483D01*
G37*
G36*
X141012228Y-104423483D02*
G01*
X141200922Y-104480723D01*
X141374815Y-104573671D01*
X141527239Y-104698761D01*
X141652329Y-104851185D01*
X141745277Y-105025078D01*
X141802517Y-105213772D01*
X141821843Y-105410000D01*
X141802517Y-105606228D01*
X141745277Y-105794922D01*
X141652329Y-105968815D01*
X141527239Y-106121239D01*
X141374815Y-106246329D01*
X141200922Y-106339277D01*
X141012228Y-106396517D01*
X140865175Y-106411000D01*
X140566825Y-106411000D01*
X140419772Y-106396517D01*
X140231078Y-106339277D01*
X140057185Y-106246329D01*
X139904761Y-106121239D01*
X139779671Y-105968815D01*
X139686723Y-105794922D01*
X139629483Y-105606228D01*
X139610157Y-105410000D01*
X139629483Y-105213772D01*
X139686723Y-105025078D01*
X139779671Y-104851185D01*
X139904761Y-104698761D01*
X140057185Y-104573671D01*
X140231078Y-104480723D01*
X140419772Y-104423483D01*
X140566825Y-104409000D01*
X140865175Y-104409000D01*
X141012228Y-104423483D01*
X141012228Y-104423483D01*
G37*
G36*
X130666443Y-104515519D02*
G01*
X130732627Y-104522037D01*
X130902466Y-104573557D01*
X131058991Y-104657222D01*
X131094729Y-104686552D01*
X131196186Y-104769814D01*
X131262964Y-104851185D01*
X131308778Y-104907009D01*
X131392443Y-105063534D01*
X131443963Y-105233373D01*
X131461359Y-105410000D01*
X131443963Y-105586627D01*
X131392443Y-105756466D01*
X131308778Y-105912991D01*
X131279448Y-105948729D01*
X131196186Y-106050186D01*
X131109606Y-106121239D01*
X131058991Y-106162778D01*
X130902466Y-106246443D01*
X130732627Y-106297963D01*
X130666442Y-106304482D01*
X130600260Y-106311000D01*
X130511740Y-106311000D01*
X130445558Y-106304482D01*
X130379373Y-106297963D01*
X130209534Y-106246443D01*
X130053009Y-106162778D01*
X130002394Y-106121239D01*
X129915814Y-106050186D01*
X129832552Y-105948729D01*
X129803222Y-105912991D01*
X129719557Y-105756466D01*
X129668037Y-105586627D01*
X129650641Y-105410000D01*
X129668037Y-105233373D01*
X129719557Y-105063534D01*
X129803222Y-104907009D01*
X129849036Y-104851185D01*
X129915814Y-104769814D01*
X130017271Y-104686552D01*
X130053009Y-104657222D01*
X130209534Y-104573557D01*
X130379373Y-104522037D01*
X130445557Y-104515519D01*
X130511740Y-104509000D01*
X130600260Y-104509000D01*
X130666443Y-104515519D01*
X130666443Y-104515519D01*
G37*
G36*
X90596000Y-105121000D02*
G01*
X88894000Y-105121000D01*
X88894000Y-103619000D01*
X90596000Y-103619000D01*
X90596000Y-105121000D01*
X90596000Y-105121000D01*
G37*
G36*
X97796000Y-105121000D02*
G01*
X96094000Y-105121000D01*
X96094000Y-103619000D01*
X97796000Y-103619000D01*
X97796000Y-105121000D01*
X97796000Y-105121000D01*
G37*
G36*
X86366000Y-105121000D02*
G01*
X84664000Y-105121000D01*
X84664000Y-103619000D01*
X86366000Y-103619000D01*
X86366000Y-105121000D01*
X86366000Y-105121000D01*
G37*
G36*
X79166000Y-105121000D02*
G01*
X77464000Y-105121000D01*
X77464000Y-103619000D01*
X79166000Y-103619000D01*
X79166000Y-105121000D01*
X79166000Y-105121000D01*
G37*
G36*
X110496000Y-105121000D02*
G01*
X108794000Y-105121000D01*
X108794000Y-103619000D01*
X110496000Y-103619000D01*
X110496000Y-105121000D01*
X110496000Y-105121000D01*
G37*
G36*
X103296000Y-105121000D02*
G01*
X101594000Y-105121000D01*
X101594000Y-103619000D01*
X103296000Y-103619000D01*
X103296000Y-105121000D01*
X103296000Y-105121000D01*
G37*
G36*
X124697443Y-102102519D02*
G01*
X124763627Y-102109037D01*
X124933466Y-102160557D01*
X125089991Y-102244222D01*
X125125729Y-102273552D01*
X125227186Y-102356814D01*
X125310448Y-102458271D01*
X125339778Y-102494009D01*
X125423443Y-102650534D01*
X125474963Y-102820373D01*
X125492359Y-102997000D01*
X125474963Y-103173627D01*
X125423443Y-103343466D01*
X125339778Y-103499991D01*
X125310448Y-103535729D01*
X125227186Y-103637186D01*
X125125729Y-103720448D01*
X125089991Y-103749778D01*
X124933466Y-103833443D01*
X124763627Y-103884963D01*
X124697442Y-103891482D01*
X124631260Y-103898000D01*
X124542740Y-103898000D01*
X124476557Y-103891481D01*
X124410373Y-103884963D01*
X124240534Y-103833443D01*
X124084009Y-103749778D01*
X124048271Y-103720448D01*
X123946814Y-103637186D01*
X123863552Y-103535729D01*
X123834222Y-103499991D01*
X123750557Y-103343466D01*
X123699037Y-103173627D01*
X123681641Y-102997000D01*
X123699037Y-102820373D01*
X123750557Y-102650534D01*
X123834222Y-102494009D01*
X123863552Y-102458271D01*
X123946814Y-102356814D01*
X124048271Y-102273552D01*
X124084009Y-102244222D01*
X124240534Y-102160557D01*
X124410373Y-102109037D01*
X124476558Y-102102518D01*
X124542740Y-102096000D01*
X124631260Y-102096000D01*
X124697443Y-102102519D01*
X124697443Y-102102519D01*
G37*
G36*
X122157443Y-102102519D02*
G01*
X122223627Y-102109037D01*
X122393466Y-102160557D01*
X122549991Y-102244222D01*
X122585729Y-102273552D01*
X122687186Y-102356814D01*
X122770448Y-102458271D01*
X122799778Y-102494009D01*
X122883443Y-102650534D01*
X122934963Y-102820373D01*
X122952359Y-102997000D01*
X122934963Y-103173627D01*
X122883443Y-103343466D01*
X122799778Y-103499991D01*
X122770448Y-103535729D01*
X122687186Y-103637186D01*
X122585729Y-103720448D01*
X122549991Y-103749778D01*
X122393466Y-103833443D01*
X122223627Y-103884963D01*
X122157442Y-103891482D01*
X122091260Y-103898000D01*
X122002740Y-103898000D01*
X121936557Y-103891481D01*
X121870373Y-103884963D01*
X121700534Y-103833443D01*
X121544009Y-103749778D01*
X121508271Y-103720448D01*
X121406814Y-103637186D01*
X121323552Y-103535729D01*
X121294222Y-103499991D01*
X121210557Y-103343466D01*
X121159037Y-103173627D01*
X121141641Y-102997000D01*
X121159037Y-102820373D01*
X121210557Y-102650534D01*
X121294222Y-102494009D01*
X121323552Y-102458271D01*
X121406814Y-102356814D01*
X121508271Y-102273552D01*
X121544009Y-102244222D01*
X121700534Y-102160557D01*
X121870373Y-102109037D01*
X121936558Y-102102518D01*
X122002740Y-102096000D01*
X122091260Y-102096000D01*
X122157443Y-102102519D01*
X122157443Y-102102519D01*
G37*
G36*
X120408000Y-103898000D02*
G01*
X118606000Y-103898000D01*
X118606000Y-102096000D01*
X120408000Y-102096000D01*
X120408000Y-103898000D01*
X120408000Y-103898000D01*
G37*
G36*
X135932228Y-101883483D02*
G01*
X136120922Y-101940723D01*
X136294815Y-102033671D01*
X136447239Y-102158761D01*
X136572329Y-102311185D01*
X136665277Y-102485078D01*
X136722517Y-102673772D01*
X136741843Y-102870000D01*
X136722517Y-103066228D01*
X136665277Y-103254922D01*
X136572329Y-103428815D01*
X136447239Y-103581239D01*
X136294815Y-103706329D01*
X136120922Y-103799277D01*
X135932228Y-103856517D01*
X135785175Y-103871000D01*
X135486825Y-103871000D01*
X135339772Y-103856517D01*
X135151078Y-103799277D01*
X134977185Y-103706329D01*
X134824761Y-103581239D01*
X134699671Y-103428815D01*
X134606723Y-103254922D01*
X134549483Y-103066228D01*
X134530157Y-102870000D01*
X134549483Y-102673772D01*
X134606723Y-102485078D01*
X134699671Y-102311185D01*
X134824761Y-102158761D01*
X134977185Y-102033671D01*
X135151078Y-101940723D01*
X135339772Y-101883483D01*
X135486825Y-101869000D01*
X135785175Y-101869000D01*
X135932228Y-101883483D01*
X135932228Y-101883483D01*
G37*
G36*
X141012228Y-101883483D02*
G01*
X141200922Y-101940723D01*
X141374815Y-102033671D01*
X141527239Y-102158761D01*
X141652329Y-102311185D01*
X141745277Y-102485078D01*
X141802517Y-102673772D01*
X141821843Y-102870000D01*
X141802517Y-103066228D01*
X141745277Y-103254922D01*
X141652329Y-103428815D01*
X141527239Y-103581239D01*
X141374815Y-103706329D01*
X141200922Y-103799277D01*
X141012228Y-103856517D01*
X140865175Y-103871000D01*
X140566825Y-103871000D01*
X140419772Y-103856517D01*
X140231078Y-103799277D01*
X140057185Y-103706329D01*
X139904761Y-103581239D01*
X139779671Y-103428815D01*
X139686723Y-103254922D01*
X139629483Y-103066228D01*
X139610157Y-102870000D01*
X139629483Y-102673772D01*
X139686723Y-102485078D01*
X139779671Y-102311185D01*
X139904761Y-102158761D01*
X140057185Y-102033671D01*
X140231078Y-101940723D01*
X140419772Y-101883483D01*
X140566825Y-101869000D01*
X140865175Y-101869000D01*
X141012228Y-101883483D01*
X141012228Y-101883483D01*
G37*
G36*
X131457000Y-103771000D02*
G01*
X129655000Y-103771000D01*
X129655000Y-101969000D01*
X131457000Y-101969000D01*
X131457000Y-103771000D01*
X131457000Y-103771000D01*
G37*
G36*
X169050072Y-100300918D02*
G01*
X169120283Y-100330000D01*
X169295939Y-100402759D01*
X169349918Y-100438827D01*
X169505798Y-100542983D01*
X169517212Y-100550610D01*
X169705390Y-100738788D01*
X169805636Y-100888815D01*
X169853242Y-100960063D01*
X169955082Y-101205928D01*
X170007000Y-101466937D01*
X170007000Y-101733063D01*
X169955082Y-101994072D01*
X169886866Y-102158762D01*
X169853241Y-102239939D01*
X169778813Y-102351328D01*
X169705391Y-102461211D01*
X169517211Y-102649391D01*
X169446447Y-102696674D01*
X169295939Y-102797241D01*
X169295938Y-102797242D01*
X169295937Y-102797242D01*
X169050072Y-102899082D01*
X168789063Y-102951000D01*
X168522937Y-102951000D01*
X168261928Y-102899082D01*
X168016063Y-102797242D01*
X168016062Y-102797242D01*
X168016061Y-102797241D01*
X167865553Y-102696674D01*
X167794789Y-102649391D01*
X167606609Y-102461211D01*
X167533187Y-102351328D01*
X167458759Y-102239939D01*
X167425135Y-102158762D01*
X167356918Y-101994072D01*
X167305000Y-101733063D01*
X167305000Y-101466937D01*
X167356918Y-101205928D01*
X167458758Y-100960063D01*
X167506365Y-100888815D01*
X167606610Y-100738788D01*
X167794788Y-100550610D01*
X167806203Y-100542983D01*
X167962082Y-100438827D01*
X168016061Y-100402759D01*
X168191718Y-100330000D01*
X168261928Y-100300918D01*
X168522937Y-100249000D01*
X168789063Y-100249000D01*
X169050072Y-100300918D01*
X169050072Y-100300918D01*
G37*
G36*
X165916820Y-101238103D02*
G01*
X165950985Y-101248467D01*
X165982464Y-101265293D01*
X166010060Y-101287940D01*
X166032707Y-101315536D01*
X166049533Y-101347015D01*
X166059897Y-101381180D01*
X166064000Y-101422842D01*
X166064000Y-102672158D01*
X166059897Y-102713820D01*
X166049533Y-102747985D01*
X166032707Y-102779464D01*
X166010060Y-102807060D01*
X165982464Y-102829707D01*
X165950985Y-102846533D01*
X165916820Y-102856897D01*
X165875158Y-102861000D01*
X162800842Y-102861000D01*
X162759180Y-102856897D01*
X162725015Y-102846533D01*
X162693536Y-102829707D01*
X162665940Y-102807060D01*
X162643293Y-102779464D01*
X162626467Y-102747985D01*
X162616103Y-102713820D01*
X162612000Y-102672158D01*
X162612000Y-101422842D01*
X162616103Y-101381180D01*
X162626467Y-101347015D01*
X162643293Y-101315536D01*
X162665940Y-101287940D01*
X162693536Y-101265293D01*
X162725015Y-101248467D01*
X162759180Y-101238103D01*
X162800842Y-101234000D01*
X165875158Y-101234000D01*
X165916820Y-101238103D01*
X165916820Y-101238103D01*
G37*
G36*
X161254674Y-101361465D02*
G01*
X161292367Y-101372899D01*
X161327103Y-101391466D01*
X161357548Y-101416452D01*
X161382534Y-101446897D01*
X161401101Y-101481633D01*
X161412535Y-101519326D01*
X161417000Y-101564661D01*
X161417000Y-102651339D01*
X161412535Y-102696674D01*
X161401101Y-102734367D01*
X161382534Y-102769103D01*
X161357548Y-102799548D01*
X161327103Y-102824534D01*
X161292367Y-102843101D01*
X161254674Y-102854535D01*
X161209339Y-102859000D01*
X160372661Y-102859000D01*
X160327326Y-102854535D01*
X160289633Y-102843101D01*
X160254897Y-102824534D01*
X160224452Y-102799548D01*
X160199466Y-102769103D01*
X160180899Y-102734367D01*
X160169465Y-102696674D01*
X160165000Y-102651339D01*
X160165000Y-101564661D01*
X160169465Y-101519326D01*
X160180899Y-101481633D01*
X160199466Y-101446897D01*
X160224452Y-101416452D01*
X160254897Y-101391466D01*
X160289633Y-101372899D01*
X160327326Y-101361465D01*
X160372661Y-101357000D01*
X161209339Y-101357000D01*
X161254674Y-101361465D01*
X161254674Y-101361465D01*
G37*
G36*
X159204674Y-101361465D02*
G01*
X159242367Y-101372899D01*
X159277103Y-101391466D01*
X159307548Y-101416452D01*
X159332534Y-101446897D01*
X159351101Y-101481633D01*
X159362535Y-101519326D01*
X159367000Y-101564661D01*
X159367000Y-102651339D01*
X159362535Y-102696674D01*
X159351101Y-102734367D01*
X159332534Y-102769103D01*
X159307548Y-102799548D01*
X159277103Y-102824534D01*
X159242367Y-102843101D01*
X159204674Y-102854535D01*
X159159339Y-102859000D01*
X158322661Y-102859000D01*
X158277326Y-102854535D01*
X158239633Y-102843101D01*
X158204897Y-102824534D01*
X158174452Y-102799548D01*
X158149466Y-102769103D01*
X158130899Y-102734367D01*
X158119465Y-102696674D01*
X158115000Y-102651339D01*
X158115000Y-101564661D01*
X158119465Y-101519326D01*
X158130899Y-101481633D01*
X158149466Y-101446897D01*
X158174452Y-101416452D01*
X158204897Y-101391466D01*
X158239633Y-101372899D01*
X158277326Y-101361465D01*
X158322661Y-101357000D01*
X159159339Y-101357000D01*
X159204674Y-101361465D01*
X159204674Y-101361465D01*
G37*
G36*
X86366000Y-102121000D02*
G01*
X84664000Y-102121000D01*
X84664000Y-100619000D01*
X86366000Y-100619000D01*
X86366000Y-102121000D01*
X86366000Y-102121000D01*
G37*
G36*
X79166000Y-102121000D02*
G01*
X77464000Y-102121000D01*
X77464000Y-100619000D01*
X79166000Y-100619000D01*
X79166000Y-102121000D01*
X79166000Y-102121000D01*
G37*
G36*
X90596000Y-102121000D02*
G01*
X88894000Y-102121000D01*
X88894000Y-100619000D01*
X90596000Y-100619000D01*
X90596000Y-102121000D01*
X90596000Y-102121000D01*
G37*
G36*
X97796000Y-102121000D02*
G01*
X96094000Y-102121000D01*
X96094000Y-100619000D01*
X97796000Y-100619000D01*
X97796000Y-102121000D01*
X97796000Y-102121000D01*
G37*
G36*
X110496000Y-102121000D02*
G01*
X108794000Y-102121000D01*
X108794000Y-100619000D01*
X110496000Y-100619000D01*
X110496000Y-102121000D01*
X110496000Y-102121000D01*
G37*
G36*
X103296000Y-102121000D02*
G01*
X101594000Y-102121000D01*
X101594000Y-100619000D01*
X103296000Y-100619000D01*
X103296000Y-102121000D01*
X103296000Y-102121000D01*
G37*
G36*
X135932228Y-99343483D02*
G01*
X136120922Y-99400723D01*
X136294815Y-99493671D01*
X136447239Y-99618761D01*
X136572329Y-99771185D01*
X136665277Y-99945078D01*
X136722517Y-100133772D01*
X136741843Y-100330000D01*
X136722517Y-100526228D01*
X136665277Y-100714922D01*
X136572329Y-100888815D01*
X136447239Y-101041239D01*
X136294815Y-101166329D01*
X136120922Y-101259277D01*
X135932228Y-101316517D01*
X135785175Y-101331000D01*
X135486825Y-101331000D01*
X135339772Y-101316517D01*
X135151078Y-101259277D01*
X134977185Y-101166329D01*
X134824761Y-101041239D01*
X134699671Y-100888815D01*
X134606723Y-100714922D01*
X134549483Y-100526228D01*
X134530157Y-100330000D01*
X134549483Y-100133772D01*
X134606723Y-99945078D01*
X134699671Y-99771185D01*
X134824761Y-99618761D01*
X134977185Y-99493671D01*
X135151078Y-99400723D01*
X135339772Y-99343483D01*
X135486825Y-99329000D01*
X135785175Y-99329000D01*
X135932228Y-99343483D01*
X135932228Y-99343483D01*
G37*
G36*
X141817000Y-101331000D02*
G01*
X139615000Y-101331000D01*
X139615000Y-99329000D01*
X141817000Y-99329000D01*
X141817000Y-101331000D01*
X141817000Y-101331000D01*
G37*
G36*
X157306674Y-99463465D02*
G01*
X157344367Y-99474899D01*
X157379103Y-99493466D01*
X157409548Y-99518452D01*
X157434534Y-99548897D01*
X157453101Y-99583633D01*
X157464535Y-99621326D01*
X157469000Y-99666661D01*
X157469000Y-100503339D01*
X157464535Y-100548674D01*
X157453101Y-100586367D01*
X157434534Y-100621103D01*
X157409548Y-100651548D01*
X157379103Y-100676534D01*
X157344367Y-100695101D01*
X157306674Y-100706535D01*
X157261339Y-100711000D01*
X156174661Y-100711000D01*
X156129326Y-100706535D01*
X156091633Y-100695101D01*
X156056897Y-100676534D01*
X156026452Y-100651548D01*
X156001466Y-100621103D01*
X155982899Y-100586367D01*
X155971465Y-100548674D01*
X155967000Y-100503339D01*
X155967000Y-99666661D01*
X155971465Y-99621326D01*
X155982899Y-99583633D01*
X156001466Y-99548897D01*
X156026452Y-99518452D01*
X156056897Y-99493466D01*
X156091633Y-99474899D01*
X156129326Y-99463465D01*
X156174661Y-99459000D01*
X157261339Y-99459000D01*
X157306674Y-99463465D01*
X157306674Y-99463465D01*
G37*
G36*
X109705331Y-96253211D02*
G01*
X110033092Y-96388974D01*
X110328070Y-96586072D01*
X110578928Y-96836930D01*
X110776026Y-97131908D01*
X110911789Y-97459669D01*
X110981000Y-97807616D01*
X110981000Y-98162384D01*
X110911789Y-98510331D01*
X110776026Y-98838092D01*
X110578928Y-99133070D01*
X110328070Y-99383928D01*
X110033092Y-99581026D01*
X109705331Y-99716789D01*
X109357384Y-99786000D01*
X109002616Y-99786000D01*
X108654669Y-99716789D01*
X108326908Y-99581026D01*
X108031930Y-99383928D01*
X107781072Y-99133070D01*
X107583974Y-98838092D01*
X107448211Y-98510331D01*
X107379000Y-98162384D01*
X107379000Y-97807616D01*
X107448211Y-97459669D01*
X107583974Y-97131908D01*
X107781072Y-96836930D01*
X108031930Y-96586072D01*
X108326908Y-96388974D01*
X108654669Y-96253211D01*
X109002616Y-96184000D01*
X109357384Y-96184000D01*
X109705331Y-96253211D01*
X109705331Y-96253211D01*
G37*
G36*
X79305331Y-96253211D02*
G01*
X79633092Y-96388974D01*
X79928070Y-96586072D01*
X80178928Y-96836930D01*
X80376026Y-97131908D01*
X80511789Y-97459669D01*
X80581000Y-97807616D01*
X80581000Y-98162384D01*
X80511789Y-98510331D01*
X80376026Y-98838092D01*
X80178928Y-99133070D01*
X79928070Y-99383928D01*
X79633092Y-99581026D01*
X79305331Y-99716789D01*
X78957384Y-99786000D01*
X78602616Y-99786000D01*
X78254669Y-99716789D01*
X77926908Y-99581026D01*
X77631930Y-99383928D01*
X77381072Y-99133070D01*
X77183974Y-98838092D01*
X77048211Y-98510331D01*
X76979000Y-98162384D01*
X76979000Y-97807616D01*
X77048211Y-97459669D01*
X77183974Y-97131908D01*
X77381072Y-96836930D01*
X77631930Y-96586072D01*
X77926908Y-96388974D01*
X78254669Y-96253211D01*
X78602616Y-96184000D01*
X78957384Y-96184000D01*
X79305331Y-96253211D01*
X79305331Y-96253211D01*
G37*
G36*
X122321032Y-96742282D02*
G01*
X122490153Y-96775922D01*
X122559059Y-96804464D01*
X122712359Y-96867963D01*
X122912342Y-97001587D01*
X123082413Y-97171658D01*
X123216037Y-97371641D01*
X123233361Y-97413465D01*
X123301107Y-97577017D01*
X123308078Y-97593848D01*
X123355000Y-97829741D01*
X123355000Y-98070259D01*
X123308078Y-98306152D01*
X123216037Y-98528359D01*
X123082413Y-98728342D01*
X122912342Y-98898413D01*
X122712359Y-99032037D01*
X122582194Y-99085953D01*
X122490153Y-99124078D01*
X122372205Y-99147539D01*
X122254259Y-99171000D01*
X122013741Y-99171000D01*
X121895795Y-99147539D01*
X121777847Y-99124078D01*
X121685806Y-99085953D01*
X121555641Y-99032037D01*
X121355658Y-98898413D01*
X121185587Y-98728342D01*
X121051963Y-98528359D01*
X120959922Y-98306152D01*
X120913000Y-98070259D01*
X120913000Y-97829741D01*
X120959922Y-97593848D01*
X120966894Y-97577017D01*
X121034639Y-97413465D01*
X121051963Y-97371641D01*
X121185587Y-97171658D01*
X121355658Y-97001587D01*
X121555641Y-96867963D01*
X121708941Y-96804464D01*
X121777847Y-96775922D01*
X121946968Y-96742282D01*
X122013741Y-96729000D01*
X122254259Y-96729000D01*
X122321032Y-96742282D01*
X122321032Y-96742282D01*
G37*
G36*
X157306674Y-97413465D02*
G01*
X157344367Y-97424899D01*
X157379103Y-97443466D01*
X157409548Y-97468452D01*
X157434534Y-97498897D01*
X157453101Y-97533633D01*
X157464535Y-97571326D01*
X157469000Y-97616661D01*
X157469000Y-98453339D01*
X157464535Y-98498674D01*
X157453101Y-98536367D01*
X157434534Y-98571103D01*
X157409548Y-98601548D01*
X157379103Y-98626534D01*
X157344367Y-98645101D01*
X157306674Y-98656535D01*
X157261339Y-98661000D01*
X156174661Y-98661000D01*
X156129326Y-98656535D01*
X156091633Y-98645101D01*
X156056897Y-98626534D01*
X156026452Y-98601548D01*
X156001466Y-98571103D01*
X155982899Y-98536367D01*
X155971465Y-98498674D01*
X155967000Y-98453339D01*
X155967000Y-97616661D01*
X155971465Y-97571326D01*
X155982899Y-97533633D01*
X156001466Y-97498897D01*
X156026452Y-97468452D01*
X156056897Y-97443466D01*
X156091633Y-97424899D01*
X156129326Y-97413465D01*
X156174661Y-97409000D01*
X157261339Y-97409000D01*
X157306674Y-97413465D01*
X157306674Y-97413465D01*
G37*
G36*
X170007000Y-97871000D02*
G01*
X167305000Y-97871000D01*
X167305000Y-95169000D01*
X170007000Y-95169000D01*
X170007000Y-97871000D01*
X170007000Y-97871000D01*
G37*
G36*
X165916820Y-95263103D02*
G01*
X165950985Y-95273467D01*
X165982464Y-95290293D01*
X166010060Y-95312940D01*
X166032707Y-95340536D01*
X166049533Y-95372015D01*
X166059897Y-95406180D01*
X166064000Y-95447842D01*
X166064000Y-96697158D01*
X166059897Y-96738820D01*
X166049533Y-96772985D01*
X166032707Y-96804464D01*
X166010060Y-96832060D01*
X165982464Y-96854707D01*
X165950985Y-96871533D01*
X165916820Y-96881897D01*
X165875158Y-96886000D01*
X162800842Y-96886000D01*
X162759180Y-96881897D01*
X162725015Y-96871533D01*
X162693536Y-96854707D01*
X162665940Y-96832060D01*
X162643293Y-96804464D01*
X162626467Y-96772985D01*
X162616103Y-96738820D01*
X162612000Y-96697158D01*
X162612000Y-95447842D01*
X162616103Y-95406180D01*
X162626467Y-95372015D01*
X162643293Y-95340536D01*
X162665940Y-95312940D01*
X162693536Y-95290293D01*
X162725015Y-95273467D01*
X162759180Y-95263103D01*
X162800842Y-95259000D01*
X165875158Y-95259000D01*
X165916820Y-95263103D01*
X165916820Y-95263103D01*
G37*
G36*
X159195674Y-95265465D02*
G01*
X159233367Y-95276899D01*
X159268103Y-95295466D01*
X159298548Y-95320452D01*
X159323534Y-95350897D01*
X159342101Y-95385633D01*
X159353535Y-95423326D01*
X159358000Y-95468661D01*
X159358000Y-96555339D01*
X159353535Y-96600674D01*
X159342101Y-96638367D01*
X159323534Y-96673103D01*
X159298548Y-96703548D01*
X159268103Y-96728534D01*
X159233367Y-96747101D01*
X159195674Y-96758535D01*
X159150339Y-96763000D01*
X158313661Y-96763000D01*
X158268326Y-96758535D01*
X158230633Y-96747101D01*
X158195897Y-96728534D01*
X158165452Y-96703548D01*
X158140466Y-96673103D01*
X158121899Y-96638367D01*
X158110465Y-96600674D01*
X158106000Y-96555339D01*
X158106000Y-95468661D01*
X158110465Y-95423326D01*
X158121899Y-95385633D01*
X158140466Y-95350897D01*
X158165452Y-95320452D01*
X158195897Y-95295466D01*
X158230633Y-95276899D01*
X158268326Y-95265465D01*
X158313661Y-95261000D01*
X159150339Y-95261000D01*
X159195674Y-95265465D01*
X159195674Y-95265465D01*
G37*
G36*
X161245674Y-95265465D02*
G01*
X161283367Y-95276899D01*
X161318103Y-95295466D01*
X161348548Y-95320452D01*
X161373534Y-95350897D01*
X161392101Y-95385633D01*
X161403535Y-95423326D01*
X161408000Y-95468661D01*
X161408000Y-96555339D01*
X161403535Y-96600674D01*
X161392101Y-96638367D01*
X161373534Y-96673103D01*
X161348548Y-96703548D01*
X161318103Y-96728534D01*
X161283367Y-96747101D01*
X161245674Y-96758535D01*
X161200339Y-96763000D01*
X160363661Y-96763000D01*
X160318326Y-96758535D01*
X160280633Y-96747101D01*
X160245897Y-96728534D01*
X160215452Y-96703548D01*
X160190466Y-96673103D01*
X160171899Y-96638367D01*
X160160465Y-96600674D01*
X160156000Y-96555339D01*
X160156000Y-95468661D01*
X160160465Y-95423326D01*
X160171899Y-95385633D01*
X160190466Y-95350897D01*
X160215452Y-95320452D01*
X160245897Y-95295466D01*
X160280633Y-95276899D01*
X160318326Y-95265465D01*
X160363661Y-95261000D01*
X161200339Y-95261000D01*
X161245674Y-95265465D01*
X161245674Y-95265465D01*
G37*
G36*
X146130674Y-94129465D02*
G01*
X146168367Y-94140899D01*
X146203103Y-94159466D01*
X146233548Y-94184452D01*
X146258534Y-94214897D01*
X146277101Y-94249633D01*
X146288535Y-94287326D01*
X146293000Y-94332661D01*
X146293000Y-95169339D01*
X146288535Y-95214674D01*
X146277101Y-95252367D01*
X146258534Y-95287103D01*
X146233548Y-95317548D01*
X146203103Y-95342534D01*
X146168367Y-95361101D01*
X146130674Y-95372535D01*
X146085339Y-95377000D01*
X144998661Y-95377000D01*
X144953326Y-95372535D01*
X144915633Y-95361101D01*
X144880897Y-95342534D01*
X144850452Y-95317548D01*
X144825466Y-95287103D01*
X144806899Y-95252367D01*
X144795465Y-95214674D01*
X144791000Y-95169339D01*
X144791000Y-94332661D01*
X144795465Y-94287326D01*
X144806899Y-94249633D01*
X144825466Y-94214897D01*
X144850452Y-94184452D01*
X144880897Y-94159466D01*
X144915633Y-94140899D01*
X144953326Y-94129465D01*
X144998661Y-94125000D01*
X146085339Y-94125000D01*
X146130674Y-94129465D01*
X146130674Y-94129465D01*
G37*
G36*
X150419401Y-91396908D02*
G01*
X150438347Y-91402655D01*
X150457291Y-91408402D01*
X150492210Y-91427066D01*
X150522816Y-91452184D01*
X150533379Y-91465055D01*
X150550702Y-91482378D01*
X150571077Y-91495992D01*
X150593715Y-91505370D01*
X150617749Y-91510150D01*
X150642253Y-91510150D01*
X150666286Y-91505370D01*
X150688925Y-91495992D01*
X150709299Y-91482379D01*
X150726617Y-91465061D01*
X150737185Y-91452184D01*
X150767791Y-91427066D01*
X150802710Y-91408402D01*
X150821654Y-91402655D01*
X150840600Y-91396908D01*
X150875696Y-91393452D01*
X150880000Y-91393028D01*
X150880001Y-91393028D01*
X150919401Y-91396908D01*
X150938347Y-91402655D01*
X150957291Y-91408402D01*
X150992210Y-91427066D01*
X151022816Y-91452184D01*
X151033379Y-91465055D01*
X151050702Y-91482378D01*
X151071077Y-91495992D01*
X151093715Y-91505370D01*
X151117749Y-91510150D01*
X151142253Y-91510150D01*
X151166286Y-91505370D01*
X151188925Y-91495992D01*
X151209299Y-91482379D01*
X151226617Y-91465061D01*
X151237185Y-91452184D01*
X151267791Y-91427066D01*
X151302710Y-91408402D01*
X151321654Y-91402655D01*
X151340600Y-91396908D01*
X151375696Y-91393452D01*
X151380000Y-91393028D01*
X151380001Y-91393028D01*
X151419401Y-91396908D01*
X151438347Y-91402655D01*
X151457291Y-91408402D01*
X151492210Y-91427066D01*
X151522816Y-91452184D01*
X151533379Y-91465055D01*
X151550702Y-91482378D01*
X151571077Y-91495992D01*
X151593715Y-91505370D01*
X151617749Y-91510150D01*
X151642253Y-91510150D01*
X151666286Y-91505370D01*
X151688925Y-91495992D01*
X151709299Y-91482379D01*
X151726617Y-91465061D01*
X151737185Y-91452184D01*
X151767791Y-91427066D01*
X151802710Y-91408402D01*
X151821654Y-91402655D01*
X151840600Y-91396908D01*
X151875696Y-91393452D01*
X151880000Y-91393028D01*
X151880001Y-91393028D01*
X151919401Y-91396908D01*
X151938347Y-91402655D01*
X151957291Y-91408402D01*
X151992210Y-91427066D01*
X152022816Y-91452184D01*
X152047934Y-91482790D01*
X152066598Y-91517709D01*
X152067497Y-91520674D01*
X152078092Y-91555599D01*
X152081000Y-91585126D01*
X152081000Y-92104874D01*
X152078092Y-92134401D01*
X152072344Y-92153347D01*
X152066598Y-92172291D01*
X152047934Y-92207210D01*
X152041778Y-92214711D01*
X152028170Y-92235076D01*
X152018793Y-92257715D01*
X152014012Y-92281748D01*
X152014012Y-92306252D01*
X152018792Y-92330285D01*
X152028169Y-92352924D01*
X152041783Y-92373299D01*
X152059110Y-92390626D01*
X152074228Y-92400728D01*
X152077066Y-92406037D01*
X152092611Y-92424979D01*
X152111553Y-92440524D01*
X152133164Y-92452075D01*
X152156613Y-92459188D01*
X152180999Y-92461590D01*
X152205385Y-92459188D01*
X152228834Y-92452075D01*
X152250445Y-92440524D01*
X152260280Y-92433229D01*
X152267790Y-92427066D01*
X152302709Y-92408402D01*
X152328007Y-92400728D01*
X152340599Y-92396908D01*
X152370126Y-92394000D01*
X152889874Y-92394000D01*
X152919401Y-92396908D01*
X152931993Y-92400728D01*
X152957291Y-92408402D01*
X152992210Y-92427066D01*
X153022816Y-92452184D01*
X153047934Y-92482790D01*
X153066598Y-92517709D01*
X153072344Y-92536653D01*
X153078092Y-92555599D01*
X153081972Y-92595000D01*
X153078092Y-92634401D01*
X153072344Y-92653347D01*
X153066598Y-92672291D01*
X153047934Y-92707210D01*
X153022816Y-92737816D01*
X153009945Y-92748379D01*
X152992623Y-92765701D01*
X152979009Y-92786075D01*
X152969632Y-92808714D01*
X152964851Y-92832747D01*
X152964851Y-92857251D01*
X152969631Y-92881284D01*
X152979008Y-92903923D01*
X152992622Y-92924298D01*
X153009945Y-92941621D01*
X153022816Y-92952184D01*
X153047934Y-92982790D01*
X153065466Y-93015590D01*
X153066597Y-93017707D01*
X153078092Y-93055599D01*
X153081972Y-93095000D01*
X153078092Y-93134401D01*
X153078091Y-93134403D01*
X153066598Y-93172291D01*
X153047934Y-93207210D01*
X153022816Y-93237816D01*
X153009945Y-93248379D01*
X152992623Y-93265701D01*
X152979009Y-93286075D01*
X152969632Y-93308714D01*
X152964851Y-93332747D01*
X152964851Y-93357251D01*
X152969631Y-93381284D01*
X152979008Y-93403923D01*
X152992622Y-93424298D01*
X153009945Y-93441621D01*
X153022816Y-93452184D01*
X153047934Y-93482790D01*
X153060834Y-93506925D01*
X153066597Y-93517707D01*
X153078092Y-93555599D01*
X153081972Y-93595000D01*
X153078092Y-93634401D01*
X153074488Y-93646282D01*
X153066598Y-93672291D01*
X153047934Y-93707210D01*
X153022816Y-93737816D01*
X153009945Y-93748379D01*
X152992623Y-93765701D01*
X152979009Y-93786075D01*
X152969632Y-93808714D01*
X152964851Y-93832747D01*
X152964851Y-93857251D01*
X152969631Y-93881284D01*
X152979008Y-93903923D01*
X152992622Y-93924298D01*
X153009945Y-93941621D01*
X153022816Y-93952184D01*
X153047934Y-93982790D01*
X153065466Y-94015590D01*
X153066597Y-94017707D01*
X153078092Y-94055599D01*
X153081972Y-94095000D01*
X153078092Y-94134401D01*
X153074659Y-94145718D01*
X153066598Y-94172291D01*
X153047934Y-94207210D01*
X153022816Y-94237816D01*
X152992210Y-94262934D01*
X152957291Y-94281598D01*
X152938408Y-94287326D01*
X152919401Y-94293092D01*
X152889874Y-94296000D01*
X152370126Y-94296000D01*
X152340599Y-94293092D01*
X152321592Y-94287326D01*
X152302709Y-94281598D01*
X152267790Y-94262934D01*
X152260289Y-94256778D01*
X152239924Y-94243170D01*
X152217285Y-94233793D01*
X152193252Y-94229012D01*
X152168748Y-94229012D01*
X152144715Y-94233792D01*
X152122076Y-94243169D01*
X152101701Y-94256783D01*
X152084374Y-94274110D01*
X152074272Y-94289228D01*
X152068963Y-94292066D01*
X152050021Y-94307611D01*
X152034476Y-94326553D01*
X152022925Y-94348164D01*
X152015812Y-94371613D01*
X152013410Y-94395999D01*
X152015812Y-94420385D01*
X152022925Y-94443834D01*
X152034476Y-94465445D01*
X152041771Y-94475280D01*
X152047934Y-94482790D01*
X152047935Y-94482792D01*
X152066597Y-94517707D01*
X152078092Y-94555599D01*
X152081000Y-94585126D01*
X152081000Y-95104874D01*
X152078092Y-95134401D01*
X152078091Y-95134403D01*
X152066598Y-95172291D01*
X152047934Y-95207210D01*
X152022816Y-95237816D01*
X151992209Y-95262934D01*
X151992207Y-95262935D01*
X151966082Y-95276899D01*
X151957290Y-95281598D01*
X151939142Y-95287103D01*
X151919400Y-95293092D01*
X151884304Y-95296548D01*
X151880000Y-95296972D01*
X151879999Y-95296972D01*
X151840599Y-95293092D01*
X151820857Y-95287103D01*
X151802709Y-95281598D01*
X151767790Y-95262934D01*
X151737184Y-95237816D01*
X151726622Y-95224946D01*
X151709299Y-95207623D01*
X151688925Y-95194009D01*
X151666286Y-95184632D01*
X151642253Y-95179851D01*
X151617749Y-95179851D01*
X151593716Y-95184631D01*
X151571077Y-95194008D01*
X151550702Y-95207622D01*
X151533379Y-95224945D01*
X151522816Y-95237816D01*
X151492209Y-95262934D01*
X151492207Y-95262935D01*
X151466082Y-95276899D01*
X151457290Y-95281598D01*
X151439142Y-95287103D01*
X151419400Y-95293092D01*
X151384304Y-95296548D01*
X151380000Y-95296972D01*
X151379999Y-95296972D01*
X151340599Y-95293092D01*
X151320857Y-95287103D01*
X151302709Y-95281598D01*
X151267790Y-95262934D01*
X151237184Y-95237816D01*
X151226622Y-95224946D01*
X151209299Y-95207623D01*
X151188925Y-95194009D01*
X151166286Y-95184632D01*
X151142253Y-95179851D01*
X151117749Y-95179851D01*
X151093716Y-95184631D01*
X151071077Y-95194008D01*
X151050702Y-95207622D01*
X151033379Y-95224945D01*
X151022816Y-95237816D01*
X150992209Y-95262934D01*
X150992207Y-95262935D01*
X150966082Y-95276899D01*
X150957290Y-95281598D01*
X150939142Y-95287103D01*
X150919400Y-95293092D01*
X150884304Y-95296548D01*
X150880000Y-95296972D01*
X150879999Y-95296972D01*
X150840599Y-95293092D01*
X150820857Y-95287103D01*
X150802709Y-95281598D01*
X150767790Y-95262934D01*
X150737184Y-95237816D01*
X150726622Y-95224946D01*
X150709299Y-95207623D01*
X150688925Y-95194009D01*
X150666286Y-95184632D01*
X150642253Y-95179851D01*
X150617749Y-95179851D01*
X150593716Y-95184631D01*
X150571077Y-95194008D01*
X150550702Y-95207622D01*
X150533379Y-95224945D01*
X150522816Y-95237816D01*
X150492209Y-95262934D01*
X150492207Y-95262935D01*
X150466082Y-95276899D01*
X150457290Y-95281598D01*
X150439142Y-95287103D01*
X150419400Y-95293092D01*
X150384304Y-95296548D01*
X150380000Y-95296972D01*
X150379999Y-95296972D01*
X150340599Y-95293092D01*
X150320857Y-95287103D01*
X150302709Y-95281598D01*
X150267790Y-95262934D01*
X150237184Y-95237816D01*
X150212066Y-95207209D01*
X150193402Y-95172290D01*
X150181909Y-95134402D01*
X150181908Y-95134400D01*
X150179000Y-95104873D01*
X150179001Y-94585127D01*
X150181909Y-94555599D01*
X150193404Y-94517707D01*
X150212066Y-94482792D01*
X150212067Y-94482790D01*
X150218223Y-94475289D01*
X150231831Y-94454924D01*
X150241208Y-94432285D01*
X150245989Y-94408252D01*
X150245989Y-94383748D01*
X150241209Y-94359715D01*
X150231832Y-94337076D01*
X150218218Y-94316701D01*
X150200891Y-94299374D01*
X150185771Y-94289271D01*
X150182934Y-94283963D01*
X150167389Y-94265021D01*
X150148447Y-94249476D01*
X150126836Y-94237925D01*
X150103387Y-94230812D01*
X150079001Y-94228410D01*
X150054615Y-94230812D01*
X150031166Y-94237925D01*
X150009555Y-94249476D01*
X149999720Y-94256771D01*
X149992210Y-94262934D01*
X149957291Y-94281598D01*
X149938408Y-94287326D01*
X149919401Y-94293092D01*
X149889874Y-94296000D01*
X149370126Y-94296000D01*
X149340599Y-94293092D01*
X149321592Y-94287326D01*
X149302709Y-94281598D01*
X149267790Y-94262934D01*
X149237184Y-94237816D01*
X149212066Y-94207210D01*
X149193402Y-94172291D01*
X149185341Y-94145718D01*
X149181908Y-94134401D01*
X149178028Y-94095000D01*
X149181908Y-94055599D01*
X149193403Y-94017707D01*
X149194534Y-94015590D01*
X149212066Y-93982790D01*
X149237184Y-93952184D01*
X149250055Y-93941621D01*
X149267377Y-93924299D01*
X149280991Y-93903925D01*
X149290368Y-93881286D01*
X149295149Y-93857253D01*
X149295149Y-93832749D01*
X149290369Y-93808716D01*
X149280992Y-93786077D01*
X149267378Y-93765702D01*
X149250055Y-93748379D01*
X149237184Y-93737816D01*
X149212066Y-93707210D01*
X149193402Y-93672291D01*
X149185512Y-93646282D01*
X149181908Y-93634401D01*
X149178028Y-93595000D01*
X149181908Y-93555599D01*
X149193403Y-93517707D01*
X149199166Y-93506925D01*
X149212066Y-93482790D01*
X149237184Y-93452184D01*
X149250055Y-93441621D01*
X149267377Y-93424299D01*
X149280991Y-93403925D01*
X149290368Y-93381286D01*
X149295149Y-93357253D01*
X149295149Y-93332749D01*
X149290369Y-93308716D01*
X149280992Y-93286077D01*
X149267378Y-93265702D01*
X149250055Y-93248379D01*
X149237184Y-93237816D01*
X149212066Y-93207210D01*
X149193402Y-93172291D01*
X149181909Y-93134403D01*
X149181908Y-93134401D01*
X149178028Y-93095000D01*
X149181908Y-93055599D01*
X149193403Y-93017707D01*
X149194534Y-93015590D01*
X149212066Y-92982790D01*
X149237184Y-92952184D01*
X149250055Y-92941621D01*
X149267377Y-92924299D01*
X149280991Y-92903925D01*
X149290368Y-92881286D01*
X149295149Y-92857253D01*
X149295149Y-92832749D01*
X149290369Y-92808716D01*
X149280992Y-92786077D01*
X149267378Y-92765702D01*
X149250055Y-92748379D01*
X149237184Y-92737816D01*
X149212066Y-92707210D01*
X149193402Y-92672291D01*
X149187656Y-92653347D01*
X149181908Y-92634401D01*
X149178028Y-92595000D01*
X149181908Y-92555599D01*
X149187656Y-92536653D01*
X149193402Y-92517709D01*
X149212066Y-92482790D01*
X149237184Y-92452184D01*
X149267790Y-92427066D01*
X149302709Y-92408402D01*
X149328007Y-92400728D01*
X149340599Y-92396908D01*
X149370126Y-92394000D01*
X149889874Y-92394000D01*
X149919401Y-92396908D01*
X149931993Y-92400728D01*
X149957291Y-92408402D01*
X149992210Y-92427066D01*
X149999711Y-92433222D01*
X150020076Y-92446830D01*
X150042715Y-92456207D01*
X150066748Y-92460988D01*
X150091252Y-92460988D01*
X150115285Y-92456208D01*
X150137924Y-92446831D01*
X150158299Y-92433217D01*
X150175626Y-92415890D01*
X150185728Y-92400772D01*
X150191037Y-92397934D01*
X150209979Y-92382389D01*
X150225524Y-92363447D01*
X150237075Y-92341836D01*
X150244188Y-92318387D01*
X150246590Y-92294001D01*
X150244188Y-92269615D01*
X150237075Y-92246166D01*
X150218221Y-92214709D01*
X150212066Y-92207209D01*
X150193402Y-92172290D01*
X150181909Y-92134402D01*
X150181908Y-92134400D01*
X150179000Y-92104873D01*
X150179001Y-91585127D01*
X150181909Y-91555599D01*
X150192504Y-91520674D01*
X150193403Y-91517709D01*
X150212067Y-91482790D01*
X150237185Y-91452184D01*
X150267791Y-91427066D01*
X150302710Y-91408402D01*
X150321654Y-91402655D01*
X150340600Y-91396908D01*
X150375696Y-91393452D01*
X150380000Y-91393028D01*
X150380001Y-91393028D01*
X150419401Y-91396908D01*
X150419401Y-91396908D01*
G37*
G36*
X141177674Y-92478465D02*
G01*
X141215367Y-92489899D01*
X141250103Y-92508466D01*
X141280548Y-92533452D01*
X141305534Y-92563897D01*
X141324101Y-92598633D01*
X141335535Y-92636326D01*
X141340000Y-92681661D01*
X141340000Y-93518339D01*
X141335535Y-93563674D01*
X141324101Y-93601367D01*
X141305534Y-93636103D01*
X141280548Y-93666548D01*
X141250103Y-93691534D01*
X141215367Y-93710101D01*
X141177674Y-93721535D01*
X141132339Y-93726000D01*
X140045661Y-93726000D01*
X140000326Y-93721535D01*
X139962633Y-93710101D01*
X139927897Y-93691534D01*
X139897452Y-93666548D01*
X139872466Y-93636103D01*
X139853899Y-93601367D01*
X139842465Y-93563674D01*
X139838000Y-93518339D01*
X139838000Y-92681661D01*
X139842465Y-92636326D01*
X139853899Y-92598633D01*
X139872466Y-92563897D01*
X139897452Y-92533452D01*
X139927897Y-92508466D01*
X139962633Y-92489899D01*
X140000326Y-92478465D01*
X140045661Y-92474000D01*
X141132339Y-92474000D01*
X141177674Y-92478465D01*
X141177674Y-92478465D01*
G37*
G36*
X138129674Y-92478465D02*
G01*
X138167367Y-92489899D01*
X138202103Y-92508466D01*
X138232548Y-92533452D01*
X138257534Y-92563897D01*
X138276101Y-92598633D01*
X138287535Y-92636326D01*
X138292000Y-92681661D01*
X138292000Y-93518339D01*
X138287535Y-93563674D01*
X138276101Y-93601367D01*
X138257534Y-93636103D01*
X138232548Y-93666548D01*
X138202103Y-93691534D01*
X138167367Y-93710101D01*
X138129674Y-93721535D01*
X138084339Y-93726000D01*
X136997661Y-93726000D01*
X136952326Y-93721535D01*
X136914633Y-93710101D01*
X136879897Y-93691534D01*
X136849452Y-93666548D01*
X136824466Y-93636103D01*
X136805899Y-93601367D01*
X136794465Y-93563674D01*
X136790000Y-93518339D01*
X136790000Y-92681661D01*
X136794465Y-92636326D01*
X136805899Y-92598633D01*
X136824466Y-92563897D01*
X136849452Y-92533452D01*
X136879897Y-92508466D01*
X136914633Y-92489899D01*
X136952326Y-92478465D01*
X136997661Y-92474000D01*
X138084339Y-92474000D01*
X138129674Y-92478465D01*
X138129674Y-92478465D01*
G37*
G36*
X146130674Y-92079465D02*
G01*
X146168367Y-92090899D01*
X146203103Y-92109466D01*
X146233548Y-92134452D01*
X146258534Y-92164897D01*
X146277101Y-92199633D01*
X146288535Y-92237326D01*
X146293000Y-92282661D01*
X146293000Y-93119339D01*
X146288535Y-93164674D01*
X146277101Y-93202367D01*
X146258534Y-93237103D01*
X146233548Y-93267548D01*
X146203103Y-93292534D01*
X146168367Y-93311101D01*
X146130674Y-93322535D01*
X146085339Y-93327000D01*
X144998661Y-93327000D01*
X144953326Y-93322535D01*
X144915633Y-93311101D01*
X144880897Y-93292534D01*
X144850452Y-93267548D01*
X144825466Y-93237103D01*
X144806899Y-93202367D01*
X144795465Y-93164674D01*
X144791000Y-93119339D01*
X144791000Y-92282661D01*
X144795465Y-92237326D01*
X144806899Y-92199633D01*
X144825466Y-92164897D01*
X144850452Y-92134452D01*
X144880897Y-92109466D01*
X144915633Y-92090899D01*
X144953326Y-92079465D01*
X144998661Y-92075000D01*
X146085339Y-92075000D01*
X146130674Y-92079465D01*
X146130674Y-92079465D01*
G37*
G36*
X168939883Y-89103000D02*
G01*
X169050072Y-89124918D01*
X169295939Y-89226759D01*
X169349918Y-89262827D01*
X169517211Y-89374609D01*
X169705391Y-89562789D01*
X169853242Y-89784063D01*
X169955082Y-90029928D01*
X170007000Y-90290937D01*
X170007000Y-90557063D01*
X169955082Y-90818072D01*
X169853242Y-91063937D01*
X169705391Y-91285211D01*
X169517211Y-91473391D01*
X169446447Y-91520674D01*
X169295939Y-91621241D01*
X169295938Y-91621242D01*
X169295937Y-91621242D01*
X169050072Y-91723082D01*
X168789063Y-91775000D01*
X168522937Y-91775000D01*
X168261928Y-91723082D01*
X168016063Y-91621242D01*
X168016062Y-91621242D01*
X168016061Y-91621241D01*
X167865553Y-91520674D01*
X167794789Y-91473391D01*
X167606609Y-91285211D01*
X167458758Y-91063937D01*
X167356918Y-90818072D01*
X167305000Y-90557063D01*
X167305000Y-90290937D01*
X167356918Y-90029928D01*
X167458758Y-89784063D01*
X167606609Y-89562789D01*
X167794789Y-89374609D01*
X167962082Y-89262827D01*
X168016061Y-89226759D01*
X168261928Y-89124918D01*
X168372117Y-89103000D01*
X168522937Y-89073000D01*
X168789063Y-89073000D01*
X168939883Y-89103000D01*
X168939883Y-89103000D01*
G37*
G36*
X165916820Y-90062103D02*
G01*
X165950985Y-90072467D01*
X165982464Y-90089293D01*
X166010060Y-90111940D01*
X166032707Y-90139536D01*
X166049533Y-90171015D01*
X166059897Y-90205180D01*
X166064000Y-90246842D01*
X166064000Y-91496158D01*
X166059897Y-91537820D01*
X166049533Y-91571985D01*
X166032707Y-91603464D01*
X166010060Y-91631060D01*
X165982464Y-91653707D01*
X165950985Y-91670533D01*
X165916820Y-91680897D01*
X165875158Y-91685000D01*
X162800842Y-91685000D01*
X162759180Y-91680897D01*
X162725015Y-91670533D01*
X162693536Y-91653707D01*
X162665940Y-91631060D01*
X162643293Y-91603464D01*
X162626467Y-91571985D01*
X162616103Y-91537820D01*
X162612000Y-91496158D01*
X162612000Y-90246842D01*
X162616103Y-90205180D01*
X162626467Y-90171015D01*
X162643293Y-90139536D01*
X162665940Y-90111940D01*
X162693536Y-90089293D01*
X162725015Y-90072467D01*
X162759180Y-90062103D01*
X162800842Y-90058000D01*
X165875158Y-90058000D01*
X165916820Y-90062103D01*
X165916820Y-90062103D01*
G37*
G36*
X159204674Y-90185465D02*
G01*
X159242367Y-90196899D01*
X159277103Y-90215466D01*
X159307548Y-90240452D01*
X159332534Y-90270897D01*
X159351101Y-90305633D01*
X159362535Y-90343326D01*
X159367000Y-90388661D01*
X159367000Y-91475339D01*
X159362535Y-91520674D01*
X159351101Y-91558367D01*
X159332534Y-91593103D01*
X159307548Y-91623548D01*
X159277103Y-91648534D01*
X159242367Y-91667101D01*
X159204674Y-91678535D01*
X159159339Y-91683000D01*
X158322661Y-91683000D01*
X158277326Y-91678535D01*
X158239633Y-91667101D01*
X158204897Y-91648534D01*
X158174452Y-91623548D01*
X158149466Y-91593103D01*
X158130899Y-91558367D01*
X158119465Y-91520674D01*
X158115000Y-91475339D01*
X158115000Y-90388661D01*
X158119465Y-90343326D01*
X158130899Y-90305633D01*
X158149466Y-90270897D01*
X158174452Y-90240452D01*
X158204897Y-90215466D01*
X158239633Y-90196899D01*
X158277326Y-90185465D01*
X158322661Y-90181000D01*
X159159339Y-90181000D01*
X159204674Y-90185465D01*
X159204674Y-90185465D01*
G37*
G36*
X161254674Y-90185465D02*
G01*
X161292367Y-90196899D01*
X161327103Y-90215466D01*
X161357548Y-90240452D01*
X161382534Y-90270897D01*
X161401101Y-90305633D01*
X161412535Y-90343326D01*
X161417000Y-90388661D01*
X161417000Y-91475339D01*
X161412535Y-91520674D01*
X161401101Y-91558367D01*
X161382534Y-91593103D01*
X161357548Y-91623548D01*
X161327103Y-91648534D01*
X161292367Y-91667101D01*
X161254674Y-91678535D01*
X161209339Y-91683000D01*
X160372661Y-91683000D01*
X160327326Y-91678535D01*
X160289633Y-91667101D01*
X160254897Y-91648534D01*
X160224452Y-91623548D01*
X160199466Y-91593103D01*
X160180899Y-91558367D01*
X160169465Y-91520674D01*
X160165000Y-91475339D01*
X160165000Y-90388661D01*
X160169465Y-90343326D01*
X160180899Y-90305633D01*
X160199466Y-90270897D01*
X160224452Y-90240452D01*
X160254897Y-90215466D01*
X160289633Y-90196899D01*
X160327326Y-90185465D01*
X160372661Y-90181000D01*
X161209339Y-90181000D01*
X161254674Y-90185465D01*
X161254674Y-90185465D01*
G37*
G36*
X141177674Y-90428465D02*
G01*
X141215367Y-90439899D01*
X141250103Y-90458466D01*
X141280548Y-90483452D01*
X141305534Y-90513897D01*
X141324101Y-90548633D01*
X141335535Y-90586326D01*
X141340000Y-90631661D01*
X141340000Y-91468339D01*
X141335535Y-91513674D01*
X141324101Y-91551367D01*
X141305534Y-91586103D01*
X141280548Y-91616548D01*
X141250103Y-91641534D01*
X141215367Y-91660101D01*
X141177674Y-91671535D01*
X141132339Y-91676000D01*
X140045661Y-91676000D01*
X140000326Y-91671535D01*
X139962633Y-91660101D01*
X139927897Y-91641534D01*
X139897452Y-91616548D01*
X139872466Y-91586103D01*
X139853899Y-91551367D01*
X139842465Y-91513674D01*
X139838000Y-91468339D01*
X139838000Y-90631661D01*
X139842465Y-90586326D01*
X139853899Y-90548633D01*
X139872466Y-90513897D01*
X139897452Y-90483452D01*
X139927897Y-90458466D01*
X139962633Y-90439899D01*
X140000326Y-90428465D01*
X140045661Y-90424000D01*
X141132339Y-90424000D01*
X141177674Y-90428465D01*
X141177674Y-90428465D01*
G37*
G36*
X138129674Y-90428465D02*
G01*
X138167367Y-90439899D01*
X138202103Y-90458466D01*
X138232548Y-90483452D01*
X138257534Y-90513897D01*
X138276101Y-90548633D01*
X138287535Y-90586326D01*
X138292000Y-90631661D01*
X138292000Y-91468339D01*
X138287535Y-91513674D01*
X138276101Y-91551367D01*
X138257534Y-91586103D01*
X138232548Y-91616548D01*
X138202103Y-91641534D01*
X138167367Y-91660101D01*
X138129674Y-91671535D01*
X138084339Y-91676000D01*
X136997661Y-91676000D01*
X136952326Y-91671535D01*
X136914633Y-91660101D01*
X136879897Y-91641534D01*
X136849452Y-91616548D01*
X136824466Y-91586103D01*
X136805899Y-91551367D01*
X136794465Y-91513674D01*
X136790000Y-91468339D01*
X136790000Y-90631661D01*
X136794465Y-90586326D01*
X136805899Y-90548633D01*
X136824466Y-90513897D01*
X136849452Y-90483452D01*
X136879897Y-90458466D01*
X136914633Y-90439899D01*
X136952326Y-90428465D01*
X136997661Y-90424000D01*
X138084339Y-90424000D01*
X138129674Y-90428465D01*
X138129674Y-90428465D01*
G37*
G36*
X157306674Y-88287465D02*
G01*
X157344367Y-88298899D01*
X157379103Y-88317466D01*
X157409548Y-88342452D01*
X157434534Y-88372897D01*
X157453101Y-88407633D01*
X157464535Y-88445326D01*
X157469000Y-88490661D01*
X157469000Y-89327339D01*
X157464535Y-89372674D01*
X157453101Y-89410367D01*
X157434534Y-89445103D01*
X157409548Y-89475548D01*
X157379103Y-89500534D01*
X157344367Y-89519101D01*
X157306674Y-89530535D01*
X157261339Y-89535000D01*
X156174661Y-89535000D01*
X156129326Y-89530535D01*
X156091633Y-89519101D01*
X156056897Y-89500534D01*
X156026452Y-89475548D01*
X156001466Y-89445103D01*
X155982899Y-89410367D01*
X155971465Y-89372674D01*
X155967000Y-89327339D01*
X155967000Y-88490661D01*
X155971465Y-88445326D01*
X155982899Y-88407633D01*
X156001466Y-88372897D01*
X156026452Y-88342452D01*
X156056897Y-88317466D01*
X156091633Y-88298899D01*
X156129326Y-88287465D01*
X156174661Y-88283000D01*
X157261339Y-88283000D01*
X157306674Y-88287465D01*
X157306674Y-88287465D01*
G37*
G36*
X121125000Y-89103000D02*
G01*
X120023000Y-89103000D01*
X120023000Y-87501000D01*
X121125000Y-87501000D01*
X121125000Y-89103000D01*
X121125000Y-89103000D01*
G37*
G36*
X124325000Y-89103000D02*
G01*
X123223000Y-89103000D01*
X123223000Y-87501000D01*
X124325000Y-87501000D01*
X124325000Y-89103000D01*
X124325000Y-89103000D01*
G37*
G36*
X141177674Y-87144465D02*
G01*
X141215367Y-87155899D01*
X141250103Y-87174466D01*
X141280548Y-87199452D01*
X141305534Y-87229897D01*
X141324101Y-87264633D01*
X141335535Y-87302326D01*
X141340000Y-87347661D01*
X141340000Y-88184339D01*
X141335535Y-88229674D01*
X141324101Y-88267367D01*
X141305534Y-88302103D01*
X141280548Y-88332548D01*
X141250103Y-88357534D01*
X141215367Y-88376101D01*
X141177674Y-88387535D01*
X141132339Y-88392000D01*
X140045661Y-88392000D01*
X140000326Y-88387535D01*
X139962633Y-88376101D01*
X139927897Y-88357534D01*
X139897452Y-88332548D01*
X139872466Y-88302103D01*
X139853899Y-88267367D01*
X139842465Y-88229674D01*
X139838000Y-88184339D01*
X139838000Y-87347661D01*
X139842465Y-87302326D01*
X139853899Y-87264633D01*
X139872466Y-87229897D01*
X139897452Y-87199452D01*
X139927897Y-87174466D01*
X139962633Y-87155899D01*
X140000326Y-87144465D01*
X140045661Y-87140000D01*
X141132339Y-87140000D01*
X141177674Y-87144465D01*
X141177674Y-87144465D01*
G37*
G36*
X138129674Y-87144465D02*
G01*
X138167367Y-87155899D01*
X138202103Y-87174466D01*
X138232548Y-87199452D01*
X138257534Y-87229897D01*
X138276101Y-87264633D01*
X138287535Y-87302326D01*
X138292000Y-87347661D01*
X138292000Y-88184339D01*
X138287535Y-88229674D01*
X138276101Y-88267367D01*
X138257534Y-88302103D01*
X138232548Y-88332548D01*
X138202103Y-88357534D01*
X138167367Y-88376101D01*
X138129674Y-88387535D01*
X138084339Y-88392000D01*
X136997661Y-88392000D01*
X136952326Y-88387535D01*
X136914633Y-88376101D01*
X136879897Y-88357534D01*
X136849452Y-88332548D01*
X136824466Y-88302103D01*
X136805899Y-88267367D01*
X136794465Y-88229674D01*
X136790000Y-88184339D01*
X136790000Y-87347661D01*
X136794465Y-87302326D01*
X136805899Y-87264633D01*
X136824466Y-87229897D01*
X136849452Y-87199452D01*
X136879897Y-87174466D01*
X136914633Y-87155899D01*
X136952326Y-87144465D01*
X136997661Y-87140000D01*
X138084339Y-87140000D01*
X138129674Y-87144465D01*
X138129674Y-87144465D01*
G37*
G36*
X149935000Y-88323000D02*
G01*
X148433000Y-88323000D01*
X148433000Y-85921000D01*
X149935000Y-85921000D01*
X149935000Y-88323000D01*
X149935000Y-88323000D01*
G37*
G36*
X154335000Y-88323000D02*
G01*
X152833000Y-88323000D01*
X152833000Y-85921000D01*
X154335000Y-85921000D01*
X154335000Y-88323000D01*
X154335000Y-88323000D01*
G37*
G36*
X157306674Y-86237465D02*
G01*
X157344367Y-86248899D01*
X157379103Y-86267466D01*
X157409548Y-86292452D01*
X157434534Y-86322897D01*
X157453101Y-86357633D01*
X157464535Y-86395326D01*
X157469000Y-86440661D01*
X157469000Y-87277339D01*
X157464535Y-87322674D01*
X157453101Y-87360367D01*
X157434534Y-87395103D01*
X157409548Y-87425548D01*
X157379103Y-87450534D01*
X157344367Y-87469101D01*
X157306674Y-87480535D01*
X157261339Y-87485000D01*
X156174661Y-87485000D01*
X156129326Y-87480535D01*
X156091633Y-87469101D01*
X156056897Y-87450534D01*
X156026452Y-87425548D01*
X156001466Y-87395103D01*
X155982899Y-87360367D01*
X155971465Y-87322674D01*
X155967000Y-87277339D01*
X155967000Y-86440661D01*
X155971465Y-86395326D01*
X155982899Y-86357633D01*
X156001466Y-86322897D01*
X156026452Y-86292452D01*
X156056897Y-86267466D01*
X156091633Y-86248899D01*
X156129326Y-86237465D01*
X156174661Y-86233000D01*
X157261339Y-86233000D01*
X157306674Y-86237465D01*
X157306674Y-86237465D01*
G37*
G36*
X170007000Y-86695000D02*
G01*
X167305000Y-86695000D01*
X167305000Y-83993000D01*
X170007000Y-83993000D01*
X170007000Y-86695000D01*
X170007000Y-86695000D01*
G37*
G36*
X141177674Y-85094465D02*
G01*
X141215367Y-85105899D01*
X141250103Y-85124466D01*
X141280548Y-85149452D01*
X141305534Y-85179897D01*
X141324101Y-85214633D01*
X141335535Y-85252326D01*
X141340000Y-85297661D01*
X141340000Y-86134339D01*
X141335535Y-86179674D01*
X141324101Y-86217367D01*
X141305534Y-86252103D01*
X141280548Y-86282548D01*
X141250103Y-86307534D01*
X141215367Y-86326101D01*
X141177674Y-86337535D01*
X141132339Y-86342000D01*
X140045661Y-86342000D01*
X140000326Y-86337535D01*
X139962633Y-86326101D01*
X139927897Y-86307534D01*
X139897452Y-86282548D01*
X139872466Y-86252103D01*
X139853899Y-86217367D01*
X139842465Y-86179674D01*
X139838000Y-86134339D01*
X139838000Y-85297661D01*
X139842465Y-85252326D01*
X139853899Y-85214633D01*
X139872466Y-85179897D01*
X139897452Y-85149452D01*
X139927897Y-85124466D01*
X139962633Y-85105899D01*
X140000326Y-85094465D01*
X140045661Y-85090000D01*
X141132339Y-85090000D01*
X141177674Y-85094465D01*
X141177674Y-85094465D01*
G37*
G36*
X138129674Y-85094465D02*
G01*
X138167367Y-85105899D01*
X138202103Y-85124466D01*
X138232548Y-85149452D01*
X138257534Y-85179897D01*
X138276101Y-85214633D01*
X138287535Y-85252326D01*
X138292000Y-85297661D01*
X138292000Y-86134339D01*
X138287535Y-86179674D01*
X138276101Y-86217367D01*
X138257534Y-86252103D01*
X138232548Y-86282548D01*
X138202103Y-86307534D01*
X138167367Y-86326101D01*
X138129674Y-86337535D01*
X138084339Y-86342000D01*
X136997661Y-86342000D01*
X136952326Y-86337535D01*
X136914633Y-86326101D01*
X136879897Y-86307534D01*
X136849452Y-86282548D01*
X136824466Y-86252103D01*
X136805899Y-86217367D01*
X136794465Y-86179674D01*
X136790000Y-86134339D01*
X136790000Y-85297661D01*
X136794465Y-85252326D01*
X136805899Y-85214633D01*
X136824466Y-85179897D01*
X136849452Y-85149452D01*
X136879897Y-85124466D01*
X136914633Y-85105899D01*
X136952326Y-85094465D01*
X136997661Y-85090000D01*
X138084339Y-85090000D01*
X138129674Y-85094465D01*
X138129674Y-85094465D01*
G37*
G36*
X132219000Y-85737000D02*
G01*
X130417000Y-85737000D01*
X130417000Y-83935000D01*
X132219000Y-83935000D01*
X132219000Y-85737000D01*
X132219000Y-85737000D01*
G37*
G36*
X128888443Y-83941519D02*
G01*
X128954627Y-83948037D01*
X129124466Y-83999557D01*
X129280991Y-84083222D01*
X129308402Y-84105718D01*
X129418186Y-84195814D01*
X129497665Y-84292661D01*
X129530778Y-84333009D01*
X129614443Y-84489534D01*
X129665963Y-84659373D01*
X129683359Y-84836000D01*
X129665963Y-85012627D01*
X129614443Y-85182466D01*
X129530778Y-85338991D01*
X129511753Y-85362173D01*
X129418186Y-85476186D01*
X129339049Y-85541131D01*
X129280991Y-85588778D01*
X129124466Y-85672443D01*
X128954627Y-85723963D01*
X128888443Y-85730481D01*
X128822260Y-85737000D01*
X128733740Y-85737000D01*
X128667557Y-85730481D01*
X128601373Y-85723963D01*
X128431534Y-85672443D01*
X128275009Y-85588778D01*
X128216951Y-85541131D01*
X128137814Y-85476186D01*
X128044247Y-85362173D01*
X128025222Y-85338991D01*
X127941557Y-85182466D01*
X127890037Y-85012627D01*
X127872641Y-84836000D01*
X127890037Y-84659373D01*
X127941557Y-84489534D01*
X128025222Y-84333009D01*
X128058335Y-84292661D01*
X128137814Y-84195814D01*
X128247598Y-84105718D01*
X128275009Y-84083222D01*
X128431534Y-83999557D01*
X128601373Y-83948037D01*
X128667557Y-83941519D01*
X128733740Y-83935000D01*
X128822260Y-83935000D01*
X128888443Y-83941519D01*
X128888443Y-83941519D01*
G37*
G36*
X165916820Y-84087103D02*
G01*
X165950985Y-84097467D01*
X165982464Y-84114293D01*
X166010060Y-84136940D01*
X166032707Y-84164536D01*
X166049533Y-84196015D01*
X166059897Y-84230180D01*
X166064000Y-84271842D01*
X166064000Y-85521158D01*
X166059897Y-85562820D01*
X166049533Y-85596985D01*
X166032707Y-85628464D01*
X166010060Y-85656060D01*
X165982464Y-85678707D01*
X165950985Y-85695533D01*
X165916820Y-85705897D01*
X165875158Y-85710000D01*
X162800842Y-85710000D01*
X162759180Y-85705897D01*
X162725015Y-85695533D01*
X162693536Y-85678707D01*
X162665940Y-85656060D01*
X162643293Y-85628464D01*
X162626467Y-85596985D01*
X162616103Y-85562820D01*
X162612000Y-85521158D01*
X162612000Y-84271842D01*
X162616103Y-84230180D01*
X162626467Y-84196015D01*
X162643293Y-84164536D01*
X162665940Y-84136940D01*
X162693536Y-84114293D01*
X162725015Y-84097467D01*
X162759180Y-84087103D01*
X162800842Y-84083000D01*
X165875158Y-84083000D01*
X165916820Y-84087103D01*
X165916820Y-84087103D01*
G37*
G36*
X161254674Y-84089465D02*
G01*
X161292367Y-84100899D01*
X161327103Y-84119466D01*
X161357548Y-84144452D01*
X161382534Y-84174897D01*
X161401101Y-84209633D01*
X161412535Y-84247326D01*
X161417000Y-84292661D01*
X161417000Y-85379339D01*
X161412535Y-85424674D01*
X161401101Y-85462367D01*
X161382534Y-85497103D01*
X161357548Y-85527548D01*
X161327103Y-85552534D01*
X161292367Y-85571101D01*
X161254674Y-85582535D01*
X161209339Y-85587000D01*
X160372661Y-85587000D01*
X160327326Y-85582535D01*
X160289633Y-85571101D01*
X160254897Y-85552534D01*
X160224452Y-85527548D01*
X160199466Y-85497103D01*
X160180899Y-85462367D01*
X160169465Y-85424674D01*
X160165000Y-85379339D01*
X160165000Y-84292661D01*
X160169465Y-84247326D01*
X160180899Y-84209633D01*
X160199466Y-84174897D01*
X160224452Y-84144452D01*
X160254897Y-84119466D01*
X160289633Y-84100899D01*
X160327326Y-84089465D01*
X160372661Y-84085000D01*
X161209339Y-84085000D01*
X161254674Y-84089465D01*
X161254674Y-84089465D01*
G37*
G36*
X159204674Y-84089465D02*
G01*
X159242367Y-84100899D01*
X159277103Y-84119466D01*
X159307548Y-84144452D01*
X159332534Y-84174897D01*
X159351101Y-84209633D01*
X159362535Y-84247326D01*
X159367000Y-84292661D01*
X159367000Y-85379339D01*
X159362535Y-85424674D01*
X159351101Y-85462367D01*
X159332534Y-85497103D01*
X159307548Y-85527548D01*
X159277103Y-85552534D01*
X159242367Y-85571101D01*
X159204674Y-85582535D01*
X159159339Y-85587000D01*
X158322661Y-85587000D01*
X158277326Y-85582535D01*
X158239633Y-85571101D01*
X158204897Y-85552534D01*
X158174452Y-85527548D01*
X158149466Y-85497103D01*
X158130899Y-85462367D01*
X158119465Y-85424674D01*
X158115000Y-85379339D01*
X158115000Y-84292661D01*
X158119465Y-84247326D01*
X158130899Y-84209633D01*
X158149466Y-84174897D01*
X158174452Y-84144452D01*
X158204897Y-84119466D01*
X158239633Y-84100899D01*
X158277326Y-84089465D01*
X158322661Y-84085000D01*
X159159339Y-84085000D01*
X159204674Y-84089465D01*
X159204674Y-84089465D01*
G37*
G36*
X121125000Y-84203000D02*
G01*
X120023000Y-84203000D01*
X120023000Y-82601000D01*
X121125000Y-82601000D01*
X121125000Y-84203000D01*
X121125000Y-84203000D01*
G37*
G36*
X124325000Y-84203000D02*
G01*
X123223000Y-84203000D01*
X123223000Y-82601000D01*
X124325000Y-82601000D01*
X124325000Y-84203000D01*
X124325000Y-84203000D01*
G37*
G36*
X80810213Y-81296249D02*
G01*
X80904652Y-81324897D01*
X80991687Y-81371418D01*
X81067975Y-81434025D01*
X81130582Y-81510313D01*
X81177103Y-81597348D01*
X81205751Y-81691787D01*
X81215424Y-81790000D01*
X81205751Y-81888213D01*
X81177103Y-81982652D01*
X81130582Y-82069687D01*
X81067975Y-82145975D01*
X80991687Y-82208582D01*
X80904652Y-82255103D01*
X80810213Y-82283751D01*
X80736612Y-82291000D01*
X79587388Y-82291000D01*
X79513787Y-82283751D01*
X79419348Y-82255103D01*
X79332313Y-82208582D01*
X79256025Y-82145975D01*
X79193418Y-82069687D01*
X79146897Y-81982652D01*
X79118249Y-81888213D01*
X79108576Y-81790000D01*
X79118249Y-81691787D01*
X79146897Y-81597348D01*
X79193418Y-81510313D01*
X79256025Y-81434025D01*
X79332313Y-81371418D01*
X79419348Y-81324897D01*
X79513787Y-81296249D01*
X79587388Y-81289000D01*
X80736612Y-81289000D01*
X80810213Y-81296249D01*
X80810213Y-81296249D01*
G37*
G36*
X76490213Y-81296249D02*
G01*
X76584652Y-81324897D01*
X76671687Y-81371418D01*
X76747975Y-81434025D01*
X76810582Y-81510313D01*
X76857103Y-81597348D01*
X76885751Y-81691787D01*
X76895424Y-81790000D01*
X76885751Y-81888213D01*
X76857103Y-81982652D01*
X76810582Y-82069687D01*
X76747975Y-82145975D01*
X76671687Y-82208582D01*
X76584652Y-82255103D01*
X76490213Y-82283751D01*
X76416612Y-82291000D01*
X75567388Y-82291000D01*
X75493787Y-82283751D01*
X75399348Y-82255103D01*
X75312313Y-82208582D01*
X75236025Y-82145975D01*
X75173418Y-82069687D01*
X75126897Y-81982652D01*
X75098249Y-81888213D01*
X75088576Y-81790000D01*
X75098249Y-81691787D01*
X75126897Y-81597348D01*
X75173418Y-81510313D01*
X75236025Y-81434025D01*
X75312313Y-81371418D01*
X75399348Y-81324897D01*
X75493787Y-81296249D01*
X75567388Y-81289000D01*
X76416612Y-81289000D01*
X76490213Y-81296249D01*
X76490213Y-81296249D01*
G37*
G36*
X169050072Y-77948918D02*
G01*
X169283359Y-78045548D01*
X169295939Y-78050759D01*
X169370433Y-78100535D01*
X169517211Y-78198609D01*
X169705391Y-78386789D01*
X169853242Y-78608063D01*
X169955082Y-78853928D01*
X170007000Y-79114937D01*
X170007000Y-79381063D01*
X169955082Y-79642072D01*
X169853242Y-79887937D01*
X169705391Y-80109211D01*
X169517211Y-80297391D01*
X169446447Y-80344674D01*
X169295939Y-80445241D01*
X169295938Y-80445242D01*
X169295937Y-80445242D01*
X169050072Y-80547082D01*
X168789063Y-80599000D01*
X168522937Y-80599000D01*
X168261928Y-80547082D01*
X168016063Y-80445242D01*
X168016062Y-80445242D01*
X168016061Y-80445241D01*
X167865553Y-80344674D01*
X167794789Y-80297391D01*
X167606609Y-80109211D01*
X167458758Y-79887937D01*
X167356918Y-79642072D01*
X167305000Y-79381063D01*
X167305000Y-79114937D01*
X167356918Y-78853928D01*
X167458758Y-78608063D01*
X167606609Y-78386789D01*
X167794789Y-78198609D01*
X167941567Y-78100535D01*
X168016061Y-78050759D01*
X168028642Y-78045548D01*
X168261928Y-77948918D01*
X168522937Y-77897000D01*
X168789063Y-77897000D01*
X169050072Y-77948918D01*
X169050072Y-77948918D01*
G37*
G36*
X165916820Y-78886103D02*
G01*
X165950985Y-78896467D01*
X165982464Y-78913293D01*
X166010060Y-78935940D01*
X166032707Y-78963536D01*
X166049533Y-78995015D01*
X166059897Y-79029180D01*
X166064000Y-79070842D01*
X166064000Y-80320158D01*
X166059897Y-80361820D01*
X166049533Y-80395985D01*
X166032707Y-80427464D01*
X166010060Y-80455060D01*
X165982464Y-80477707D01*
X165950985Y-80494533D01*
X165916820Y-80504897D01*
X165875158Y-80509000D01*
X162800842Y-80509000D01*
X162759180Y-80504897D01*
X162725015Y-80494533D01*
X162693536Y-80477707D01*
X162665940Y-80455060D01*
X162643293Y-80427464D01*
X162626467Y-80395985D01*
X162616103Y-80361820D01*
X162612000Y-80320158D01*
X162612000Y-79070842D01*
X162616103Y-79029180D01*
X162626467Y-78995015D01*
X162643293Y-78963536D01*
X162665940Y-78935940D01*
X162693536Y-78913293D01*
X162725015Y-78896467D01*
X162759180Y-78886103D01*
X162800842Y-78882000D01*
X165875158Y-78882000D01*
X165916820Y-78886103D01*
X165916820Y-78886103D01*
G37*
G36*
X161245674Y-79009465D02*
G01*
X161283367Y-79020899D01*
X161318103Y-79039466D01*
X161348548Y-79064452D01*
X161373534Y-79094897D01*
X161392101Y-79129633D01*
X161403535Y-79167326D01*
X161408000Y-79212661D01*
X161408000Y-80299339D01*
X161403535Y-80344674D01*
X161392101Y-80382367D01*
X161373534Y-80417103D01*
X161348548Y-80447548D01*
X161318103Y-80472534D01*
X161283367Y-80491101D01*
X161245674Y-80502535D01*
X161200339Y-80507000D01*
X160363661Y-80507000D01*
X160318326Y-80502535D01*
X160280633Y-80491101D01*
X160245897Y-80472534D01*
X160215452Y-80447548D01*
X160190466Y-80417103D01*
X160171899Y-80382367D01*
X160160465Y-80344674D01*
X160156000Y-80299339D01*
X160156000Y-79212661D01*
X160160465Y-79167326D01*
X160171899Y-79129633D01*
X160190466Y-79094897D01*
X160215452Y-79064452D01*
X160245897Y-79039466D01*
X160280633Y-79020899D01*
X160318326Y-79009465D01*
X160363661Y-79005000D01*
X161200339Y-79005000D01*
X161245674Y-79009465D01*
X161245674Y-79009465D01*
G37*
G36*
X159195674Y-79009465D02*
G01*
X159233367Y-79020899D01*
X159268103Y-79039466D01*
X159298548Y-79064452D01*
X159323534Y-79094897D01*
X159342101Y-79129633D01*
X159353535Y-79167326D01*
X159358000Y-79212661D01*
X159358000Y-80299339D01*
X159353535Y-80344674D01*
X159342101Y-80382367D01*
X159323534Y-80417103D01*
X159298548Y-80447548D01*
X159268103Y-80472534D01*
X159233367Y-80491101D01*
X159195674Y-80502535D01*
X159150339Y-80507000D01*
X158313661Y-80507000D01*
X158268326Y-80502535D01*
X158230633Y-80491101D01*
X158195897Y-80472534D01*
X158165452Y-80447548D01*
X158140466Y-80417103D01*
X158121899Y-80382367D01*
X158110465Y-80344674D01*
X158106000Y-80299339D01*
X158106000Y-79212661D01*
X158110465Y-79167326D01*
X158121899Y-79129633D01*
X158140466Y-79094897D01*
X158165452Y-79064452D01*
X158195897Y-79039466D01*
X158230633Y-79020899D01*
X158268326Y-79009465D01*
X158313661Y-79005000D01*
X159150339Y-79005000D01*
X159195674Y-79009465D01*
X159195674Y-79009465D01*
G37*
G36*
X139019000Y-79479000D02*
G01*
X138117000Y-79479000D01*
X138117000Y-78127000D01*
X139019000Y-78127000D01*
X139019000Y-79479000D01*
X139019000Y-79479000D01*
G37*
G36*
X137219000Y-79479000D02*
G01*
X136317000Y-79479000D01*
X136317000Y-78127000D01*
X137219000Y-78127000D01*
X137219000Y-79479000D01*
X137219000Y-79479000D01*
G37*
G36*
X157306674Y-76857465D02*
G01*
X157344367Y-76868899D01*
X157379103Y-76887466D01*
X157409548Y-76912452D01*
X157434534Y-76942897D01*
X157453101Y-76977633D01*
X157464535Y-77015326D01*
X157469000Y-77060661D01*
X157469000Y-77897339D01*
X157464535Y-77942674D01*
X157453101Y-77980367D01*
X157434534Y-78015103D01*
X157409548Y-78045548D01*
X157379103Y-78070534D01*
X157344367Y-78089101D01*
X157306674Y-78100535D01*
X157261339Y-78105000D01*
X156174661Y-78105000D01*
X156129326Y-78100535D01*
X156091633Y-78089101D01*
X156056897Y-78070534D01*
X156026452Y-78045548D01*
X156001466Y-78015103D01*
X155982899Y-77980367D01*
X155971465Y-77942674D01*
X155967000Y-77897339D01*
X155967000Y-77060661D01*
X155971465Y-77015326D01*
X155982899Y-76977633D01*
X156001466Y-76942897D01*
X156026452Y-76912452D01*
X156056897Y-76887466D01*
X156091633Y-76868899D01*
X156129326Y-76857465D01*
X156174661Y-76853000D01*
X157261339Y-76853000D01*
X157306674Y-76857465D01*
X157306674Y-76857465D01*
G37*
G36*
X139019000Y-77829000D02*
G01*
X138117000Y-77829000D01*
X138117000Y-76477000D01*
X139019000Y-76477000D01*
X139019000Y-77829000D01*
X139019000Y-77829000D01*
G37*
G36*
X137219000Y-77829000D02*
G01*
X136317000Y-77829000D01*
X136317000Y-76477000D01*
X137219000Y-76477000D01*
X137219000Y-77829000D01*
X137219000Y-77829000D01*
G37*
G36*
X88498642Y-76064781D02*
G01*
X88644414Y-76125162D01*
X88644416Y-76125163D01*
X88775608Y-76212822D01*
X88887178Y-76324392D01*
X88974837Y-76455584D01*
X88974838Y-76455586D01*
X89035219Y-76601358D01*
X89066000Y-76756107D01*
X89066000Y-76913893D01*
X89035219Y-77068642D01*
X89011803Y-77125173D01*
X88974837Y-77214416D01*
X88887178Y-77345608D01*
X88775608Y-77457178D01*
X88644416Y-77544837D01*
X88644415Y-77544838D01*
X88644414Y-77544838D01*
X88498642Y-77605219D01*
X88343893Y-77636000D01*
X88186107Y-77636000D01*
X88031358Y-77605219D01*
X87885586Y-77544838D01*
X87885585Y-77544838D01*
X87885584Y-77544837D01*
X87754392Y-77457178D01*
X87642822Y-77345608D01*
X87555163Y-77214416D01*
X87518197Y-77125173D01*
X87494781Y-77068642D01*
X87464000Y-76913893D01*
X87464000Y-76756107D01*
X87494781Y-76601358D01*
X87555162Y-76455586D01*
X87555163Y-76455584D01*
X87642822Y-76324392D01*
X87754392Y-76212822D01*
X87885584Y-76125163D01*
X87885586Y-76125162D01*
X88031358Y-76064781D01*
X88186107Y-76034000D01*
X88343893Y-76034000D01*
X88498642Y-76064781D01*
X88498642Y-76064781D01*
G37*
G36*
X85323642Y-76064781D02*
G01*
X85469414Y-76125162D01*
X85469416Y-76125163D01*
X85600608Y-76212822D01*
X85712178Y-76324392D01*
X85799837Y-76455584D01*
X85799838Y-76455586D01*
X85860219Y-76601358D01*
X85891000Y-76756107D01*
X85891000Y-76913893D01*
X85860219Y-77068642D01*
X85836803Y-77125173D01*
X85799837Y-77214416D01*
X85712178Y-77345608D01*
X85600608Y-77457178D01*
X85469416Y-77544837D01*
X85469415Y-77544838D01*
X85469414Y-77544838D01*
X85323642Y-77605219D01*
X85168893Y-77636000D01*
X85011107Y-77636000D01*
X84856358Y-77605219D01*
X84710586Y-77544838D01*
X84710585Y-77544838D01*
X84710584Y-77544837D01*
X84579392Y-77457178D01*
X84467822Y-77345608D01*
X84380163Y-77214416D01*
X84343197Y-77125173D01*
X84319781Y-77068642D01*
X84289000Y-76913893D01*
X84289000Y-76756107D01*
X84319781Y-76601358D01*
X84380162Y-76455586D01*
X84380163Y-76455584D01*
X84467822Y-76324392D01*
X84579392Y-76212822D01*
X84710584Y-76125163D01*
X84710586Y-76125162D01*
X84856358Y-76064781D01*
X85011107Y-76034000D01*
X85168893Y-76034000D01*
X85323642Y-76064781D01*
X85323642Y-76064781D01*
G37*
G36*
X157306674Y-74807465D02*
G01*
X157344367Y-74818899D01*
X157379103Y-74837466D01*
X157409548Y-74862452D01*
X157434534Y-74892897D01*
X157453101Y-74927633D01*
X157464535Y-74965326D01*
X157469000Y-75010661D01*
X157469000Y-75847339D01*
X157464535Y-75892674D01*
X157453101Y-75930367D01*
X157434534Y-75965103D01*
X157409548Y-75995548D01*
X157379103Y-76020534D01*
X157344367Y-76039101D01*
X157306674Y-76050535D01*
X157261339Y-76055000D01*
X156174661Y-76055000D01*
X156129326Y-76050535D01*
X156091633Y-76039101D01*
X156056897Y-76020534D01*
X156026452Y-75995548D01*
X156001466Y-75965103D01*
X155982899Y-75930367D01*
X155971465Y-75892674D01*
X155967000Y-75847339D01*
X155967000Y-75010661D01*
X155971465Y-74965326D01*
X155982899Y-74927633D01*
X156001466Y-74892897D01*
X156026452Y-74862452D01*
X156056897Y-74837466D01*
X156091633Y-74818899D01*
X156129326Y-74807465D01*
X156174661Y-74803000D01*
X157261339Y-74803000D01*
X157306674Y-74807465D01*
X157306674Y-74807465D01*
G37*
G36*
X170007000Y-75519000D02*
G01*
X167305000Y-75519000D01*
X167305000Y-72817000D01*
X170007000Y-72817000D01*
X170007000Y-75519000D01*
X170007000Y-75519000D01*
G37*
G36*
X137219000Y-74653000D02*
G01*
X136317000Y-74653000D01*
X136317000Y-73301000D01*
X137219000Y-73301000D01*
X137219000Y-74653000D01*
X137219000Y-74653000D01*
G37*
G36*
X139019000Y-74653000D02*
G01*
X138117000Y-74653000D01*
X138117000Y-73301000D01*
X139019000Y-73301000D01*
X139019000Y-74653000D01*
X139019000Y-74653000D01*
G37*
G36*
X165916820Y-72911103D02*
G01*
X165950985Y-72921467D01*
X165982464Y-72938293D01*
X166010060Y-72960940D01*
X166032707Y-72988536D01*
X166049533Y-73020015D01*
X166059897Y-73054180D01*
X166064000Y-73095842D01*
X166064000Y-74345158D01*
X166059897Y-74386820D01*
X166049533Y-74420985D01*
X166032707Y-74452464D01*
X166010060Y-74480060D01*
X165982464Y-74502707D01*
X165950985Y-74519533D01*
X165916820Y-74529897D01*
X165875158Y-74534000D01*
X162800842Y-74534000D01*
X162759180Y-74529897D01*
X162725015Y-74519533D01*
X162693536Y-74502707D01*
X162665940Y-74480060D01*
X162643293Y-74452464D01*
X162626467Y-74420985D01*
X162616103Y-74386820D01*
X162612000Y-74345158D01*
X162612000Y-73095842D01*
X162616103Y-73054180D01*
X162626467Y-73020015D01*
X162643293Y-72988536D01*
X162665940Y-72960940D01*
X162693536Y-72938293D01*
X162725015Y-72921467D01*
X162759180Y-72911103D01*
X162800842Y-72907000D01*
X165875158Y-72907000D01*
X165916820Y-72911103D01*
X165916820Y-72911103D01*
G37*
G36*
X161254674Y-72913465D02*
G01*
X161292367Y-72924899D01*
X161327103Y-72943466D01*
X161357548Y-72968452D01*
X161382534Y-72998897D01*
X161401101Y-73033633D01*
X161412535Y-73071326D01*
X161417000Y-73116661D01*
X161417000Y-74203339D01*
X161412535Y-74248674D01*
X161401101Y-74286367D01*
X161382534Y-74321103D01*
X161357548Y-74351548D01*
X161327103Y-74376534D01*
X161292367Y-74395101D01*
X161254674Y-74406535D01*
X161209339Y-74411000D01*
X160372661Y-74411000D01*
X160327326Y-74406535D01*
X160289633Y-74395101D01*
X160254897Y-74376534D01*
X160224452Y-74351548D01*
X160199466Y-74321103D01*
X160180899Y-74286367D01*
X160169465Y-74248674D01*
X160165000Y-74203339D01*
X160165000Y-73116661D01*
X160169465Y-73071326D01*
X160180899Y-73033633D01*
X160199466Y-72998897D01*
X160224452Y-72968452D01*
X160254897Y-72943466D01*
X160289633Y-72924899D01*
X160327326Y-72913465D01*
X160372661Y-72909000D01*
X161209339Y-72909000D01*
X161254674Y-72913465D01*
X161254674Y-72913465D01*
G37*
G36*
X159204674Y-72913465D02*
G01*
X159242367Y-72924899D01*
X159277103Y-72943466D01*
X159307548Y-72968452D01*
X159332534Y-72998897D01*
X159351101Y-73033633D01*
X159362535Y-73071326D01*
X159367000Y-73116661D01*
X159367000Y-74203339D01*
X159362535Y-74248674D01*
X159351101Y-74286367D01*
X159332534Y-74321103D01*
X159307548Y-74351548D01*
X159277103Y-74376534D01*
X159242367Y-74395101D01*
X159204674Y-74406535D01*
X159159339Y-74411000D01*
X158322661Y-74411000D01*
X158277326Y-74406535D01*
X158239633Y-74395101D01*
X158204897Y-74376534D01*
X158174452Y-74351548D01*
X158149466Y-74321103D01*
X158130899Y-74286367D01*
X158119465Y-74248674D01*
X158115000Y-74203339D01*
X158115000Y-73116661D01*
X158119465Y-73071326D01*
X158130899Y-73033633D01*
X158149466Y-72998897D01*
X158174452Y-72968452D01*
X158204897Y-72943466D01*
X158239633Y-72924899D01*
X158277326Y-72913465D01*
X158322661Y-72909000D01*
X159159339Y-72909000D01*
X159204674Y-72913465D01*
X159204674Y-72913465D01*
G37*
G36*
X100563642Y-72254781D02*
G01*
X100709414Y-72315162D01*
X100709416Y-72315163D01*
X100840608Y-72402822D01*
X100952178Y-72514392D01*
X101039837Y-72645584D01*
X101039838Y-72645586D01*
X101100219Y-72791358D01*
X101131000Y-72946107D01*
X101131000Y-73103893D01*
X101100219Y-73258642D01*
X101039838Y-73404414D01*
X101039837Y-73404416D01*
X100952178Y-73535608D01*
X100840608Y-73647178D01*
X100709416Y-73734837D01*
X100709415Y-73734838D01*
X100709414Y-73734838D01*
X100563642Y-73795219D01*
X100408893Y-73826000D01*
X100251107Y-73826000D01*
X100096358Y-73795219D01*
X99950586Y-73734838D01*
X99950585Y-73734838D01*
X99950584Y-73734837D01*
X99819392Y-73647178D01*
X99707822Y-73535608D01*
X99620163Y-73404416D01*
X99620162Y-73404414D01*
X99559781Y-73258642D01*
X99529000Y-73103893D01*
X99529000Y-72946107D01*
X99559781Y-72791358D01*
X99620162Y-72645586D01*
X99620163Y-72645584D01*
X99707822Y-72514392D01*
X99819392Y-72402822D01*
X99950584Y-72315163D01*
X99950586Y-72315162D01*
X100096358Y-72254781D01*
X100251107Y-72224000D01*
X100408893Y-72224000D01*
X100563642Y-72254781D01*
X100563642Y-72254781D01*
G37*
G36*
X104373642Y-72254781D02*
G01*
X104519414Y-72315162D01*
X104519416Y-72315163D01*
X104650608Y-72402822D01*
X104762178Y-72514392D01*
X104849837Y-72645584D01*
X104849838Y-72645586D01*
X104910219Y-72791358D01*
X104941000Y-72946107D01*
X104941000Y-73103893D01*
X104910219Y-73258642D01*
X104849838Y-73404414D01*
X104849837Y-73404416D01*
X104762178Y-73535608D01*
X104650608Y-73647178D01*
X104519416Y-73734837D01*
X104519415Y-73734838D01*
X104519414Y-73734838D01*
X104373642Y-73795219D01*
X104218893Y-73826000D01*
X104061107Y-73826000D01*
X103906358Y-73795219D01*
X103760586Y-73734838D01*
X103760585Y-73734838D01*
X103760584Y-73734837D01*
X103629392Y-73647178D01*
X103517822Y-73535608D01*
X103430163Y-73404416D01*
X103430162Y-73404414D01*
X103369781Y-73258642D01*
X103339000Y-73103893D01*
X103339000Y-72946107D01*
X103369781Y-72791358D01*
X103430162Y-72645586D01*
X103430163Y-72645584D01*
X103517822Y-72514392D01*
X103629392Y-72402822D01*
X103760584Y-72315163D01*
X103760586Y-72315162D01*
X103906358Y-72254781D01*
X104061107Y-72224000D01*
X104218893Y-72224000D01*
X104373642Y-72254781D01*
X104373642Y-72254781D01*
G37*
G36*
X80810213Y-72656249D02*
G01*
X80904652Y-72684897D01*
X80991687Y-72731418D01*
X81067975Y-72794025D01*
X81130582Y-72870313D01*
X81177103Y-72957348D01*
X81205751Y-73051787D01*
X81215424Y-73150000D01*
X81205751Y-73248213D01*
X81177103Y-73342652D01*
X81130582Y-73429687D01*
X81067975Y-73505975D01*
X80991687Y-73568582D01*
X80904652Y-73615103D01*
X80810213Y-73643751D01*
X80736612Y-73651000D01*
X79587388Y-73651000D01*
X79513787Y-73643751D01*
X79419348Y-73615103D01*
X79332313Y-73568582D01*
X79256025Y-73505975D01*
X79193418Y-73429687D01*
X79146897Y-73342652D01*
X79118249Y-73248213D01*
X79108576Y-73150000D01*
X79118249Y-73051787D01*
X79146897Y-72957348D01*
X79193418Y-72870313D01*
X79256025Y-72794025D01*
X79332313Y-72731418D01*
X79419348Y-72684897D01*
X79513787Y-72656249D01*
X79587388Y-72649000D01*
X80736612Y-72649000D01*
X80810213Y-72656249D01*
X80810213Y-72656249D01*
G37*
G36*
X76490213Y-72656249D02*
G01*
X76584652Y-72684897D01*
X76671687Y-72731418D01*
X76747975Y-72794025D01*
X76810582Y-72870313D01*
X76857103Y-72957348D01*
X76885751Y-73051787D01*
X76895424Y-73150000D01*
X76885751Y-73248213D01*
X76857103Y-73342652D01*
X76810582Y-73429687D01*
X76747975Y-73505975D01*
X76671687Y-73568582D01*
X76584652Y-73615103D01*
X76490213Y-73643751D01*
X76416612Y-73651000D01*
X75567388Y-73651000D01*
X75493787Y-73643751D01*
X75399348Y-73615103D01*
X75312313Y-73568582D01*
X75236025Y-73505975D01*
X75173418Y-73429687D01*
X75126897Y-73342652D01*
X75098249Y-73248213D01*
X75088576Y-73150000D01*
X75098249Y-73051787D01*
X75126897Y-72957348D01*
X75173418Y-72870313D01*
X75236025Y-72794025D01*
X75312313Y-72731418D01*
X75399348Y-72684897D01*
X75493787Y-72656249D01*
X75567388Y-72649000D01*
X76416612Y-72649000D01*
X76490213Y-72656249D01*
X76490213Y-72656249D01*
G37*
G36*
X139019000Y-73003000D02*
G01*
X138117000Y-73003000D01*
X138117000Y-71651000D01*
X139019000Y-71651000D01*
X139019000Y-73003000D01*
X139019000Y-73003000D01*
G37*
G36*
X137219000Y-73003000D02*
G01*
X136317000Y-73003000D01*
X136317000Y-71651000D01*
X137219000Y-71651000D01*
X137219000Y-73003000D01*
X137219000Y-73003000D01*
G37*
G36*
X109705331Y-67653211D02*
G01*
X110033092Y-67788974D01*
X110328070Y-67986072D01*
X110578928Y-68236930D01*
X110776026Y-68531908D01*
X110911789Y-68859669D01*
X110981000Y-69207616D01*
X110981000Y-69562384D01*
X110911789Y-69910331D01*
X110776026Y-70238092D01*
X110578928Y-70533070D01*
X110328070Y-70783928D01*
X110033092Y-70981026D01*
X109705331Y-71116789D01*
X109357384Y-71186000D01*
X109002616Y-71186000D01*
X108654669Y-71116789D01*
X108326908Y-70981026D01*
X108031930Y-70783928D01*
X107781072Y-70533070D01*
X107583974Y-70238092D01*
X107448211Y-69910331D01*
X107379000Y-69562384D01*
X107379000Y-69207616D01*
X107448211Y-68859669D01*
X107583974Y-68531908D01*
X107781072Y-68236930D01*
X108031930Y-67986072D01*
X108326908Y-67788974D01*
X108654669Y-67653211D01*
X109002616Y-67584000D01*
X109357384Y-67584000D01*
X109705331Y-67653211D01*
X109705331Y-67653211D01*
G37*
G36*
X79305331Y-67653211D02*
G01*
X79633092Y-67788974D01*
X79928070Y-67986072D01*
X80178928Y-68236930D01*
X80376026Y-68531908D01*
X80511789Y-68859669D01*
X80581000Y-69207616D01*
X80581000Y-69562384D01*
X80511789Y-69910331D01*
X80376026Y-70238092D01*
X80178928Y-70533070D01*
X79928070Y-70783928D01*
X79633092Y-70981026D01*
X79305331Y-71116789D01*
X78957384Y-71186000D01*
X78602616Y-71186000D01*
X78254669Y-71116789D01*
X77926908Y-70981026D01*
X77631930Y-70783928D01*
X77381072Y-70533070D01*
X77183974Y-70238092D01*
X77048211Y-69910331D01*
X76979000Y-69562384D01*
X76979000Y-69207616D01*
X77048211Y-68859669D01*
X77183974Y-68531908D01*
X77381072Y-68236930D01*
X77631930Y-67986072D01*
X77926908Y-67788974D01*
X78254669Y-67653211D01*
X78602616Y-67584000D01*
X78957384Y-67584000D01*
X79305331Y-67653211D01*
X79305331Y-67653211D01*
G37*
G36*
X172464487Y-67328996D02*
G01*
X172701253Y-67427068D01*
X172701255Y-67427069D01*
X172914339Y-67569447D01*
X173095553Y-67750661D01*
X173221942Y-67939815D01*
X173237932Y-67963747D01*
X173336004Y-68200513D01*
X173386000Y-68451861D01*
X173386000Y-68708139D01*
X173336004Y-68959487D01*
X173237932Y-69196253D01*
X173237931Y-69196255D01*
X173095553Y-69409339D01*
X172914339Y-69590553D01*
X172701255Y-69732931D01*
X172701254Y-69732932D01*
X172701253Y-69732932D01*
X172464487Y-69831004D01*
X172213139Y-69881000D01*
X171956861Y-69881000D01*
X171705513Y-69831004D01*
X171468747Y-69732932D01*
X171468746Y-69732932D01*
X171468745Y-69732931D01*
X171255661Y-69590553D01*
X171074447Y-69409339D01*
X170932069Y-69196255D01*
X170932068Y-69196253D01*
X170833996Y-68959487D01*
X170784000Y-68708139D01*
X170784000Y-68451861D01*
X170833996Y-68200513D01*
X170932068Y-67963747D01*
X170948059Y-67939815D01*
X171074447Y-67750661D01*
X171255661Y-67569447D01*
X171468745Y-67427069D01*
X171468747Y-67427068D01*
X171705513Y-67328996D01*
X171956861Y-67279000D01*
X172213139Y-67279000D01*
X172464487Y-67328996D01*
X172464487Y-67328996D01*
G37*
G36*
X135521000Y-69481000D02*
G01*
X133719000Y-69481000D01*
X133719000Y-67679000D01*
X135521000Y-67679000D01*
X135521000Y-69481000D01*
X135521000Y-69481000D01*
G37*
G36*
X128380443Y-67685519D02*
G01*
X128446627Y-67692037D01*
X128616466Y-67743557D01*
X128772991Y-67827222D01*
X128808729Y-67856552D01*
X128910186Y-67939814D01*
X128991310Y-68038665D01*
X129022778Y-68077009D01*
X129106443Y-68233534D01*
X129157963Y-68403373D01*
X129175359Y-68580000D01*
X129157963Y-68756627D01*
X129106443Y-68926466D01*
X129022778Y-69082991D01*
X128993448Y-69118729D01*
X128910186Y-69220186D01*
X128808729Y-69303448D01*
X128772991Y-69332778D01*
X128616466Y-69416443D01*
X128446627Y-69467963D01*
X128380442Y-69474482D01*
X128314260Y-69481000D01*
X128225740Y-69481000D01*
X128159558Y-69474482D01*
X128093373Y-69467963D01*
X127923534Y-69416443D01*
X127767009Y-69332778D01*
X127731271Y-69303448D01*
X127629814Y-69220186D01*
X127546552Y-69118729D01*
X127517222Y-69082991D01*
X127433557Y-68926466D01*
X127382037Y-68756627D01*
X127364641Y-68580000D01*
X127382037Y-68403373D01*
X127433557Y-68233534D01*
X127517222Y-68077009D01*
X127548690Y-68038665D01*
X127629814Y-67939814D01*
X127731271Y-67856552D01*
X127767009Y-67827222D01*
X127923534Y-67743557D01*
X128093373Y-67692037D01*
X128159557Y-67685519D01*
X128225740Y-67679000D01*
X128314260Y-67679000D01*
X128380443Y-67685519D01*
X128380443Y-67685519D01*
G37*
G36*
X125840443Y-67685519D02*
G01*
X125906627Y-67692037D01*
X126076466Y-67743557D01*
X126232991Y-67827222D01*
X126268729Y-67856552D01*
X126370186Y-67939814D01*
X126451310Y-68038665D01*
X126482778Y-68077009D01*
X126566443Y-68233534D01*
X126617963Y-68403373D01*
X126635359Y-68580000D01*
X126617963Y-68756627D01*
X126566443Y-68926466D01*
X126482778Y-69082991D01*
X126453448Y-69118729D01*
X126370186Y-69220186D01*
X126268729Y-69303448D01*
X126232991Y-69332778D01*
X126076466Y-69416443D01*
X125906627Y-69467963D01*
X125840442Y-69474482D01*
X125774260Y-69481000D01*
X125685740Y-69481000D01*
X125619558Y-69474482D01*
X125553373Y-69467963D01*
X125383534Y-69416443D01*
X125227009Y-69332778D01*
X125191271Y-69303448D01*
X125089814Y-69220186D01*
X125006552Y-69118729D01*
X124977222Y-69082991D01*
X124893557Y-68926466D01*
X124842037Y-68756627D01*
X124824641Y-68580000D01*
X124842037Y-68403373D01*
X124893557Y-68233534D01*
X124977222Y-68077009D01*
X125008690Y-68038665D01*
X125089814Y-67939814D01*
X125191271Y-67856552D01*
X125227009Y-67827222D01*
X125383534Y-67743557D01*
X125553373Y-67692037D01*
X125619557Y-67685519D01*
X125685740Y-67679000D01*
X125774260Y-67679000D01*
X125840443Y-67685519D01*
X125840443Y-67685519D01*
G37*
G36*
X124091000Y-69481000D02*
G01*
X122289000Y-69481000D01*
X122289000Y-67679000D01*
X124091000Y-67679000D01*
X124091000Y-69481000D01*
X124091000Y-69481000D01*
G37*
G36*
X137270443Y-67685519D02*
G01*
X137336627Y-67692037D01*
X137506466Y-67743557D01*
X137662991Y-67827222D01*
X137698729Y-67856552D01*
X137800186Y-67939814D01*
X137881310Y-68038665D01*
X137912778Y-68077009D01*
X137996443Y-68233534D01*
X138047963Y-68403373D01*
X138065359Y-68580000D01*
X138047963Y-68756627D01*
X137996443Y-68926466D01*
X137912778Y-69082991D01*
X137883448Y-69118729D01*
X137800186Y-69220186D01*
X137698729Y-69303448D01*
X137662991Y-69332778D01*
X137506466Y-69416443D01*
X137336627Y-69467963D01*
X137270442Y-69474482D01*
X137204260Y-69481000D01*
X137115740Y-69481000D01*
X137049558Y-69474482D01*
X136983373Y-69467963D01*
X136813534Y-69416443D01*
X136657009Y-69332778D01*
X136621271Y-69303448D01*
X136519814Y-69220186D01*
X136436552Y-69118729D01*
X136407222Y-69082991D01*
X136323557Y-68926466D01*
X136272037Y-68756627D01*
X136254641Y-68580000D01*
X136272037Y-68403373D01*
X136323557Y-68233534D01*
X136407222Y-68077009D01*
X136438690Y-68038665D01*
X136519814Y-67939814D01*
X136621271Y-67856552D01*
X136657009Y-67827222D01*
X136813534Y-67743557D01*
X136983373Y-67692037D01*
X137049557Y-67685519D01*
X137115740Y-67679000D01*
X137204260Y-67679000D01*
X137270443Y-67685519D01*
X137270443Y-67685519D01*
G37*
G36*
X139810443Y-67685519D02*
G01*
X139876627Y-67692037D01*
X140046466Y-67743557D01*
X140202991Y-67827222D01*
X140238729Y-67856552D01*
X140340186Y-67939814D01*
X140421310Y-68038665D01*
X140452778Y-68077009D01*
X140536443Y-68233534D01*
X140587963Y-68403373D01*
X140605359Y-68580000D01*
X140587963Y-68756627D01*
X140536443Y-68926466D01*
X140452778Y-69082991D01*
X140423448Y-69118729D01*
X140340186Y-69220186D01*
X140238729Y-69303448D01*
X140202991Y-69332778D01*
X140046466Y-69416443D01*
X139876627Y-69467963D01*
X139810442Y-69474482D01*
X139744260Y-69481000D01*
X139655740Y-69481000D01*
X139589558Y-69474482D01*
X139523373Y-69467963D01*
X139353534Y-69416443D01*
X139197009Y-69332778D01*
X139161271Y-69303448D01*
X139059814Y-69220186D01*
X138976552Y-69118729D01*
X138947222Y-69082991D01*
X138863557Y-68926466D01*
X138812037Y-68756627D01*
X138794641Y-68580000D01*
X138812037Y-68403373D01*
X138863557Y-68233534D01*
X138947222Y-68077009D01*
X138978690Y-68038665D01*
X139059814Y-67939814D01*
X139161271Y-67856552D01*
X139197009Y-67827222D01*
X139353534Y-67743557D01*
X139523373Y-67692037D01*
X139589557Y-67685519D01*
X139655740Y-67679000D01*
X139744260Y-67679000D01*
X139810443Y-67685519D01*
X139810443Y-67685519D01*
G37*
G36*
X142350443Y-67685519D02*
G01*
X142416627Y-67692037D01*
X142586466Y-67743557D01*
X142742991Y-67827222D01*
X142778729Y-67856552D01*
X142880186Y-67939814D01*
X142961310Y-68038665D01*
X142992778Y-68077009D01*
X143076443Y-68233534D01*
X143127963Y-68403373D01*
X143145359Y-68580000D01*
X143127963Y-68756627D01*
X143076443Y-68926466D01*
X142992778Y-69082991D01*
X142963448Y-69118729D01*
X142880186Y-69220186D01*
X142778729Y-69303448D01*
X142742991Y-69332778D01*
X142586466Y-69416443D01*
X142416627Y-69467963D01*
X142350442Y-69474482D01*
X142284260Y-69481000D01*
X142195740Y-69481000D01*
X142129558Y-69474482D01*
X142063373Y-69467963D01*
X141893534Y-69416443D01*
X141737009Y-69332778D01*
X141701271Y-69303448D01*
X141599814Y-69220186D01*
X141516552Y-69118729D01*
X141487222Y-69082991D01*
X141403557Y-68926466D01*
X141352037Y-68756627D01*
X141334641Y-68580000D01*
X141352037Y-68403373D01*
X141403557Y-68233534D01*
X141487222Y-68077009D01*
X141518690Y-68038665D01*
X141599814Y-67939814D01*
X141701271Y-67856552D01*
X141737009Y-67827222D01*
X141893534Y-67743557D01*
X142063373Y-67692037D01*
X142129557Y-67685519D01*
X142195740Y-67679000D01*
X142284260Y-67679000D01*
X142350443Y-67685519D01*
X142350443Y-67685519D01*
G37*
G36*
X130920443Y-67685519D02*
G01*
X130986627Y-67692037D01*
X131156466Y-67743557D01*
X131312991Y-67827222D01*
X131348729Y-67856552D01*
X131450186Y-67939814D01*
X131531310Y-68038665D01*
X131562778Y-68077009D01*
X131646443Y-68233534D01*
X131697963Y-68403373D01*
X131715359Y-68580000D01*
X131697963Y-68756627D01*
X131646443Y-68926466D01*
X131562778Y-69082991D01*
X131533448Y-69118729D01*
X131450186Y-69220186D01*
X131348729Y-69303448D01*
X131312991Y-69332778D01*
X131156466Y-69416443D01*
X130986627Y-69467963D01*
X130920442Y-69474482D01*
X130854260Y-69481000D01*
X130765740Y-69481000D01*
X130699558Y-69474482D01*
X130633373Y-69467963D01*
X130463534Y-69416443D01*
X130307009Y-69332778D01*
X130271271Y-69303448D01*
X130169814Y-69220186D01*
X130086552Y-69118729D01*
X130057222Y-69082991D01*
X129973557Y-68926466D01*
X129922037Y-68756627D01*
X129904641Y-68580000D01*
X129922037Y-68403373D01*
X129973557Y-68233534D01*
X130057222Y-68077009D01*
X130088690Y-68038665D01*
X130169814Y-67939814D01*
X130271271Y-67856552D01*
X130307009Y-67827222D01*
X130463534Y-67743557D01*
X130633373Y-67692037D01*
X130699557Y-67685519D01*
X130765740Y-67679000D01*
X130854260Y-67679000D01*
X130920443Y-67685519D01*
X130920443Y-67685519D01*
G37*
G36*
X90447395Y-67030546D02*
G01*
X90620466Y-67102234D01*
X90620467Y-67102235D01*
X90776227Y-67206310D01*
X90908690Y-67338773D01*
X90908691Y-67338775D01*
X91012766Y-67494534D01*
X91084454Y-67667605D01*
X91121000Y-67851333D01*
X91121000Y-68038667D01*
X91084454Y-68222395D01*
X91012766Y-68395466D01*
X91007481Y-68403375D01*
X90908690Y-68551227D01*
X90776227Y-68683690D01*
X90739639Y-68708137D01*
X90620466Y-68787766D01*
X90447395Y-68859454D01*
X90263667Y-68896000D01*
X90076333Y-68896000D01*
X89892605Y-68859454D01*
X89719534Y-68787766D01*
X89600361Y-68708137D01*
X89563773Y-68683690D01*
X89431310Y-68551227D01*
X89332519Y-68403375D01*
X89327234Y-68395466D01*
X89255546Y-68222395D01*
X89219000Y-68038667D01*
X89219000Y-67851333D01*
X89255546Y-67667605D01*
X89327234Y-67494534D01*
X89431309Y-67338775D01*
X89431310Y-67338773D01*
X89563773Y-67206310D01*
X89719533Y-67102235D01*
X89719534Y-67102234D01*
X89892605Y-67030546D01*
X90076333Y-66994000D01*
X90263667Y-66994000D01*
X90447395Y-67030546D01*
X90447395Y-67030546D01*
G37*
G36*
X92987395Y-67030546D02*
G01*
X93160466Y-67102234D01*
X93160467Y-67102235D01*
X93316227Y-67206310D01*
X93448690Y-67338773D01*
X93448691Y-67338775D01*
X93552766Y-67494534D01*
X93624454Y-67667605D01*
X93661000Y-67851333D01*
X93661000Y-68038667D01*
X93624454Y-68222395D01*
X93552766Y-68395466D01*
X93547481Y-68403375D01*
X93448690Y-68551227D01*
X93316227Y-68683690D01*
X93279639Y-68708137D01*
X93160466Y-68787766D01*
X92987395Y-68859454D01*
X92803667Y-68896000D01*
X92616333Y-68896000D01*
X92432605Y-68859454D01*
X92259534Y-68787766D01*
X92140361Y-68708137D01*
X92103773Y-68683690D01*
X91971310Y-68551227D01*
X91872519Y-68403375D01*
X91867234Y-68395466D01*
X91795546Y-68222395D01*
X91759000Y-68038667D01*
X91759000Y-67851333D01*
X91795546Y-67667605D01*
X91867234Y-67494534D01*
X91971309Y-67338775D01*
X91971310Y-67338773D01*
X92103773Y-67206310D01*
X92259533Y-67102235D01*
X92259534Y-67102234D01*
X92432605Y-67030546D01*
X92616333Y-66994000D01*
X92803667Y-66994000D01*
X92987395Y-67030546D01*
X92987395Y-67030546D01*
G37*
G36*
X98067395Y-67030546D02*
G01*
X98240466Y-67102234D01*
X98240467Y-67102235D01*
X98396227Y-67206310D01*
X98528690Y-67338773D01*
X98528691Y-67338775D01*
X98632766Y-67494534D01*
X98704454Y-67667605D01*
X98741000Y-67851333D01*
X98741000Y-68038667D01*
X98704454Y-68222395D01*
X98632766Y-68395466D01*
X98627481Y-68403375D01*
X98528690Y-68551227D01*
X98396227Y-68683690D01*
X98359639Y-68708137D01*
X98240466Y-68787766D01*
X98067395Y-68859454D01*
X97883667Y-68896000D01*
X97696333Y-68896000D01*
X97512605Y-68859454D01*
X97339534Y-68787766D01*
X97220361Y-68708137D01*
X97183773Y-68683690D01*
X97051310Y-68551227D01*
X96952519Y-68403375D01*
X96947234Y-68395466D01*
X96875546Y-68222395D01*
X96839000Y-68038667D01*
X96839000Y-67851333D01*
X96875546Y-67667605D01*
X96947234Y-67494534D01*
X97051309Y-67338775D01*
X97051310Y-67338773D01*
X97183773Y-67206310D01*
X97339533Y-67102235D01*
X97339534Y-67102234D01*
X97512605Y-67030546D01*
X97696333Y-66994000D01*
X97883667Y-66994000D01*
X98067395Y-67030546D01*
X98067395Y-67030546D01*
G37*
G36*
X95527395Y-67030546D02*
G01*
X95700466Y-67102234D01*
X95700467Y-67102235D01*
X95856227Y-67206310D01*
X95988690Y-67338773D01*
X95988691Y-67338775D01*
X96092766Y-67494534D01*
X96164454Y-67667605D01*
X96201000Y-67851333D01*
X96201000Y-68038667D01*
X96164454Y-68222395D01*
X96092766Y-68395466D01*
X96087481Y-68403375D01*
X95988690Y-68551227D01*
X95856227Y-68683690D01*
X95819639Y-68708137D01*
X95700466Y-68787766D01*
X95527395Y-68859454D01*
X95343667Y-68896000D01*
X95156333Y-68896000D01*
X94972605Y-68859454D01*
X94799534Y-68787766D01*
X94680361Y-68708137D01*
X94643773Y-68683690D01*
X94511310Y-68551227D01*
X94412519Y-68403375D01*
X94407234Y-68395466D01*
X94335546Y-68222395D01*
X94299000Y-68038667D01*
X94299000Y-67851333D01*
X94335546Y-67667605D01*
X94407234Y-67494534D01*
X94511309Y-67338775D01*
X94511310Y-67338773D01*
X94643773Y-67206310D01*
X94799533Y-67102235D01*
X94799534Y-67102234D01*
X94972605Y-67030546D01*
X95156333Y-66994000D01*
X95343667Y-66994000D01*
X95527395Y-67030546D01*
X95527395Y-67030546D01*
G37*
M02*
