G04 #@! TF.GenerationSoftware,KiCad,Pcbnew,(5.1.0-rc2-41-g6b3e9b0ed)*
G04 #@! TF.CreationDate,2021-09-28T16:44:10+02:00*
G04 #@! TF.ProjectId,styro_control,73747972-6f5f-4636-9f6e-74726f6c2e6b,rev?*
G04 #@! TF.SameCoordinates,Original*
G04 #@! TF.FileFunction,Legend,Bot*
G04 #@! TF.FilePolarity,Positive*
%FSLAX46Y46*%
G04 Gerber Fmt 4.6, Leading zero omitted, Abs format (unit mm)*
G04 Created by KiCad (PCBNEW (5.1.0-rc2-41-g6b3e9b0ed)) date 2021-09-28 16:44:10*
%MOMM*%
%LPD*%
G04 APERTURE LIST*
%ADD10C,0.120000*%
%ADD11C,0.090000*%
G04 APERTURE END LIST*
D10*
X138106000Y-101050000D02*
X136826000Y-102330000D01*
X139386000Y-102330000D02*
X138106000Y-101050000D01*
X138106000Y-101050000D02*
X138106000Y-104890000D01*
X142136000Y-98850000D02*
X140766000Y-98850000D01*
X142136000Y-100220000D02*
X142136000Y-98850000D01*
X140576000Y-104020000D02*
X140576000Y-104260000D01*
X140576000Y-101480000D02*
X140576000Y-101720000D01*
X134436000Y-106640000D02*
X134436000Y-106560000D01*
X141776000Y-106640000D02*
X134436000Y-106640000D01*
X140576000Y-106560000D02*
X140576000Y-106640000D01*
X134436000Y-99100000D02*
X134436000Y-99180000D01*
X141776000Y-99100000D02*
X134436000Y-99100000D01*
X140576000Y-99180000D02*
X140576000Y-99100000D01*
X140666000Y-102970000D02*
G75*
G03X140666000Y-102970000I-2560000J0D01*
G01*
X124924000Y-89502000D02*
X123774000Y-89502000D01*
X124924000Y-82202000D02*
X124924000Y-89502000D01*
X119424000Y-82202000D02*
X119424000Y-89502000D01*
X137168000Y-76298000D02*
X138168000Y-76298000D01*
X137168000Y-79658000D02*
X138168000Y-79658000D01*
X152780000Y-94995000D02*
X152255000Y-94995000D01*
X152780000Y-91695000D02*
X152255000Y-91695000D01*
X149480000Y-91695000D02*
X150005000Y-91695000D01*
X149480000Y-94995000D02*
X150005000Y-94995000D01*
X152780000Y-91695000D02*
X152780000Y-92220000D01*
X149480000Y-91695000D02*
X149480000Y-92220000D01*
X152780000Y-94995000D02*
X152780000Y-94470000D01*
X111830000Y-66385000D02*
X111830000Y-99985000D01*
X76130000Y-99985000D02*
X76130000Y-66385000D01*
X111830000Y-66385000D02*
X76130000Y-66385000D01*
X76130000Y-99985000D02*
X111830000Y-99985000D01*
X103675000Y-101840000D02*
X103675000Y-103900000D01*
X108415000Y-101840000D02*
X108415000Y-103900000D01*
X108415000Y-100500000D02*
X108415000Y-100900000D01*
X103675000Y-100500000D02*
X108415000Y-100500000D01*
X103675000Y-100500000D02*
X103675000Y-100900000D01*
X108415000Y-105240000D02*
X108415000Y-104840000D01*
X103675000Y-105240000D02*
X103675000Y-104840000D01*
X103675000Y-105240000D02*
X108415000Y-105240000D01*
X79545000Y-101840000D02*
X79545000Y-103900000D01*
X84285000Y-101840000D02*
X84285000Y-103900000D01*
X84285000Y-100500000D02*
X84285000Y-100900000D01*
X79545000Y-100500000D02*
X84285000Y-100500000D01*
X79545000Y-100500000D02*
X79545000Y-100900000D01*
X84285000Y-105240000D02*
X84285000Y-104840000D01*
X79545000Y-105240000D02*
X79545000Y-104840000D01*
X79545000Y-105240000D02*
X84285000Y-105240000D01*
X90975000Y-101840000D02*
X90975000Y-103900000D01*
X95715000Y-101840000D02*
X95715000Y-103900000D01*
X95715000Y-100500000D02*
X95715000Y-100900000D01*
X90975000Y-100500000D02*
X95715000Y-100500000D01*
X90975000Y-100500000D02*
X90975000Y-100900000D01*
X95715000Y-105240000D02*
X95715000Y-104840000D01*
X90975000Y-105240000D02*
X90975000Y-104840000D01*
X90975000Y-105240000D02*
X95715000Y-105240000D01*
X137168000Y-71472000D02*
X138168000Y-71472000D01*
X137168000Y-74832000D02*
X138168000Y-74832000D01*
X149709000Y-88572000D02*
X148484000Y-88572000D01*
X149709000Y-85447000D02*
X153059000Y-85447000D01*
X149709000Y-88797000D02*
X153059000Y-88797000D01*
X149709000Y-85447000D02*
X149709000Y-85747000D01*
X153059000Y-85447000D02*
X153059000Y-85747000D01*
X153059000Y-88797000D02*
X153059000Y-88497000D01*
X149709000Y-88797000D02*
X149709000Y-88572000D01*
X120709000Y-97830000D02*
X117114000Y-97830000D01*
X127155000Y-97830000D02*
X123559000Y-97830000D01*
X118209000Y-108070000D02*
X117114000Y-108070000D01*
X123208000Y-108070000D02*
X121059000Y-108070000D01*
X127155000Y-108070000D02*
X126060000Y-108070000D01*
X117114000Y-108070000D02*
X117114000Y-97830000D01*
X127155000Y-108070000D02*
X127155000Y-97830000D01*
X166048000Y-97007936D02*
X166048000Y-101112064D01*
X162628000Y-97007936D02*
X162628000Y-101112064D01*
X166048000Y-108183936D02*
X166048000Y-112288064D01*
X162628000Y-108183936D02*
X162628000Y-112288064D01*
X166048000Y-85831936D02*
X166048000Y-89936064D01*
X162628000Y-85831936D02*
X162628000Y-89936064D01*
X166048000Y-74655936D02*
X166048000Y-78760064D01*
X162628000Y-74655936D02*
X162628000Y-78760064D01*
X138251000Y-86479748D02*
X138251000Y-87002252D01*
X136831000Y-86479748D02*
X136831000Y-87002252D01*
X141299000Y-86479748D02*
X141299000Y-87002252D01*
X139879000Y-86479748D02*
X139879000Y-87002252D01*
X138251000Y-91813748D02*
X138251000Y-92336252D01*
X136831000Y-91813748D02*
X136831000Y-92336252D01*
X141299000Y-91813748D02*
X141299000Y-92336252D01*
X139879000Y-91813748D02*
X139879000Y-92336252D01*
X159495748Y-95302000D02*
X160018252Y-95302000D01*
X159495748Y-96722000D02*
X160018252Y-96722000D01*
X159504748Y-101398000D02*
X160027252Y-101398000D01*
X159504748Y-102818000D02*
X160027252Y-102818000D01*
X159495748Y-106478000D02*
X160018252Y-106478000D01*
X159495748Y-107898000D02*
X160018252Y-107898000D01*
X159504748Y-112574000D02*
X160027252Y-112574000D01*
X159504748Y-113994000D02*
X160027252Y-113994000D01*
X159504748Y-84126000D02*
X160027252Y-84126000D01*
X159504748Y-85546000D02*
X160027252Y-85546000D01*
X159504748Y-90222000D02*
X160027252Y-90222000D01*
X159504748Y-91642000D02*
X160027252Y-91642000D01*
X159504748Y-72950000D02*
X160027252Y-72950000D01*
X159504748Y-74370000D02*
X160027252Y-74370000D01*
X159495748Y-79046000D02*
X160018252Y-79046000D01*
X159495748Y-80466000D02*
X160018252Y-80466000D01*
X144832000Y-93987252D02*
X144832000Y-93464748D01*
X146252000Y-93987252D02*
X146252000Y-93464748D01*
X157428000Y-98798748D02*
X157428000Y-99321252D01*
X156008000Y-98798748D02*
X156008000Y-99321252D01*
X157428000Y-109974748D02*
X157428000Y-110497252D01*
X156008000Y-109974748D02*
X156008000Y-110497252D01*
X157428000Y-87622748D02*
X157428000Y-88145252D01*
X156008000Y-87622748D02*
X156008000Y-88145252D01*
X157428000Y-76192748D02*
X157428000Y-76715252D01*
X156008000Y-76192748D02*
X156008000Y-76715252D01*
D11*
X137772666Y-98233095D02*
X137679809Y-98264047D01*
X137525047Y-98264047D01*
X137463142Y-98233095D01*
X137432190Y-98202142D01*
X137401238Y-98140238D01*
X137401238Y-98078333D01*
X137432190Y-98016428D01*
X137463142Y-97985476D01*
X137525047Y-97954523D01*
X137648857Y-97923571D01*
X137710761Y-97892619D01*
X137741714Y-97861666D01*
X137772666Y-97799761D01*
X137772666Y-97737857D01*
X137741714Y-97675952D01*
X137710761Y-97645000D01*
X137648857Y-97614047D01*
X137494095Y-97614047D01*
X137401238Y-97645000D01*
X137184571Y-97614047D02*
X137029809Y-98264047D01*
X136906000Y-97799761D01*
X136782190Y-98264047D01*
X136627428Y-97614047D01*
X136410761Y-97675952D02*
X136379809Y-97645000D01*
X136317904Y-97614047D01*
X136163142Y-97614047D01*
X136101238Y-97645000D01*
X136070285Y-97675952D01*
X136039333Y-97737857D01*
X136039333Y-97799761D01*
X136070285Y-97892619D01*
X136441714Y-98264047D01*
X136039333Y-98264047D01*
X118968047Y-85372238D02*
X118318047Y-85372238D01*
X118318047Y-85527000D01*
X118349000Y-85619857D01*
X118410904Y-85681761D01*
X118472809Y-85712714D01*
X118596619Y-85743666D01*
X118689476Y-85743666D01*
X118813285Y-85712714D01*
X118875190Y-85681761D01*
X118937095Y-85619857D01*
X118968047Y-85527000D01*
X118968047Y-85372238D01*
X118534714Y-86300809D02*
X118968047Y-86300809D01*
X118287095Y-86146047D02*
X118751380Y-85991285D01*
X118751380Y-86393666D01*
X120868047Y-81887714D02*
X120868047Y-81516285D01*
X120868047Y-81702000D02*
X120218047Y-81702000D01*
X120310904Y-81640095D01*
X120372809Y-81578190D01*
X120403761Y-81516285D01*
X138116809Y-75986047D02*
X138333476Y-75676523D01*
X138488238Y-75986047D02*
X138488238Y-75336047D01*
X138240619Y-75336047D01*
X138178714Y-75367000D01*
X138147761Y-75397952D01*
X138116809Y-75459857D01*
X138116809Y-75552714D01*
X138147761Y-75614619D01*
X138178714Y-75645571D01*
X138240619Y-75676523D01*
X138488238Y-75676523D01*
X137838238Y-75986047D02*
X137838238Y-75336047D01*
X137466809Y-75986047D01*
X137466809Y-75336047D01*
X137188238Y-75397952D02*
X137157285Y-75367000D01*
X137095380Y-75336047D01*
X136940619Y-75336047D01*
X136878714Y-75367000D01*
X136847761Y-75397952D01*
X136816809Y-75459857D01*
X136816809Y-75521761D01*
X136847761Y-75614619D01*
X137219190Y-75986047D01*
X136816809Y-75986047D01*
X151625238Y-95889047D02*
X151625238Y-96415238D01*
X151594285Y-96477142D01*
X151563333Y-96508095D01*
X151501428Y-96539047D01*
X151377619Y-96539047D01*
X151315714Y-96508095D01*
X151284761Y-96477142D01*
X151253809Y-96415238D01*
X151253809Y-95889047D01*
X150975238Y-95950952D02*
X150944285Y-95920000D01*
X150882380Y-95889047D01*
X150727619Y-95889047D01*
X150665714Y-95920000D01*
X150634761Y-95950952D01*
X150603809Y-96012857D01*
X150603809Y-96074761D01*
X150634761Y-96167619D01*
X151006190Y-96539047D01*
X150603809Y-96539047D01*
X96038333Y-83948095D02*
X95945476Y-83979047D01*
X95790714Y-83979047D01*
X95728809Y-83948095D01*
X95697857Y-83917142D01*
X95666904Y-83855238D01*
X95666904Y-83793333D01*
X95697857Y-83731428D01*
X95728809Y-83700476D01*
X95790714Y-83669523D01*
X95914523Y-83638571D01*
X95976428Y-83607619D01*
X96007380Y-83576666D01*
X96038333Y-83514761D01*
X96038333Y-83452857D01*
X96007380Y-83390952D01*
X95976428Y-83360000D01*
X95914523Y-83329047D01*
X95759761Y-83329047D01*
X95666904Y-83360000D01*
X95419285Y-83948095D02*
X95326428Y-83979047D01*
X95171666Y-83979047D01*
X95109761Y-83948095D01*
X95078809Y-83917142D01*
X95047857Y-83855238D01*
X95047857Y-83793333D01*
X95078809Y-83731428D01*
X95109761Y-83700476D01*
X95171666Y-83669523D01*
X95295476Y-83638571D01*
X95357380Y-83607619D01*
X95388333Y-83576666D01*
X95419285Y-83514761D01*
X95419285Y-83452857D01*
X95388333Y-83390952D01*
X95357380Y-83360000D01*
X95295476Y-83329047D01*
X95140714Y-83329047D01*
X95047857Y-83360000D01*
X94769285Y-83979047D02*
X94769285Y-83329047D01*
X94614523Y-83329047D01*
X94521666Y-83360000D01*
X94459761Y-83421904D01*
X94428809Y-83483809D01*
X94397857Y-83607619D01*
X94397857Y-83700476D01*
X94428809Y-83824285D01*
X94459761Y-83886190D01*
X94521666Y-83948095D01*
X94614523Y-83979047D01*
X94769285Y-83979047D01*
X93778809Y-83979047D02*
X94150238Y-83979047D01*
X93964523Y-83979047D02*
X93964523Y-83329047D01*
X94026428Y-83421904D01*
X94088333Y-83483809D01*
X94150238Y-83514761D01*
X93562142Y-83329047D02*
X93159761Y-83329047D01*
X93376428Y-83576666D01*
X93283571Y-83576666D01*
X93221666Y-83607619D01*
X93190714Y-83638571D01*
X93159761Y-83700476D01*
X93159761Y-83855238D01*
X93190714Y-83917142D01*
X93221666Y-83948095D01*
X93283571Y-83979047D01*
X93469285Y-83979047D01*
X93531190Y-83948095D01*
X93562142Y-83917142D01*
X92757380Y-83329047D02*
X92695476Y-83329047D01*
X92633571Y-83360000D01*
X92602619Y-83390952D01*
X92571666Y-83452857D01*
X92540714Y-83576666D01*
X92540714Y-83731428D01*
X92571666Y-83855238D01*
X92602619Y-83917142D01*
X92633571Y-83948095D01*
X92695476Y-83979047D01*
X92757380Y-83979047D01*
X92819285Y-83948095D01*
X92850238Y-83917142D01*
X92881190Y-83855238D01*
X92912142Y-83731428D01*
X92912142Y-83576666D01*
X92881190Y-83452857D01*
X92850238Y-83390952D01*
X92819285Y-83360000D01*
X92757380Y-83329047D01*
X91983571Y-83329047D02*
X92107380Y-83329047D01*
X92169285Y-83360000D01*
X92200238Y-83390952D01*
X92262142Y-83483809D01*
X92293095Y-83607619D01*
X92293095Y-83855238D01*
X92262142Y-83917142D01*
X92231190Y-83948095D01*
X92169285Y-83979047D01*
X92045476Y-83979047D01*
X91983571Y-83948095D01*
X91952619Y-83917142D01*
X91921666Y-83855238D01*
X91921666Y-83700476D01*
X91952619Y-83638571D01*
X91983571Y-83607619D01*
X92045476Y-83576666D01*
X92169285Y-83576666D01*
X92231190Y-83607619D01*
X92262142Y-83638571D01*
X92293095Y-83700476D01*
X106911666Y-106333095D02*
X106818809Y-106364047D01*
X106664047Y-106364047D01*
X106602142Y-106333095D01*
X106571190Y-106302142D01*
X106540238Y-106240238D01*
X106540238Y-106178333D01*
X106571190Y-106116428D01*
X106602142Y-106085476D01*
X106664047Y-106054523D01*
X106787857Y-106023571D01*
X106849761Y-105992619D01*
X106880714Y-105961666D01*
X106911666Y-105899761D01*
X106911666Y-105837857D01*
X106880714Y-105775952D01*
X106849761Y-105745000D01*
X106787857Y-105714047D01*
X106633095Y-105714047D01*
X106540238Y-105745000D01*
X106323571Y-105714047D02*
X106168809Y-106364047D01*
X106045000Y-105899761D01*
X105921190Y-106364047D01*
X105766428Y-105714047D01*
X105209285Y-105714047D02*
X105518809Y-105714047D01*
X105549761Y-106023571D01*
X105518809Y-105992619D01*
X105456904Y-105961666D01*
X105302142Y-105961666D01*
X105240238Y-105992619D01*
X105209285Y-106023571D01*
X105178333Y-106085476D01*
X105178333Y-106240238D01*
X105209285Y-106302142D01*
X105240238Y-106333095D01*
X105302142Y-106364047D01*
X105456904Y-106364047D01*
X105518809Y-106333095D01*
X105549761Y-106302142D01*
X82781666Y-106333095D02*
X82688809Y-106364047D01*
X82534047Y-106364047D01*
X82472142Y-106333095D01*
X82441190Y-106302142D01*
X82410238Y-106240238D01*
X82410238Y-106178333D01*
X82441190Y-106116428D01*
X82472142Y-106085476D01*
X82534047Y-106054523D01*
X82657857Y-106023571D01*
X82719761Y-105992619D01*
X82750714Y-105961666D01*
X82781666Y-105899761D01*
X82781666Y-105837857D01*
X82750714Y-105775952D01*
X82719761Y-105745000D01*
X82657857Y-105714047D01*
X82503095Y-105714047D01*
X82410238Y-105745000D01*
X82193571Y-105714047D02*
X82038809Y-106364047D01*
X81915000Y-105899761D01*
X81791190Y-106364047D01*
X81636428Y-105714047D01*
X81110238Y-105930714D02*
X81110238Y-106364047D01*
X81265000Y-105683095D02*
X81419761Y-106147380D01*
X81017380Y-106147380D01*
X94211666Y-106333095D02*
X94118809Y-106364047D01*
X93964047Y-106364047D01*
X93902142Y-106333095D01*
X93871190Y-106302142D01*
X93840238Y-106240238D01*
X93840238Y-106178333D01*
X93871190Y-106116428D01*
X93902142Y-106085476D01*
X93964047Y-106054523D01*
X94087857Y-106023571D01*
X94149761Y-105992619D01*
X94180714Y-105961666D01*
X94211666Y-105899761D01*
X94211666Y-105837857D01*
X94180714Y-105775952D01*
X94149761Y-105745000D01*
X94087857Y-105714047D01*
X93933095Y-105714047D01*
X93840238Y-105745000D01*
X93623571Y-105714047D02*
X93468809Y-106364047D01*
X93345000Y-105899761D01*
X93221190Y-106364047D01*
X93066428Y-105714047D01*
X92880714Y-105714047D02*
X92478333Y-105714047D01*
X92695000Y-105961666D01*
X92602142Y-105961666D01*
X92540238Y-105992619D01*
X92509285Y-106023571D01*
X92478333Y-106085476D01*
X92478333Y-106240238D01*
X92509285Y-106302142D01*
X92540238Y-106333095D01*
X92602142Y-106364047D01*
X92787857Y-106364047D01*
X92849761Y-106333095D01*
X92880714Y-106302142D01*
X138116809Y-71160047D02*
X138333476Y-70850523D01*
X138488238Y-71160047D02*
X138488238Y-70510047D01*
X138240619Y-70510047D01*
X138178714Y-70541000D01*
X138147761Y-70571952D01*
X138116809Y-70633857D01*
X138116809Y-70726714D01*
X138147761Y-70788619D01*
X138178714Y-70819571D01*
X138240619Y-70850523D01*
X138488238Y-70850523D01*
X137838238Y-71160047D02*
X137838238Y-70510047D01*
X137466809Y-71160047D01*
X137466809Y-70510047D01*
X136816809Y-71160047D02*
X137188238Y-71160047D01*
X137002523Y-71160047D02*
X137002523Y-70510047D01*
X137064428Y-70602904D01*
X137126333Y-70664809D01*
X137188238Y-70695761D01*
X151879238Y-89366047D02*
X151879238Y-89892238D01*
X151848285Y-89954142D01*
X151817333Y-89985095D01*
X151755428Y-90016047D01*
X151631619Y-90016047D01*
X151569714Y-89985095D01*
X151538761Y-89954142D01*
X151507809Y-89892238D01*
X151507809Y-89366047D01*
X150919714Y-89582714D02*
X150919714Y-90016047D01*
X151074476Y-89335095D02*
X151229238Y-89799380D01*
X150826857Y-89799380D01*
X128144714Y-102439285D02*
X128578047Y-102439285D01*
X127897095Y-102284523D02*
X128361380Y-102129761D01*
X128361380Y-102532142D01*
X128578047Y-102779761D02*
X127928047Y-102779761D01*
X128578047Y-103151190D02*
X128206619Y-102872619D01*
X127928047Y-103151190D02*
X128299476Y-102779761D01*
X127928047Y-103367857D02*
X127928047Y-103801190D01*
X128578047Y-103522619D01*
X162012047Y-98054047D02*
X161702523Y-97837380D01*
X162012047Y-97682619D02*
X161362047Y-97682619D01*
X161362047Y-97930238D01*
X161393000Y-97992142D01*
X161423952Y-98023095D01*
X161485857Y-98054047D01*
X161578714Y-98054047D01*
X161640619Y-98023095D01*
X161671571Y-97992142D01*
X161702523Y-97930238D01*
X161702523Y-97682619D01*
X162073952Y-98177857D02*
X162073952Y-98673095D01*
X161981095Y-98796904D02*
X162012047Y-98889761D01*
X162012047Y-99044523D01*
X161981095Y-99106428D01*
X161950142Y-99137380D01*
X161888238Y-99168333D01*
X161826333Y-99168333D01*
X161764428Y-99137380D01*
X161733476Y-99106428D01*
X161702523Y-99044523D01*
X161671571Y-98920714D01*
X161640619Y-98858809D01*
X161609666Y-98827857D01*
X161547761Y-98796904D01*
X161485857Y-98796904D01*
X161423952Y-98827857D01*
X161393000Y-98858809D01*
X161362047Y-98920714D01*
X161362047Y-99075476D01*
X161393000Y-99168333D01*
X162012047Y-99446904D02*
X161362047Y-99446904D01*
X161671571Y-99446904D02*
X161671571Y-99818333D01*
X162012047Y-99818333D02*
X161362047Y-99818333D01*
X161578714Y-100406428D02*
X162012047Y-100406428D01*
X161331095Y-100251666D02*
X161795380Y-100096904D01*
X161795380Y-100499285D01*
X162012047Y-109230047D02*
X161702523Y-109013380D01*
X162012047Y-108858619D02*
X161362047Y-108858619D01*
X161362047Y-109106238D01*
X161393000Y-109168142D01*
X161423952Y-109199095D01*
X161485857Y-109230047D01*
X161578714Y-109230047D01*
X161640619Y-109199095D01*
X161671571Y-109168142D01*
X161702523Y-109106238D01*
X161702523Y-108858619D01*
X162073952Y-109353857D02*
X162073952Y-109849095D01*
X161981095Y-109972904D02*
X162012047Y-110065761D01*
X162012047Y-110220523D01*
X161981095Y-110282428D01*
X161950142Y-110313380D01*
X161888238Y-110344333D01*
X161826333Y-110344333D01*
X161764428Y-110313380D01*
X161733476Y-110282428D01*
X161702523Y-110220523D01*
X161671571Y-110096714D01*
X161640619Y-110034809D01*
X161609666Y-110003857D01*
X161547761Y-109972904D01*
X161485857Y-109972904D01*
X161423952Y-110003857D01*
X161393000Y-110034809D01*
X161362047Y-110096714D01*
X161362047Y-110251476D01*
X161393000Y-110344333D01*
X162012047Y-110622904D02*
X161362047Y-110622904D01*
X161671571Y-110622904D02*
X161671571Y-110994333D01*
X162012047Y-110994333D02*
X161362047Y-110994333D01*
X161362047Y-111241952D02*
X161362047Y-111644333D01*
X161609666Y-111427666D01*
X161609666Y-111520523D01*
X161640619Y-111582428D01*
X161671571Y-111613380D01*
X161733476Y-111644333D01*
X161888238Y-111644333D01*
X161950142Y-111613380D01*
X161981095Y-111582428D01*
X162012047Y-111520523D01*
X162012047Y-111334809D01*
X161981095Y-111272904D01*
X161950142Y-111241952D01*
X162012047Y-86878047D02*
X161702523Y-86661380D01*
X162012047Y-86506619D02*
X161362047Y-86506619D01*
X161362047Y-86754238D01*
X161393000Y-86816142D01*
X161423952Y-86847095D01*
X161485857Y-86878047D01*
X161578714Y-86878047D01*
X161640619Y-86847095D01*
X161671571Y-86816142D01*
X161702523Y-86754238D01*
X161702523Y-86506619D01*
X162073952Y-87001857D02*
X162073952Y-87497095D01*
X161981095Y-87620904D02*
X162012047Y-87713761D01*
X162012047Y-87868523D01*
X161981095Y-87930428D01*
X161950142Y-87961380D01*
X161888238Y-87992333D01*
X161826333Y-87992333D01*
X161764428Y-87961380D01*
X161733476Y-87930428D01*
X161702523Y-87868523D01*
X161671571Y-87744714D01*
X161640619Y-87682809D01*
X161609666Y-87651857D01*
X161547761Y-87620904D01*
X161485857Y-87620904D01*
X161423952Y-87651857D01*
X161393000Y-87682809D01*
X161362047Y-87744714D01*
X161362047Y-87899476D01*
X161393000Y-87992333D01*
X162012047Y-88270904D02*
X161362047Y-88270904D01*
X161671571Y-88270904D02*
X161671571Y-88642333D01*
X162012047Y-88642333D02*
X161362047Y-88642333D01*
X161423952Y-88920904D02*
X161393000Y-88951857D01*
X161362047Y-89013761D01*
X161362047Y-89168523D01*
X161393000Y-89230428D01*
X161423952Y-89261380D01*
X161485857Y-89292333D01*
X161547761Y-89292333D01*
X161640619Y-89261380D01*
X162012047Y-88889952D01*
X162012047Y-89292333D01*
X162012047Y-75702047D02*
X161702523Y-75485380D01*
X162012047Y-75330619D02*
X161362047Y-75330619D01*
X161362047Y-75578238D01*
X161393000Y-75640142D01*
X161423952Y-75671095D01*
X161485857Y-75702047D01*
X161578714Y-75702047D01*
X161640619Y-75671095D01*
X161671571Y-75640142D01*
X161702523Y-75578238D01*
X161702523Y-75330619D01*
X162073952Y-75825857D02*
X162073952Y-76321095D01*
X161981095Y-76444904D02*
X162012047Y-76537761D01*
X162012047Y-76692523D01*
X161981095Y-76754428D01*
X161950142Y-76785380D01*
X161888238Y-76816333D01*
X161826333Y-76816333D01*
X161764428Y-76785380D01*
X161733476Y-76754428D01*
X161702523Y-76692523D01*
X161671571Y-76568714D01*
X161640619Y-76506809D01*
X161609666Y-76475857D01*
X161547761Y-76444904D01*
X161485857Y-76444904D01*
X161423952Y-76475857D01*
X161393000Y-76506809D01*
X161362047Y-76568714D01*
X161362047Y-76723476D01*
X161393000Y-76816333D01*
X162012047Y-77094904D02*
X161362047Y-77094904D01*
X161671571Y-77094904D02*
X161671571Y-77466333D01*
X162012047Y-77466333D02*
X161362047Y-77466333D01*
X162012047Y-78116333D02*
X162012047Y-77744904D01*
X162012047Y-77930619D02*
X161362047Y-77930619D01*
X161454904Y-77868714D01*
X161516809Y-77806809D01*
X161547761Y-77744904D01*
X136185047Y-86323142D02*
X135875523Y-86106476D01*
X136185047Y-85951714D02*
X135535047Y-85951714D01*
X135535047Y-86199333D01*
X135566000Y-86261238D01*
X135596952Y-86292190D01*
X135658857Y-86323142D01*
X135751714Y-86323142D01*
X135813619Y-86292190D01*
X135844571Y-86261238D01*
X135875523Y-86199333D01*
X135875523Y-85951714D01*
X135751714Y-86880285D02*
X136185047Y-86880285D01*
X135504095Y-86725523D02*
X135968380Y-86570761D01*
X135968380Y-86973142D01*
X135535047Y-87499333D02*
X135535047Y-87375523D01*
X135566000Y-87313619D01*
X135596952Y-87282666D01*
X135689809Y-87220761D01*
X135813619Y-87189809D01*
X136061238Y-87189809D01*
X136123142Y-87220761D01*
X136154095Y-87251714D01*
X136185047Y-87313619D01*
X136185047Y-87437428D01*
X136154095Y-87499333D01*
X136123142Y-87530285D01*
X136061238Y-87561238D01*
X135906476Y-87561238D01*
X135844571Y-87530285D01*
X135813619Y-87499333D01*
X135782666Y-87437428D01*
X135782666Y-87313619D01*
X135813619Y-87251714D01*
X135844571Y-87220761D01*
X135906476Y-87189809D01*
X139233047Y-86323142D02*
X138923523Y-86106476D01*
X139233047Y-85951714D02*
X138583047Y-85951714D01*
X138583047Y-86199333D01*
X138614000Y-86261238D01*
X138644952Y-86292190D01*
X138706857Y-86323142D01*
X138799714Y-86323142D01*
X138861619Y-86292190D01*
X138892571Y-86261238D01*
X138923523Y-86199333D01*
X138923523Y-85951714D01*
X138799714Y-86880285D02*
X139233047Y-86880285D01*
X138552095Y-86725523D02*
X139016380Y-86570761D01*
X139016380Y-86973142D01*
X138583047Y-87530285D02*
X138583047Y-87220761D01*
X138892571Y-87189809D01*
X138861619Y-87220761D01*
X138830666Y-87282666D01*
X138830666Y-87437428D01*
X138861619Y-87499333D01*
X138892571Y-87530285D01*
X138954476Y-87561238D01*
X139109238Y-87561238D01*
X139171142Y-87530285D01*
X139202095Y-87499333D01*
X139233047Y-87437428D01*
X139233047Y-87282666D01*
X139202095Y-87220761D01*
X139171142Y-87189809D01*
X136185047Y-91657142D02*
X135875523Y-91440476D01*
X136185047Y-91285714D02*
X135535047Y-91285714D01*
X135535047Y-91533333D01*
X135566000Y-91595238D01*
X135596952Y-91626190D01*
X135658857Y-91657142D01*
X135751714Y-91657142D01*
X135813619Y-91626190D01*
X135844571Y-91595238D01*
X135875523Y-91533333D01*
X135875523Y-91285714D01*
X135751714Y-92214285D02*
X136185047Y-92214285D01*
X135504095Y-92059523D02*
X135968380Y-91904761D01*
X135968380Y-92307142D01*
X135751714Y-92833333D02*
X136185047Y-92833333D01*
X135504095Y-92678571D02*
X135968380Y-92523809D01*
X135968380Y-92926190D01*
X139233047Y-91657142D02*
X138923523Y-91440476D01*
X139233047Y-91285714D02*
X138583047Y-91285714D01*
X138583047Y-91533333D01*
X138614000Y-91595238D01*
X138644952Y-91626190D01*
X138706857Y-91657142D01*
X138799714Y-91657142D01*
X138861619Y-91626190D01*
X138892571Y-91595238D01*
X138923523Y-91533333D01*
X138923523Y-91285714D01*
X138799714Y-92214285D02*
X139233047Y-92214285D01*
X138552095Y-92059523D02*
X139016380Y-91904761D01*
X139016380Y-92307142D01*
X138583047Y-92492857D02*
X138583047Y-92895238D01*
X138830666Y-92678571D01*
X138830666Y-92771428D01*
X138861619Y-92833333D01*
X138892571Y-92864285D01*
X138954476Y-92895238D01*
X139109238Y-92895238D01*
X139171142Y-92864285D01*
X139202095Y-92833333D01*
X139233047Y-92771428D01*
X139233047Y-92585714D01*
X139202095Y-92523809D01*
X139171142Y-92492857D01*
X160174857Y-97956047D02*
X160391523Y-97646523D01*
X160546285Y-97956047D02*
X160546285Y-97306047D01*
X160298666Y-97306047D01*
X160236761Y-97337000D01*
X160205809Y-97367952D01*
X160174857Y-97429857D01*
X160174857Y-97522714D01*
X160205809Y-97584619D01*
X160236761Y-97615571D01*
X160298666Y-97646523D01*
X160546285Y-97646523D01*
X159555809Y-97956047D02*
X159927238Y-97956047D01*
X159741523Y-97956047D02*
X159741523Y-97306047D01*
X159803428Y-97398904D01*
X159865333Y-97460809D01*
X159927238Y-97491761D01*
X159184380Y-97584619D02*
X159246285Y-97553666D01*
X159277238Y-97522714D01*
X159308190Y-97460809D01*
X159308190Y-97429857D01*
X159277238Y-97367952D01*
X159246285Y-97337000D01*
X159184380Y-97306047D01*
X159060571Y-97306047D01*
X158998666Y-97337000D01*
X158967714Y-97367952D01*
X158936761Y-97429857D01*
X158936761Y-97460809D01*
X158967714Y-97522714D01*
X158998666Y-97553666D01*
X159060571Y-97584619D01*
X159184380Y-97584619D01*
X159246285Y-97615571D01*
X159277238Y-97646523D01*
X159308190Y-97708428D01*
X159308190Y-97832238D01*
X159277238Y-97894142D01*
X159246285Y-97925095D01*
X159184380Y-97956047D01*
X159060571Y-97956047D01*
X158998666Y-97925095D01*
X158967714Y-97894142D01*
X158936761Y-97832238D01*
X158936761Y-97708428D01*
X158967714Y-97646523D01*
X158998666Y-97615571D01*
X159060571Y-97584619D01*
X160183857Y-104052047D02*
X160400523Y-103742523D01*
X160555285Y-104052047D02*
X160555285Y-103402047D01*
X160307666Y-103402047D01*
X160245761Y-103433000D01*
X160214809Y-103463952D01*
X160183857Y-103525857D01*
X160183857Y-103618714D01*
X160214809Y-103680619D01*
X160245761Y-103711571D01*
X160307666Y-103742523D01*
X160555285Y-103742523D01*
X159564809Y-104052047D02*
X159936238Y-104052047D01*
X159750523Y-104052047D02*
X159750523Y-103402047D01*
X159812428Y-103494904D01*
X159874333Y-103556809D01*
X159936238Y-103587761D01*
X159348142Y-103402047D02*
X158914809Y-103402047D01*
X159193380Y-104052047D01*
X160174857Y-109132047D02*
X160391523Y-108822523D01*
X160546285Y-109132047D02*
X160546285Y-108482047D01*
X160298666Y-108482047D01*
X160236761Y-108513000D01*
X160205809Y-108543952D01*
X160174857Y-108605857D01*
X160174857Y-108698714D01*
X160205809Y-108760619D01*
X160236761Y-108791571D01*
X160298666Y-108822523D01*
X160546285Y-108822523D01*
X159555809Y-109132047D02*
X159927238Y-109132047D01*
X159741523Y-109132047D02*
X159741523Y-108482047D01*
X159803428Y-108574904D01*
X159865333Y-108636809D01*
X159927238Y-108667761D01*
X158998666Y-108482047D02*
X159122476Y-108482047D01*
X159184380Y-108513000D01*
X159215333Y-108543952D01*
X159277238Y-108636809D01*
X159308190Y-108760619D01*
X159308190Y-109008238D01*
X159277238Y-109070142D01*
X159246285Y-109101095D01*
X159184380Y-109132047D01*
X159060571Y-109132047D01*
X158998666Y-109101095D01*
X158967714Y-109070142D01*
X158936761Y-109008238D01*
X158936761Y-108853476D01*
X158967714Y-108791571D01*
X158998666Y-108760619D01*
X159060571Y-108729666D01*
X159184380Y-108729666D01*
X159246285Y-108760619D01*
X159277238Y-108791571D01*
X159308190Y-108853476D01*
X160183857Y-115228047D02*
X160400523Y-114918523D01*
X160555285Y-115228047D02*
X160555285Y-114578047D01*
X160307666Y-114578047D01*
X160245761Y-114609000D01*
X160214809Y-114639952D01*
X160183857Y-114701857D01*
X160183857Y-114794714D01*
X160214809Y-114856619D01*
X160245761Y-114887571D01*
X160307666Y-114918523D01*
X160555285Y-114918523D01*
X159564809Y-115228047D02*
X159936238Y-115228047D01*
X159750523Y-115228047D02*
X159750523Y-114578047D01*
X159812428Y-114670904D01*
X159874333Y-114732809D01*
X159936238Y-114763761D01*
X158976714Y-114578047D02*
X159286238Y-114578047D01*
X159317190Y-114887571D01*
X159286238Y-114856619D01*
X159224333Y-114825666D01*
X159069571Y-114825666D01*
X159007666Y-114856619D01*
X158976714Y-114887571D01*
X158945761Y-114949476D01*
X158945761Y-115104238D01*
X158976714Y-115166142D01*
X159007666Y-115197095D01*
X159069571Y-115228047D01*
X159224333Y-115228047D01*
X159286238Y-115197095D01*
X159317190Y-115166142D01*
X160183857Y-86780047D02*
X160400523Y-86470523D01*
X160555285Y-86780047D02*
X160555285Y-86130047D01*
X160307666Y-86130047D01*
X160245761Y-86161000D01*
X160214809Y-86191952D01*
X160183857Y-86253857D01*
X160183857Y-86346714D01*
X160214809Y-86408619D01*
X160245761Y-86439571D01*
X160307666Y-86470523D01*
X160555285Y-86470523D01*
X159564809Y-86780047D02*
X159936238Y-86780047D01*
X159750523Y-86780047D02*
X159750523Y-86130047D01*
X159812428Y-86222904D01*
X159874333Y-86284809D01*
X159936238Y-86315761D01*
X159007666Y-86346714D02*
X159007666Y-86780047D01*
X159162428Y-86099095D02*
X159317190Y-86563380D01*
X158914809Y-86563380D01*
X160183857Y-92876047D02*
X160400523Y-92566523D01*
X160555285Y-92876047D02*
X160555285Y-92226047D01*
X160307666Y-92226047D01*
X160245761Y-92257000D01*
X160214809Y-92287952D01*
X160183857Y-92349857D01*
X160183857Y-92442714D01*
X160214809Y-92504619D01*
X160245761Y-92535571D01*
X160307666Y-92566523D01*
X160555285Y-92566523D01*
X159564809Y-92876047D02*
X159936238Y-92876047D01*
X159750523Y-92876047D02*
X159750523Y-92226047D01*
X159812428Y-92318904D01*
X159874333Y-92380809D01*
X159936238Y-92411761D01*
X159348142Y-92226047D02*
X158945761Y-92226047D01*
X159162428Y-92473666D01*
X159069571Y-92473666D01*
X159007666Y-92504619D01*
X158976714Y-92535571D01*
X158945761Y-92597476D01*
X158945761Y-92752238D01*
X158976714Y-92814142D01*
X159007666Y-92845095D01*
X159069571Y-92876047D01*
X159255285Y-92876047D01*
X159317190Y-92845095D01*
X159348142Y-92814142D01*
X160183857Y-75604047D02*
X160400523Y-75294523D01*
X160555285Y-75604047D02*
X160555285Y-74954047D01*
X160307666Y-74954047D01*
X160245761Y-74985000D01*
X160214809Y-75015952D01*
X160183857Y-75077857D01*
X160183857Y-75170714D01*
X160214809Y-75232619D01*
X160245761Y-75263571D01*
X160307666Y-75294523D01*
X160555285Y-75294523D01*
X159564809Y-75604047D02*
X159936238Y-75604047D01*
X159750523Y-75604047D02*
X159750523Y-74954047D01*
X159812428Y-75046904D01*
X159874333Y-75108809D01*
X159936238Y-75139761D01*
X159317190Y-75015952D02*
X159286238Y-74985000D01*
X159224333Y-74954047D01*
X159069571Y-74954047D01*
X159007666Y-74985000D01*
X158976714Y-75015952D01*
X158945761Y-75077857D01*
X158945761Y-75139761D01*
X158976714Y-75232619D01*
X159348142Y-75604047D01*
X158945761Y-75604047D01*
X160174857Y-81700047D02*
X160391523Y-81390523D01*
X160546285Y-81700047D02*
X160546285Y-81050047D01*
X160298666Y-81050047D01*
X160236761Y-81081000D01*
X160205809Y-81111952D01*
X160174857Y-81173857D01*
X160174857Y-81266714D01*
X160205809Y-81328619D01*
X160236761Y-81359571D01*
X160298666Y-81390523D01*
X160546285Y-81390523D01*
X159555809Y-81700047D02*
X159927238Y-81700047D01*
X159741523Y-81700047D02*
X159741523Y-81050047D01*
X159803428Y-81142904D01*
X159865333Y-81204809D01*
X159927238Y-81235761D01*
X158936761Y-81700047D02*
X159308190Y-81700047D01*
X159122476Y-81700047D02*
X159122476Y-81050047D01*
X159184380Y-81142904D01*
X159246285Y-81204809D01*
X159308190Y-81235761D01*
X147424142Y-93308142D02*
X147455095Y-93277190D01*
X147486047Y-93184333D01*
X147486047Y-93122428D01*
X147455095Y-93029571D01*
X147393190Y-92967666D01*
X147331285Y-92936714D01*
X147207476Y-92905761D01*
X147114619Y-92905761D01*
X146990809Y-92936714D01*
X146928904Y-92967666D01*
X146867000Y-93029571D01*
X146836047Y-93122428D01*
X146836047Y-93184333D01*
X146867000Y-93277190D01*
X146897952Y-93308142D01*
X147486047Y-93927190D02*
X147486047Y-93555761D01*
X147486047Y-93741476D02*
X146836047Y-93741476D01*
X146928904Y-93679571D01*
X146990809Y-93617666D01*
X147021761Y-93555761D01*
X146836047Y-94143857D02*
X146836047Y-94546238D01*
X147083666Y-94329571D01*
X147083666Y-94422428D01*
X147114619Y-94484333D01*
X147145571Y-94515285D01*
X147207476Y-94546238D01*
X147362238Y-94546238D01*
X147424142Y-94515285D01*
X147455095Y-94484333D01*
X147486047Y-94422428D01*
X147486047Y-94236714D01*
X147455095Y-94174809D01*
X147424142Y-94143857D01*
X155300142Y-98642142D02*
X155331095Y-98611190D01*
X155362047Y-98518333D01*
X155362047Y-98456428D01*
X155331095Y-98363571D01*
X155269190Y-98301666D01*
X155207285Y-98270714D01*
X155083476Y-98239761D01*
X154990619Y-98239761D01*
X154866809Y-98270714D01*
X154804904Y-98301666D01*
X154743000Y-98363571D01*
X154712047Y-98456428D01*
X154712047Y-98518333D01*
X154743000Y-98611190D01*
X154773952Y-98642142D01*
X155362047Y-99261190D02*
X155362047Y-98889761D01*
X155362047Y-99075476D02*
X154712047Y-99075476D01*
X154804904Y-99013571D01*
X154866809Y-98951666D01*
X154897761Y-98889761D01*
X155362047Y-99880238D02*
X155362047Y-99508809D01*
X155362047Y-99694523D02*
X154712047Y-99694523D01*
X154804904Y-99632619D01*
X154866809Y-99570714D01*
X154897761Y-99508809D01*
X155300142Y-109818142D02*
X155331095Y-109787190D01*
X155362047Y-109694333D01*
X155362047Y-109632428D01*
X155331095Y-109539571D01*
X155269190Y-109477666D01*
X155207285Y-109446714D01*
X155083476Y-109415761D01*
X154990619Y-109415761D01*
X154866809Y-109446714D01*
X154804904Y-109477666D01*
X154743000Y-109539571D01*
X154712047Y-109632428D01*
X154712047Y-109694333D01*
X154743000Y-109787190D01*
X154773952Y-109818142D01*
X155362047Y-110437190D02*
X155362047Y-110065761D01*
X155362047Y-110251476D02*
X154712047Y-110251476D01*
X154804904Y-110189571D01*
X154866809Y-110127666D01*
X154897761Y-110065761D01*
X154712047Y-110839571D02*
X154712047Y-110901476D01*
X154743000Y-110963380D01*
X154773952Y-110994333D01*
X154835857Y-111025285D01*
X154959666Y-111056238D01*
X155114428Y-111056238D01*
X155238238Y-111025285D01*
X155300142Y-110994333D01*
X155331095Y-110963380D01*
X155362047Y-110901476D01*
X155362047Y-110839571D01*
X155331095Y-110777666D01*
X155300142Y-110746714D01*
X155238238Y-110715761D01*
X155114428Y-110684809D01*
X154959666Y-110684809D01*
X154835857Y-110715761D01*
X154773952Y-110746714D01*
X154743000Y-110777666D01*
X154712047Y-110839571D01*
X155300142Y-87775666D02*
X155331095Y-87744714D01*
X155362047Y-87651857D01*
X155362047Y-87589952D01*
X155331095Y-87497095D01*
X155269190Y-87435190D01*
X155207285Y-87404238D01*
X155083476Y-87373285D01*
X154990619Y-87373285D01*
X154866809Y-87404238D01*
X154804904Y-87435190D01*
X154743000Y-87497095D01*
X154712047Y-87589952D01*
X154712047Y-87651857D01*
X154743000Y-87744714D01*
X154773952Y-87775666D01*
X155362047Y-88085190D02*
X155362047Y-88209000D01*
X155331095Y-88270904D01*
X155300142Y-88301857D01*
X155207285Y-88363761D01*
X155083476Y-88394714D01*
X154835857Y-88394714D01*
X154773952Y-88363761D01*
X154743000Y-88332809D01*
X154712047Y-88270904D01*
X154712047Y-88147095D01*
X154743000Y-88085190D01*
X154773952Y-88054238D01*
X154835857Y-88023285D01*
X154990619Y-88023285D01*
X155052523Y-88054238D01*
X155083476Y-88085190D01*
X155114428Y-88147095D01*
X155114428Y-88270904D01*
X155083476Y-88332809D01*
X155052523Y-88363761D01*
X154990619Y-88394714D01*
X155300142Y-76345666D02*
X155331095Y-76314714D01*
X155362047Y-76221857D01*
X155362047Y-76159952D01*
X155331095Y-76067095D01*
X155269190Y-76005190D01*
X155207285Y-75974238D01*
X155083476Y-75943285D01*
X154990619Y-75943285D01*
X154866809Y-75974238D01*
X154804904Y-76005190D01*
X154743000Y-76067095D01*
X154712047Y-76159952D01*
X154712047Y-76221857D01*
X154743000Y-76314714D01*
X154773952Y-76345666D01*
X154990619Y-76717095D02*
X154959666Y-76655190D01*
X154928714Y-76624238D01*
X154866809Y-76593285D01*
X154835857Y-76593285D01*
X154773952Y-76624238D01*
X154743000Y-76655190D01*
X154712047Y-76717095D01*
X154712047Y-76840904D01*
X154743000Y-76902809D01*
X154773952Y-76933761D01*
X154835857Y-76964714D01*
X154866809Y-76964714D01*
X154928714Y-76933761D01*
X154959666Y-76902809D01*
X154990619Y-76840904D01*
X154990619Y-76717095D01*
X155021571Y-76655190D01*
X155052523Y-76624238D01*
X155114428Y-76593285D01*
X155238238Y-76593285D01*
X155300142Y-76624238D01*
X155331095Y-76655190D01*
X155362047Y-76717095D01*
X155362047Y-76840904D01*
X155331095Y-76902809D01*
X155300142Y-76933761D01*
X155238238Y-76964714D01*
X155114428Y-76964714D01*
X155052523Y-76933761D01*
X155021571Y-76902809D01*
X154990619Y-76840904D01*
M02*
