M48
; DRILL file {KiCad (5.1.0-rc2-41-g6b3e9b0ed)} date Tuesday, 28 September 2021 at 16:44:00
; FORMAT={-:-/ absolute / inch / decimal}
; #@! TF.CreationDate,2021-09-28T16:44:00+02:00
; #@! TF.GenerationSoftware,Kicad,Pcbnew,(5.1.0-rc2-41-g6b3e9b0ed)
; #@! TF.FileFunction,Plated,1,4,PTH
FMAT,2
INCH
T1C0.0118
T2C0.0236
T3C0.0276
T4C0.0354
T5C0.0394
T6C0.0512
T7C0.0551
%
G90
G05
T1
X3.05Y-3.52
X3.05Y-3.58
X3.08Y-3.52
X3.08Y-3.58
X3.1Y-2.96
X3.1Y-2.99
X3.1Y-3.02
X3.1Y-3.05
X3.1Y-3.08
X3.1Y-3.11
X3.1Y-3.14
X3.12Y-3.52
X3.12Y-3.58
X3.15Y-3.52
X3.15Y-3.58
X3.1646Y-2.9546
X3.165Y-2.9237
X3.165Y-3.175
X3.1658Y-3.1444
X3.1943Y-2.9237
X3.1951Y-2.9552
X3.1987Y-3.1437
X3.2Y-3.175
X3.22Y-3.12
X3.23Y-3.0
X3.245Y-3.03
X3.245Y-3.06
X3.27Y-4.69
X3.28Y-3.79
X3.28Y-3.85
X3.3Y-4.69
X3.32Y-3.79
X3.32Y-3.85
X3.329Y-3.574
X3.33Y-3.535
X3.33Y-4.69
X3.36Y-4.69
X3.38Y-3.535
X3.38Y-3.575
X3.39Y-4.69
X3.42Y-4.69
X3.45Y-2.86
X3.54Y-2.76
X3.55Y-2.84
X3.55Y-2.9254
X3.58Y-2.76
X3.586Y-3.226
X3.62Y-2.76
X3.62Y-3.27
X3.65Y-3.27
X3.6525Y-3.02
X3.655Y-3.79
X3.655Y-3.905
X3.655Y-3.935
X3.6577Y-2.9277
X3.66Y-2.76
X3.66Y-2.84
X3.6777Y-3.27
X3.705Y-3.9237
X3.71Y-3.13
X3.71Y-3.16
X3.72Y-3.04
X3.76Y-3.0472
X3.77Y-2.84
X3.77Y-3.278
X3.79Y-3.1922
X3.7945Y-3.2605
X3.84Y-3.91
X3.875Y-3.97
X3.915Y-3.149
X4.025Y-3.211
X4.045Y-3.71
X4.045Y-3.745
X4.05Y-4.16
X4.05Y-4.235
X4.05Y-4.4
X4.05Y-4.45
X4.05Y-4.5
X4.075Y-3.71
X4.08Y-2.76
X4.08Y-2.79
X4.1Y-4.4
X4.1Y-4.45
X4.1Y-4.5
X4.105Y-3.71
X4.105Y-4.16
X4.105Y-4.235
X4.12Y-2.76
X4.12Y-2.79
X4.16Y-2.76
X4.16Y-2.79
X4.2Y-2.76
X4.2Y-2.79
X4.2Y-2.95
X4.23Y-2.84
X4.23Y-2.87
X4.24Y-2.95
X4.28Y-2.84
X4.28Y-2.87
X4.28Y-2.95
X4.3Y-3.4
X4.3Y-3.45
X4.33Y-2.87
X4.35Y-3.4
X4.35Y-3.45
X4.38Y-2.87
X4.47Y-2.66
X4.47Y-2.69
X4.5Y-2.66
X4.5Y-2.69
X4.53Y-2.66
X4.53Y-2.69
X4.545Y-2.93
X4.55Y-3.6
X4.55Y-3.65
X4.55Y-3.7
X4.56Y-2.66
X4.56Y-2.69
X4.56Y-3.12
X4.6Y-3.6
X4.6Y-3.65
X4.6Y-3.7
X4.655Y-2.94
X4.74Y-3.28
X4.74Y-3.47
X4.75Y-2.945
X4.791Y-3.0281
X4.83Y-3.23
X4.85Y-3.15
X4.919Y-2.9888
X4.9283Y-2.9616
X4.9318Y-2.9327
X4.9323Y-3.0153
X4.9396Y-3.042
X4.9419Y-3.1282
X4.955Y-2.795
X4.955Y-3.065
X4.9715Y-3.1295
X4.99Y-2.8496
X5.01Y-2.83
X5.0131Y-2.7731
X5.015Y-3.12
X5.0393Y-2.8284
X5.0644Y-2.8168
X5.065Y-3.12
X5.0976Y-2.8152
X5.11Y-2.84
X5.115Y-3.1185
X5.1383Y-2.8368
X5.15Y-3.6
X5.15Y-3.65
X5.15Y-3.7
X5.15Y-3.75
X5.16Y-2.8656
X5.2Y-3.6
X5.2Y-3.65
X5.2Y-3.7
X5.2Y-3.75
X5.21Y-2.985
X5.2399Y-2.9652
X5.2578Y-2.9921
X5.275Y-3.14
X5.305Y-3.02
X5.345Y-3.055
X5.35Y-3.025
X5.355Y-3.115
X5.3846Y-2.9272
X5.42Y-3.38
X5.4554Y-2.8328
X5.4554Y-2.9272
X5.4554Y-3.1172
X5.46Y-3.025
X5.61Y-3.12
X5.73Y-3.73
X5.735Y-4.04
X5.7765Y-3.3239
X5.78Y-3.69
X5.8392Y-3.6192
X5.85Y-3.685
X5.8605Y-3.6573
X5.89Y-3.62
X5.93Y-3.3878
X5.93Y-3.805
X5.938Y-3.5702
X5.94Y-4.045
X5.945Y-4.46
X5.945Y-4.485
X5.965Y-4.045
X5.99Y-4.46
X5.99Y-4.485
X5.995Y-4.045
X6.0Y-3.3878
X6.005Y-3.595
X6.005Y-3.62
X6.0203Y-4.1295
X6.0618Y-4.1
X6.0782Y-3.821
X6.08Y-3.38
X6.1118Y-3.79
X6.145Y-2.88
X6.1511Y-3.3239
X6.17Y-2.88
X6.1761Y-3.3239
X6.1837Y-4.1913
X6.1911Y-3.7589
X6.4Y-2.65
X6.4Y-2.7
X6.42Y-3.58
X6.43Y-3.14
X6.4324Y-4.0176
X6.44Y-4.46
X6.45Y-2.65
X6.45Y-2.7
X6.45Y-3.58
X6.45Y-4.65
X6.45Y-4.7
X6.46Y-3.14
X6.4624Y-4.0176
X6.4676Y-4.46
X6.48Y-3.58
X6.49Y-3.14
X6.4924Y-4.0176
X6.5Y-2.65
X6.5Y-2.7
X6.5Y-4.46
X6.5Y-4.65
X6.5Y-4.7
X6.51Y-3.58
X6.52Y-3.14
X6.5224Y-4.0176
X6.53Y-4.46
X6.55Y-2.65
X6.55Y-2.7
X6.55Y-4.65
X6.55Y-4.7
X6.6Y-2.65
X6.6Y-2.7
X6.6Y-4.65
X6.6Y-4.7
X6.65Y-4.65
X6.65Y-4.7
T3
X3.95Y-2.875
X3.35Y-3.025
X3.475Y-3.025
X4.1Y-2.875
T4
X3.55Y-2.675
T5
X4.705Y-4.055
X4.805Y-4.055
X4.905Y-4.055
X4.795Y-4.41
X4.795Y-4.51
X4.795Y-4.61
X4.945Y-4.41
X4.945Y-4.51
X4.945Y-4.61
X4.645Y-4.41
X4.645Y-4.51
X4.645Y-4.61
X5.3Y-2.7
X5.4Y-2.7
X5.5Y-2.7
X5.6Y-2.7
X4.85Y-2.7
X4.95Y-2.7
X5.05Y-2.7
X5.15Y-2.7
X3.65Y-2.675
X3.75Y-2.675
X3.85Y-2.675
X5.14Y-4.05
X5.14Y-4.15
X5.14Y-4.41
X5.14Y-4.51
X5.07Y-3.34
X5.17Y-3.34
X5.34Y-3.95
X5.34Y-4.05
X5.34Y-4.15
X5.54Y-3.95
X5.54Y-4.05
X5.54Y-4.15
T6
X4.71Y-4.25
X4.8084Y-3.8563
X4.9069Y-4.25
T7
X6.64Y-2.92
X6.64Y-3.12
X6.64Y-3.8
X6.64Y-4.0
X6.64Y-3.36
X6.64Y-3.56
X6.64Y-4.24
X6.64Y-4.44
T2
G00X2.9761Y-2.8799
M15
G01X3.0076Y-2.8799
M16
G05
G00X2.9761Y-3.2201
M15
G01X3.0076Y-3.2201
M16
G05
G00X3.1343Y-2.8799
M15
G01X3.1776Y-2.8799
M16
G05
G00X3.1343Y-3.2201
M15
G01X3.1776Y-3.2201
M16
G05
T5
G00X3.1Y-4.2356
M15
G01X3.1Y-4.3144
M16
G05
G00X3.1787Y-4.46
M15
G01X3.2575Y-4.46
M16
G05
G00X3.3362Y-4.2356
M15
G01X3.3362Y-4.3144
M16
G05
T0
M30
