G04 #@! TF.GenerationSoftware,KiCad,Pcbnew,(5.1.0-rc2-41-g6b3e9b0ed)*
G04 #@! TF.CreationDate,2021-09-28T16:44:10+02:00*
G04 #@! TF.ProjectId,styro_control,73747972-6f5f-4636-9f6e-74726f6c2e6b,rev?*
G04 #@! TF.SameCoordinates,Original*
G04 #@! TF.FileFunction,Paste,Bot*
G04 #@! TF.FilePolarity,Positive*
%FSLAX46Y46*%
G04 Gerber Fmt 4.6, Leading zero omitted, Abs format (unit mm)*
G04 Created by KiCad (PCBNEW (5.1.0-rc2-41-g6b3e9b0ed)) date 2021-09-28 16:44:10*
%MOMM*%
%LPD*%
G04 APERTURE LIST*
%ADD10R,1.000000X1.500000*%
%ADD11R,0.800000X0.500000*%
%ADD12R,0.800000X0.400000*%
%ADD13R,0.700000X0.700000*%
%ADD14O,0.300000X0.800000*%
%ADD15O,0.800000X0.300000*%
%ADD16R,1.600000X1.400000*%
%ADD17R,1.400000X0.300000*%
%ADD18C,0.100000*%
%ADD19C,1.525000*%
%ADD20C,1.150000*%
G04 APERTURE END LIST*
D10*
X120574000Y-83402000D03*
X123774000Y-83402000D03*
X120574000Y-88302000D03*
X123774000Y-88302000D03*
D11*
X136768000Y-79178000D03*
D12*
X136768000Y-78378000D03*
D11*
X136768000Y-76778000D03*
D12*
X136768000Y-77578000D03*
D11*
X138568000Y-79178000D03*
D12*
X138568000Y-77578000D03*
X138568000Y-78378000D03*
D11*
X138568000Y-76778000D03*
D13*
X151567500Y-93782500D03*
X150692500Y-93782500D03*
X150692500Y-92907500D03*
X151567500Y-92907500D03*
D14*
X150380000Y-94845000D03*
X150880000Y-94845000D03*
X151380000Y-94845000D03*
X151880000Y-94845000D03*
D15*
X152630000Y-94095000D03*
X152630000Y-93595000D03*
X152630000Y-93095000D03*
X152630000Y-92595000D03*
D14*
X151880000Y-91845000D03*
X151380000Y-91845000D03*
X150880000Y-91845000D03*
X150380000Y-91845000D03*
D15*
X149630000Y-92595000D03*
X149630000Y-93095000D03*
X149630000Y-93595000D03*
X149630000Y-94095000D03*
D16*
X102445000Y-101370000D03*
X109645000Y-101370000D03*
X102445000Y-104370000D03*
X109645000Y-104370000D03*
X78315000Y-101370000D03*
X85515000Y-101370000D03*
X78315000Y-104370000D03*
X85515000Y-104370000D03*
X89745000Y-101370000D03*
X96945000Y-101370000D03*
X89745000Y-104370000D03*
X96945000Y-104370000D03*
D11*
X136768000Y-74352000D03*
D12*
X136768000Y-73552000D03*
D11*
X136768000Y-71952000D03*
D12*
X136768000Y-72752000D03*
D11*
X138568000Y-74352000D03*
D12*
X138568000Y-72752000D03*
X138568000Y-73552000D03*
D11*
X138568000Y-71952000D03*
D17*
X153584000Y-88122000D03*
X153584000Y-87622000D03*
X153584000Y-87122000D03*
X153584000Y-86622000D03*
X153584000Y-86122000D03*
X149184000Y-86122000D03*
X149184000Y-86622000D03*
X149184000Y-87122000D03*
X149184000Y-87622000D03*
X149184000Y-88122000D03*
D18*
G36*
X165787505Y-101286204D02*
G01*
X165811773Y-101289804D01*
X165835572Y-101295765D01*
X165858671Y-101304030D01*
X165880850Y-101314520D01*
X165901893Y-101327132D01*
X165921599Y-101341747D01*
X165939777Y-101358223D01*
X165956253Y-101376401D01*
X165970868Y-101396107D01*
X165983480Y-101417150D01*
X165993970Y-101439329D01*
X166002235Y-101462428D01*
X166008196Y-101486227D01*
X166011796Y-101510495D01*
X166013000Y-101534999D01*
X166013000Y-102560001D01*
X166011796Y-102584505D01*
X166008196Y-102608773D01*
X166002235Y-102632572D01*
X165993970Y-102655671D01*
X165983480Y-102677850D01*
X165970868Y-102698893D01*
X165956253Y-102718599D01*
X165939777Y-102736777D01*
X165921599Y-102753253D01*
X165901893Y-102767868D01*
X165880850Y-102780480D01*
X165858671Y-102790970D01*
X165835572Y-102799235D01*
X165811773Y-102805196D01*
X165787505Y-102808796D01*
X165763001Y-102810000D01*
X162912999Y-102810000D01*
X162888495Y-102808796D01*
X162864227Y-102805196D01*
X162840428Y-102799235D01*
X162817329Y-102790970D01*
X162795150Y-102780480D01*
X162774107Y-102767868D01*
X162754401Y-102753253D01*
X162736223Y-102736777D01*
X162719747Y-102718599D01*
X162705132Y-102698893D01*
X162692520Y-102677850D01*
X162682030Y-102655671D01*
X162673765Y-102632572D01*
X162667804Y-102608773D01*
X162664204Y-102584505D01*
X162663000Y-102560001D01*
X162663000Y-101534999D01*
X162664204Y-101510495D01*
X162667804Y-101486227D01*
X162673765Y-101462428D01*
X162682030Y-101439329D01*
X162692520Y-101417150D01*
X162705132Y-101396107D01*
X162719747Y-101376401D01*
X162736223Y-101358223D01*
X162754401Y-101341747D01*
X162774107Y-101327132D01*
X162795150Y-101314520D01*
X162817329Y-101304030D01*
X162840428Y-101295765D01*
X162864227Y-101289804D01*
X162888495Y-101286204D01*
X162912999Y-101285000D01*
X165763001Y-101285000D01*
X165787505Y-101286204D01*
X165787505Y-101286204D01*
G37*
D19*
X164338000Y-102047500D03*
D18*
G36*
X165787505Y-95311204D02*
G01*
X165811773Y-95314804D01*
X165835572Y-95320765D01*
X165858671Y-95329030D01*
X165880850Y-95339520D01*
X165901893Y-95352132D01*
X165921599Y-95366747D01*
X165939777Y-95383223D01*
X165956253Y-95401401D01*
X165970868Y-95421107D01*
X165983480Y-95442150D01*
X165993970Y-95464329D01*
X166002235Y-95487428D01*
X166008196Y-95511227D01*
X166011796Y-95535495D01*
X166013000Y-95559999D01*
X166013000Y-96585001D01*
X166011796Y-96609505D01*
X166008196Y-96633773D01*
X166002235Y-96657572D01*
X165993970Y-96680671D01*
X165983480Y-96702850D01*
X165970868Y-96723893D01*
X165956253Y-96743599D01*
X165939777Y-96761777D01*
X165921599Y-96778253D01*
X165901893Y-96792868D01*
X165880850Y-96805480D01*
X165858671Y-96815970D01*
X165835572Y-96824235D01*
X165811773Y-96830196D01*
X165787505Y-96833796D01*
X165763001Y-96835000D01*
X162912999Y-96835000D01*
X162888495Y-96833796D01*
X162864227Y-96830196D01*
X162840428Y-96824235D01*
X162817329Y-96815970D01*
X162795150Y-96805480D01*
X162774107Y-96792868D01*
X162754401Y-96778253D01*
X162736223Y-96761777D01*
X162719747Y-96743599D01*
X162705132Y-96723893D01*
X162692520Y-96702850D01*
X162682030Y-96680671D01*
X162673765Y-96657572D01*
X162667804Y-96633773D01*
X162664204Y-96609505D01*
X162663000Y-96585001D01*
X162663000Y-95559999D01*
X162664204Y-95535495D01*
X162667804Y-95511227D01*
X162673765Y-95487428D01*
X162682030Y-95464329D01*
X162692520Y-95442150D01*
X162705132Y-95421107D01*
X162719747Y-95401401D01*
X162736223Y-95383223D01*
X162754401Y-95366747D01*
X162774107Y-95352132D01*
X162795150Y-95339520D01*
X162817329Y-95329030D01*
X162840428Y-95320765D01*
X162864227Y-95314804D01*
X162888495Y-95311204D01*
X162912999Y-95310000D01*
X165763001Y-95310000D01*
X165787505Y-95311204D01*
X165787505Y-95311204D01*
G37*
D19*
X164338000Y-96072500D03*
D18*
G36*
X165787505Y-112462204D02*
G01*
X165811773Y-112465804D01*
X165835572Y-112471765D01*
X165858671Y-112480030D01*
X165880850Y-112490520D01*
X165901893Y-112503132D01*
X165921599Y-112517747D01*
X165939777Y-112534223D01*
X165956253Y-112552401D01*
X165970868Y-112572107D01*
X165983480Y-112593150D01*
X165993970Y-112615329D01*
X166002235Y-112638428D01*
X166008196Y-112662227D01*
X166011796Y-112686495D01*
X166013000Y-112710999D01*
X166013000Y-113736001D01*
X166011796Y-113760505D01*
X166008196Y-113784773D01*
X166002235Y-113808572D01*
X165993970Y-113831671D01*
X165983480Y-113853850D01*
X165970868Y-113874893D01*
X165956253Y-113894599D01*
X165939777Y-113912777D01*
X165921599Y-113929253D01*
X165901893Y-113943868D01*
X165880850Y-113956480D01*
X165858671Y-113966970D01*
X165835572Y-113975235D01*
X165811773Y-113981196D01*
X165787505Y-113984796D01*
X165763001Y-113986000D01*
X162912999Y-113986000D01*
X162888495Y-113984796D01*
X162864227Y-113981196D01*
X162840428Y-113975235D01*
X162817329Y-113966970D01*
X162795150Y-113956480D01*
X162774107Y-113943868D01*
X162754401Y-113929253D01*
X162736223Y-113912777D01*
X162719747Y-113894599D01*
X162705132Y-113874893D01*
X162692520Y-113853850D01*
X162682030Y-113831671D01*
X162673765Y-113808572D01*
X162667804Y-113784773D01*
X162664204Y-113760505D01*
X162663000Y-113736001D01*
X162663000Y-112710999D01*
X162664204Y-112686495D01*
X162667804Y-112662227D01*
X162673765Y-112638428D01*
X162682030Y-112615329D01*
X162692520Y-112593150D01*
X162705132Y-112572107D01*
X162719747Y-112552401D01*
X162736223Y-112534223D01*
X162754401Y-112517747D01*
X162774107Y-112503132D01*
X162795150Y-112490520D01*
X162817329Y-112480030D01*
X162840428Y-112471765D01*
X162864227Y-112465804D01*
X162888495Y-112462204D01*
X162912999Y-112461000D01*
X165763001Y-112461000D01*
X165787505Y-112462204D01*
X165787505Y-112462204D01*
G37*
D19*
X164338000Y-113223500D03*
D18*
G36*
X165787505Y-106487204D02*
G01*
X165811773Y-106490804D01*
X165835572Y-106496765D01*
X165858671Y-106505030D01*
X165880850Y-106515520D01*
X165901893Y-106528132D01*
X165921599Y-106542747D01*
X165939777Y-106559223D01*
X165956253Y-106577401D01*
X165970868Y-106597107D01*
X165983480Y-106618150D01*
X165993970Y-106640329D01*
X166002235Y-106663428D01*
X166008196Y-106687227D01*
X166011796Y-106711495D01*
X166013000Y-106735999D01*
X166013000Y-107761001D01*
X166011796Y-107785505D01*
X166008196Y-107809773D01*
X166002235Y-107833572D01*
X165993970Y-107856671D01*
X165983480Y-107878850D01*
X165970868Y-107899893D01*
X165956253Y-107919599D01*
X165939777Y-107937777D01*
X165921599Y-107954253D01*
X165901893Y-107968868D01*
X165880850Y-107981480D01*
X165858671Y-107991970D01*
X165835572Y-108000235D01*
X165811773Y-108006196D01*
X165787505Y-108009796D01*
X165763001Y-108011000D01*
X162912999Y-108011000D01*
X162888495Y-108009796D01*
X162864227Y-108006196D01*
X162840428Y-108000235D01*
X162817329Y-107991970D01*
X162795150Y-107981480D01*
X162774107Y-107968868D01*
X162754401Y-107954253D01*
X162736223Y-107937777D01*
X162719747Y-107919599D01*
X162705132Y-107899893D01*
X162692520Y-107878850D01*
X162682030Y-107856671D01*
X162673765Y-107833572D01*
X162667804Y-107809773D01*
X162664204Y-107785505D01*
X162663000Y-107761001D01*
X162663000Y-106735999D01*
X162664204Y-106711495D01*
X162667804Y-106687227D01*
X162673765Y-106663428D01*
X162682030Y-106640329D01*
X162692520Y-106618150D01*
X162705132Y-106597107D01*
X162719747Y-106577401D01*
X162736223Y-106559223D01*
X162754401Y-106542747D01*
X162774107Y-106528132D01*
X162795150Y-106515520D01*
X162817329Y-106505030D01*
X162840428Y-106496765D01*
X162864227Y-106490804D01*
X162888495Y-106487204D01*
X162912999Y-106486000D01*
X165763001Y-106486000D01*
X165787505Y-106487204D01*
X165787505Y-106487204D01*
G37*
D19*
X164338000Y-107248500D03*
D18*
G36*
X165787505Y-90110204D02*
G01*
X165811773Y-90113804D01*
X165835572Y-90119765D01*
X165858671Y-90128030D01*
X165880850Y-90138520D01*
X165901893Y-90151132D01*
X165921599Y-90165747D01*
X165939777Y-90182223D01*
X165956253Y-90200401D01*
X165970868Y-90220107D01*
X165983480Y-90241150D01*
X165993970Y-90263329D01*
X166002235Y-90286428D01*
X166008196Y-90310227D01*
X166011796Y-90334495D01*
X166013000Y-90358999D01*
X166013000Y-91384001D01*
X166011796Y-91408505D01*
X166008196Y-91432773D01*
X166002235Y-91456572D01*
X165993970Y-91479671D01*
X165983480Y-91501850D01*
X165970868Y-91522893D01*
X165956253Y-91542599D01*
X165939777Y-91560777D01*
X165921599Y-91577253D01*
X165901893Y-91591868D01*
X165880850Y-91604480D01*
X165858671Y-91614970D01*
X165835572Y-91623235D01*
X165811773Y-91629196D01*
X165787505Y-91632796D01*
X165763001Y-91634000D01*
X162912999Y-91634000D01*
X162888495Y-91632796D01*
X162864227Y-91629196D01*
X162840428Y-91623235D01*
X162817329Y-91614970D01*
X162795150Y-91604480D01*
X162774107Y-91591868D01*
X162754401Y-91577253D01*
X162736223Y-91560777D01*
X162719747Y-91542599D01*
X162705132Y-91522893D01*
X162692520Y-91501850D01*
X162682030Y-91479671D01*
X162673765Y-91456572D01*
X162667804Y-91432773D01*
X162664204Y-91408505D01*
X162663000Y-91384001D01*
X162663000Y-90358999D01*
X162664204Y-90334495D01*
X162667804Y-90310227D01*
X162673765Y-90286428D01*
X162682030Y-90263329D01*
X162692520Y-90241150D01*
X162705132Y-90220107D01*
X162719747Y-90200401D01*
X162736223Y-90182223D01*
X162754401Y-90165747D01*
X162774107Y-90151132D01*
X162795150Y-90138520D01*
X162817329Y-90128030D01*
X162840428Y-90119765D01*
X162864227Y-90113804D01*
X162888495Y-90110204D01*
X162912999Y-90109000D01*
X165763001Y-90109000D01*
X165787505Y-90110204D01*
X165787505Y-90110204D01*
G37*
D19*
X164338000Y-90871500D03*
D18*
G36*
X165787505Y-84135204D02*
G01*
X165811773Y-84138804D01*
X165835572Y-84144765D01*
X165858671Y-84153030D01*
X165880850Y-84163520D01*
X165901893Y-84176132D01*
X165921599Y-84190747D01*
X165939777Y-84207223D01*
X165956253Y-84225401D01*
X165970868Y-84245107D01*
X165983480Y-84266150D01*
X165993970Y-84288329D01*
X166002235Y-84311428D01*
X166008196Y-84335227D01*
X166011796Y-84359495D01*
X166013000Y-84383999D01*
X166013000Y-85409001D01*
X166011796Y-85433505D01*
X166008196Y-85457773D01*
X166002235Y-85481572D01*
X165993970Y-85504671D01*
X165983480Y-85526850D01*
X165970868Y-85547893D01*
X165956253Y-85567599D01*
X165939777Y-85585777D01*
X165921599Y-85602253D01*
X165901893Y-85616868D01*
X165880850Y-85629480D01*
X165858671Y-85639970D01*
X165835572Y-85648235D01*
X165811773Y-85654196D01*
X165787505Y-85657796D01*
X165763001Y-85659000D01*
X162912999Y-85659000D01*
X162888495Y-85657796D01*
X162864227Y-85654196D01*
X162840428Y-85648235D01*
X162817329Y-85639970D01*
X162795150Y-85629480D01*
X162774107Y-85616868D01*
X162754401Y-85602253D01*
X162736223Y-85585777D01*
X162719747Y-85567599D01*
X162705132Y-85547893D01*
X162692520Y-85526850D01*
X162682030Y-85504671D01*
X162673765Y-85481572D01*
X162667804Y-85457773D01*
X162664204Y-85433505D01*
X162663000Y-85409001D01*
X162663000Y-84383999D01*
X162664204Y-84359495D01*
X162667804Y-84335227D01*
X162673765Y-84311428D01*
X162682030Y-84288329D01*
X162692520Y-84266150D01*
X162705132Y-84245107D01*
X162719747Y-84225401D01*
X162736223Y-84207223D01*
X162754401Y-84190747D01*
X162774107Y-84176132D01*
X162795150Y-84163520D01*
X162817329Y-84153030D01*
X162840428Y-84144765D01*
X162864227Y-84138804D01*
X162888495Y-84135204D01*
X162912999Y-84134000D01*
X165763001Y-84134000D01*
X165787505Y-84135204D01*
X165787505Y-84135204D01*
G37*
D19*
X164338000Y-84896500D03*
D18*
G36*
X165787505Y-78934204D02*
G01*
X165811773Y-78937804D01*
X165835572Y-78943765D01*
X165858671Y-78952030D01*
X165880850Y-78962520D01*
X165901893Y-78975132D01*
X165921599Y-78989747D01*
X165939777Y-79006223D01*
X165956253Y-79024401D01*
X165970868Y-79044107D01*
X165983480Y-79065150D01*
X165993970Y-79087329D01*
X166002235Y-79110428D01*
X166008196Y-79134227D01*
X166011796Y-79158495D01*
X166013000Y-79182999D01*
X166013000Y-80208001D01*
X166011796Y-80232505D01*
X166008196Y-80256773D01*
X166002235Y-80280572D01*
X165993970Y-80303671D01*
X165983480Y-80325850D01*
X165970868Y-80346893D01*
X165956253Y-80366599D01*
X165939777Y-80384777D01*
X165921599Y-80401253D01*
X165901893Y-80415868D01*
X165880850Y-80428480D01*
X165858671Y-80438970D01*
X165835572Y-80447235D01*
X165811773Y-80453196D01*
X165787505Y-80456796D01*
X165763001Y-80458000D01*
X162912999Y-80458000D01*
X162888495Y-80456796D01*
X162864227Y-80453196D01*
X162840428Y-80447235D01*
X162817329Y-80438970D01*
X162795150Y-80428480D01*
X162774107Y-80415868D01*
X162754401Y-80401253D01*
X162736223Y-80384777D01*
X162719747Y-80366599D01*
X162705132Y-80346893D01*
X162692520Y-80325850D01*
X162682030Y-80303671D01*
X162673765Y-80280572D01*
X162667804Y-80256773D01*
X162664204Y-80232505D01*
X162663000Y-80208001D01*
X162663000Y-79182999D01*
X162664204Y-79158495D01*
X162667804Y-79134227D01*
X162673765Y-79110428D01*
X162682030Y-79087329D01*
X162692520Y-79065150D01*
X162705132Y-79044107D01*
X162719747Y-79024401D01*
X162736223Y-79006223D01*
X162754401Y-78989747D01*
X162774107Y-78975132D01*
X162795150Y-78962520D01*
X162817329Y-78952030D01*
X162840428Y-78943765D01*
X162864227Y-78937804D01*
X162888495Y-78934204D01*
X162912999Y-78933000D01*
X165763001Y-78933000D01*
X165787505Y-78934204D01*
X165787505Y-78934204D01*
G37*
D19*
X164338000Y-79695500D03*
D18*
G36*
X165787505Y-72959204D02*
G01*
X165811773Y-72962804D01*
X165835572Y-72968765D01*
X165858671Y-72977030D01*
X165880850Y-72987520D01*
X165901893Y-73000132D01*
X165921599Y-73014747D01*
X165939777Y-73031223D01*
X165956253Y-73049401D01*
X165970868Y-73069107D01*
X165983480Y-73090150D01*
X165993970Y-73112329D01*
X166002235Y-73135428D01*
X166008196Y-73159227D01*
X166011796Y-73183495D01*
X166013000Y-73207999D01*
X166013000Y-74233001D01*
X166011796Y-74257505D01*
X166008196Y-74281773D01*
X166002235Y-74305572D01*
X165993970Y-74328671D01*
X165983480Y-74350850D01*
X165970868Y-74371893D01*
X165956253Y-74391599D01*
X165939777Y-74409777D01*
X165921599Y-74426253D01*
X165901893Y-74440868D01*
X165880850Y-74453480D01*
X165858671Y-74463970D01*
X165835572Y-74472235D01*
X165811773Y-74478196D01*
X165787505Y-74481796D01*
X165763001Y-74483000D01*
X162912999Y-74483000D01*
X162888495Y-74481796D01*
X162864227Y-74478196D01*
X162840428Y-74472235D01*
X162817329Y-74463970D01*
X162795150Y-74453480D01*
X162774107Y-74440868D01*
X162754401Y-74426253D01*
X162736223Y-74409777D01*
X162719747Y-74391599D01*
X162705132Y-74371893D01*
X162692520Y-74350850D01*
X162682030Y-74328671D01*
X162673765Y-74305572D01*
X162667804Y-74281773D01*
X162664204Y-74257505D01*
X162663000Y-74233001D01*
X162663000Y-73207999D01*
X162664204Y-73183495D01*
X162667804Y-73159227D01*
X162673765Y-73135428D01*
X162682030Y-73112329D01*
X162692520Y-73090150D01*
X162705132Y-73069107D01*
X162719747Y-73049401D01*
X162736223Y-73031223D01*
X162754401Y-73014747D01*
X162774107Y-73000132D01*
X162795150Y-72987520D01*
X162817329Y-72977030D01*
X162840428Y-72968765D01*
X162864227Y-72962804D01*
X162888495Y-72959204D01*
X162912999Y-72958000D01*
X165763001Y-72958000D01*
X165787505Y-72959204D01*
X165787505Y-72959204D01*
G37*
D19*
X164338000Y-73720500D03*
D18*
G36*
X138015505Y-87192204D02*
G01*
X138039773Y-87195804D01*
X138063572Y-87201765D01*
X138086671Y-87210030D01*
X138108850Y-87220520D01*
X138129893Y-87233132D01*
X138149599Y-87247747D01*
X138167777Y-87264223D01*
X138184253Y-87282401D01*
X138198868Y-87302107D01*
X138211480Y-87323150D01*
X138221970Y-87345329D01*
X138230235Y-87368428D01*
X138236196Y-87392227D01*
X138239796Y-87416495D01*
X138241000Y-87440999D01*
X138241000Y-88091001D01*
X138239796Y-88115505D01*
X138236196Y-88139773D01*
X138230235Y-88163572D01*
X138221970Y-88186671D01*
X138211480Y-88208850D01*
X138198868Y-88229893D01*
X138184253Y-88249599D01*
X138167777Y-88267777D01*
X138149599Y-88284253D01*
X138129893Y-88298868D01*
X138108850Y-88311480D01*
X138086671Y-88321970D01*
X138063572Y-88330235D01*
X138039773Y-88336196D01*
X138015505Y-88339796D01*
X137991001Y-88341000D01*
X137090999Y-88341000D01*
X137066495Y-88339796D01*
X137042227Y-88336196D01*
X137018428Y-88330235D01*
X136995329Y-88321970D01*
X136973150Y-88311480D01*
X136952107Y-88298868D01*
X136932401Y-88284253D01*
X136914223Y-88267777D01*
X136897747Y-88249599D01*
X136883132Y-88229893D01*
X136870520Y-88208850D01*
X136860030Y-88186671D01*
X136851765Y-88163572D01*
X136845804Y-88139773D01*
X136842204Y-88115505D01*
X136841000Y-88091001D01*
X136841000Y-87440999D01*
X136842204Y-87416495D01*
X136845804Y-87392227D01*
X136851765Y-87368428D01*
X136860030Y-87345329D01*
X136870520Y-87323150D01*
X136883132Y-87302107D01*
X136897747Y-87282401D01*
X136914223Y-87264223D01*
X136932401Y-87247747D01*
X136952107Y-87233132D01*
X136973150Y-87220520D01*
X136995329Y-87210030D01*
X137018428Y-87201765D01*
X137042227Y-87195804D01*
X137066495Y-87192204D01*
X137090999Y-87191000D01*
X137991001Y-87191000D01*
X138015505Y-87192204D01*
X138015505Y-87192204D01*
G37*
D20*
X137541000Y-87766000D03*
D18*
G36*
X138015505Y-85142204D02*
G01*
X138039773Y-85145804D01*
X138063572Y-85151765D01*
X138086671Y-85160030D01*
X138108850Y-85170520D01*
X138129893Y-85183132D01*
X138149599Y-85197747D01*
X138167777Y-85214223D01*
X138184253Y-85232401D01*
X138198868Y-85252107D01*
X138211480Y-85273150D01*
X138221970Y-85295329D01*
X138230235Y-85318428D01*
X138236196Y-85342227D01*
X138239796Y-85366495D01*
X138241000Y-85390999D01*
X138241000Y-86041001D01*
X138239796Y-86065505D01*
X138236196Y-86089773D01*
X138230235Y-86113572D01*
X138221970Y-86136671D01*
X138211480Y-86158850D01*
X138198868Y-86179893D01*
X138184253Y-86199599D01*
X138167777Y-86217777D01*
X138149599Y-86234253D01*
X138129893Y-86248868D01*
X138108850Y-86261480D01*
X138086671Y-86271970D01*
X138063572Y-86280235D01*
X138039773Y-86286196D01*
X138015505Y-86289796D01*
X137991001Y-86291000D01*
X137090999Y-86291000D01*
X137066495Y-86289796D01*
X137042227Y-86286196D01*
X137018428Y-86280235D01*
X136995329Y-86271970D01*
X136973150Y-86261480D01*
X136952107Y-86248868D01*
X136932401Y-86234253D01*
X136914223Y-86217777D01*
X136897747Y-86199599D01*
X136883132Y-86179893D01*
X136870520Y-86158850D01*
X136860030Y-86136671D01*
X136851765Y-86113572D01*
X136845804Y-86089773D01*
X136842204Y-86065505D01*
X136841000Y-86041001D01*
X136841000Y-85390999D01*
X136842204Y-85366495D01*
X136845804Y-85342227D01*
X136851765Y-85318428D01*
X136860030Y-85295329D01*
X136870520Y-85273150D01*
X136883132Y-85252107D01*
X136897747Y-85232401D01*
X136914223Y-85214223D01*
X136932401Y-85197747D01*
X136952107Y-85183132D01*
X136973150Y-85170520D01*
X136995329Y-85160030D01*
X137018428Y-85151765D01*
X137042227Y-85145804D01*
X137066495Y-85142204D01*
X137090999Y-85141000D01*
X137991001Y-85141000D01*
X138015505Y-85142204D01*
X138015505Y-85142204D01*
G37*
D20*
X137541000Y-85716000D03*
D18*
G36*
X141063505Y-87192204D02*
G01*
X141087773Y-87195804D01*
X141111572Y-87201765D01*
X141134671Y-87210030D01*
X141156850Y-87220520D01*
X141177893Y-87233132D01*
X141197599Y-87247747D01*
X141215777Y-87264223D01*
X141232253Y-87282401D01*
X141246868Y-87302107D01*
X141259480Y-87323150D01*
X141269970Y-87345329D01*
X141278235Y-87368428D01*
X141284196Y-87392227D01*
X141287796Y-87416495D01*
X141289000Y-87440999D01*
X141289000Y-88091001D01*
X141287796Y-88115505D01*
X141284196Y-88139773D01*
X141278235Y-88163572D01*
X141269970Y-88186671D01*
X141259480Y-88208850D01*
X141246868Y-88229893D01*
X141232253Y-88249599D01*
X141215777Y-88267777D01*
X141197599Y-88284253D01*
X141177893Y-88298868D01*
X141156850Y-88311480D01*
X141134671Y-88321970D01*
X141111572Y-88330235D01*
X141087773Y-88336196D01*
X141063505Y-88339796D01*
X141039001Y-88341000D01*
X140138999Y-88341000D01*
X140114495Y-88339796D01*
X140090227Y-88336196D01*
X140066428Y-88330235D01*
X140043329Y-88321970D01*
X140021150Y-88311480D01*
X140000107Y-88298868D01*
X139980401Y-88284253D01*
X139962223Y-88267777D01*
X139945747Y-88249599D01*
X139931132Y-88229893D01*
X139918520Y-88208850D01*
X139908030Y-88186671D01*
X139899765Y-88163572D01*
X139893804Y-88139773D01*
X139890204Y-88115505D01*
X139889000Y-88091001D01*
X139889000Y-87440999D01*
X139890204Y-87416495D01*
X139893804Y-87392227D01*
X139899765Y-87368428D01*
X139908030Y-87345329D01*
X139918520Y-87323150D01*
X139931132Y-87302107D01*
X139945747Y-87282401D01*
X139962223Y-87264223D01*
X139980401Y-87247747D01*
X140000107Y-87233132D01*
X140021150Y-87220520D01*
X140043329Y-87210030D01*
X140066428Y-87201765D01*
X140090227Y-87195804D01*
X140114495Y-87192204D01*
X140138999Y-87191000D01*
X141039001Y-87191000D01*
X141063505Y-87192204D01*
X141063505Y-87192204D01*
G37*
D20*
X140589000Y-87766000D03*
D18*
G36*
X141063505Y-85142204D02*
G01*
X141087773Y-85145804D01*
X141111572Y-85151765D01*
X141134671Y-85160030D01*
X141156850Y-85170520D01*
X141177893Y-85183132D01*
X141197599Y-85197747D01*
X141215777Y-85214223D01*
X141232253Y-85232401D01*
X141246868Y-85252107D01*
X141259480Y-85273150D01*
X141269970Y-85295329D01*
X141278235Y-85318428D01*
X141284196Y-85342227D01*
X141287796Y-85366495D01*
X141289000Y-85390999D01*
X141289000Y-86041001D01*
X141287796Y-86065505D01*
X141284196Y-86089773D01*
X141278235Y-86113572D01*
X141269970Y-86136671D01*
X141259480Y-86158850D01*
X141246868Y-86179893D01*
X141232253Y-86199599D01*
X141215777Y-86217777D01*
X141197599Y-86234253D01*
X141177893Y-86248868D01*
X141156850Y-86261480D01*
X141134671Y-86271970D01*
X141111572Y-86280235D01*
X141087773Y-86286196D01*
X141063505Y-86289796D01*
X141039001Y-86291000D01*
X140138999Y-86291000D01*
X140114495Y-86289796D01*
X140090227Y-86286196D01*
X140066428Y-86280235D01*
X140043329Y-86271970D01*
X140021150Y-86261480D01*
X140000107Y-86248868D01*
X139980401Y-86234253D01*
X139962223Y-86217777D01*
X139945747Y-86199599D01*
X139931132Y-86179893D01*
X139918520Y-86158850D01*
X139908030Y-86136671D01*
X139899765Y-86113572D01*
X139893804Y-86089773D01*
X139890204Y-86065505D01*
X139889000Y-86041001D01*
X139889000Y-85390999D01*
X139890204Y-85366495D01*
X139893804Y-85342227D01*
X139899765Y-85318428D01*
X139908030Y-85295329D01*
X139918520Y-85273150D01*
X139931132Y-85252107D01*
X139945747Y-85232401D01*
X139962223Y-85214223D01*
X139980401Y-85197747D01*
X140000107Y-85183132D01*
X140021150Y-85170520D01*
X140043329Y-85160030D01*
X140066428Y-85151765D01*
X140090227Y-85145804D01*
X140114495Y-85142204D01*
X140138999Y-85141000D01*
X141039001Y-85141000D01*
X141063505Y-85142204D01*
X141063505Y-85142204D01*
G37*
D20*
X140589000Y-85716000D03*
D18*
G36*
X138015505Y-92526204D02*
G01*
X138039773Y-92529804D01*
X138063572Y-92535765D01*
X138086671Y-92544030D01*
X138108850Y-92554520D01*
X138129893Y-92567132D01*
X138149599Y-92581747D01*
X138167777Y-92598223D01*
X138184253Y-92616401D01*
X138198868Y-92636107D01*
X138211480Y-92657150D01*
X138221970Y-92679329D01*
X138230235Y-92702428D01*
X138236196Y-92726227D01*
X138239796Y-92750495D01*
X138241000Y-92774999D01*
X138241000Y-93425001D01*
X138239796Y-93449505D01*
X138236196Y-93473773D01*
X138230235Y-93497572D01*
X138221970Y-93520671D01*
X138211480Y-93542850D01*
X138198868Y-93563893D01*
X138184253Y-93583599D01*
X138167777Y-93601777D01*
X138149599Y-93618253D01*
X138129893Y-93632868D01*
X138108850Y-93645480D01*
X138086671Y-93655970D01*
X138063572Y-93664235D01*
X138039773Y-93670196D01*
X138015505Y-93673796D01*
X137991001Y-93675000D01*
X137090999Y-93675000D01*
X137066495Y-93673796D01*
X137042227Y-93670196D01*
X137018428Y-93664235D01*
X136995329Y-93655970D01*
X136973150Y-93645480D01*
X136952107Y-93632868D01*
X136932401Y-93618253D01*
X136914223Y-93601777D01*
X136897747Y-93583599D01*
X136883132Y-93563893D01*
X136870520Y-93542850D01*
X136860030Y-93520671D01*
X136851765Y-93497572D01*
X136845804Y-93473773D01*
X136842204Y-93449505D01*
X136841000Y-93425001D01*
X136841000Y-92774999D01*
X136842204Y-92750495D01*
X136845804Y-92726227D01*
X136851765Y-92702428D01*
X136860030Y-92679329D01*
X136870520Y-92657150D01*
X136883132Y-92636107D01*
X136897747Y-92616401D01*
X136914223Y-92598223D01*
X136932401Y-92581747D01*
X136952107Y-92567132D01*
X136973150Y-92554520D01*
X136995329Y-92544030D01*
X137018428Y-92535765D01*
X137042227Y-92529804D01*
X137066495Y-92526204D01*
X137090999Y-92525000D01*
X137991001Y-92525000D01*
X138015505Y-92526204D01*
X138015505Y-92526204D01*
G37*
D20*
X137541000Y-93100000D03*
D18*
G36*
X138015505Y-90476204D02*
G01*
X138039773Y-90479804D01*
X138063572Y-90485765D01*
X138086671Y-90494030D01*
X138108850Y-90504520D01*
X138129893Y-90517132D01*
X138149599Y-90531747D01*
X138167777Y-90548223D01*
X138184253Y-90566401D01*
X138198868Y-90586107D01*
X138211480Y-90607150D01*
X138221970Y-90629329D01*
X138230235Y-90652428D01*
X138236196Y-90676227D01*
X138239796Y-90700495D01*
X138241000Y-90724999D01*
X138241000Y-91375001D01*
X138239796Y-91399505D01*
X138236196Y-91423773D01*
X138230235Y-91447572D01*
X138221970Y-91470671D01*
X138211480Y-91492850D01*
X138198868Y-91513893D01*
X138184253Y-91533599D01*
X138167777Y-91551777D01*
X138149599Y-91568253D01*
X138129893Y-91582868D01*
X138108850Y-91595480D01*
X138086671Y-91605970D01*
X138063572Y-91614235D01*
X138039773Y-91620196D01*
X138015505Y-91623796D01*
X137991001Y-91625000D01*
X137090999Y-91625000D01*
X137066495Y-91623796D01*
X137042227Y-91620196D01*
X137018428Y-91614235D01*
X136995329Y-91605970D01*
X136973150Y-91595480D01*
X136952107Y-91582868D01*
X136932401Y-91568253D01*
X136914223Y-91551777D01*
X136897747Y-91533599D01*
X136883132Y-91513893D01*
X136870520Y-91492850D01*
X136860030Y-91470671D01*
X136851765Y-91447572D01*
X136845804Y-91423773D01*
X136842204Y-91399505D01*
X136841000Y-91375001D01*
X136841000Y-90724999D01*
X136842204Y-90700495D01*
X136845804Y-90676227D01*
X136851765Y-90652428D01*
X136860030Y-90629329D01*
X136870520Y-90607150D01*
X136883132Y-90586107D01*
X136897747Y-90566401D01*
X136914223Y-90548223D01*
X136932401Y-90531747D01*
X136952107Y-90517132D01*
X136973150Y-90504520D01*
X136995329Y-90494030D01*
X137018428Y-90485765D01*
X137042227Y-90479804D01*
X137066495Y-90476204D01*
X137090999Y-90475000D01*
X137991001Y-90475000D01*
X138015505Y-90476204D01*
X138015505Y-90476204D01*
G37*
D20*
X137541000Y-91050000D03*
D18*
G36*
X141063505Y-92526204D02*
G01*
X141087773Y-92529804D01*
X141111572Y-92535765D01*
X141134671Y-92544030D01*
X141156850Y-92554520D01*
X141177893Y-92567132D01*
X141197599Y-92581747D01*
X141215777Y-92598223D01*
X141232253Y-92616401D01*
X141246868Y-92636107D01*
X141259480Y-92657150D01*
X141269970Y-92679329D01*
X141278235Y-92702428D01*
X141284196Y-92726227D01*
X141287796Y-92750495D01*
X141289000Y-92774999D01*
X141289000Y-93425001D01*
X141287796Y-93449505D01*
X141284196Y-93473773D01*
X141278235Y-93497572D01*
X141269970Y-93520671D01*
X141259480Y-93542850D01*
X141246868Y-93563893D01*
X141232253Y-93583599D01*
X141215777Y-93601777D01*
X141197599Y-93618253D01*
X141177893Y-93632868D01*
X141156850Y-93645480D01*
X141134671Y-93655970D01*
X141111572Y-93664235D01*
X141087773Y-93670196D01*
X141063505Y-93673796D01*
X141039001Y-93675000D01*
X140138999Y-93675000D01*
X140114495Y-93673796D01*
X140090227Y-93670196D01*
X140066428Y-93664235D01*
X140043329Y-93655970D01*
X140021150Y-93645480D01*
X140000107Y-93632868D01*
X139980401Y-93618253D01*
X139962223Y-93601777D01*
X139945747Y-93583599D01*
X139931132Y-93563893D01*
X139918520Y-93542850D01*
X139908030Y-93520671D01*
X139899765Y-93497572D01*
X139893804Y-93473773D01*
X139890204Y-93449505D01*
X139889000Y-93425001D01*
X139889000Y-92774999D01*
X139890204Y-92750495D01*
X139893804Y-92726227D01*
X139899765Y-92702428D01*
X139908030Y-92679329D01*
X139918520Y-92657150D01*
X139931132Y-92636107D01*
X139945747Y-92616401D01*
X139962223Y-92598223D01*
X139980401Y-92581747D01*
X140000107Y-92567132D01*
X140021150Y-92554520D01*
X140043329Y-92544030D01*
X140066428Y-92535765D01*
X140090227Y-92529804D01*
X140114495Y-92526204D01*
X140138999Y-92525000D01*
X141039001Y-92525000D01*
X141063505Y-92526204D01*
X141063505Y-92526204D01*
G37*
D20*
X140589000Y-93100000D03*
D18*
G36*
X141063505Y-90476204D02*
G01*
X141087773Y-90479804D01*
X141111572Y-90485765D01*
X141134671Y-90494030D01*
X141156850Y-90504520D01*
X141177893Y-90517132D01*
X141197599Y-90531747D01*
X141215777Y-90548223D01*
X141232253Y-90566401D01*
X141246868Y-90586107D01*
X141259480Y-90607150D01*
X141269970Y-90629329D01*
X141278235Y-90652428D01*
X141284196Y-90676227D01*
X141287796Y-90700495D01*
X141289000Y-90724999D01*
X141289000Y-91375001D01*
X141287796Y-91399505D01*
X141284196Y-91423773D01*
X141278235Y-91447572D01*
X141269970Y-91470671D01*
X141259480Y-91492850D01*
X141246868Y-91513893D01*
X141232253Y-91533599D01*
X141215777Y-91551777D01*
X141197599Y-91568253D01*
X141177893Y-91582868D01*
X141156850Y-91595480D01*
X141134671Y-91605970D01*
X141111572Y-91614235D01*
X141087773Y-91620196D01*
X141063505Y-91623796D01*
X141039001Y-91625000D01*
X140138999Y-91625000D01*
X140114495Y-91623796D01*
X140090227Y-91620196D01*
X140066428Y-91614235D01*
X140043329Y-91605970D01*
X140021150Y-91595480D01*
X140000107Y-91582868D01*
X139980401Y-91568253D01*
X139962223Y-91551777D01*
X139945747Y-91533599D01*
X139931132Y-91513893D01*
X139918520Y-91492850D01*
X139908030Y-91470671D01*
X139899765Y-91447572D01*
X139893804Y-91423773D01*
X139890204Y-91399505D01*
X139889000Y-91375001D01*
X139889000Y-90724999D01*
X139890204Y-90700495D01*
X139893804Y-90676227D01*
X139899765Y-90652428D01*
X139908030Y-90629329D01*
X139918520Y-90607150D01*
X139931132Y-90586107D01*
X139945747Y-90566401D01*
X139962223Y-90548223D01*
X139980401Y-90531747D01*
X140000107Y-90517132D01*
X140021150Y-90504520D01*
X140043329Y-90494030D01*
X140066428Y-90485765D01*
X140090227Y-90479804D01*
X140114495Y-90476204D01*
X140138999Y-90475000D01*
X141039001Y-90475000D01*
X141063505Y-90476204D01*
X141063505Y-90476204D01*
G37*
D20*
X140589000Y-91050000D03*
D18*
G36*
X161131505Y-95313204D02*
G01*
X161155773Y-95316804D01*
X161179572Y-95322765D01*
X161202671Y-95331030D01*
X161224850Y-95341520D01*
X161245893Y-95354132D01*
X161265599Y-95368747D01*
X161283777Y-95385223D01*
X161300253Y-95403401D01*
X161314868Y-95423107D01*
X161327480Y-95444150D01*
X161337970Y-95466329D01*
X161346235Y-95489428D01*
X161352196Y-95513227D01*
X161355796Y-95537495D01*
X161357000Y-95561999D01*
X161357000Y-96462001D01*
X161355796Y-96486505D01*
X161352196Y-96510773D01*
X161346235Y-96534572D01*
X161337970Y-96557671D01*
X161327480Y-96579850D01*
X161314868Y-96600893D01*
X161300253Y-96620599D01*
X161283777Y-96638777D01*
X161265599Y-96655253D01*
X161245893Y-96669868D01*
X161224850Y-96682480D01*
X161202671Y-96692970D01*
X161179572Y-96701235D01*
X161155773Y-96707196D01*
X161131505Y-96710796D01*
X161107001Y-96712000D01*
X160456999Y-96712000D01*
X160432495Y-96710796D01*
X160408227Y-96707196D01*
X160384428Y-96701235D01*
X160361329Y-96692970D01*
X160339150Y-96682480D01*
X160318107Y-96669868D01*
X160298401Y-96655253D01*
X160280223Y-96638777D01*
X160263747Y-96620599D01*
X160249132Y-96600893D01*
X160236520Y-96579850D01*
X160226030Y-96557671D01*
X160217765Y-96534572D01*
X160211804Y-96510773D01*
X160208204Y-96486505D01*
X160207000Y-96462001D01*
X160207000Y-95561999D01*
X160208204Y-95537495D01*
X160211804Y-95513227D01*
X160217765Y-95489428D01*
X160226030Y-95466329D01*
X160236520Y-95444150D01*
X160249132Y-95423107D01*
X160263747Y-95403401D01*
X160280223Y-95385223D01*
X160298401Y-95368747D01*
X160318107Y-95354132D01*
X160339150Y-95341520D01*
X160361329Y-95331030D01*
X160384428Y-95322765D01*
X160408227Y-95316804D01*
X160432495Y-95313204D01*
X160456999Y-95312000D01*
X161107001Y-95312000D01*
X161131505Y-95313204D01*
X161131505Y-95313204D01*
G37*
D20*
X160782000Y-96012000D03*
D18*
G36*
X159081505Y-95313204D02*
G01*
X159105773Y-95316804D01*
X159129572Y-95322765D01*
X159152671Y-95331030D01*
X159174850Y-95341520D01*
X159195893Y-95354132D01*
X159215599Y-95368747D01*
X159233777Y-95385223D01*
X159250253Y-95403401D01*
X159264868Y-95423107D01*
X159277480Y-95444150D01*
X159287970Y-95466329D01*
X159296235Y-95489428D01*
X159302196Y-95513227D01*
X159305796Y-95537495D01*
X159307000Y-95561999D01*
X159307000Y-96462001D01*
X159305796Y-96486505D01*
X159302196Y-96510773D01*
X159296235Y-96534572D01*
X159287970Y-96557671D01*
X159277480Y-96579850D01*
X159264868Y-96600893D01*
X159250253Y-96620599D01*
X159233777Y-96638777D01*
X159215599Y-96655253D01*
X159195893Y-96669868D01*
X159174850Y-96682480D01*
X159152671Y-96692970D01*
X159129572Y-96701235D01*
X159105773Y-96707196D01*
X159081505Y-96710796D01*
X159057001Y-96712000D01*
X158406999Y-96712000D01*
X158382495Y-96710796D01*
X158358227Y-96707196D01*
X158334428Y-96701235D01*
X158311329Y-96692970D01*
X158289150Y-96682480D01*
X158268107Y-96669868D01*
X158248401Y-96655253D01*
X158230223Y-96638777D01*
X158213747Y-96620599D01*
X158199132Y-96600893D01*
X158186520Y-96579850D01*
X158176030Y-96557671D01*
X158167765Y-96534572D01*
X158161804Y-96510773D01*
X158158204Y-96486505D01*
X158157000Y-96462001D01*
X158157000Y-95561999D01*
X158158204Y-95537495D01*
X158161804Y-95513227D01*
X158167765Y-95489428D01*
X158176030Y-95466329D01*
X158186520Y-95444150D01*
X158199132Y-95423107D01*
X158213747Y-95403401D01*
X158230223Y-95385223D01*
X158248401Y-95368747D01*
X158268107Y-95354132D01*
X158289150Y-95341520D01*
X158311329Y-95331030D01*
X158334428Y-95322765D01*
X158358227Y-95316804D01*
X158382495Y-95313204D01*
X158406999Y-95312000D01*
X159057001Y-95312000D01*
X159081505Y-95313204D01*
X159081505Y-95313204D01*
G37*
D20*
X158732000Y-96012000D03*
D18*
G36*
X161140505Y-101409204D02*
G01*
X161164773Y-101412804D01*
X161188572Y-101418765D01*
X161211671Y-101427030D01*
X161233850Y-101437520D01*
X161254893Y-101450132D01*
X161274599Y-101464747D01*
X161292777Y-101481223D01*
X161309253Y-101499401D01*
X161323868Y-101519107D01*
X161336480Y-101540150D01*
X161346970Y-101562329D01*
X161355235Y-101585428D01*
X161361196Y-101609227D01*
X161364796Y-101633495D01*
X161366000Y-101657999D01*
X161366000Y-102558001D01*
X161364796Y-102582505D01*
X161361196Y-102606773D01*
X161355235Y-102630572D01*
X161346970Y-102653671D01*
X161336480Y-102675850D01*
X161323868Y-102696893D01*
X161309253Y-102716599D01*
X161292777Y-102734777D01*
X161274599Y-102751253D01*
X161254893Y-102765868D01*
X161233850Y-102778480D01*
X161211671Y-102788970D01*
X161188572Y-102797235D01*
X161164773Y-102803196D01*
X161140505Y-102806796D01*
X161116001Y-102808000D01*
X160465999Y-102808000D01*
X160441495Y-102806796D01*
X160417227Y-102803196D01*
X160393428Y-102797235D01*
X160370329Y-102788970D01*
X160348150Y-102778480D01*
X160327107Y-102765868D01*
X160307401Y-102751253D01*
X160289223Y-102734777D01*
X160272747Y-102716599D01*
X160258132Y-102696893D01*
X160245520Y-102675850D01*
X160235030Y-102653671D01*
X160226765Y-102630572D01*
X160220804Y-102606773D01*
X160217204Y-102582505D01*
X160216000Y-102558001D01*
X160216000Y-101657999D01*
X160217204Y-101633495D01*
X160220804Y-101609227D01*
X160226765Y-101585428D01*
X160235030Y-101562329D01*
X160245520Y-101540150D01*
X160258132Y-101519107D01*
X160272747Y-101499401D01*
X160289223Y-101481223D01*
X160307401Y-101464747D01*
X160327107Y-101450132D01*
X160348150Y-101437520D01*
X160370329Y-101427030D01*
X160393428Y-101418765D01*
X160417227Y-101412804D01*
X160441495Y-101409204D01*
X160465999Y-101408000D01*
X161116001Y-101408000D01*
X161140505Y-101409204D01*
X161140505Y-101409204D01*
G37*
D20*
X160791000Y-102108000D03*
D18*
G36*
X159090505Y-101409204D02*
G01*
X159114773Y-101412804D01*
X159138572Y-101418765D01*
X159161671Y-101427030D01*
X159183850Y-101437520D01*
X159204893Y-101450132D01*
X159224599Y-101464747D01*
X159242777Y-101481223D01*
X159259253Y-101499401D01*
X159273868Y-101519107D01*
X159286480Y-101540150D01*
X159296970Y-101562329D01*
X159305235Y-101585428D01*
X159311196Y-101609227D01*
X159314796Y-101633495D01*
X159316000Y-101657999D01*
X159316000Y-102558001D01*
X159314796Y-102582505D01*
X159311196Y-102606773D01*
X159305235Y-102630572D01*
X159296970Y-102653671D01*
X159286480Y-102675850D01*
X159273868Y-102696893D01*
X159259253Y-102716599D01*
X159242777Y-102734777D01*
X159224599Y-102751253D01*
X159204893Y-102765868D01*
X159183850Y-102778480D01*
X159161671Y-102788970D01*
X159138572Y-102797235D01*
X159114773Y-102803196D01*
X159090505Y-102806796D01*
X159066001Y-102808000D01*
X158415999Y-102808000D01*
X158391495Y-102806796D01*
X158367227Y-102803196D01*
X158343428Y-102797235D01*
X158320329Y-102788970D01*
X158298150Y-102778480D01*
X158277107Y-102765868D01*
X158257401Y-102751253D01*
X158239223Y-102734777D01*
X158222747Y-102716599D01*
X158208132Y-102696893D01*
X158195520Y-102675850D01*
X158185030Y-102653671D01*
X158176765Y-102630572D01*
X158170804Y-102606773D01*
X158167204Y-102582505D01*
X158166000Y-102558001D01*
X158166000Y-101657999D01*
X158167204Y-101633495D01*
X158170804Y-101609227D01*
X158176765Y-101585428D01*
X158185030Y-101562329D01*
X158195520Y-101540150D01*
X158208132Y-101519107D01*
X158222747Y-101499401D01*
X158239223Y-101481223D01*
X158257401Y-101464747D01*
X158277107Y-101450132D01*
X158298150Y-101437520D01*
X158320329Y-101427030D01*
X158343428Y-101418765D01*
X158367227Y-101412804D01*
X158391495Y-101409204D01*
X158415999Y-101408000D01*
X159066001Y-101408000D01*
X159090505Y-101409204D01*
X159090505Y-101409204D01*
G37*
D20*
X158741000Y-102108000D03*
D18*
G36*
X161131505Y-106489204D02*
G01*
X161155773Y-106492804D01*
X161179572Y-106498765D01*
X161202671Y-106507030D01*
X161224850Y-106517520D01*
X161245893Y-106530132D01*
X161265599Y-106544747D01*
X161283777Y-106561223D01*
X161300253Y-106579401D01*
X161314868Y-106599107D01*
X161327480Y-106620150D01*
X161337970Y-106642329D01*
X161346235Y-106665428D01*
X161352196Y-106689227D01*
X161355796Y-106713495D01*
X161357000Y-106737999D01*
X161357000Y-107638001D01*
X161355796Y-107662505D01*
X161352196Y-107686773D01*
X161346235Y-107710572D01*
X161337970Y-107733671D01*
X161327480Y-107755850D01*
X161314868Y-107776893D01*
X161300253Y-107796599D01*
X161283777Y-107814777D01*
X161265599Y-107831253D01*
X161245893Y-107845868D01*
X161224850Y-107858480D01*
X161202671Y-107868970D01*
X161179572Y-107877235D01*
X161155773Y-107883196D01*
X161131505Y-107886796D01*
X161107001Y-107888000D01*
X160456999Y-107888000D01*
X160432495Y-107886796D01*
X160408227Y-107883196D01*
X160384428Y-107877235D01*
X160361329Y-107868970D01*
X160339150Y-107858480D01*
X160318107Y-107845868D01*
X160298401Y-107831253D01*
X160280223Y-107814777D01*
X160263747Y-107796599D01*
X160249132Y-107776893D01*
X160236520Y-107755850D01*
X160226030Y-107733671D01*
X160217765Y-107710572D01*
X160211804Y-107686773D01*
X160208204Y-107662505D01*
X160207000Y-107638001D01*
X160207000Y-106737999D01*
X160208204Y-106713495D01*
X160211804Y-106689227D01*
X160217765Y-106665428D01*
X160226030Y-106642329D01*
X160236520Y-106620150D01*
X160249132Y-106599107D01*
X160263747Y-106579401D01*
X160280223Y-106561223D01*
X160298401Y-106544747D01*
X160318107Y-106530132D01*
X160339150Y-106517520D01*
X160361329Y-106507030D01*
X160384428Y-106498765D01*
X160408227Y-106492804D01*
X160432495Y-106489204D01*
X160456999Y-106488000D01*
X161107001Y-106488000D01*
X161131505Y-106489204D01*
X161131505Y-106489204D01*
G37*
D20*
X160782000Y-107188000D03*
D18*
G36*
X159081505Y-106489204D02*
G01*
X159105773Y-106492804D01*
X159129572Y-106498765D01*
X159152671Y-106507030D01*
X159174850Y-106517520D01*
X159195893Y-106530132D01*
X159215599Y-106544747D01*
X159233777Y-106561223D01*
X159250253Y-106579401D01*
X159264868Y-106599107D01*
X159277480Y-106620150D01*
X159287970Y-106642329D01*
X159296235Y-106665428D01*
X159302196Y-106689227D01*
X159305796Y-106713495D01*
X159307000Y-106737999D01*
X159307000Y-107638001D01*
X159305796Y-107662505D01*
X159302196Y-107686773D01*
X159296235Y-107710572D01*
X159287970Y-107733671D01*
X159277480Y-107755850D01*
X159264868Y-107776893D01*
X159250253Y-107796599D01*
X159233777Y-107814777D01*
X159215599Y-107831253D01*
X159195893Y-107845868D01*
X159174850Y-107858480D01*
X159152671Y-107868970D01*
X159129572Y-107877235D01*
X159105773Y-107883196D01*
X159081505Y-107886796D01*
X159057001Y-107888000D01*
X158406999Y-107888000D01*
X158382495Y-107886796D01*
X158358227Y-107883196D01*
X158334428Y-107877235D01*
X158311329Y-107868970D01*
X158289150Y-107858480D01*
X158268107Y-107845868D01*
X158248401Y-107831253D01*
X158230223Y-107814777D01*
X158213747Y-107796599D01*
X158199132Y-107776893D01*
X158186520Y-107755850D01*
X158176030Y-107733671D01*
X158167765Y-107710572D01*
X158161804Y-107686773D01*
X158158204Y-107662505D01*
X158157000Y-107638001D01*
X158157000Y-106737999D01*
X158158204Y-106713495D01*
X158161804Y-106689227D01*
X158167765Y-106665428D01*
X158176030Y-106642329D01*
X158186520Y-106620150D01*
X158199132Y-106599107D01*
X158213747Y-106579401D01*
X158230223Y-106561223D01*
X158248401Y-106544747D01*
X158268107Y-106530132D01*
X158289150Y-106517520D01*
X158311329Y-106507030D01*
X158334428Y-106498765D01*
X158358227Y-106492804D01*
X158382495Y-106489204D01*
X158406999Y-106488000D01*
X159057001Y-106488000D01*
X159081505Y-106489204D01*
X159081505Y-106489204D01*
G37*
D20*
X158732000Y-107188000D03*
D18*
G36*
X161140505Y-112585204D02*
G01*
X161164773Y-112588804D01*
X161188572Y-112594765D01*
X161211671Y-112603030D01*
X161233850Y-112613520D01*
X161254893Y-112626132D01*
X161274599Y-112640747D01*
X161292777Y-112657223D01*
X161309253Y-112675401D01*
X161323868Y-112695107D01*
X161336480Y-112716150D01*
X161346970Y-112738329D01*
X161355235Y-112761428D01*
X161361196Y-112785227D01*
X161364796Y-112809495D01*
X161366000Y-112833999D01*
X161366000Y-113734001D01*
X161364796Y-113758505D01*
X161361196Y-113782773D01*
X161355235Y-113806572D01*
X161346970Y-113829671D01*
X161336480Y-113851850D01*
X161323868Y-113872893D01*
X161309253Y-113892599D01*
X161292777Y-113910777D01*
X161274599Y-113927253D01*
X161254893Y-113941868D01*
X161233850Y-113954480D01*
X161211671Y-113964970D01*
X161188572Y-113973235D01*
X161164773Y-113979196D01*
X161140505Y-113982796D01*
X161116001Y-113984000D01*
X160465999Y-113984000D01*
X160441495Y-113982796D01*
X160417227Y-113979196D01*
X160393428Y-113973235D01*
X160370329Y-113964970D01*
X160348150Y-113954480D01*
X160327107Y-113941868D01*
X160307401Y-113927253D01*
X160289223Y-113910777D01*
X160272747Y-113892599D01*
X160258132Y-113872893D01*
X160245520Y-113851850D01*
X160235030Y-113829671D01*
X160226765Y-113806572D01*
X160220804Y-113782773D01*
X160217204Y-113758505D01*
X160216000Y-113734001D01*
X160216000Y-112833999D01*
X160217204Y-112809495D01*
X160220804Y-112785227D01*
X160226765Y-112761428D01*
X160235030Y-112738329D01*
X160245520Y-112716150D01*
X160258132Y-112695107D01*
X160272747Y-112675401D01*
X160289223Y-112657223D01*
X160307401Y-112640747D01*
X160327107Y-112626132D01*
X160348150Y-112613520D01*
X160370329Y-112603030D01*
X160393428Y-112594765D01*
X160417227Y-112588804D01*
X160441495Y-112585204D01*
X160465999Y-112584000D01*
X161116001Y-112584000D01*
X161140505Y-112585204D01*
X161140505Y-112585204D01*
G37*
D20*
X160791000Y-113284000D03*
D18*
G36*
X159090505Y-112585204D02*
G01*
X159114773Y-112588804D01*
X159138572Y-112594765D01*
X159161671Y-112603030D01*
X159183850Y-112613520D01*
X159204893Y-112626132D01*
X159224599Y-112640747D01*
X159242777Y-112657223D01*
X159259253Y-112675401D01*
X159273868Y-112695107D01*
X159286480Y-112716150D01*
X159296970Y-112738329D01*
X159305235Y-112761428D01*
X159311196Y-112785227D01*
X159314796Y-112809495D01*
X159316000Y-112833999D01*
X159316000Y-113734001D01*
X159314796Y-113758505D01*
X159311196Y-113782773D01*
X159305235Y-113806572D01*
X159296970Y-113829671D01*
X159286480Y-113851850D01*
X159273868Y-113872893D01*
X159259253Y-113892599D01*
X159242777Y-113910777D01*
X159224599Y-113927253D01*
X159204893Y-113941868D01*
X159183850Y-113954480D01*
X159161671Y-113964970D01*
X159138572Y-113973235D01*
X159114773Y-113979196D01*
X159090505Y-113982796D01*
X159066001Y-113984000D01*
X158415999Y-113984000D01*
X158391495Y-113982796D01*
X158367227Y-113979196D01*
X158343428Y-113973235D01*
X158320329Y-113964970D01*
X158298150Y-113954480D01*
X158277107Y-113941868D01*
X158257401Y-113927253D01*
X158239223Y-113910777D01*
X158222747Y-113892599D01*
X158208132Y-113872893D01*
X158195520Y-113851850D01*
X158185030Y-113829671D01*
X158176765Y-113806572D01*
X158170804Y-113782773D01*
X158167204Y-113758505D01*
X158166000Y-113734001D01*
X158166000Y-112833999D01*
X158167204Y-112809495D01*
X158170804Y-112785227D01*
X158176765Y-112761428D01*
X158185030Y-112738329D01*
X158195520Y-112716150D01*
X158208132Y-112695107D01*
X158222747Y-112675401D01*
X158239223Y-112657223D01*
X158257401Y-112640747D01*
X158277107Y-112626132D01*
X158298150Y-112613520D01*
X158320329Y-112603030D01*
X158343428Y-112594765D01*
X158367227Y-112588804D01*
X158391495Y-112585204D01*
X158415999Y-112584000D01*
X159066001Y-112584000D01*
X159090505Y-112585204D01*
X159090505Y-112585204D01*
G37*
D20*
X158741000Y-113284000D03*
D18*
G36*
X161140505Y-84137204D02*
G01*
X161164773Y-84140804D01*
X161188572Y-84146765D01*
X161211671Y-84155030D01*
X161233850Y-84165520D01*
X161254893Y-84178132D01*
X161274599Y-84192747D01*
X161292777Y-84209223D01*
X161309253Y-84227401D01*
X161323868Y-84247107D01*
X161336480Y-84268150D01*
X161346970Y-84290329D01*
X161355235Y-84313428D01*
X161361196Y-84337227D01*
X161364796Y-84361495D01*
X161366000Y-84385999D01*
X161366000Y-85286001D01*
X161364796Y-85310505D01*
X161361196Y-85334773D01*
X161355235Y-85358572D01*
X161346970Y-85381671D01*
X161336480Y-85403850D01*
X161323868Y-85424893D01*
X161309253Y-85444599D01*
X161292777Y-85462777D01*
X161274599Y-85479253D01*
X161254893Y-85493868D01*
X161233850Y-85506480D01*
X161211671Y-85516970D01*
X161188572Y-85525235D01*
X161164773Y-85531196D01*
X161140505Y-85534796D01*
X161116001Y-85536000D01*
X160465999Y-85536000D01*
X160441495Y-85534796D01*
X160417227Y-85531196D01*
X160393428Y-85525235D01*
X160370329Y-85516970D01*
X160348150Y-85506480D01*
X160327107Y-85493868D01*
X160307401Y-85479253D01*
X160289223Y-85462777D01*
X160272747Y-85444599D01*
X160258132Y-85424893D01*
X160245520Y-85403850D01*
X160235030Y-85381671D01*
X160226765Y-85358572D01*
X160220804Y-85334773D01*
X160217204Y-85310505D01*
X160216000Y-85286001D01*
X160216000Y-84385999D01*
X160217204Y-84361495D01*
X160220804Y-84337227D01*
X160226765Y-84313428D01*
X160235030Y-84290329D01*
X160245520Y-84268150D01*
X160258132Y-84247107D01*
X160272747Y-84227401D01*
X160289223Y-84209223D01*
X160307401Y-84192747D01*
X160327107Y-84178132D01*
X160348150Y-84165520D01*
X160370329Y-84155030D01*
X160393428Y-84146765D01*
X160417227Y-84140804D01*
X160441495Y-84137204D01*
X160465999Y-84136000D01*
X161116001Y-84136000D01*
X161140505Y-84137204D01*
X161140505Y-84137204D01*
G37*
D20*
X160791000Y-84836000D03*
D18*
G36*
X159090505Y-84137204D02*
G01*
X159114773Y-84140804D01*
X159138572Y-84146765D01*
X159161671Y-84155030D01*
X159183850Y-84165520D01*
X159204893Y-84178132D01*
X159224599Y-84192747D01*
X159242777Y-84209223D01*
X159259253Y-84227401D01*
X159273868Y-84247107D01*
X159286480Y-84268150D01*
X159296970Y-84290329D01*
X159305235Y-84313428D01*
X159311196Y-84337227D01*
X159314796Y-84361495D01*
X159316000Y-84385999D01*
X159316000Y-85286001D01*
X159314796Y-85310505D01*
X159311196Y-85334773D01*
X159305235Y-85358572D01*
X159296970Y-85381671D01*
X159286480Y-85403850D01*
X159273868Y-85424893D01*
X159259253Y-85444599D01*
X159242777Y-85462777D01*
X159224599Y-85479253D01*
X159204893Y-85493868D01*
X159183850Y-85506480D01*
X159161671Y-85516970D01*
X159138572Y-85525235D01*
X159114773Y-85531196D01*
X159090505Y-85534796D01*
X159066001Y-85536000D01*
X158415999Y-85536000D01*
X158391495Y-85534796D01*
X158367227Y-85531196D01*
X158343428Y-85525235D01*
X158320329Y-85516970D01*
X158298150Y-85506480D01*
X158277107Y-85493868D01*
X158257401Y-85479253D01*
X158239223Y-85462777D01*
X158222747Y-85444599D01*
X158208132Y-85424893D01*
X158195520Y-85403850D01*
X158185030Y-85381671D01*
X158176765Y-85358572D01*
X158170804Y-85334773D01*
X158167204Y-85310505D01*
X158166000Y-85286001D01*
X158166000Y-84385999D01*
X158167204Y-84361495D01*
X158170804Y-84337227D01*
X158176765Y-84313428D01*
X158185030Y-84290329D01*
X158195520Y-84268150D01*
X158208132Y-84247107D01*
X158222747Y-84227401D01*
X158239223Y-84209223D01*
X158257401Y-84192747D01*
X158277107Y-84178132D01*
X158298150Y-84165520D01*
X158320329Y-84155030D01*
X158343428Y-84146765D01*
X158367227Y-84140804D01*
X158391495Y-84137204D01*
X158415999Y-84136000D01*
X159066001Y-84136000D01*
X159090505Y-84137204D01*
X159090505Y-84137204D01*
G37*
D20*
X158741000Y-84836000D03*
D18*
G36*
X161140505Y-90233204D02*
G01*
X161164773Y-90236804D01*
X161188572Y-90242765D01*
X161211671Y-90251030D01*
X161233850Y-90261520D01*
X161254893Y-90274132D01*
X161274599Y-90288747D01*
X161292777Y-90305223D01*
X161309253Y-90323401D01*
X161323868Y-90343107D01*
X161336480Y-90364150D01*
X161346970Y-90386329D01*
X161355235Y-90409428D01*
X161361196Y-90433227D01*
X161364796Y-90457495D01*
X161366000Y-90481999D01*
X161366000Y-91382001D01*
X161364796Y-91406505D01*
X161361196Y-91430773D01*
X161355235Y-91454572D01*
X161346970Y-91477671D01*
X161336480Y-91499850D01*
X161323868Y-91520893D01*
X161309253Y-91540599D01*
X161292777Y-91558777D01*
X161274599Y-91575253D01*
X161254893Y-91589868D01*
X161233850Y-91602480D01*
X161211671Y-91612970D01*
X161188572Y-91621235D01*
X161164773Y-91627196D01*
X161140505Y-91630796D01*
X161116001Y-91632000D01*
X160465999Y-91632000D01*
X160441495Y-91630796D01*
X160417227Y-91627196D01*
X160393428Y-91621235D01*
X160370329Y-91612970D01*
X160348150Y-91602480D01*
X160327107Y-91589868D01*
X160307401Y-91575253D01*
X160289223Y-91558777D01*
X160272747Y-91540599D01*
X160258132Y-91520893D01*
X160245520Y-91499850D01*
X160235030Y-91477671D01*
X160226765Y-91454572D01*
X160220804Y-91430773D01*
X160217204Y-91406505D01*
X160216000Y-91382001D01*
X160216000Y-90481999D01*
X160217204Y-90457495D01*
X160220804Y-90433227D01*
X160226765Y-90409428D01*
X160235030Y-90386329D01*
X160245520Y-90364150D01*
X160258132Y-90343107D01*
X160272747Y-90323401D01*
X160289223Y-90305223D01*
X160307401Y-90288747D01*
X160327107Y-90274132D01*
X160348150Y-90261520D01*
X160370329Y-90251030D01*
X160393428Y-90242765D01*
X160417227Y-90236804D01*
X160441495Y-90233204D01*
X160465999Y-90232000D01*
X161116001Y-90232000D01*
X161140505Y-90233204D01*
X161140505Y-90233204D01*
G37*
D20*
X160791000Y-90932000D03*
D18*
G36*
X159090505Y-90233204D02*
G01*
X159114773Y-90236804D01*
X159138572Y-90242765D01*
X159161671Y-90251030D01*
X159183850Y-90261520D01*
X159204893Y-90274132D01*
X159224599Y-90288747D01*
X159242777Y-90305223D01*
X159259253Y-90323401D01*
X159273868Y-90343107D01*
X159286480Y-90364150D01*
X159296970Y-90386329D01*
X159305235Y-90409428D01*
X159311196Y-90433227D01*
X159314796Y-90457495D01*
X159316000Y-90481999D01*
X159316000Y-91382001D01*
X159314796Y-91406505D01*
X159311196Y-91430773D01*
X159305235Y-91454572D01*
X159296970Y-91477671D01*
X159286480Y-91499850D01*
X159273868Y-91520893D01*
X159259253Y-91540599D01*
X159242777Y-91558777D01*
X159224599Y-91575253D01*
X159204893Y-91589868D01*
X159183850Y-91602480D01*
X159161671Y-91612970D01*
X159138572Y-91621235D01*
X159114773Y-91627196D01*
X159090505Y-91630796D01*
X159066001Y-91632000D01*
X158415999Y-91632000D01*
X158391495Y-91630796D01*
X158367227Y-91627196D01*
X158343428Y-91621235D01*
X158320329Y-91612970D01*
X158298150Y-91602480D01*
X158277107Y-91589868D01*
X158257401Y-91575253D01*
X158239223Y-91558777D01*
X158222747Y-91540599D01*
X158208132Y-91520893D01*
X158195520Y-91499850D01*
X158185030Y-91477671D01*
X158176765Y-91454572D01*
X158170804Y-91430773D01*
X158167204Y-91406505D01*
X158166000Y-91382001D01*
X158166000Y-90481999D01*
X158167204Y-90457495D01*
X158170804Y-90433227D01*
X158176765Y-90409428D01*
X158185030Y-90386329D01*
X158195520Y-90364150D01*
X158208132Y-90343107D01*
X158222747Y-90323401D01*
X158239223Y-90305223D01*
X158257401Y-90288747D01*
X158277107Y-90274132D01*
X158298150Y-90261520D01*
X158320329Y-90251030D01*
X158343428Y-90242765D01*
X158367227Y-90236804D01*
X158391495Y-90233204D01*
X158415999Y-90232000D01*
X159066001Y-90232000D01*
X159090505Y-90233204D01*
X159090505Y-90233204D01*
G37*
D20*
X158741000Y-90932000D03*
D18*
G36*
X161140505Y-72961204D02*
G01*
X161164773Y-72964804D01*
X161188572Y-72970765D01*
X161211671Y-72979030D01*
X161233850Y-72989520D01*
X161254893Y-73002132D01*
X161274599Y-73016747D01*
X161292777Y-73033223D01*
X161309253Y-73051401D01*
X161323868Y-73071107D01*
X161336480Y-73092150D01*
X161346970Y-73114329D01*
X161355235Y-73137428D01*
X161361196Y-73161227D01*
X161364796Y-73185495D01*
X161366000Y-73209999D01*
X161366000Y-74110001D01*
X161364796Y-74134505D01*
X161361196Y-74158773D01*
X161355235Y-74182572D01*
X161346970Y-74205671D01*
X161336480Y-74227850D01*
X161323868Y-74248893D01*
X161309253Y-74268599D01*
X161292777Y-74286777D01*
X161274599Y-74303253D01*
X161254893Y-74317868D01*
X161233850Y-74330480D01*
X161211671Y-74340970D01*
X161188572Y-74349235D01*
X161164773Y-74355196D01*
X161140505Y-74358796D01*
X161116001Y-74360000D01*
X160465999Y-74360000D01*
X160441495Y-74358796D01*
X160417227Y-74355196D01*
X160393428Y-74349235D01*
X160370329Y-74340970D01*
X160348150Y-74330480D01*
X160327107Y-74317868D01*
X160307401Y-74303253D01*
X160289223Y-74286777D01*
X160272747Y-74268599D01*
X160258132Y-74248893D01*
X160245520Y-74227850D01*
X160235030Y-74205671D01*
X160226765Y-74182572D01*
X160220804Y-74158773D01*
X160217204Y-74134505D01*
X160216000Y-74110001D01*
X160216000Y-73209999D01*
X160217204Y-73185495D01*
X160220804Y-73161227D01*
X160226765Y-73137428D01*
X160235030Y-73114329D01*
X160245520Y-73092150D01*
X160258132Y-73071107D01*
X160272747Y-73051401D01*
X160289223Y-73033223D01*
X160307401Y-73016747D01*
X160327107Y-73002132D01*
X160348150Y-72989520D01*
X160370329Y-72979030D01*
X160393428Y-72970765D01*
X160417227Y-72964804D01*
X160441495Y-72961204D01*
X160465999Y-72960000D01*
X161116001Y-72960000D01*
X161140505Y-72961204D01*
X161140505Y-72961204D01*
G37*
D20*
X160791000Y-73660000D03*
D18*
G36*
X159090505Y-72961204D02*
G01*
X159114773Y-72964804D01*
X159138572Y-72970765D01*
X159161671Y-72979030D01*
X159183850Y-72989520D01*
X159204893Y-73002132D01*
X159224599Y-73016747D01*
X159242777Y-73033223D01*
X159259253Y-73051401D01*
X159273868Y-73071107D01*
X159286480Y-73092150D01*
X159296970Y-73114329D01*
X159305235Y-73137428D01*
X159311196Y-73161227D01*
X159314796Y-73185495D01*
X159316000Y-73209999D01*
X159316000Y-74110001D01*
X159314796Y-74134505D01*
X159311196Y-74158773D01*
X159305235Y-74182572D01*
X159296970Y-74205671D01*
X159286480Y-74227850D01*
X159273868Y-74248893D01*
X159259253Y-74268599D01*
X159242777Y-74286777D01*
X159224599Y-74303253D01*
X159204893Y-74317868D01*
X159183850Y-74330480D01*
X159161671Y-74340970D01*
X159138572Y-74349235D01*
X159114773Y-74355196D01*
X159090505Y-74358796D01*
X159066001Y-74360000D01*
X158415999Y-74360000D01*
X158391495Y-74358796D01*
X158367227Y-74355196D01*
X158343428Y-74349235D01*
X158320329Y-74340970D01*
X158298150Y-74330480D01*
X158277107Y-74317868D01*
X158257401Y-74303253D01*
X158239223Y-74286777D01*
X158222747Y-74268599D01*
X158208132Y-74248893D01*
X158195520Y-74227850D01*
X158185030Y-74205671D01*
X158176765Y-74182572D01*
X158170804Y-74158773D01*
X158167204Y-74134505D01*
X158166000Y-74110001D01*
X158166000Y-73209999D01*
X158167204Y-73185495D01*
X158170804Y-73161227D01*
X158176765Y-73137428D01*
X158185030Y-73114329D01*
X158195520Y-73092150D01*
X158208132Y-73071107D01*
X158222747Y-73051401D01*
X158239223Y-73033223D01*
X158257401Y-73016747D01*
X158277107Y-73002132D01*
X158298150Y-72989520D01*
X158320329Y-72979030D01*
X158343428Y-72970765D01*
X158367227Y-72964804D01*
X158391495Y-72961204D01*
X158415999Y-72960000D01*
X159066001Y-72960000D01*
X159090505Y-72961204D01*
X159090505Y-72961204D01*
G37*
D20*
X158741000Y-73660000D03*
D18*
G36*
X161131505Y-79057204D02*
G01*
X161155773Y-79060804D01*
X161179572Y-79066765D01*
X161202671Y-79075030D01*
X161224850Y-79085520D01*
X161245893Y-79098132D01*
X161265599Y-79112747D01*
X161283777Y-79129223D01*
X161300253Y-79147401D01*
X161314868Y-79167107D01*
X161327480Y-79188150D01*
X161337970Y-79210329D01*
X161346235Y-79233428D01*
X161352196Y-79257227D01*
X161355796Y-79281495D01*
X161357000Y-79305999D01*
X161357000Y-80206001D01*
X161355796Y-80230505D01*
X161352196Y-80254773D01*
X161346235Y-80278572D01*
X161337970Y-80301671D01*
X161327480Y-80323850D01*
X161314868Y-80344893D01*
X161300253Y-80364599D01*
X161283777Y-80382777D01*
X161265599Y-80399253D01*
X161245893Y-80413868D01*
X161224850Y-80426480D01*
X161202671Y-80436970D01*
X161179572Y-80445235D01*
X161155773Y-80451196D01*
X161131505Y-80454796D01*
X161107001Y-80456000D01*
X160456999Y-80456000D01*
X160432495Y-80454796D01*
X160408227Y-80451196D01*
X160384428Y-80445235D01*
X160361329Y-80436970D01*
X160339150Y-80426480D01*
X160318107Y-80413868D01*
X160298401Y-80399253D01*
X160280223Y-80382777D01*
X160263747Y-80364599D01*
X160249132Y-80344893D01*
X160236520Y-80323850D01*
X160226030Y-80301671D01*
X160217765Y-80278572D01*
X160211804Y-80254773D01*
X160208204Y-80230505D01*
X160207000Y-80206001D01*
X160207000Y-79305999D01*
X160208204Y-79281495D01*
X160211804Y-79257227D01*
X160217765Y-79233428D01*
X160226030Y-79210329D01*
X160236520Y-79188150D01*
X160249132Y-79167107D01*
X160263747Y-79147401D01*
X160280223Y-79129223D01*
X160298401Y-79112747D01*
X160318107Y-79098132D01*
X160339150Y-79085520D01*
X160361329Y-79075030D01*
X160384428Y-79066765D01*
X160408227Y-79060804D01*
X160432495Y-79057204D01*
X160456999Y-79056000D01*
X161107001Y-79056000D01*
X161131505Y-79057204D01*
X161131505Y-79057204D01*
G37*
D20*
X160782000Y-79756000D03*
D18*
G36*
X159081505Y-79057204D02*
G01*
X159105773Y-79060804D01*
X159129572Y-79066765D01*
X159152671Y-79075030D01*
X159174850Y-79085520D01*
X159195893Y-79098132D01*
X159215599Y-79112747D01*
X159233777Y-79129223D01*
X159250253Y-79147401D01*
X159264868Y-79167107D01*
X159277480Y-79188150D01*
X159287970Y-79210329D01*
X159296235Y-79233428D01*
X159302196Y-79257227D01*
X159305796Y-79281495D01*
X159307000Y-79305999D01*
X159307000Y-80206001D01*
X159305796Y-80230505D01*
X159302196Y-80254773D01*
X159296235Y-80278572D01*
X159287970Y-80301671D01*
X159277480Y-80323850D01*
X159264868Y-80344893D01*
X159250253Y-80364599D01*
X159233777Y-80382777D01*
X159215599Y-80399253D01*
X159195893Y-80413868D01*
X159174850Y-80426480D01*
X159152671Y-80436970D01*
X159129572Y-80445235D01*
X159105773Y-80451196D01*
X159081505Y-80454796D01*
X159057001Y-80456000D01*
X158406999Y-80456000D01*
X158382495Y-80454796D01*
X158358227Y-80451196D01*
X158334428Y-80445235D01*
X158311329Y-80436970D01*
X158289150Y-80426480D01*
X158268107Y-80413868D01*
X158248401Y-80399253D01*
X158230223Y-80382777D01*
X158213747Y-80364599D01*
X158199132Y-80344893D01*
X158186520Y-80323850D01*
X158176030Y-80301671D01*
X158167765Y-80278572D01*
X158161804Y-80254773D01*
X158158204Y-80230505D01*
X158157000Y-80206001D01*
X158157000Y-79305999D01*
X158158204Y-79281495D01*
X158161804Y-79257227D01*
X158167765Y-79233428D01*
X158176030Y-79210329D01*
X158186520Y-79188150D01*
X158199132Y-79167107D01*
X158213747Y-79147401D01*
X158230223Y-79129223D01*
X158248401Y-79112747D01*
X158268107Y-79098132D01*
X158289150Y-79085520D01*
X158311329Y-79075030D01*
X158334428Y-79066765D01*
X158358227Y-79060804D01*
X158382495Y-79057204D01*
X158406999Y-79056000D01*
X159057001Y-79056000D01*
X159081505Y-79057204D01*
X159081505Y-79057204D01*
G37*
D20*
X158732000Y-79756000D03*
D18*
G36*
X146016505Y-92127204D02*
G01*
X146040773Y-92130804D01*
X146064572Y-92136765D01*
X146087671Y-92145030D01*
X146109850Y-92155520D01*
X146130893Y-92168132D01*
X146150599Y-92182747D01*
X146168777Y-92199223D01*
X146185253Y-92217401D01*
X146199868Y-92237107D01*
X146212480Y-92258150D01*
X146222970Y-92280329D01*
X146231235Y-92303428D01*
X146237196Y-92327227D01*
X146240796Y-92351495D01*
X146242000Y-92375999D01*
X146242000Y-93026001D01*
X146240796Y-93050505D01*
X146237196Y-93074773D01*
X146231235Y-93098572D01*
X146222970Y-93121671D01*
X146212480Y-93143850D01*
X146199868Y-93164893D01*
X146185253Y-93184599D01*
X146168777Y-93202777D01*
X146150599Y-93219253D01*
X146130893Y-93233868D01*
X146109850Y-93246480D01*
X146087671Y-93256970D01*
X146064572Y-93265235D01*
X146040773Y-93271196D01*
X146016505Y-93274796D01*
X145992001Y-93276000D01*
X145091999Y-93276000D01*
X145067495Y-93274796D01*
X145043227Y-93271196D01*
X145019428Y-93265235D01*
X144996329Y-93256970D01*
X144974150Y-93246480D01*
X144953107Y-93233868D01*
X144933401Y-93219253D01*
X144915223Y-93202777D01*
X144898747Y-93184599D01*
X144884132Y-93164893D01*
X144871520Y-93143850D01*
X144861030Y-93121671D01*
X144852765Y-93098572D01*
X144846804Y-93074773D01*
X144843204Y-93050505D01*
X144842000Y-93026001D01*
X144842000Y-92375999D01*
X144843204Y-92351495D01*
X144846804Y-92327227D01*
X144852765Y-92303428D01*
X144861030Y-92280329D01*
X144871520Y-92258150D01*
X144884132Y-92237107D01*
X144898747Y-92217401D01*
X144915223Y-92199223D01*
X144933401Y-92182747D01*
X144953107Y-92168132D01*
X144974150Y-92155520D01*
X144996329Y-92145030D01*
X145019428Y-92136765D01*
X145043227Y-92130804D01*
X145067495Y-92127204D01*
X145091999Y-92126000D01*
X145992001Y-92126000D01*
X146016505Y-92127204D01*
X146016505Y-92127204D01*
G37*
D20*
X145542000Y-92701000D03*
D18*
G36*
X146016505Y-94177204D02*
G01*
X146040773Y-94180804D01*
X146064572Y-94186765D01*
X146087671Y-94195030D01*
X146109850Y-94205520D01*
X146130893Y-94218132D01*
X146150599Y-94232747D01*
X146168777Y-94249223D01*
X146185253Y-94267401D01*
X146199868Y-94287107D01*
X146212480Y-94308150D01*
X146222970Y-94330329D01*
X146231235Y-94353428D01*
X146237196Y-94377227D01*
X146240796Y-94401495D01*
X146242000Y-94425999D01*
X146242000Y-95076001D01*
X146240796Y-95100505D01*
X146237196Y-95124773D01*
X146231235Y-95148572D01*
X146222970Y-95171671D01*
X146212480Y-95193850D01*
X146199868Y-95214893D01*
X146185253Y-95234599D01*
X146168777Y-95252777D01*
X146150599Y-95269253D01*
X146130893Y-95283868D01*
X146109850Y-95296480D01*
X146087671Y-95306970D01*
X146064572Y-95315235D01*
X146040773Y-95321196D01*
X146016505Y-95324796D01*
X145992001Y-95326000D01*
X145091999Y-95326000D01*
X145067495Y-95324796D01*
X145043227Y-95321196D01*
X145019428Y-95315235D01*
X144996329Y-95306970D01*
X144974150Y-95296480D01*
X144953107Y-95283868D01*
X144933401Y-95269253D01*
X144915223Y-95252777D01*
X144898747Y-95234599D01*
X144884132Y-95214893D01*
X144871520Y-95193850D01*
X144861030Y-95171671D01*
X144852765Y-95148572D01*
X144846804Y-95124773D01*
X144843204Y-95100505D01*
X144842000Y-95076001D01*
X144842000Y-94425999D01*
X144843204Y-94401495D01*
X144846804Y-94377227D01*
X144852765Y-94353428D01*
X144861030Y-94330329D01*
X144871520Y-94308150D01*
X144884132Y-94287107D01*
X144898747Y-94267401D01*
X144915223Y-94249223D01*
X144933401Y-94232747D01*
X144953107Y-94218132D01*
X144974150Y-94205520D01*
X144996329Y-94195030D01*
X145019428Y-94186765D01*
X145043227Y-94180804D01*
X145067495Y-94177204D01*
X145091999Y-94176000D01*
X145992001Y-94176000D01*
X146016505Y-94177204D01*
X146016505Y-94177204D01*
G37*
D20*
X145542000Y-94751000D03*
D18*
G36*
X157192505Y-99511204D02*
G01*
X157216773Y-99514804D01*
X157240572Y-99520765D01*
X157263671Y-99529030D01*
X157285850Y-99539520D01*
X157306893Y-99552132D01*
X157326599Y-99566747D01*
X157344777Y-99583223D01*
X157361253Y-99601401D01*
X157375868Y-99621107D01*
X157388480Y-99642150D01*
X157398970Y-99664329D01*
X157407235Y-99687428D01*
X157413196Y-99711227D01*
X157416796Y-99735495D01*
X157418000Y-99759999D01*
X157418000Y-100410001D01*
X157416796Y-100434505D01*
X157413196Y-100458773D01*
X157407235Y-100482572D01*
X157398970Y-100505671D01*
X157388480Y-100527850D01*
X157375868Y-100548893D01*
X157361253Y-100568599D01*
X157344777Y-100586777D01*
X157326599Y-100603253D01*
X157306893Y-100617868D01*
X157285850Y-100630480D01*
X157263671Y-100640970D01*
X157240572Y-100649235D01*
X157216773Y-100655196D01*
X157192505Y-100658796D01*
X157168001Y-100660000D01*
X156267999Y-100660000D01*
X156243495Y-100658796D01*
X156219227Y-100655196D01*
X156195428Y-100649235D01*
X156172329Y-100640970D01*
X156150150Y-100630480D01*
X156129107Y-100617868D01*
X156109401Y-100603253D01*
X156091223Y-100586777D01*
X156074747Y-100568599D01*
X156060132Y-100548893D01*
X156047520Y-100527850D01*
X156037030Y-100505671D01*
X156028765Y-100482572D01*
X156022804Y-100458773D01*
X156019204Y-100434505D01*
X156018000Y-100410001D01*
X156018000Y-99759999D01*
X156019204Y-99735495D01*
X156022804Y-99711227D01*
X156028765Y-99687428D01*
X156037030Y-99664329D01*
X156047520Y-99642150D01*
X156060132Y-99621107D01*
X156074747Y-99601401D01*
X156091223Y-99583223D01*
X156109401Y-99566747D01*
X156129107Y-99552132D01*
X156150150Y-99539520D01*
X156172329Y-99529030D01*
X156195428Y-99520765D01*
X156219227Y-99514804D01*
X156243495Y-99511204D01*
X156267999Y-99510000D01*
X157168001Y-99510000D01*
X157192505Y-99511204D01*
X157192505Y-99511204D01*
G37*
D20*
X156718000Y-100085000D03*
D18*
G36*
X157192505Y-97461204D02*
G01*
X157216773Y-97464804D01*
X157240572Y-97470765D01*
X157263671Y-97479030D01*
X157285850Y-97489520D01*
X157306893Y-97502132D01*
X157326599Y-97516747D01*
X157344777Y-97533223D01*
X157361253Y-97551401D01*
X157375868Y-97571107D01*
X157388480Y-97592150D01*
X157398970Y-97614329D01*
X157407235Y-97637428D01*
X157413196Y-97661227D01*
X157416796Y-97685495D01*
X157418000Y-97709999D01*
X157418000Y-98360001D01*
X157416796Y-98384505D01*
X157413196Y-98408773D01*
X157407235Y-98432572D01*
X157398970Y-98455671D01*
X157388480Y-98477850D01*
X157375868Y-98498893D01*
X157361253Y-98518599D01*
X157344777Y-98536777D01*
X157326599Y-98553253D01*
X157306893Y-98567868D01*
X157285850Y-98580480D01*
X157263671Y-98590970D01*
X157240572Y-98599235D01*
X157216773Y-98605196D01*
X157192505Y-98608796D01*
X157168001Y-98610000D01*
X156267999Y-98610000D01*
X156243495Y-98608796D01*
X156219227Y-98605196D01*
X156195428Y-98599235D01*
X156172329Y-98590970D01*
X156150150Y-98580480D01*
X156129107Y-98567868D01*
X156109401Y-98553253D01*
X156091223Y-98536777D01*
X156074747Y-98518599D01*
X156060132Y-98498893D01*
X156047520Y-98477850D01*
X156037030Y-98455671D01*
X156028765Y-98432572D01*
X156022804Y-98408773D01*
X156019204Y-98384505D01*
X156018000Y-98360001D01*
X156018000Y-97709999D01*
X156019204Y-97685495D01*
X156022804Y-97661227D01*
X156028765Y-97637428D01*
X156037030Y-97614329D01*
X156047520Y-97592150D01*
X156060132Y-97571107D01*
X156074747Y-97551401D01*
X156091223Y-97533223D01*
X156109401Y-97516747D01*
X156129107Y-97502132D01*
X156150150Y-97489520D01*
X156172329Y-97479030D01*
X156195428Y-97470765D01*
X156219227Y-97464804D01*
X156243495Y-97461204D01*
X156267999Y-97460000D01*
X157168001Y-97460000D01*
X157192505Y-97461204D01*
X157192505Y-97461204D01*
G37*
D20*
X156718000Y-98035000D03*
D18*
G36*
X157192505Y-110687204D02*
G01*
X157216773Y-110690804D01*
X157240572Y-110696765D01*
X157263671Y-110705030D01*
X157285850Y-110715520D01*
X157306893Y-110728132D01*
X157326599Y-110742747D01*
X157344777Y-110759223D01*
X157361253Y-110777401D01*
X157375868Y-110797107D01*
X157388480Y-110818150D01*
X157398970Y-110840329D01*
X157407235Y-110863428D01*
X157413196Y-110887227D01*
X157416796Y-110911495D01*
X157418000Y-110935999D01*
X157418000Y-111586001D01*
X157416796Y-111610505D01*
X157413196Y-111634773D01*
X157407235Y-111658572D01*
X157398970Y-111681671D01*
X157388480Y-111703850D01*
X157375868Y-111724893D01*
X157361253Y-111744599D01*
X157344777Y-111762777D01*
X157326599Y-111779253D01*
X157306893Y-111793868D01*
X157285850Y-111806480D01*
X157263671Y-111816970D01*
X157240572Y-111825235D01*
X157216773Y-111831196D01*
X157192505Y-111834796D01*
X157168001Y-111836000D01*
X156267999Y-111836000D01*
X156243495Y-111834796D01*
X156219227Y-111831196D01*
X156195428Y-111825235D01*
X156172329Y-111816970D01*
X156150150Y-111806480D01*
X156129107Y-111793868D01*
X156109401Y-111779253D01*
X156091223Y-111762777D01*
X156074747Y-111744599D01*
X156060132Y-111724893D01*
X156047520Y-111703850D01*
X156037030Y-111681671D01*
X156028765Y-111658572D01*
X156022804Y-111634773D01*
X156019204Y-111610505D01*
X156018000Y-111586001D01*
X156018000Y-110935999D01*
X156019204Y-110911495D01*
X156022804Y-110887227D01*
X156028765Y-110863428D01*
X156037030Y-110840329D01*
X156047520Y-110818150D01*
X156060132Y-110797107D01*
X156074747Y-110777401D01*
X156091223Y-110759223D01*
X156109401Y-110742747D01*
X156129107Y-110728132D01*
X156150150Y-110715520D01*
X156172329Y-110705030D01*
X156195428Y-110696765D01*
X156219227Y-110690804D01*
X156243495Y-110687204D01*
X156267999Y-110686000D01*
X157168001Y-110686000D01*
X157192505Y-110687204D01*
X157192505Y-110687204D01*
G37*
D20*
X156718000Y-111261000D03*
D18*
G36*
X157192505Y-108637204D02*
G01*
X157216773Y-108640804D01*
X157240572Y-108646765D01*
X157263671Y-108655030D01*
X157285850Y-108665520D01*
X157306893Y-108678132D01*
X157326599Y-108692747D01*
X157344777Y-108709223D01*
X157361253Y-108727401D01*
X157375868Y-108747107D01*
X157388480Y-108768150D01*
X157398970Y-108790329D01*
X157407235Y-108813428D01*
X157413196Y-108837227D01*
X157416796Y-108861495D01*
X157418000Y-108885999D01*
X157418000Y-109536001D01*
X157416796Y-109560505D01*
X157413196Y-109584773D01*
X157407235Y-109608572D01*
X157398970Y-109631671D01*
X157388480Y-109653850D01*
X157375868Y-109674893D01*
X157361253Y-109694599D01*
X157344777Y-109712777D01*
X157326599Y-109729253D01*
X157306893Y-109743868D01*
X157285850Y-109756480D01*
X157263671Y-109766970D01*
X157240572Y-109775235D01*
X157216773Y-109781196D01*
X157192505Y-109784796D01*
X157168001Y-109786000D01*
X156267999Y-109786000D01*
X156243495Y-109784796D01*
X156219227Y-109781196D01*
X156195428Y-109775235D01*
X156172329Y-109766970D01*
X156150150Y-109756480D01*
X156129107Y-109743868D01*
X156109401Y-109729253D01*
X156091223Y-109712777D01*
X156074747Y-109694599D01*
X156060132Y-109674893D01*
X156047520Y-109653850D01*
X156037030Y-109631671D01*
X156028765Y-109608572D01*
X156022804Y-109584773D01*
X156019204Y-109560505D01*
X156018000Y-109536001D01*
X156018000Y-108885999D01*
X156019204Y-108861495D01*
X156022804Y-108837227D01*
X156028765Y-108813428D01*
X156037030Y-108790329D01*
X156047520Y-108768150D01*
X156060132Y-108747107D01*
X156074747Y-108727401D01*
X156091223Y-108709223D01*
X156109401Y-108692747D01*
X156129107Y-108678132D01*
X156150150Y-108665520D01*
X156172329Y-108655030D01*
X156195428Y-108646765D01*
X156219227Y-108640804D01*
X156243495Y-108637204D01*
X156267999Y-108636000D01*
X157168001Y-108636000D01*
X157192505Y-108637204D01*
X157192505Y-108637204D01*
G37*
D20*
X156718000Y-109211000D03*
D18*
G36*
X157192505Y-88335204D02*
G01*
X157216773Y-88338804D01*
X157240572Y-88344765D01*
X157263671Y-88353030D01*
X157285850Y-88363520D01*
X157306893Y-88376132D01*
X157326599Y-88390747D01*
X157344777Y-88407223D01*
X157361253Y-88425401D01*
X157375868Y-88445107D01*
X157388480Y-88466150D01*
X157398970Y-88488329D01*
X157407235Y-88511428D01*
X157413196Y-88535227D01*
X157416796Y-88559495D01*
X157418000Y-88583999D01*
X157418000Y-89234001D01*
X157416796Y-89258505D01*
X157413196Y-89282773D01*
X157407235Y-89306572D01*
X157398970Y-89329671D01*
X157388480Y-89351850D01*
X157375868Y-89372893D01*
X157361253Y-89392599D01*
X157344777Y-89410777D01*
X157326599Y-89427253D01*
X157306893Y-89441868D01*
X157285850Y-89454480D01*
X157263671Y-89464970D01*
X157240572Y-89473235D01*
X157216773Y-89479196D01*
X157192505Y-89482796D01*
X157168001Y-89484000D01*
X156267999Y-89484000D01*
X156243495Y-89482796D01*
X156219227Y-89479196D01*
X156195428Y-89473235D01*
X156172329Y-89464970D01*
X156150150Y-89454480D01*
X156129107Y-89441868D01*
X156109401Y-89427253D01*
X156091223Y-89410777D01*
X156074747Y-89392599D01*
X156060132Y-89372893D01*
X156047520Y-89351850D01*
X156037030Y-89329671D01*
X156028765Y-89306572D01*
X156022804Y-89282773D01*
X156019204Y-89258505D01*
X156018000Y-89234001D01*
X156018000Y-88583999D01*
X156019204Y-88559495D01*
X156022804Y-88535227D01*
X156028765Y-88511428D01*
X156037030Y-88488329D01*
X156047520Y-88466150D01*
X156060132Y-88445107D01*
X156074747Y-88425401D01*
X156091223Y-88407223D01*
X156109401Y-88390747D01*
X156129107Y-88376132D01*
X156150150Y-88363520D01*
X156172329Y-88353030D01*
X156195428Y-88344765D01*
X156219227Y-88338804D01*
X156243495Y-88335204D01*
X156267999Y-88334000D01*
X157168001Y-88334000D01*
X157192505Y-88335204D01*
X157192505Y-88335204D01*
G37*
D20*
X156718000Y-88909000D03*
D18*
G36*
X157192505Y-86285204D02*
G01*
X157216773Y-86288804D01*
X157240572Y-86294765D01*
X157263671Y-86303030D01*
X157285850Y-86313520D01*
X157306893Y-86326132D01*
X157326599Y-86340747D01*
X157344777Y-86357223D01*
X157361253Y-86375401D01*
X157375868Y-86395107D01*
X157388480Y-86416150D01*
X157398970Y-86438329D01*
X157407235Y-86461428D01*
X157413196Y-86485227D01*
X157416796Y-86509495D01*
X157418000Y-86533999D01*
X157418000Y-87184001D01*
X157416796Y-87208505D01*
X157413196Y-87232773D01*
X157407235Y-87256572D01*
X157398970Y-87279671D01*
X157388480Y-87301850D01*
X157375868Y-87322893D01*
X157361253Y-87342599D01*
X157344777Y-87360777D01*
X157326599Y-87377253D01*
X157306893Y-87391868D01*
X157285850Y-87404480D01*
X157263671Y-87414970D01*
X157240572Y-87423235D01*
X157216773Y-87429196D01*
X157192505Y-87432796D01*
X157168001Y-87434000D01*
X156267999Y-87434000D01*
X156243495Y-87432796D01*
X156219227Y-87429196D01*
X156195428Y-87423235D01*
X156172329Y-87414970D01*
X156150150Y-87404480D01*
X156129107Y-87391868D01*
X156109401Y-87377253D01*
X156091223Y-87360777D01*
X156074747Y-87342599D01*
X156060132Y-87322893D01*
X156047520Y-87301850D01*
X156037030Y-87279671D01*
X156028765Y-87256572D01*
X156022804Y-87232773D01*
X156019204Y-87208505D01*
X156018000Y-87184001D01*
X156018000Y-86533999D01*
X156019204Y-86509495D01*
X156022804Y-86485227D01*
X156028765Y-86461428D01*
X156037030Y-86438329D01*
X156047520Y-86416150D01*
X156060132Y-86395107D01*
X156074747Y-86375401D01*
X156091223Y-86357223D01*
X156109401Y-86340747D01*
X156129107Y-86326132D01*
X156150150Y-86313520D01*
X156172329Y-86303030D01*
X156195428Y-86294765D01*
X156219227Y-86288804D01*
X156243495Y-86285204D01*
X156267999Y-86284000D01*
X157168001Y-86284000D01*
X157192505Y-86285204D01*
X157192505Y-86285204D01*
G37*
D20*
X156718000Y-86859000D03*
D18*
G36*
X157192505Y-76905204D02*
G01*
X157216773Y-76908804D01*
X157240572Y-76914765D01*
X157263671Y-76923030D01*
X157285850Y-76933520D01*
X157306893Y-76946132D01*
X157326599Y-76960747D01*
X157344777Y-76977223D01*
X157361253Y-76995401D01*
X157375868Y-77015107D01*
X157388480Y-77036150D01*
X157398970Y-77058329D01*
X157407235Y-77081428D01*
X157413196Y-77105227D01*
X157416796Y-77129495D01*
X157418000Y-77153999D01*
X157418000Y-77804001D01*
X157416796Y-77828505D01*
X157413196Y-77852773D01*
X157407235Y-77876572D01*
X157398970Y-77899671D01*
X157388480Y-77921850D01*
X157375868Y-77942893D01*
X157361253Y-77962599D01*
X157344777Y-77980777D01*
X157326599Y-77997253D01*
X157306893Y-78011868D01*
X157285850Y-78024480D01*
X157263671Y-78034970D01*
X157240572Y-78043235D01*
X157216773Y-78049196D01*
X157192505Y-78052796D01*
X157168001Y-78054000D01*
X156267999Y-78054000D01*
X156243495Y-78052796D01*
X156219227Y-78049196D01*
X156195428Y-78043235D01*
X156172329Y-78034970D01*
X156150150Y-78024480D01*
X156129107Y-78011868D01*
X156109401Y-77997253D01*
X156091223Y-77980777D01*
X156074747Y-77962599D01*
X156060132Y-77942893D01*
X156047520Y-77921850D01*
X156037030Y-77899671D01*
X156028765Y-77876572D01*
X156022804Y-77852773D01*
X156019204Y-77828505D01*
X156018000Y-77804001D01*
X156018000Y-77153999D01*
X156019204Y-77129495D01*
X156022804Y-77105227D01*
X156028765Y-77081428D01*
X156037030Y-77058329D01*
X156047520Y-77036150D01*
X156060132Y-77015107D01*
X156074747Y-76995401D01*
X156091223Y-76977223D01*
X156109401Y-76960747D01*
X156129107Y-76946132D01*
X156150150Y-76933520D01*
X156172329Y-76923030D01*
X156195428Y-76914765D01*
X156219227Y-76908804D01*
X156243495Y-76905204D01*
X156267999Y-76904000D01*
X157168001Y-76904000D01*
X157192505Y-76905204D01*
X157192505Y-76905204D01*
G37*
D20*
X156718000Y-77479000D03*
D18*
G36*
X157192505Y-74855204D02*
G01*
X157216773Y-74858804D01*
X157240572Y-74864765D01*
X157263671Y-74873030D01*
X157285850Y-74883520D01*
X157306893Y-74896132D01*
X157326599Y-74910747D01*
X157344777Y-74927223D01*
X157361253Y-74945401D01*
X157375868Y-74965107D01*
X157388480Y-74986150D01*
X157398970Y-75008329D01*
X157407235Y-75031428D01*
X157413196Y-75055227D01*
X157416796Y-75079495D01*
X157418000Y-75103999D01*
X157418000Y-75754001D01*
X157416796Y-75778505D01*
X157413196Y-75802773D01*
X157407235Y-75826572D01*
X157398970Y-75849671D01*
X157388480Y-75871850D01*
X157375868Y-75892893D01*
X157361253Y-75912599D01*
X157344777Y-75930777D01*
X157326599Y-75947253D01*
X157306893Y-75961868D01*
X157285850Y-75974480D01*
X157263671Y-75984970D01*
X157240572Y-75993235D01*
X157216773Y-75999196D01*
X157192505Y-76002796D01*
X157168001Y-76004000D01*
X156267999Y-76004000D01*
X156243495Y-76002796D01*
X156219227Y-75999196D01*
X156195428Y-75993235D01*
X156172329Y-75984970D01*
X156150150Y-75974480D01*
X156129107Y-75961868D01*
X156109401Y-75947253D01*
X156091223Y-75930777D01*
X156074747Y-75912599D01*
X156060132Y-75892893D01*
X156047520Y-75871850D01*
X156037030Y-75849671D01*
X156028765Y-75826572D01*
X156022804Y-75802773D01*
X156019204Y-75778505D01*
X156018000Y-75754001D01*
X156018000Y-75103999D01*
X156019204Y-75079495D01*
X156022804Y-75055227D01*
X156028765Y-75031428D01*
X156037030Y-75008329D01*
X156047520Y-74986150D01*
X156060132Y-74965107D01*
X156074747Y-74945401D01*
X156091223Y-74927223D01*
X156109401Y-74910747D01*
X156129107Y-74896132D01*
X156150150Y-74883520D01*
X156172329Y-74873030D01*
X156195428Y-74864765D01*
X156219227Y-74858804D01*
X156243495Y-74855204D01*
X156267999Y-74854000D01*
X157168001Y-74854000D01*
X157192505Y-74855204D01*
X157192505Y-74855204D01*
G37*
D20*
X156718000Y-75429000D03*
M02*
